<svg width="80" height="80" viewBox="0 0 80 80" fill="none" xmlns="http://www.w3.org/2000/svg">
<rect x="0.5" y="0.5" width="79" height="79" rx="1.5" fill="white" stroke="#CBD2DA" stroke-dasharray="4 4"/>
<path fill-rule="evenodd" clip-rule="evenodd" d="M41.5 29.5C41.5 28.6716 40.8284 28 40 28C39.1716 28 38.5 28.6716 38.5 29.5V38.5H29.5C28.6716 38.5 28 39.1716 28 40C28 40.8284 28.6716 41.5 29.5 41.5H38.5V50.5C38.5 51.3284 39.1716 52 40 52C40.8284 52 41.5 51.3284 41.5 50.5V41.5H50.5C51.3284 41.5 52 40.8284 52 40C52 39.1716 51.3284 38.5 50.5 38.5H41.5V29.5Z" fill="#CBD2DA"/>
</svg>
