<svg width="80" height="80" viewBox="0 0 80 80" fill="none" xmlns="http://www.w3.org/2000/svg">
<rect width="80" height="80" rx="2" fill="#F5F7FA"/>
<mask id="mask0" mask-type="alpha" maskUnits="userSpaceOnUse" x="0" y="0" width="80" height="80">
<rect width="80" height="80" rx="2" fill="white"/>
</mask>
<g mask="url(#mask0)">
<path fill-rule="evenodd" clip-rule="evenodd" d="M37.8607 23.5416C36.774 22.9627 35.3662 22.9127 34.182 23.0916C31.9585 23.4284 29.9981 24.7284 28.3614 26.2151C27.5404 26.9598 26.7851 27.7755 26.0931 28.6413C22.7012 32.8831 20.3882 37.888 19.3672 43.2114C18.562 47.4111 18.912 52.4739 22.1354 55.6185C23.6722 57.1184 25.0747 57.2894 26.4325 56.6394C26.4404 56.6421 26.4477 56.6454 26.4549 56.6487L26.455 56.6487C26.4622 56.652 26.4694 56.6552 26.4773 56.6579L26.4562 56.6263L26.3931 56.621C25.4694 56.2421 25.0353 55.4579 24.9668 54.3922C24.8511 52.5318 25.8457 49.8241 27.2825 46.9664C29.6394 42.278 32.7325 37.9062 35.7777 33.6022L35.7783 33.6014C36.211 32.9898 36.6428 32.3796 37.0713 31.77C37.6739 30.9122 38.1581 30.0333 38.6291 29.0939C39.2738 27.794 39.9369 26.1546 39.1422 24.7652C38.8265 24.2152 38.3791 23.8179 37.8607 23.5416ZM57.8224 56.8504C59.857 56.8504 61.5064 55.201 61.5064 53.1664C61.5064 51.1318 59.857 49.4824 57.8224 49.4824C55.7878 49.4824 54.1384 51.1318 54.1384 53.1664C54.1384 55.201 55.7878 56.8504 57.8224 56.8504ZM46.9336 55.2735C49.2703 53.2315 50.9544 50.3291 52.0464 47.4582C53.1016 44.69 54.291 40.9139 52.5569 38.1667C52.2359 37.6641 51.8148 37.2247 51.3386 36.8616C50.9623 36.5774 50.5491 36.3405 50.1202 36.1511C46.8178 34.7196 42.9102 35.98 39.8998 37.551C38.7168 38.1698 37.5836 38.8732 36.4501 39.5768C35.9977 39.8576 35.5453 40.1385 35.0896 40.414C34.9727 40.485 34.8486 40.5633 34.7187 40.6452C33.8717 41.1793 32.7777 41.8692 31.824 41.7323C31.6609 41.7086 31.5135 41.6586 31.3767 41.5691C31.4057 41.6507 31.4478 41.7323 31.4899 41.8086C31.8214 42.4375 32.4003 42.9085 33.0477 43.1848C34.0107 43.598 35.1423 43.6506 36.1659 43.4743C37.4103 43.259 38.6567 42.8603 39.8708 42.472C40.0815 42.4046 40.2912 42.3375 40.4998 42.2717C40.6566 42.2221 40.8144 42.1692 40.9732 42.116C41.9175 41.7996 42.8949 41.4721 43.8838 41.756C43.8996 41.7599 43.9154 41.7658 43.9311 41.7718C43.9469 41.7777 43.9627 41.7836 43.9785 41.7876C44.0864 41.8297 44.1864 41.8744 44.2811 41.9375C44.3172 41.9601 44.3514 41.9846 44.3837 42.0077C44.389 42.0116 44.3943 42.0154 44.3995 42.0191C44.4311 42.0428 44.4627 42.0691 44.489 42.0928C44.5574 42.1612 44.6127 42.2244 44.6522 42.2796C44.7074 42.348 44.7416 42.4059 44.7653 42.4559C44.7817 42.4839 44.7918 42.5078 44.7994 42.5257C44.8003 42.528 44.8013 42.5302 44.8021 42.5322C44.8048 42.5388 44.8081 42.5454 44.8114 42.552C44.8146 42.5585 44.8179 42.5651 44.8206 42.5717C44.8215 42.5736 44.8221 42.5758 44.8227 42.5781C44.8239 42.5823 44.8251 42.5868 44.8285 42.5901C45.4819 44.1294 44.6667 46.2682 44.0487 47.8895C43.96 48.1224 43.8753 48.3447 43.7996 48.5529C43.6913 48.8494 43.5809 49.1457 43.4703 49.4424C42.8419 51.1285 42.2097 52.8247 41.9523 54.6104C41.8708 55.1814 41.8497 55.8208 42.2023 56.2734C42.6181 56.8076 43.4022 56.8787 44.0627 56.7576C45.1363 56.5682 46.11 55.9893 46.9336 55.2735Z" fill="#DDE3ED"/>
</g>
</svg>
