<svg width="360" height="260" viewBox="0 0 360 260" fill="none" xmlns="http://www.w3.org/2000/svg">
<g clip-path="url(#clip0)">
<path d="M130.611 89.6478V88.1133H117.336V89.8953H114.42V131.669H133.792V89.6478H130.611ZM132.114 126.881H115.896V125.643H132.114V126.881ZM132.114 121.175H115.896V119.937H132.114V121.175ZM132.114 115.469H115.896V114.231H132.114V115.469ZM132.114 109.916H115.896V108.678H132.114V109.916ZM132.114 104.376H115.896V103.139H132.114V104.376ZM132.114 98.6703H115.896V97.4328H132.114V98.6703ZM132.114 93.1173H115.896V91.8798H132.114V93.1173Z" fill="url(#paint0_linear)"/>
<path d="M104.52 112.962V64.2768H89.7823V60.3438H83.5408V84.3423H81.8623V157.764H108.192V112.962H104.52ZM93.4948 127.277H89.7778V123.672H93.4948V127.277ZM93.4948 121.638H89.7778V118.034H93.4948V121.638ZM93.4948 116.022H89.7778V112.418H93.4948V116.022ZM93.4948 110.429H89.7778V106.824H93.4948V110.429ZM93.4948 104.79H89.7778V101.186H93.4948V104.79ZM93.4948 93.5358H89.7778V89.9313H93.4948V93.5358ZM93.4948 87.9018H89.7778V84.2973H93.4948V87.9018ZM93.4948 82.2858H89.7778V78.6813H93.4948V82.2858ZM93.4948 76.6878H89.7778V73.0833H93.4948V76.6878ZM93.4948 71.0493H89.7778V67.4493H93.4948V71.0493ZM99.0523 127.277H95.3353V123.672H99.0523V127.277ZM99.0523 121.638H95.3353V118.034H99.0523V121.638ZM99.0523 116.022H95.3353V112.418H99.0523V116.022ZM99.0523 110.429H95.3353V106.824H99.0523V110.429ZM99.0523 104.79H95.3353V101.186H99.0523V104.79ZM99.0523 93.5358H95.3353V89.9313H99.0523V93.5358ZM99.0523 87.9018H95.3353V84.2973H99.0523V87.9018ZM99.0523 82.2858H95.3353V78.6813H99.0523V82.2858ZM99.0523 76.6878H95.3353V73.0833H99.0523V76.6878ZM99.0523 71.0493H95.3353V67.4493H99.0523V71.0493Z" fill="url(#paint1_linear)" fill-opacity="0.8"/>
<path d="M249.56 138.559C249.722 136.466 249.56 68.1426 249.56 68.1426H257.898V83.3121H271.173V115.015H278.702V138.559H249.56Z" fill="url(#paint2_linear)" fill-opacity="0.8"/>
<path d="M304.103 107.895V105.713H301.853V86.6644H296.363V84.5494H292.66V81.4399H290.729V72.377H289.339V81.5029H287.566V84.6124H282.076V89.7064H278.903V148.76H305.624V107.891H304.103V107.895ZM283.624 131.646H281.815V124.788H283.624V131.646ZM283.624 123.254H281.815V116.396H283.624V123.254ZM283.624 114.861H281.815V108.003H283.624V114.861ZM283.624 106.316H281.815V99.4579H283.624V106.316ZM283.624 97.7749H281.815V90.9169H283.624V97.7749ZM287.35 131.646H285.541V124.788H287.35V131.646ZM287.35 123.254H285.541V116.396H287.35V123.254ZM287.35 114.861H285.541V108.003H287.35V114.861ZM287.35 106.316H285.541V99.4579H287.35V106.316ZM287.35 97.7749H285.541V90.9169H287.35V97.7749ZM291.076 131.646H289.267V124.788H291.076V131.646ZM291.076 123.254H289.267V116.396H291.076V123.254ZM291.076 114.861H289.267V108.003H291.076V114.861ZM291.076 106.316H289.267V99.4579H291.076V106.316ZM291.076 97.7749H289.267V90.9169H291.076V97.7749ZM294.802 131.646H292.993V124.788H294.802V131.646ZM294.802 123.254H292.993V116.396H294.802V123.254ZM294.802 114.861H292.993V108.003H294.802V114.861ZM294.802 106.316H292.993V99.4579H294.802V106.316ZM294.802 97.7749H292.993V90.9169H294.802V97.7749ZM298.528 131.646H296.719V124.788H298.528V131.646ZM298.528 123.254H296.719V116.396H298.528V123.254ZM298.528 114.861H296.719V108.003H298.528V114.861ZM298.528 106.316H296.719V99.4579H298.528V106.316ZM298.528 97.7749H296.719V90.9169H298.528V97.7749Z" fill="url(#paint3_linear)" fill-opacity="0.8"/>
<path d="M51.3662 167.696V127.403H55.9787V106.838L71.8458 99.9668V127.079H75.3288V167.696H51.3662Z" fill="url(#paint4_linear)" fill-opacity="0.8"/>
<path d="M323.927 160.413H310V105L323.927 111.741V160.413Z" fill="url(#paint5_linear)" fill-opacity="0.8"/>
<g filter="url(#filter0_i)">
<path d="M8.68757 27.5457C8.68757 27.5457 12.8906 16.0797 23.2226 20.5797C25.6076 18.1587 28.5596 16.3992 32.5511 17.1912C36.5426 17.9877 39.1166 20.9757 39.9896 22.9647C41.2406 22.9062 51.2575 23.2392 51.2575 33.6297C51.2575 44.0202 39.1346 43.8222 38.2571 42.9987C37.1771 43.9617 31.9841 49.1862 25.6841 43.2237C24.3206 44.3892 19.8656 49.3257 12.8231 42.5127C9.56057 43.8762 1.80707 44.9247 0.304072 36.9192C-1.19893 28.9137 6.51407 26.6547 8.68757 27.5457Z" fill="url(#paint6_linear)"/>
</g>
<g filter="url(#filter1_i)">
<path d="M304.688 10.0925C304.688 10.0925 308.891 -1.37347 319.223 3.12654C321.608 0.705536 324.56 -1.05397 328.551 -0.261964C332.543 0.534537 335.117 3.52254 335.99 5.51154C337.241 5.45304 347.258 5.78604 347.258 16.1766C347.258 26.5671 335.135 26.3691 334.257 25.5456C333.177 26.5086 327.984 31.7331 321.684 25.7706C320.321 26.9361 315.866 31.8726 308.823 25.0596C305.561 26.4231 297.807 27.4716 296.304 19.4661C294.801 11.4605 302.514 9.20154 304.688 10.0925Z" fill="url(#paint7_linear)"/>
</g>
<g filter="url(#filter2_i)">
<path d="M228.009 34.6259C228.009 34.6259 231.051 26.3234 238.53 29.5859C240.258 27.8309 242.391 26.5574 245.284 27.1334C248.173 27.7094 250.036 29.8739 250.666 31.3094C251.571 31.2689 258.825 31.5074 258.825 39.0269C258.825 46.5464 250.05 46.4024 249.415 45.8084C248.632 46.5059 244.875 50.2859 240.312 45.9749C239.326 46.8164 236.1 50.3939 231.006 45.4619C228.643 46.4474 223.032 47.2079 221.943 41.4119C220.854 35.6159 226.434 33.9824 228.009 34.6259Z" fill="url(#paint8_linear)"/>
</g>
<path d="M189.111 253.999C281.343 253.999 356.111 224.45 356.111 187.999C356.111 151.548 281.343 121.999 189.111 121.999C96.8798 121.999 22.1113 151.548 22.1113 187.999C22.1113 224.45 96.8798 253.999 189.111 253.999Z" fill="url(#paint9_linear)"/>
<path opacity="0.5" d="M74.7887 191.087C74.7887 191.087 73.2002 193.342 75.8552 196.699C78.2222 199.687 81.9617 199.106 83.2037 198.148C83.5862 200.749 86.7767 206.23 91.8257 203.129C96.5732 200.218 94.2872 195.79 92.7707 194.048C95.7362 193.211 97.9457 186.106 91.1417 183.653C92.1497 180.719 92.3297 179.392 90.8537 176.755C89.4317 174.217 87.0962 173.812 83.3702 175.355L77.9792 177.628L74.5457 171.22L72.7097 172.282L76.6697 178.402L71.4227 181.034C71.4227 181.034 66.9362 182.789 68.8712 187.604C70.6667 192.064 74.7887 191.087 74.7887 191.087Z" fill="url(#paint10_linear)"/>
<path d="M65.6535 163.763H81.8805C81.8805 163.763 87.123 163.911 88.167 157.922C89.3145 151.347 84.531 150.443 84.531 150.443C84.531 150.443 87.411 149.12 86.7855 144.147C86.16 139.175 81.7815 138.549 79.959 138.779C80.256 135.831 80.877 129.158 73.947 129.09C67.2555 129.023 67.296 135.759 67.7955 138.414C65.4105 138.441 58.206 142.019 63.273 149.867C60.5145 152.229 59.349 153.593 59.4705 156.999C59.592 160.41 61.68 163.763 65.6535 163.763Z" fill="url(#paint11_linear)"/>
<path d="M81.48 154.655L74.559 159.209L74.37 154.808L78.7485 149.651L74.307 153.242L73.7265 139.787L73.3035 153.328L68.637 149.611L73.263 154.709L73.119 159.241L66 154.012L73.0695 160.874L72.7095 172.286H75.1215L74.6355 160.946L81.48 154.655Z" fill="#435164"/>
<path opacity="0.5" d="M309.878 182.848C309.878 182.848 308.415 184.927 310.859 188.014C313.037 190.768 316.484 190.232 317.627 189.346C317.978 191.74 320.921 196.784 325.569 193.936C329.939 191.254 327.837 187.177 326.438 185.575C329.169 184.805 331.203 178.258 324.939 176.003C325.871 173.303 326.037 172.079 324.674 169.654C323.364 167.318 321.213 166.94 317.784 168.367L312.816 170.459L309.653 164.56L307.965 165.536L311.61 171.17L306.782 173.596C306.782 173.596 302.651 175.211 304.433 179.648C306.084 183.748 309.878 182.848 309.878 182.848Z" fill="url(#paint12_linear)"/>
<path d="M301.468 157.688H316.408C316.408 157.688 321.236 157.828 322.195 152.311C323.248 146.258 318.847 145.426 318.847 145.426C318.847 145.426 321.502 144.206 320.921 139.63C320.341 135.053 316.313 134.473 314.635 134.689C314.909 131.975 315.481 125.828 309.1 125.765C302.939 125.702 302.975 131.903 303.434 134.351C301.238 134.374 294.601 137.668 299.272 144.899C296.734 147.073 295.658 148.333 295.771 151.465C295.883 154.597 297.805 157.688 301.468 157.688Z" fill="url(#paint13_linear)"/>
<path d="M316.043 149.3L309.667 153.494L309.496 149.439L313.523 144.692L309.433 147.999L308.902 135.606L308.51 148.08L304.213 144.656L308.474 149.349L308.344 153.521L301.787 148.706L308.294 155.028L307.966 165.536H310.184L309.739 155.091L316.043 149.3Z" fill="#435164"/>
<path opacity="0.5" d="M112.108 142.258C112.108 142.258 111.32 143.374 112.634 145.034C113.804 146.515 115.654 146.227 116.27 145.75C116.459 147.037 118.039 149.746 120.536 148.216C122.885 146.776 121.756 144.584 121.004 143.725C122.471 143.311 123.565 139.796 120.199 138.586C120.698 137.137 120.788 136.48 120.055 135.175C119.353 133.919 118.196 133.716 116.356 134.481L113.687 135.607L111.991 132.438L111.082 132.965L113.039 135.989L110.443 137.29C110.443 137.29 108.224 138.158 109.183 140.539C110.069 142.744 112.108 142.258 112.108 142.258Z" fill="url(#paint14_linear)"/>
<path d="M107.589 128.744H115.613C115.613 128.744 118.205 128.816 118.722 125.855C119.289 122.602 116.922 122.156 116.922 122.156C116.922 122.156 118.349 121.499 118.038 119.042C117.728 116.585 115.563 116.275 114.663 116.387C114.812 114.929 115.118 111.626 111.689 111.595C108.377 111.563 108.399 114.893 108.647 116.207C107.468 116.221 103.904 117.989 106.41 121.873C105.047 123.038 104.466 123.718 104.529 125.401C104.592 127.084 105.623 128.744 107.589 128.744Z" fill="url(#paint15_linear)"/>
<path d="M115.419 124.24L111.994 126.494L111.9 124.316L114.064 121.765L111.868 123.542L111.585 116.887L111.373 123.583L109.065 121.747L111.351 124.267L111.283 126.508L107.76 123.92L111.256 127.318L111.081 132.961H112.273L112.03 127.349L115.419 124.24Z" fill="#435164"/>
<path d="M268 170.118L339.928 218.961L195.73 271.521L122.803 146.43L230.366 143.217L268 170.118Z" fill="url(#paint16_linear)"/>
<g filter="url(#filter3_di)">
<path d="M195.73 156.109C229.83 156.109 257.474 128.465 257.474 94.3646C257.474 60.264 229.83 32.6201 195.73 32.6201C161.629 32.6201 133.985 60.264 133.985 94.3646C133.985 128.465 161.629 156.109 195.73 156.109Z" fill="#29313E"/>
</g>
<g filter="url(#filter4_i)">
<path d="M195.73 143.217C222.71 143.217 244.582 121.345 244.582 94.3647C244.582 67.3845 222.71 45.5127 195.73 45.5127C168.75 45.5127 146.878 67.3845 146.878 94.3647C146.878 121.345 168.75 143.217 195.73 143.217Z" fill="url(#paint17_linear)"/>
</g>
<g filter="url(#filter5_di)">
<path d="M174.089 173.781C208.19 173.781 235.834 146.137 235.834 112.036C235.834 77.9359 208.19 50.292 174.089 50.292C139.989 50.292 112.345 77.9359 112.345 112.036C112.345 146.137 139.989 173.781 174.089 173.781Z" fill="#29313E"/>
</g>
<g filter="url(#filter6_i)">
<path d="M173.962 160.704C200.943 160.704 222.814 138.832 222.814 111.852C222.814 84.8718 200.943 63 173.962 63C146.982 63 125.11 84.8718 125.11 111.852C125.11 138.832 146.982 160.704 173.962 160.704Z" fill="url(#paint18_linear)"/>
</g>
<path fill-rule="evenodd" clip-rule="evenodd" d="M187.25 102.722C187.882 102.856 188.503 103.05 189.109 103.312C189.229 103.365 189.347 103.42 189.464 103.479C189.724 103.607 189.976 103.749 190.22 103.905C190.389 104.013 190.553 104.127 190.713 104.247C191.34 104.725 191.894 105.304 192.316 105.965C194.599 109.581 193.033 114.551 191.645 118.194C190.207 121.973 187.991 125.793 184.915 128.48C184.604 128.751 184.276 129.007 183.933 129.24C183.085 129.819 182.144 130.258 181.136 130.44C180.263 130.596 179.234 130.499 178.687 129.8C178.401 129.433 178.303 128.976 178.294 128.505C178.288 128.205 178.318 127.9 178.359 127.607C178.495 126.666 178.71 125.744 178.972 124.834C179.363 123.469 179.862 122.132 180.358 120.799C180.503 120.411 180.647 120.023 180.789 119.635C180.887 119.368 180.995 119.082 181.109 118.784C181.923 116.651 183.003 113.82 182.143 111.791C181.952 111.34 181.651 111.041 181.29 110.85C181.334 110.874 181.377 110.9 181.42 110.929C181.314 110.863 181.196 110.803 181.065 110.749C180.35 110.473 179.456 110.547 178.694 110.703C173.114 111.842 168.96 117.47 165.267 122.474C162.718 125.927 160.388 129.084 157.961 130.261L157.988 130.301L157.979 130.298L157.983 130.305C157.973 130.302 157.963 130.298 157.954 130.293C157.944 130.289 157.935 130.285 157.925 130.281C157.908 130.289 157.892 130.296 157.875 130.303C157.817 130.33 157.759 130.356 157.7 130.381C157.669 130.394 157.637 130.408 157.606 130.42C157.589 130.427 157.572 130.434 157.555 130.44C157.489 130.466 157.423 130.49 157.357 130.512C157.324 130.525 157.29 130.537 157.256 130.548L157.239 130.551C157.017 130.621 156.793 130.674 156.568 130.707L156.567 130.707L156.551 130.709L156.538 130.711C155.182 130.901 153.776 130.4 152.273 128.933C151.931 128.6 151.614 128.25 151.32 127.886C147.572 123.323 147.468 116.717 149.164 110.191C149.305 109.628 149.457 109.07 149.621 108.514C150.265 106.317 151.082 104.176 152.059 102.111C153.088 99.9355 154.296 97.8436 155.672 95.8576C157.682 92.8511 159.805 90.4661 161.651 89.1614C161.79 89.0635 161.937 88.9714 162.088 88.8772L162.132 88.8497C163.913 87.5094 165.921 86.4531 168.127 86.1206C169.686 85.8851 171.539 85.9509 172.969 86.7128C173.161 86.815 173.344 86.93 173.517 87.0583C173.899 87.3369 174.237 87.6794 174.514 88.0953C174.564 88.166 174.61 88.2388 174.652 88.3129C174.662 88.3311 174.671 88.3486 174.679 88.3653C174.722 88.4434 174.762 88.5221 174.799 88.6013L174.805 88.6142C174.825 88.659 174.844 88.7039 174.863 88.749C175.454 90.1972 174.988 91.8065 174.361 93.2191C173.131 96.2014 170.568 99.6671 168.311 102.719L168.311 102.719L168.311 102.719L168.31 102.721C168.107 102.995 167.907 103.265 167.711 103.531C167.244 104.201 166.778 104.874 166.316 105.549C165.809 106.291 165.306 107.037 164.81 107.787C164.082 109.086 163.836 110.031 164.425 110.433C164.431 110.437 164.437 110.441 164.443 110.445C164.49 110.476 164.537 110.502 164.586 110.526C164.722 110.591 164.868 110.629 165.021 110.651C166.272 110.834 167.709 109.93 168.823 109.23C168.998 109.12 169.165 109.015 169.322 108.919C169.923 108.556 170.52 108.185 171.117 107.815L171.117 107.815L171.117 107.815C172.606 106.89 174.095 105.965 175.653 105.151C179.064 103.374 183.35 101.895 187.25 102.722ZM199.244 130.555C201.922 130.555 204.093 128.384 204.093 125.707C204.093 123.029 201.922 120.858 199.244 120.858C196.567 120.858 194.396 123.029 194.396 125.707C194.396 128.384 196.567 130.555 199.244 130.555ZM182.13 111.763H182.123C182.123 111.763 182.116 111.746 182.105 111.711C182.108 111.718 182.112 111.725 182.116 111.732C182.122 111.742 182.128 111.753 182.13 111.763Z" fill="url(#paint19_linear)"/>
<g filter="url(#filter7_i)">
<path d="M245.711 132.664C233.399 132.664 223.423 137.142 223.423 142.659V170.118C223.423 175.639 233.404 180.112 245.711 180.112C258.023 180.112 268 175.635 268 170.118V142.659C268 137.137 258.023 132.664 245.711 132.664Z" fill="url(#paint20_linear)"/>
</g>
<path d="M245.711 152.585C256.588 152.585 263.572 149.917 268 146.879V142.658C268 142.541 267.991 142.429 267.982 142.312C264.413 145.502 257.762 148.985 245.711 148.985C233.08 148.985 226.671 145.201 223.485 141.925C223.445 142.168 223.418 142.411 223.418 142.654V146.618C227.643 149.768 234.542 152.585 245.711 152.585Z" fill="url(#paint21_linear)"/>
<path d="M223.423 157.671V162.432C227.644 165.582 234.542 168.399 245.711 168.399C256.588 168.399 263.572 165.73 268 162.693V158.143C264.445 161.329 257.803 164.799 245.711 164.799C232.994 164.799 226.582 160.96 223.423 157.671Z" fill="url(#paint22_linear)"/>
</g>
<defs>
<filter id="filter0_i" x="0.111328" y="16.999" width="51.1462" height="33.0443" filterUnits="userSpaceOnUse" color-interpolation-filters="sRGB">
<feFlood flood-opacity="0" result="BackgroundImageFix"/>
<feBlend mode="normal" in="SourceGraphic" in2="BackgroundImageFix" result="shape"/>
<feColorMatrix in="SourceAlpha" type="matrix" values="0 0 0 0 0 0 0 0 0 0 0 0 0 0 0 0 0 0 127 0" result="hardAlpha"/>
<feOffset dy="4"/>
<feGaussianBlur stdDeviation="2"/>
<feComposite in2="hardAlpha" operator="arithmetic" k2="-1" k3="1"/>
<feColorMatrix type="matrix" values="0 0 0 0 0.175642 0 0 0 0 0.217993 0 0 0 0 0.279167 0 0 0 1 0"/>
<feBlend mode="normal" in2="shape" result="effect1_innerShadow"/>
</filter>
<filter id="filter1_i" x="296.111" y="-0.454102" width="51.1463" height="33.0443" filterUnits="userSpaceOnUse" color-interpolation-filters="sRGB">
<feFlood flood-opacity="0" result="BackgroundImageFix"/>
<feBlend mode="normal" in="SourceGraphic" in2="BackgroundImageFix" result="shape"/>
<feColorMatrix in="SourceAlpha" type="matrix" values="0 0 0 0 0 0 0 0 0 0 0 0 0 0 0 0 0 0 127 0" result="hardAlpha"/>
<feOffset dy="4"/>
<feGaussianBlur stdDeviation="2"/>
<feComposite in2="hardAlpha" operator="arithmetic" k2="-1" k3="1"/>
<feColorMatrix type="matrix" values="0 0 0 0 0.175642 0 0 0 0 0.217993 0 0 0 0 0.279167 0 0 0 1 0"/>
<feBlend mode="normal" in2="shape" result="effect1_innerShadow"/>
</filter>
<filter id="filter2_i" x="221.803" y="26.9932" width="37.0218" height="25.0234" filterUnits="userSpaceOnUse" color-interpolation-filters="sRGB">
<feFlood flood-opacity="0" result="BackgroundImageFix"/>
<feBlend mode="normal" in="SourceGraphic" in2="BackgroundImageFix" result="shape"/>
<feColorMatrix in="SourceAlpha" type="matrix" values="0 0 0 0 0 0 0 0 0 0 0 0 0 0 0 0 0 0 127 0" result="hardAlpha"/>
<feOffset dy="4"/>
<feGaussianBlur stdDeviation="2"/>
<feComposite in2="hardAlpha" operator="arithmetic" k2="-1" k3="1"/>
<feColorMatrix type="matrix" values="0 0 0 0 0.175642 0 0 0 0 0.217993 0 0 0 0 0.279167 0 0 0 1 0"/>
<feBlend mode="normal" in2="shape" result="effect1_innerShadow"/>
</filter>
<filter id="filter3_di" x="132.985" y="29.6201" width="131.489" height="131.489" filterUnits="userSpaceOnUse" color-interpolation-filters="sRGB">
<feFlood flood-opacity="0" result="BackgroundImageFix"/>
<feColorMatrix in="SourceAlpha" type="matrix" values="0 0 0 0 0 0 0 0 0 0 0 0 0 0 0 0 0 0 127 0"/>
<feOffset dx="3" dy="1"/>
<feGaussianBlur stdDeviation="2"/>
<feColorMatrix type="matrix" values="0 0 0 0 0.0520139 0 0 0 0 0.0547906 0 0 0 0 0.0583333 0 0 0 0.44 0"/>
<feBlend mode="normal" in2="BackgroundImageFix" result="effect1_dropShadow"/>
<feBlend mode="normal" in="SourceGraphic" in2="effect1_dropShadow" result="shape"/>
<feColorMatrix in="SourceAlpha" type="matrix" values="0 0 0 0 0 0 0 0 0 0 0 0 0 0 0 0 0 0 127 0" result="hardAlpha"/>
<feOffset dx="3" dy="3"/>
<feGaussianBlur stdDeviation="2"/>
<feComposite in2="hardAlpha" operator="arithmetic" k2="-1" k3="1"/>
<feColorMatrix type="matrix" values="0 0 0 0 0.26875 0 0 0 0 0.369064 0 0 0 0 0.5 0 0 0 0.31 0"/>
<feBlend mode="normal" in2="shape" result="effect2_innerShadow"/>
</filter>
<filter id="filter4_i" x="146.878" y="45.5127" width="97.7041" height="101.704" filterUnits="userSpaceOnUse" color-interpolation-filters="sRGB">
<feFlood flood-opacity="0" result="BackgroundImageFix"/>
<feBlend mode="normal" in="SourceGraphic" in2="BackgroundImageFix" result="shape"/>
<feColorMatrix in="SourceAlpha" type="matrix" values="0 0 0 0 0 0 0 0 0 0 0 0 0 0 0 0 0 0 127 0" result="hardAlpha"/>
<feOffset dy="4"/>
<feGaussianBlur stdDeviation="2"/>
<feComposite in2="hardAlpha" operator="arithmetic" k2="-1" k3="1"/>
<feColorMatrix type="matrix" values="0 0 0 0 0.175642 0 0 0 0 0.217993 0 0 0 0 0.279167 0 0 0 1 0"/>
<feBlend mode="normal" in2="shape" result="effect1_innerShadow"/>
</filter>
<filter id="filter5_di" x="111.345" y="47.292" width="131.489" height="131.489" filterUnits="userSpaceOnUse" color-interpolation-filters="sRGB">
<feFlood flood-opacity="0" result="BackgroundImageFix"/>
<feColorMatrix in="SourceAlpha" type="matrix" values="0 0 0 0 0 0 0 0 0 0 0 0 0 0 0 0 0 0 127 0"/>
<feOffset dx="3" dy="1"/>
<feGaussianBlur stdDeviation="2"/>
<feColorMatrix type="matrix" values="0 0 0 0 0.0520139 0 0 0 0 0.0547906 0 0 0 0 0.0583333 0 0 0 0.44 0"/>
<feBlend mode="normal" in2="BackgroundImageFix" result="effect1_dropShadow"/>
<feBlend mode="normal" in="SourceGraphic" in2="effect1_dropShadow" result="shape"/>
<feColorMatrix in="SourceAlpha" type="matrix" values="0 0 0 0 0 0 0 0 0 0 0 0 0 0 0 0 0 0 127 0" result="hardAlpha"/>
<feOffset dx="3" dy="3"/>
<feGaussianBlur stdDeviation="2"/>
<feComposite in2="hardAlpha" operator="arithmetic" k2="-1" k3="1"/>
<feColorMatrix type="matrix" values="0 0 0 0 0.26875 0 0 0 0 0.369064 0 0 0 0 0.5 0 0 0 0.31 0"/>
<feBlend mode="normal" in2="shape" result="effect2_innerShadow"/>
</filter>
<filter id="filter6_i" x="125.11" y="63" width="97.704" height="101.704" filterUnits="userSpaceOnUse" color-interpolation-filters="sRGB">
<feFlood flood-opacity="0" result="BackgroundImageFix"/>
<feBlend mode="normal" in="SourceGraphic" in2="BackgroundImageFix" result="shape"/>
<feColorMatrix in="SourceAlpha" type="matrix" values="0 0 0 0 0 0 0 0 0 0 0 0 0 0 0 0 0 0 127 0" result="hardAlpha"/>
<feOffset dy="4"/>
<feGaussianBlur stdDeviation="2"/>
<feComposite in2="hardAlpha" operator="arithmetic" k2="-1" k3="1"/>
<feColorMatrix type="matrix" values="0 0 0 0 0.175642 0 0 0 0 0.217993 0 0 0 0 0.279167 0 0 0 1 0"/>
<feBlend mode="normal" in2="shape" result="effect1_innerShadow"/>
</filter>
<filter id="filter7_i" x="223.423" y="132.664" width="44.577" height="51.448" filterUnits="userSpaceOnUse" color-interpolation-filters="sRGB">
<feFlood flood-opacity="0" result="BackgroundImageFix"/>
<feBlend mode="normal" in="SourceGraphic" in2="BackgroundImageFix" result="shape"/>
<feColorMatrix in="SourceAlpha" type="matrix" values="0 0 0 0 0 0 0 0 0 0 0 0 0 0 0 0 0 0 127 0" result="hardAlpha"/>
<feOffset dy="4"/>
<feGaussianBlur stdDeviation="2"/>
<feComposite in2="hardAlpha" operator="arithmetic" k2="-1" k3="1"/>
<feColorMatrix type="matrix" values="0 0 0 0 0.175642 0 0 0 0 0.217993 0 0 0 0 0.279167 0 0 0 1 0"/>
<feBlend mode="normal" in2="shape" result="effect1_innerShadow"/>
</filter>
<linearGradient id="paint0_linear" x1="124.107" y1="131.668" x2="124.107" y2="88.1132" gradientUnits="userSpaceOnUse">
<stop offset="0.2332" stop-color="#262930"/>
<stop offset="1" stop-color="#2A2F3E"/>
</linearGradient>
<linearGradient id="paint1_linear" x1="97.5061" y1="150.911" x2="108.28" y2="61.616" gradientUnits="userSpaceOnUse">
<stop stop-color="#22262D" stop-opacity="0.13"/>
<stop offset="1" stop-color="#272E38"/>
</linearGradient>
<linearGradient id="paint2_linear" x1="266.874" y1="133.605" x2="272.002" y2="68.5266" gradientUnits="userSpaceOnUse">
<stop stop-color="#22262D" stop-opacity="0.13"/>
<stop offset="1" stop-color="#272E38"/>
</linearGradient>
<linearGradient id="paint3_linear" x1="294.78" y1="143.386" x2="301.344" y2="72.9671" gradientUnits="userSpaceOnUse">
<stop stop-color="#22262D" stop-opacity="0.13"/>
<stop offset="1" stop-color="#272E38"/>
</linearGradient>
<linearGradient id="paint4_linear" x1="65.6036" y1="162.931" x2="71.3601" y2="100.478" gradientUnits="userSpaceOnUse">
<stop stop-color="#22262D" stop-opacity="0.13"/>
<stop offset="1" stop-color="#272E38"/>
</linearGradient>
<linearGradient id="paint5_linear" x1="318.275" y1="156.515" x2="324.85" y2="105.837" gradientUnits="userSpaceOnUse">
<stop stop-color="#22262D" stop-opacity="0.13"/>
<stop offset="1" stop-color="#272E38"/>
</linearGradient>
<linearGradient id="paint6_linear" x1="30.5" y1="44" x2="31" y2="17" gradientUnits="userSpaceOnUse">
<stop stop-color="#323B49" stop-opacity="0.18"/>
<stop offset="1" stop-color="#37455A"/>
</linearGradient>
<linearGradient id="paint7_linear" x1="326.5" y1="26.5469" x2="327" y2="-0.453126" gradientUnits="userSpaceOnUse">
<stop stop-color="#323B49" stop-opacity="0.18"/>
<stop offset="1" stop-color="#37455A"/>
</linearGradient>
<linearGradient id="paint8_linear" x1="243.799" y1="46.5376" x2="244.161" y2="26.9939" gradientUnits="userSpaceOnUse">
<stop stop-color="#323B49" stop-opacity="0.18"/>
<stop offset="1" stop-color="#37455A"/>
</linearGradient>
<linearGradient id="paint9_linear" x1="189" y1="257" x2="189.111" y2="121.997" gradientUnits="userSpaceOnUse">
<stop stop-color="#29313E" stop-opacity="0"/>
<stop offset="0.661458" stop-color="#232A35" stop-opacity="0.25"/>
<stop offset="1" stop-color="#1C2129"/>
</linearGradient>
<linearGradient id="paint10_linear" x1="74" y1="195" x2="95.3185" y2="187.29" gradientUnits="userSpaceOnUse">
<stop offset="0.2332" stop-color="#474D5E" stop-opacity="0.23"/>
<stop offset="1" stop-color="#373D4E"/>
</linearGradient>
<linearGradient id="paint11_linear" x1="59" y1="156.5" x2="88" y2="146" gradientUnits="userSpaceOnUse">
<stop offset="0.2332" stop-color="#474D5E"/>
<stop offset="1" stop-color="#2A2F3E"/>
</linearGradient>
<linearGradient id="paint12_linear" x1="309.155" y1="186.45" x2="328.783" y2="179.349" gradientUnits="userSpaceOnUse">
<stop offset="0.2332" stop-color="#474D5E" stop-opacity="0.23"/>
<stop offset="1" stop-color="#373D4E"/>
</linearGradient>
<linearGradient id="paint13_linear" x1="295.337" y1="151.001" x2="322.039" y2="141.332" gradientUnits="userSpaceOnUse">
<stop offset="0.2332" stop-color="#474D5E"/>
<stop offset="1" stop-color="#2A2F3E"/>
</linearGradient>
<linearGradient id="paint14_linear" x1="111.719" y1="144.195" x2="122.263" y2="140.38" gradientUnits="userSpaceOnUse">
<stop offset="0.2332" stop-color="#474D5E" stop-opacity="0.23"/>
<stop offset="1" stop-color="#373D4E"/>
</linearGradient>
<linearGradient id="paint15_linear" x1="104.296" y1="125.152" x2="118.639" y2="119.959" gradientUnits="userSpaceOnUse">
<stop offset="0.2332" stop-color="#474D5E"/>
<stop offset="1" stop-color="#2A2F3E"/>
</linearGradient>
<linearGradient id="paint16_linear" x1="250.5" y1="250.5" x2="213.509" y2="120.419" gradientUnits="userSpaceOnUse">
<stop stop-color="#1B1D20" stop-opacity="0"/>
<stop offset="0.9362" stop-color="#202733"/>
</linearGradient>
<linearGradient id="paint17_linear" x1="146.876" y1="94.3635" x2="244.583" y2="94.3635" gradientUnits="userSpaceOnUse">
<stop stop-color="#323B49"/>
<stop offset="1" stop-color="#37455A"/>
</linearGradient>
<linearGradient id="paint18_linear" x1="125.108" y1="111.851" x2="222.815" y2="111.851" gradientUnits="userSpaceOnUse">
<stop stop-color="#323B49"/>
<stop offset="1" stop-color="#37455A"/>
</linearGradient>
<linearGradient id="paint19_linear" x1="148.109" y1="108.374" x2="178.684" y2="129.946" gradientUnits="userSpaceOnUse">
<stop stop-color="#7B91AD"/>
<stop offset="1" stop-color="#537093"/>
</linearGradient>
<linearGradient id="paint20_linear" x1="223.422" y1="156.387" x2="268" y2="156.387" gradientUnits="userSpaceOnUse">
<stop stop-color="#323B49"/>
<stop offset="1" stop-color="#37455A"/>
</linearGradient>
<linearGradient id="paint21_linear" x1="223.417" y1="147.255" x2="268" y2="147.255" gradientUnits="userSpaceOnUse">
<stop stop-color="#2F3949"/>
<stop offset="1" stop-color="#333C4B"/>
</linearGradient>
<linearGradient id="paint22_linear" x1="223.422" y1="163.035" x2="268" y2="163.035" gradientUnits="userSpaceOnUse">
<stop stop-color="#2F3949"/>
<stop offset="1" stop-color="#333C4B"/>
</linearGradient>
<clipPath id="clip0">
<rect width="360" height="260" fill="white"/>
</clipPath>
</defs>
</svg>
