<svg width="100" height="100" viewBox="0 0 100 100" fill="none" xmlns="http://www.w3.org/2000/svg">
<g clip-path="url(#clip0)">
<path d="M90.0839 72.2397L102.833 84.9999L40.5526 104.037L15.624 60.092L70.7847 58.4443L90.0839 72.2397Z" fill="url(#paint0_linear)"/>
<g filter="url(#filter0_di)">
<path d="M53.0222 65.0562C70.5097 65.0562 84.6861 50.8798 84.6861 33.3923C84.6861 15.9049 70.5097 1.72852 53.0222 1.72852C35.5348 1.72852 21.3584 15.9049 21.3584 33.3923C21.3584 50.8798 35.5348 65.0562 53.0222 65.0562Z" fill="#29313E"/>
</g>
<g filter="url(#filter1_i)">
<path d="M53.022 58.4445C66.858 58.4445 78.0744 47.2282 78.0744 33.3922C78.0744 19.5561 66.858 8.33984 53.022 8.33984C39.186 8.33984 27.9697 19.5561 27.9697 33.3922C27.9697 47.2282 39.186 58.4445 53.022 58.4445Z" fill="url(#paint1_linear)"/>
</g>
<g filter="url(#filter2_di)">
<path d="M41.9246 74.1187C59.412 74.1187 73.5884 59.9423 73.5884 42.4549C73.5884 24.9674 59.412 10.791 41.9246 10.791C24.4371 10.791 10.2607 24.9674 10.2607 42.4549C10.2607 59.9423 24.4371 74.1187 41.9246 74.1187Z" fill="#29313E"/>
</g>
<g filter="url(#filter3_i)">
<path d="M41.9244 67.507C55.7604 67.507 66.9767 56.2907 66.9767 42.4547C66.9767 28.6186 55.7604 17.4023 41.9244 17.4023C28.0884 17.4023 16.8721 28.6186 16.8721 42.4547C16.8721 56.2907 28.0884 67.507 41.9244 67.507Z" fill="url(#paint2_linear)"/>
</g>
<path fill-rule="evenodd" clip-rule="evenodd" d="M50.95 38.1079C51.0713 38.1505 51.1918 38.1976 51.3112 38.2493C51.3279 38.2567 51.3447 38.2642 51.3614 38.2718C51.6419 38.3974 51.91 38.5512 52.1579 38.732C52.1819 38.7493 52.2058 38.7669 52.2294 38.7848C52.5884 39.0585 52.9057 39.3897 53.1477 39.7685C54.4546 41.839 53.5582 44.685 52.7629 46.7714C51.9398 48.9351 50.6706 51.1227 48.9094 52.6617C48.7729 52.7803 48.631 52.8939 48.484 53.0005C47.9631 53.3796 47.3775 53.6693 46.7459 53.7839C46.2462 53.8731 45.6571 53.8176 45.3438 53.417C45.2344 53.2768 45.173 53.1138 45.1428 52.9406C45.0983 52.6896 45.1187 52.4167 45.1551 52.1619C45.349 50.8161 45.8255 49.5376 46.2992 48.2669C46.3825 48.0433 46.4657 47.8199 46.5473 47.5964C46.6044 47.4395 46.6682 47.272 46.7351 47.0964C46.9126 46.6309 47.1116 46.1087 47.2628 45.5765C47.5078 44.712 47.6267 43.8206 47.3231 43.104C47.3227 43.1031 47.3223 43.1023 47.322 43.1014C47.3201 43.099 47.3193 43.0961 47.3185 43.0934C47.3147 43.0847 47.3108 43.076 47.3069 43.0675C47.3061 43.0658 47.3053 43.0641 47.3045 43.0624C47.2255 42.8934 47.1181 42.7638 46.9912 42.666C46.9659 42.6479 46.9389 42.6284 46.9103 42.6105C46.8974 42.6019 46.8845 42.5938 46.8713 42.5861C46.441 42.3388 45.8453 42.3795 45.3477 42.4812C45.1307 42.5255 44.9175 42.5817 44.7078 42.6488C44.6881 42.6552 44.6683 42.6616 44.6486 42.6681C41.8002 43.6106 39.6163 46.5694 37.6586 49.2218C36.1997 51.1985 34.8663 53.0051 33.477 53.6803L33.4919 53.7027C33.4888 53.7016 33.4858 53.7005 33.4829 53.6992L33.4878 53.7065C33.4819 53.7046 33.4764 53.7021 33.4709 53.6996C33.4655 53.6971 33.46 53.6946 33.4541 53.6927C33.4442 53.6976 33.4343 53.7016 33.4243 53.7055L33.4097 53.7115L33.3952 53.7181L33.3946 53.7184L33.3688 53.7301C33.3371 53.7446 33.3044 53.7595 33.2716 53.772C33.2491 53.7814 33.2283 53.789 33.206 53.7965L33.1717 53.8091L33.1586 53.8141C33.1295 53.8251 33.1004 53.8361 33.0713 53.8454C33.0614 53.8474 33.0515 53.8493 33.0416 53.8533C33.0045 53.8642 32.9676 53.8743 32.9308 53.8836C32.8621 53.9014 32.7932 53.9161 32.7241 53.9277L32.7084 53.9306L32.6766 53.9366C32.6536 53.9402 32.6299 53.9424 32.6063 53.9444C32.57 53.9486 32.5336 53.952 32.4972 53.9544C32.4889 53.9552 32.4806 53.9559 32.4724 53.9564C32.4573 53.9573 32.442 53.9577 32.4265 53.958C32.3892 53.9594 32.3518 53.9597 32.3143 53.9592C32.2986 53.9594 32.2826 53.9594 32.2661 53.9584L32.2252 53.956C32.1757 53.9533 32.1261 53.9489 32.0763 53.9427L32.0581 53.9406L32.0579 53.9406L32.0526 53.9397C31.8277 53.9095 31.6 53.8442 31.3689 53.7402C31.3526 53.7333 31.3364 53.7261 31.3201 53.7184C31.2988 53.7088 31.278 53.6981 31.2572 53.6871C31.2274 53.6722 31.1976 53.6566 31.1677 53.6404C31.1466 53.6293 31.1257 53.6182 31.1039 53.6054C31.0768 53.5905 31.0497 53.5737 31.022 53.5564C31.0002 53.5431 30.9783 53.5294 30.9565 53.5154C30.9336 53.501 30.9107 53.4863 30.8877 53.4705L30.8702 53.4585C30.8181 53.423 30.7657 53.3855 30.7131 53.346C30.6979 53.3351 30.6828 53.324 30.6676 53.3119L30.6394 53.2893C30.5058 53.1843 30.3709 53.0661 30.2347 52.934L30.2194 52.9192C30.1873 52.8879 30.1556 52.8564 30.1244 52.8246C30.0089 52.7074 29.8984 52.5867 29.7929 52.463C29.7902 52.4616 29.7884 52.4593 29.7869 52.4573L29.785 52.4551C27.5182 49.8273 27.4488 45.9559 28.4503 42.1381C29.0118 39.9166 29.8768 37.785 31.0148 35.8015C31.3675 35.1862 31.7465 34.5851 32.1509 34.0001C33.3055 32.2689 34.5269 30.8954 35.5881 30.1453C35.6676 30.0893 35.7521 30.0366 35.8385 29.9826L35.8638 29.9668C36.8832 29.1993 38.0335 28.5944 39.2968 28.404C39.6588 28.3493 40.0486 28.323 40.4387 28.3402C41.011 28.3651 41.5841 28.4836 42.0715 28.7433C42.4622 28.9515 42.7994 29.251 43.0374 29.6655C43.5516 30.5645 43.2559 31.6025 42.8545 32.4982C42.1452 34.1994 40.687 36.1714 39.402 37.909L39.4013 37.91L39.4011 37.9103C39.2884 38.0627 39.1771 38.2133 39.0677 38.3617C38.6769 38.9216 38.2887 39.4841 37.906 40.0502C37.7352 40.3032 37.5654 40.5569 37.3968 40.8113C36.9803 41.5551 36.8395 42.0965 37.1767 42.3265C37.2798 42.3979 37.3948 42.4336 37.5178 42.4515C38.2342 42.556 39.0572 42.0386 39.695 41.6375L39.6951 41.6375L39.6952 41.6374C39.7955 41.5744 39.8911 41.5143 39.981 41.4599C40.3252 41.2518 40.6668 41.0396 41.0083 40.8275L41.0084 40.8275L41.0084 40.8274L41.0085 40.8274L41.0086 40.8273L41.0087 40.8273L41.0087 40.8273C41.8616 40.2975 42.7143 39.768 43.6064 39.3021C45.767 38.1765 48.5408 37.2595 50.95 38.1079ZM57.1154 53.8486C58.6489 53.8486 59.892 52.6055 59.892 51.072C59.892 49.5386 58.6489 48.2955 57.1154 48.2955C55.582 48.2955 54.3389 49.5386 54.3389 51.072C54.3389 52.6055 55.582 53.8486 57.1154 53.8486ZM46.68 42.498C46.7614 42.5278 46.8367 42.5635 46.9081 42.6111C46.8407 42.5694 46.7653 42.5317 46.68 42.498ZM47.3151 43.0885H47.3111C47.3111 43.0885 47.3071 43.0784 47.301 43.0582C47.3026 43.0622 47.3049 43.0663 47.3071 43.0703C47.3105 43.0764 47.3139 43.0824 47.3151 43.0885Z" fill="url(#paint3_linear)"/>
<path d="M86.167 62.917L94.917 71.2503L79.0837 85.417L63.667 69.9814L86.167 62.917Z" fill="url(#paint4_linear)"/>
<g filter="url(#filter4_i)">
<path d="M75.3206 49.7002C69.0068 49.7002 63.8906 51.9963 63.8906 54.8256V68.9071C63.8906 71.7386 69.0091 74.0325 75.3206 74.0325C81.6345 74.0325 86.7506 71.7363 86.7506 68.9071V54.8256C86.7506 51.994 81.6345 49.7002 75.3206 49.7002Z" fill="url(#paint5_linear)"/>
</g>
<path d="M75.32 59.9161C80.8977 59.9161 84.4793 58.5477 86.7501 56.99V54.8254C86.7501 54.7654 86.7454 54.7077 86.7408 54.6477C84.9108 56.2838 81.5 58.07 75.32 58.07C68.8423 58.07 65.5562 56.1292 63.9223 54.4492C63.9015 54.5738 63.8877 54.6984 63.8877 54.8231V56.8561C66.0546 58.4715 69.5923 59.9161 75.32 59.9161Z" fill="url(#paint6_linear)"/>
<path d="M63.8906 62.5234V64.965C66.0552 66.5804 69.5929 68.025 75.3206 68.025C80.8983 68.025 84.4798 66.6565 86.7506 65.0988V62.7657C84.9275 64.3996 81.5214 66.1788 75.3206 66.1788C68.7991 66.1788 65.5106 64.2104 63.8906 62.5234Z" fill="url(#paint7_linear)"/>
</g>
<defs>
<filter id="filter0_di" x="20.3584" y="-1.27148" width="71.3277" height="71.3277" filterUnits="userSpaceOnUse" color-interpolation-filters="sRGB">
<feFlood flood-opacity="0" result="BackgroundImageFix"/>
<feColorMatrix in="SourceAlpha" type="matrix" values="0 0 0 0 0 0 0 0 0 0 0 0 0 0 0 0 0 0 127 0"/>
<feOffset dx="3" dy="1"/>
<feGaussianBlur stdDeviation="2"/>
<feColorMatrix type="matrix" values="0 0 0 0 0.0520139 0 0 0 0 0.0547906 0 0 0 0 0.0583333 0 0 0 0.44 0"/>
<feBlend mode="normal" in2="BackgroundImageFix" result="effect1_dropShadow"/>
<feBlend mode="normal" in="SourceGraphic" in2="effect1_dropShadow" result="shape"/>
<feColorMatrix in="SourceAlpha" type="matrix" values="0 0 0 0 0 0 0 0 0 0 0 0 0 0 0 0 0 0 127 0" result="hardAlpha"/>
<feOffset dx="3" dy="3"/>
<feGaussianBlur stdDeviation="2"/>
<feComposite in2="hardAlpha" operator="arithmetic" k2="-1" k3="1"/>
<feColorMatrix type="matrix" values="0 0 0 0 0.26875 0 0 0 0 0.369064 0 0 0 0 0.5 0 0 0 0.31 0"/>
<feBlend mode="normal" in2="shape" result="effect2_innerShadow"/>
</filter>
<filter id="filter1_i" x="27.9697" y="8.33984" width="50.1046" height="54.1046" filterUnits="userSpaceOnUse" color-interpolation-filters="sRGB">
<feFlood flood-opacity="0" result="BackgroundImageFix"/>
<feBlend mode="normal" in="SourceGraphic" in2="BackgroundImageFix" result="shape"/>
<feColorMatrix in="SourceAlpha" type="matrix" values="0 0 0 0 0 0 0 0 0 0 0 0 0 0 0 0 0 0 127 0" result="hardAlpha"/>
<feOffset dy="4"/>
<feGaussianBlur stdDeviation="2"/>
<feComposite in2="hardAlpha" operator="arithmetic" k2="-1" k3="1"/>
<feColorMatrix type="matrix" values="0 0 0 0 0.175642 0 0 0 0 0.217993 0 0 0 0 0.279167 0 0 0 1 0"/>
<feBlend mode="normal" in2="shape" result="effect1_innerShadow"/>
</filter>
<filter id="filter2_di" x="9.26074" y="7.79102" width="71.3276" height="71.3277" filterUnits="userSpaceOnUse" color-interpolation-filters="sRGB">
<feFlood flood-opacity="0" result="BackgroundImageFix"/>
<feColorMatrix in="SourceAlpha" type="matrix" values="0 0 0 0 0 0 0 0 0 0 0 0 0 0 0 0 0 0 127 0"/>
<feOffset dx="3" dy="1"/>
<feGaussianBlur stdDeviation="2"/>
<feColorMatrix type="matrix" values="0 0 0 0 0.0520139 0 0 0 0 0.0547906 0 0 0 0 0.0583333 0 0 0 0.44 0"/>
<feBlend mode="normal" in2="BackgroundImageFix" result="effect1_dropShadow"/>
<feBlend mode="normal" in="SourceGraphic" in2="effect1_dropShadow" result="shape"/>
<feColorMatrix in="SourceAlpha" type="matrix" values="0 0 0 0 0 0 0 0 0 0 0 0 0 0 0 0 0 0 127 0" result="hardAlpha"/>
<feOffset dx="3" dy="3"/>
<feGaussianBlur stdDeviation="2"/>
<feComposite in2="hardAlpha" operator="arithmetic" k2="-1" k3="1"/>
<feColorMatrix type="matrix" values="0 0 0 0 0.26875 0 0 0 0 0.369064 0 0 0 0 0.5 0 0 0 0.31 0"/>
<feBlend mode="normal" in2="shape" result="effect2_innerShadow"/>
</filter>
<filter id="filter3_i" x="16.8721" y="17.4023" width="50.1046" height="54.1046" filterUnits="userSpaceOnUse" color-interpolation-filters="sRGB">
<feFlood flood-opacity="0" result="BackgroundImageFix"/>
<feBlend mode="normal" in="SourceGraphic" in2="BackgroundImageFix" result="shape"/>
<feColorMatrix in="SourceAlpha" type="matrix" values="0 0 0 0 0 0 0 0 0 0 0 0 0 0 0 0 0 0 127 0" result="hardAlpha"/>
<feOffset dy="4"/>
<feGaussianBlur stdDeviation="2"/>
<feComposite in2="hardAlpha" operator="arithmetic" k2="-1" k3="1"/>
<feColorMatrix type="matrix" values="0 0 0 0 0.175642 0 0 0 0 0.217993 0 0 0 0 0.279167 0 0 0 1 0"/>
<feBlend mode="normal" in2="shape" result="effect1_innerShadow"/>
</filter>
<filter id="filter4_i" x="63.8906" y="49.7002" width="22.86" height="28.3323" filterUnits="userSpaceOnUse" color-interpolation-filters="sRGB">
<feFlood flood-opacity="0" result="BackgroundImageFix"/>
<feBlend mode="normal" in="SourceGraphic" in2="BackgroundImageFix" result="shape"/>
<feColorMatrix in="SourceAlpha" type="matrix" values="0 0 0 0 0 0 0 0 0 0 0 0 0 0 0 0 0 0 127 0" result="hardAlpha"/>
<feOffset dy="4"/>
<feGaussianBlur stdDeviation="2"/>
<feComposite in2="hardAlpha" operator="arithmetic" k2="-1" k3="1"/>
<feColorMatrix type="matrix" values="0 0 0 0 0.175642 0 0 0 0 0.217993 0 0 0 0 0.279167 0 0 0 1 0"/>
<feBlend mode="normal" in2="shape" result="effect1_innerShadow"/>
</filter>
<linearGradient id="paint0_linear" x1="66.9144" y1="96.5674" x2="55.0929" y2="49.5794" gradientUnits="userSpaceOnUse">
<stop stop-color="#1B1D20" stop-opacity="0"/>
<stop offset="0.9362" stop-color="#202733"/>
</linearGradient>
<linearGradient id="paint1_linear" x1="27.9687" y1="33.3915" x2="78.0748" y2="33.3915" gradientUnits="userSpaceOnUse">
<stop stop-color="#323B49"/>
<stop offset="1" stop-color="#37455A"/>
</linearGradient>
<linearGradient id="paint2_linear" x1="16.871" y1="42.454" x2="66.9771" y2="42.454" gradientUnits="userSpaceOnUse">
<stop stop-color="#323B49"/>
<stop offset="1" stop-color="#37455A"/>
</linearGradient>
<linearGradient id="paint3_linear" x1="27.8333" y1="41.1469" x2="45.3414" y2="53.4997" gradientUnits="userSpaceOnUse">
<stop stop-color="#7B91AD"/>
<stop offset="1" stop-color="#537093"/>
</linearGradient>
<linearGradient id="paint4_linear" x1="82.046" y1="81.7307" x2="74.4186" y2="59.7172" gradientUnits="userSpaceOnUse">
<stop stop-color="#1B1D20" stop-opacity="0"/>
<stop offset="0.9362" stop-color="#202733"/>
</linearGradient>
<linearGradient id="paint5_linear" x1="63.8901" y1="61.866" x2="86.7508" y2="61.866" gradientUnits="userSpaceOnUse">
<stop stop-color="#323B49"/>
<stop offset="1" stop-color="#37455A"/>
</linearGradient>
<linearGradient id="paint6_linear" x1="63.8872" y1="57.1826" x2="86.7503" y2="57.1826" gradientUnits="userSpaceOnUse">
<stop stop-color="#2F3949"/>
<stop offset="1" stop-color="#333C4B"/>
</linearGradient>
<linearGradient id="paint7_linear" x1="63.8901" y1="65.2741" x2="86.7508" y2="65.2741" gradientUnits="userSpaceOnUse">
<stop stop-color="#2F3949"/>
<stop offset="1" stop-color="#333C4B"/>
</linearGradient>
<clipPath id="clip0">
<rect width="100" height="100" fill="white"/>
</clipPath>
</defs>
</svg>
