<svg width="100" height="100" viewBox="0 0 100 100" fill="none" xmlns="http://www.w3.org/2000/svg">
    <ellipse cx="50" cy="59.3059" rx="50" ry="23.4375" fill="#F6FBFF"/>
    <mask id="mask0_1326_20869" style="mask-type:alpha" maskUnits="userSpaceOnUse" x="27" y="22" width="46" height="37">
        <rect x="27.7778" y="22.2222" width="44.4445" height="36.2963" fill="white"/>
    </mask>
    <g mask="url(#mask0_1326_20869)">
        <path fill-rule="evenodd" clip-rule="evenodd"
              d="M37.3051 29.6301C37.0044 29.6301 36.7197 29.7654 36.5298 29.9985L27.7778 40.7412H72.2223L63.4829 29.999C63.293 29.7656 63.0081 29.6301 62.7072 29.6301H37.3051ZM72.2223 40.7415H27.7778V56.5193C27.7778 57.6238 28.6733 58.5193 29.7778 58.5193H70.2223C71.3269 58.5193 72.2223 57.6238 72.2223 56.5193V40.7415Z"
              fill="url(#paint0_linear_1326_20869)"/>
        <rect x="45.5562" y="51.8526" width="8.8889" height="1.48148" rx="0.740738" fill="white"/>
        <path fill-rule="evenodd" clip-rule="evenodd"
              d="M37.9894 31.1584C37.6888 31.1584 37.4041 31.2937 37.2142 31.5267L31.5767 38.4443C31.3105 38.7709 31.543 39.2602 31.9643 39.2602H36.6662V46.1489C36.6662 47.2535 37.5617 48.1489 38.6662 48.1489H61.3329C62.4375 48.1489 63.3329 47.2535 63.3329 46.1489V39.2602H68.0402C68.4615 39.2602 68.6939 38.7709 68.4277 38.4443L62.7903 31.5267C62.6004 31.2937 62.3157 31.1584 62.0151 31.1584H37.9894Z"
              fill="white"/>
        <path d="M38.1499 24.2222C38.1499 23.1177 39.0453 22.2222 40.1499 22.2222H59.8536C60.9582 22.2222 61.8536 23.1177 61.8536 24.2222V44.6667C61.8536 45.7712 60.9582 46.6667 59.8536 46.6667H40.1499C39.0453 46.6667 38.1499 45.7712 38.1499 44.6667V24.2222Z"
              fill="url(#paint1_linear_1326_20869)"/>
        <rect x="41.853" y="25.9254" width="4.44447" height="4.44445" rx="1" fill="#EDF4FF"/>
        <rect x="41.853" y="34.074" width="16.2963" height="2.22222" rx="1" fill="#EDF4FF"/>
        <rect x="41.853" y="37.7779" width="8.14816" height="2.22222" rx="1" fill="#EDF4FF"/>
    </g>
    <defs>
        <linearGradient id="paint0_linear_1326_20869" x1="50" y1="34" x2="57.6379" y2="77.731"
                        gradientUnits="userSpaceOnUse">
            <stop offset="0.295022" stop-color="#00A3FF"/>
            <stop offset="1" stop-color="#7CFF00"/>
        </linearGradient>
        <linearGradient id="paint1_linear_1326_20869" x1="48.482" y1="22.2222" x2="48.482" y2="47.2222"
                        gradientUnits="userSpaceOnUse">
            <stop stop-color="#01A3FF"/>
            <stop offset="1" stop-color="white"/>
        </linearGradient>
    </defs>
</svg>
