<svg width="16" height="16" viewBox="0 0 16 16" fill="none" xmlns="http://www.w3.org/2000/svg">
    <circle cx="8" cy="8" r="5.4" stroke="#73898F" stroke-width="1.2"/>
    <path d="M7.584 8.944H8.408L8.616 6.208L8.656 5.016H7.336L7.376 6.208L7.584 8.944ZM8 11.08C8.4 11.08 8.704 10.784 8.704 10.368C8.704 9.952 8.4 9.664 8 9.664C7.592 9.664 7.288 9.952 7.288 10.368C7.288 10.784 7.584 11.08 8 11.08Z"
          fill="#73898F"/>
    <path d="M7.584 8.944L7.48429 8.95158L7.49131 9.044H7.584V8.944ZM8.408 8.944V9.044H8.50069L8.50771 8.95158L8.408 8.944ZM8.616 6.208L8.7158 6.21559L8.71594 6.21135L8.616 6.208ZM8.656 5.016L8.75594 5.01935L8.75941 4.916H8.656V5.016ZM7.336 5.016V4.916H7.23259L7.23606 5.01935L7.336 5.016ZM7.376 6.208L7.27597 6.21136L7.27629 6.21558L7.376 6.208ZM7.584 9.044H8.408V8.844H7.584V9.044ZM8.50771 8.95158L8.71571 6.21558L8.51629 6.20042L8.30829 8.93642L8.50771 8.95158ZM8.71594 6.21135L8.75594 5.01935L8.55606 5.01265L8.51606 6.20465L8.71594 6.21135ZM8.656 4.916H7.336V5.116H8.656V4.916ZM7.23606 5.01935L7.27606 6.21135L7.47594 6.20465L7.43594 5.01265L7.23606 5.01935ZM7.27629 6.21558L7.48429 8.95158L7.68371 8.93642L7.47571 6.20042L7.27629 6.21558ZM8 11.18C8.45523 11.18 8.804 10.8392 8.804 10.368H8.604C8.604 10.7288 8.34477 10.98 8 10.98V11.18ZM8.804 10.368C8.804 9.89527 8.45371 9.564 8 9.564V9.764C8.34629 9.764 8.604 10.0087 8.604 10.368H8.804ZM8 9.564C7.53904 9.564 7.188 9.89453 7.188 10.368H7.388C7.388 10.0095 7.64496 9.764 8 9.764V9.564ZM7.188 10.368C7.188 10.8392 7.52877 11.18 8 11.18V10.98C7.63923 10.98 7.388 10.7288 7.388 10.368H7.188Z"
          fill="#B6B8B7"/>
</svg>
