<svg width="18" height="18" viewBox="0 0 18 18" fill="none" xmlns="http://www.w3.org/2000/svg">
<circle opacity="0.06" cx="9" cy="9" r="9" fill="#171B21"/>
<path fill-rule="evenodd" clip-rule="evenodd" d="M4.98719 4.98719C5.26178 4.7126 5.70697 4.7126 5.98156 4.98719L13.3644 12.37C13.639 12.6446 13.639 13.0898 13.3644 13.3644C13.0898 13.639 12.6446 13.639 12.37 13.3644L4.98719 5.98156C4.7126 5.70697 4.7126 5.26178 4.98719 4.98719Z" fill="#B0B4B9"/>
<path fill-rule="evenodd" clip-rule="evenodd" d="M13.3644 4.98719C13.639 5.26178 13.639 5.70697 13.3644 5.98156L5.98156 13.3644C5.70697 13.639 5.26178 13.639 4.98719 13.3644C4.7126 13.0898 4.7126 12.6446 4.98719 12.37L12.37 4.98719C12.6446 4.7126 13.0898 4.7126 13.3644 4.98719Z" fill="#B0B4B9"/>
</svg>
