<svg width="48" height="48" viewBox="0 0 48 48" fill="none" xmlns="http://www.w3.org/2000/svg">
    <circle cx="24" cy="24" r="24" fill="#3BBFAA"/>
    <g clip-path="url(#clip0_453_672)">
        <path d="M26.4635 20.5466C26.1937 23.6383 23.1499 26.4356 22.121 28.2023C21.1091 29.9398 20.7734 31.5796 21.57 34.8309C21.5862 34.8972 21.5223 34.9565 21.4606 34.929C20.3847 34.4487 16.6665 32.7026 16.6665 28.1318C16.6665 22.017 23.3974 21.8549 22.9493 13.4234C22.9458 13.3567 23.0177 13.3094 23.0727 13.3463C25.3479 14.8718 26.7282 17.5136 26.4635 20.5466Z"
              fill="white"/>
        <path d="M22.0799 35.0481C22.0487 35.0379 22.0267 35.0086 22.0249 34.9754C21.9178 32.9203 22.9958 31.5852 24.2066 30.5981C26.97 28.345 28.6294 25.2691 27.7532 21.7091C27.7333 21.6284 27.8281 21.5712 27.8844 21.6316C28.5922 22.3921 29.3761 23.6218 29.7821 24.4821C31.4784 28.1792 30.5731 32.416 26.514 34.5541C25.2227 35.2043 23.6857 35.5732 22.0799 35.0481Z"
              fill="white"/>
    </g>
    <defs>
        <clipPath id="clip0_453_672">
            <rect width="14" height="22" fill="white" transform="translate(16.6665 13.3334)"/>
        </clipPath>
    </defs>
</svg>
