<svg width="110" height="118" viewBox="0 0 110 118" fill="none" xmlns="http://www.w3.org/2000/svg">
<g filter="url(#filter0_d)">
<path d="M51 17.3094C53.4752 15.8803 56.5248 15.8803 59 17.3094L85.641 32.6906C88.1162 34.1197 89.641 36.7607 89.641 39.6188V70.3812C89.641 73.2393 88.1162 75.8803 85.641 77.3094L59 92.6906C56.5248 94.1197 53.4752 94.1197 51 92.6906L24.359 77.3094C21.8838 75.8803 20.359 73.2393 20.359 70.3812V39.6188C20.359 36.7607 21.8838 34.1197 24.359 32.6906L51 17.3094Z" fill="#212226"/>
</g>
<path d="M55 68.5C47.0547 68.5 40 63.4909 40 55.5456C40 53.5521 41.5 53.5001 41.5 53.5001H53.4545L68.5 53.4998C68.5 53.4998 68.8217 53.2896 68.8217 55.5456C68.8217 63.4909 62.9453 68.5 55 68.5Z" fill="url(#paint0_linear)" fill-opacity="0.8"/>
<path d="M63.8263 63.6142C61.4063 65.9307 58.1852 67.2232 54.8352 67.222C51.3482 67.1921 48.0141 65.7859 45.5589 63.3095C43.1037 60.8331 41.7262 57.487 41.7264 53.9998C41.7414 53.7841 41.682 53.5697 41.5579 53.3925C41.4339 53.2154 41.2528 53.0861 41.045 53.0264C40.8371 52.9667 40.615 52.9802 40.4159 53.0645C40.2167 53.1488 40.0526 53.299 39.9508 53.4898L37.9297 57.532C37.8749 57.6436 37.8427 57.7649 37.8349 57.889C37.8271 58.0131 37.8438 58.1374 37.8842 58.255C37.9245 58.3726 37.9877 58.481 38.0701 58.5742C38.1525 58.6673 38.2524 58.7432 38.3642 58.7976C38.4935 58.861 38.6357 58.8933 38.7797 58.892C38.9567 58.8924 39.1303 58.843 39.2806 58.7495C39.4309 58.656 39.5518 58.5221 39.6297 58.3631L40.1964 57.2298C40.9285 60.5762 42.7759 63.5746 45.4357 65.7333C48.0954 67.892 51.4098 69.083 54.8352 69.1109C58.6689 69.1153 62.3565 67.6402 65.1296 64.9931C65.2298 64.9104 65.3119 64.8079 65.3707 64.6921C65.4295 64.5762 65.4638 64.4495 65.4714 64.3198C65.4789 64.1901 65.4597 64.0602 65.4148 63.9383C65.3699 63.8163 65.3003 63.705 65.2104 63.6112C65.1205 63.5174 65.0122 63.4431 64.8923 63.3931C64.7724 63.343 64.6435 63.3183 64.5136 63.3203C64.3837 63.3224 64.2556 63.3512 64.1373 63.4051C64.019 63.4589 63.8189 63.6069 63.7321 63.7035L63.8263 63.6142ZM71.3063 48.9943C71.1947 48.9395 71.0734 48.9073 70.9493 48.8994C70.8252 48.8916 70.7009 48.9084 70.5833 48.9487C70.4657 48.9891 70.3572 49.0523 70.2641 49.1346C70.171 49.217 70.0951 49.317 70.0407 49.4287L69.4363 50.6565C68.6834 47.3373 66.832 44.3695 64.182 42.2337C61.532 40.0979 58.2386 38.9193 54.8352 38.8888C52.8606 38.8816 50.9045 39.2688 49.0816 40.0278C47.2586 40.7868 45.6057 41.9023 44.2197 43.3088C44.1215 43.3941 44.042 43.4989 43.9862 43.6165C43.9303 43.734 43.8994 43.8618 43.8953 43.9919C43.8913 44.122 43.9141 44.2515 43.9625 44.3723C44.0108 44.4932 44.0836 44.6027 44.1763 44.6941C44.2689 44.7854 44.3795 44.8567 44.501 44.9033C44.6225 44.9499 44.7523 44.9709 44.8823 44.965C45.0123 44.9591 45.1397 44.9263 45.2565 44.8689C45.3732 44.8114 45.4768 44.7304 45.5608 44.631C46.7725 43.4038 48.217 42.4309 49.8095 41.7692C51.4021 41.1076 53.1107 40.7705 54.8352 40.7777C58.3223 40.8075 61.6563 42.2138 64.1115 44.6902C66.5667 47.1666 67.9442 50.5126 67.9441 53.9998C67.9441 54.2503 68.0436 54.4905 68.2207 54.6676C68.3978 54.8448 68.638 54.9443 68.8885 54.9443C69.0987 54.9453 69.3029 54.8749 69.4677 54.7444C69.6325 54.6139 69.748 54.4313 69.7952 54.2265L71.684 50.2598C71.7989 50.0414 71.8238 49.7866 71.7531 49.55C71.6825 49.3135 71.5221 49.114 71.3063 48.9943Z" fill="#2483FF" stroke="#2483FF" stroke-width="0.8"/>
<path d="M56.0652 60.2182L56.0652 59.5001L56.0435 59.0002C56.0429 58.7756 55.8605 58.5941 55.6359 58.5947L53.9914 58.599C53.7669 58.5996 53.5853 58.7821 53.5859 59.0066L53.6047 59.5001L53.6047 60.2111L53.6292 62.4534C53.6298 62.6779 53.8123 62.8594 54.0368 62.8588L55.6814 62.8545C55.9059 62.8539 56.0874 62.6714 56.0868 62.4469L56.0652 60.2182Z" fill="#03A87B"/>
<path d="M56.0652 46.2182V48.1732L56.0435 45.9055C56.0429 45.6809 55.8605 45.4994 55.6359 45.5L53.9914 45.5043C53.7669 45.5049 53.5853 45.6874 53.5859 45.9119L53.6047 48.1732V46.2112L53.6292 48.4534C53.6299 48.678 53.8123 48.8595 54.0369 48.8589L55.6814 48.8546C55.9059 48.854 56.0875 48.6715 56.0868 48.447L56.0652 46.2182Z" fill="#03A87B"/>
<path d="M58.7616 54.3141L58.7591 54.3116C58.2889 53.8186 57.6279 53.4672 56.7948 53.2673L53.7195 52.562C53.4145 52.4895 53.1829 52.3869 53.0306 52.2561L53.0281 52.2539C52.9311 52.1719 52.8018 52.0196 52.8018 51.6467C52.8018 51.0975 53.006 50.731 53.4431 50.4939C53.7834 50.3115 54.2396 50.219 54.7989 50.219C55.4221 50.219 55.9412 50.3545 56.3418 50.6214L56.3445 50.6232C56.7958 50.919 57.0059 51.3395 57.0059 51.9465C57.0059 52.2008 57.2123 52.4072 57.4666 52.4072H58.8304C59.0847 52.4072 59.2911 52.2008 59.2911 51.9465C59.2911 50.9623 59.0239 50.1379 58.4987 49.4978C57.9436 48.814 57.1226 48.3711 56.0491 48.173C56.0491 48.173 55.5 48.0449 54.7989 48.0449C54.0978 48.0449 53.5915 48.1426 53.5915 48.1426C52.7299 48.2996 52.0188 48.6629 51.4693 49.2293C50.8067 49.9158 50.4707 50.7958 50.4707 51.8451C50.4707 52.8108 50.8276 53.5793 51.5332 54.1304C51.9328 54.4394 52.4654 54.6747 53.1163 54.8295L55.3223 55.3354C56.3528 55.5759 56.781 55.7977 56.9586 55.9414C57.1616 56.1057 57.2602 56.3828 57.2602 56.7889C57.2602 57.1817 57.1195 57.4686 56.8188 57.6904C56.4121 57.9889 55.7677 58.1401 54.9033 58.1401C54.1726 58.1401 53.5847 57.9908 53.1559 57.6965C52.6448 57.3451 52.3966 56.8174 52.3966 56.0827C52.3966 55.8284 52.1902 55.622 51.9359 55.622H50.5721C50.3177 55.622 50.1113 55.8284 50.1113 56.0827C50.1113 56.6924 50.1983 57.2484 50.3697 57.7343C50.5493 58.2451 50.8817 58.7221 51.3556 59.1506C51.7341 59.4959 52.1383 59.757 52.5579 59.9268C52.8702 60.0528 53.2262 60.1477 53.6231 60.2109C53.6231 60.2109 53.9928 60.3044 54.9033 60.3019C55.8139 60.2994 56.0807 60.218 56.0807 60.218C56.7899 60.1065 57.4196 59.8884 57.9605 59.5641C59.0426 58.908 59.5912 57.9078 59.5912 56.5923C59.5912 55.6665 59.312 54.8998 58.7616 54.3141Z" fill="#2483FF"/>
<path opacity="0.2" d="M57.4959 21.7105L81.98 35.8464C83.6817 36.8289 84.73 38.6446 84.73 40.6095V68.8813C84.73 70.8463 83.6817 72.662 81.98 73.6445L57.4959 87.7803C55.7942 88.7628 53.6976 88.7628 51.9959 87.7803L27.5118 73.6445C25.8101 72.662 24.7618 70.8463 24.7618 68.8813V40.6095C24.7618 38.6446 25.8101 36.8289 27.5118 35.8464L51.9959 21.7105C53.6976 20.728 55.7942 20.728 57.4959 21.7105Z" stroke="#2483FF"/>
<defs>
<filter id="filter0_d" x="0.359375" y="0.237793" width="109.282" height="117.525" filterUnits="userSpaceOnUse" color-interpolation-filters="sRGB">
<feFlood flood-opacity="0" result="BackgroundImageFix"/>
<feColorMatrix in="SourceAlpha" type="matrix" values="0 0 0 0 0 0 0 0 0 0 0 0 0 0 0 0 0 0 127 0"/>
<feOffset dy="4"/>
<feGaussianBlur stdDeviation="10"/>
<feColorMatrix type="matrix" values="0 0 0 0 0 0 0 0 0 0 0 0 0 0 0 0 0 0 0.3 0"/>
<feBlend mode="normal" in2="BackgroundImageFix" result="effect1_dropShadow"/>
<feBlend mode="normal" in="SourceGraphic" in2="effect1_dropShadow" result="shape"/>
</filter>
<linearGradient id="paint0_linear" x1="54.4109" y1="41.1346" x2="54.4109" y2="69.9563" gradientUnits="userSpaceOnUse">
<stop stop-color="#2483FF" stop-opacity="0.5"/>
<stop offset="1" stop-color="#2483FF" stop-opacity="0"/>
</linearGradient>
</defs>
</svg>
