<svg width="110" height="118" viewBox="0 0 110 118" fill="none" xmlns="http://www.w3.org/2000/svg">
<g filter="url(#filter0_d)">
<path d="M51 17.3094C53.4752 15.8803 56.5248 15.8803 59 17.3094L85.641 32.6906C88.1162 34.1197 89.641 36.7607 89.641 39.6188V70.3812C89.641 73.2393 88.1162 75.8803 85.641 77.3094L59 92.6906C56.5248 94.1197 53.4752 94.1197 51 92.6906L24.359 77.3094C21.8838 75.8803 20.359 73.2393 20.359 70.3812V39.6188C20.359 36.7607 21.8838 34.1197 24.359 32.6906L51 17.3094Z" fill="#212226"/>
</g>
<path d="M43.1077 66.9925C45.1795 69.0643 47.8964 70.1002 50.6132 70.1002C53.33 70.1002 56.0468 69.0643 58.0991 66.9925L61.6955 63.3962C63.435 61.6371 63.435 58.7834 61.6955 57.0439L60.8355 56.1839L63.6891 53.3302L64.6468 54.288C65.2527 54.8939 66.0345 55.2261 66.8945 55.2261C67.735 55.2261 69.1423 54.288 69.1423 54.288L69.1171 54.3045L64.8231 52.1184H54.0731L56.7505 46.3916L53.8968 49.2452L53.0368 48.3852C52.1964 47.5448 51.0627 47.0757 49.8705 47.0757C48.6782 47.0757 47.5445 47.5448 46.7041 48.3852L43.1077 51.9816C41.0945 53.9948 40 56.653 40 59.4871C40 62.3212 41.0945 64.9793 43.1077 66.9925Z" fill="url(#paint0_linear)" fill-opacity="0.8"/>
<path d="M50.6132 70.1C47.8964 70.1 45.1795 69.0641 43.1077 66.9923C41.0945 64.9791 40 62.3209 40 59.4868C40 56.6527 41.0945 53.9945 43.1077 51.9814L46.7041 48.385C47.5445 47.5445 48.6782 47.0755 49.8705 47.0755C51.0627 47.0755 52.1964 47.5445 53.0368 48.385L53.8968 49.245L56.7505 46.3914L55.7927 45.4336C55.1868 44.8277 54.8545 44.0264 54.8545 43.1859C54.8545 42.3259 55.1868 41.5441 55.7927 40.9382C57.0241 39.6873 59.0568 39.6873 60.2882 40.9382L69.1423 49.7923C70.3736 51.0432 70.3736 53.0564 69.1423 54.2877C68.5364 54.8936 67.735 55.2259 66.8945 55.2259C66.0345 55.2259 65.2527 54.8936 64.6468 54.2877L63.6891 53.33L60.8355 56.1836L61.6955 57.0436C63.435 58.7832 63.435 61.6368 61.6955 63.3959L58.0991 66.9923C56.0468 69.0641 53.33 70.1 50.6132 70.1ZM49.89 49.6164C49.3623 49.6164 48.8736 49.8118 48.5218 50.1832L44.9059 53.7795C43.3814 55.3041 42.5409 57.3368 42.5409 59.4868C42.5409 61.6368 43.3814 63.6695 44.9059 65.1941C48.0527 68.3409 53.1736 68.3409 56.3205 65.1941L59.9168 61.5977C60.6791 60.8355 60.6791 59.6041 59.9168 58.8418L58.1577 57.0827C57.6691 56.5941 57.6691 55.7732 58.1577 55.2845L62.8095 50.6327C63.2982 50.1441 64.1191 50.1441 64.6077 50.6327L66.4645 52.4895C66.6209 52.6459 66.8164 52.685 66.9141 52.685C67.0118 52.685 67.2073 52.6655 67.3636 52.4895C67.6177 52.2355 67.6177 51.825 67.3636 51.5905L58.5095 42.7364C58.3532 42.58 58.1577 42.5409 58.06 42.5409C57.9623 42.5409 57.7668 42.5605 57.6105 42.7364C57.4541 42.8927 57.415 43.0882 57.415 43.1859C57.415 43.2836 57.4345 43.4791 57.6105 43.6355L59.4673 45.4923C59.9559 45.9809 59.9559 46.8018 59.4673 47.2905L54.8155 51.9227C54.3268 52.4114 53.5059 52.4114 53.0173 51.9227L51.2582 50.1636C50.8868 49.8118 50.3982 49.6164 49.89 49.6164Z" fill="#2483FF"/>
<path d="M47.6621 63.6895C47.3298 63.6895 47.0171 63.5722 46.763 63.3181C46.2743 62.8295 46.2743 62.0086 46.763 61.52L52.353 55.93C52.8416 55.4413 53.6625 55.4413 54.1511 55.93C54.6398 56.4186 54.6398 57.2395 54.1511 57.7281L48.5611 63.3181C48.3071 63.5722 47.9748 63.6895 47.6621 63.6895V63.6895Z" fill="#03A87B"/>
<path opacity="0.2" d="M57.4959 21.7105L81.98 35.8464C83.6817 36.8289 84.73 38.6446 84.73 40.6095V68.8813C84.73 70.8463 83.6817 72.662 81.98 73.6445L57.4959 87.7803C55.7942 88.7628 53.6976 88.7628 51.9959 87.7803L27.5118 73.6445C25.8101 72.662 24.7618 70.8463 24.7618 68.8813V40.6095C24.7618 38.6446 25.8101 36.8289 27.5118 35.8464L51.9959 21.7105C53.6976 20.728 55.7942 20.728 57.4959 21.7105Z" stroke="#2483FF"/>
<defs>
<filter id="filter0_d" x="0.359375" y="0.237793" width="109.282" height="117.525" filterUnits="userSpaceOnUse" color-interpolation-filters="sRGB">
<feFlood flood-opacity="0" result="BackgroundImageFix"/>
<feColorMatrix in="SourceAlpha" type="matrix" values="0 0 0 0 0 0 0 0 0 0 0 0 0 0 0 0 0 0 127 0"/>
<feOffset dy="4"/>
<feGaussianBlur stdDeviation="10"/>
<feColorMatrix type="matrix" values="0 0 0 0 0 0 0 0 0 0 0 0 0 0 0 0 0 0 0.3 0"/>
<feBlend mode="normal" in2="BackgroundImageFix" result="effect1_dropShadow"/>
<feBlend mode="normal" in="SourceGraphic" in2="effect1_dropShadow" result="shape"/>
</filter>
<linearGradient id="paint0_linear" x1="55.0329" y1="24.3354" x2="55.0329" y2="70.1001" gradientUnits="userSpaceOnUse">
<stop stop-color="#2483FF" stop-opacity="0.5"/>
<stop offset="1" stop-color="#2483FF" stop-opacity="0"/>
</linearGradient>
</defs>
</svg>
