<svg width="375" height="180" viewBox="0 0 375 180" fill="none" xmlns="http://www.w3.org/2000/svg">
<g clip-path="url(#clip0)">
<mask id="mask0" mask-type="alpha" maskUnits="userSpaceOnUse" x="0" y="-1" width="375" height="180">
<rect opacity="0.2" y="-1" width="375" height="180" fill="url(#paint0_radial)"/>
</mask>
<g mask="url(#mask0)">
<path d="M377.159 52.3036C375.587 51.1083 373.86 50.1122 372.044 49.3264C358.15 43.2944 341.71 48.6069 329.045 55.2034C322.07 58.8447 315.527 63.1833 308.807 67.2453C305.109 69.481 299.684 73.4543 295.057 72.7792C294.37 72.6796 293.728 72.4804 293.153 72.0819C291.271 70.798 292.057 67.7765 294.382 63.6261C297.404 59.0661 300.493 54.5504 303.626 50.0679C311.309 39.642 320.753 27.3013 325.004 16.8532C327.019 12.2489 328.458 7.01383 326.332 2.35425C326.233 2.14396 326.122 1.93369 326.011 1.7234C325.956 1.62379 325.912 1.51309 325.845 1.39135C325.624 1.00397 325.369 0.627687 325.081 0.273515C323.841 -1.44201 322.269 -2.7591 320.465 -3.72201C315.892 -6.15694 309.969 -6.36722 304.987 -5.61461C297.935 -4.55209 291.514 -1.17638 285.824 3.10689C285.292 3.43893 284.772 3.75989 284.285 4.10299C278.318 8.31986 271.442 16.0674 264.955 25.8293C255.489 39.5645 248.526 54.8714 244.44 71.0305C238.85 92.3362 239.237 113.941 251.891 128.606C251.902 128.617 251.913 128.639 251.935 128.65C252.688 129.524 253.474 130.376 254.316 131.195C254.736 131.605 255.157 131.992 255.578 132.358C255.722 132.479 255.855 132.59 255.999 132.712C256.275 132.944 256.552 133.177 256.818 133.387C256.984 133.52 257.15 133.63 257.316 133.752C257.56 133.929 257.803 134.106 258.047 134.272C258.224 134.394 258.401 134.505 258.578 134.615C258.811 134.759 259.032 134.903 259.253 135.025C259.442 135.136 259.619 135.224 259.807 135.324C260.028 135.434 260.239 135.556 260.46 135.656C260.648 135.744 260.837 135.822 261.025 135.899C261.235 135.988 261.445 136.076 261.656 136.154C261.844 136.22 262.032 136.287 262.22 136.353C262.42 136.42 262.63 136.475 262.829 136.53C263.017 136.586 263.217 136.63 263.405 136.674C263.604 136.718 263.804 136.752 263.992 136.796C264.191 136.829 264.379 136.862 264.578 136.895C264.767 136.918 264.955 136.94 265.143 136.951C265.342 136.973 265.542 136.984 265.741 136.995C265.929 137.006 266.106 136.995 266.283 136.995C266.483 136.995 266.693 136.995 266.892 136.984C267.058 136.973 267.224 136.951 267.391 136.94C267.601 136.918 267.822 136.907 268.033 136.873C268.154 136.851 268.265 136.829 268.387 136.807C268.952 136.707 269.505 136.575 270.07 136.408C270.125 136.386 270.18 136.375 270.236 136.364C270.479 136.287 270.723 136.187 270.966 136.099C271.099 136.054 271.221 136.01 271.354 135.955C271.586 135.866 271.819 135.755 272.04 135.656C272.151 135.601 272.262 135.567 272.372 135.512C272.439 135.534 272.494 135.567 272.561 135.589L272.472 135.457C291.481 126.259 308.608 79.099 338.765 72.9452C342.773 72.1262 347.921 72.0155 349.792 76.4205C352.925 83.8139 347.998 94.5387 345.463 101.489C342.418 109.823 338.964 118.135 337.702 126.979C337.359 129.38 337.248 132.059 338.743 133.974C340.492 136.209 343.78 136.519 346.57 136.021C351.087 135.202 355.183 132.778 358.637 129.757C368.468 121.168 375.554 108.96 380.159 96.874C384.599 85.2417 389.603 69.3592 382.285 57.8044C380.934 55.6793 379.174 53.831 377.159 52.3036Z" fill="url(#paint1_linear)"/>
<path opacity="0.7" d="M144.049 78.6895C141.924 77.0762 139.59 75.7318 137.136 74.6712C118.355 66.5301 96.1319 73.7003 79.0121 82.6032C69.5842 87.5177 60.74 93.3733 51.6563 98.8555C46.658 101.873 39.3252 107.236 33.0699 106.324C32.1421 106.19 31.2741 105.921 30.496 105.383C27.9519 103.651 29.0145 99.5725 32.1571 93.9709C36.2425 87.8165 40.4177 81.7219 44.6528 75.6721C55.0384 61.6007 67.8034 44.9451 73.5499 30.8438C76.2735 24.6297 78.219 17.5641 75.3457 11.2753C75.211 10.9915 75.0614 10.7077 74.9117 10.4239C74.8369 10.2895 74.777 10.1401 74.6872 9.97574C74.3879 9.45291 74.0438 8.94506 73.6547 8.46705C71.9786 6.1517 69.8536 4.37408 67.4143 3.07449C61.2338 -0.211819 53.2276 -0.495623 46.4934 0.520145C36.9608 1.95417 28.2812 6.5102 20.5892 12.2911C19.8709 12.7393 19.1676 13.1724 18.5091 13.6355C10.443 19.3268 1.14985 29.7832 -7.61958 42.9584C-20.4145 61.4961 -29.8275 82.1551 -35.3495 103.964C-42.9068 132.719 -42.383 161.878 -25.2781 181.671C-25.2632 181.685 -25.2482 181.715 -25.2183 181.73C-24.2007 182.91 -23.1382 184.061 -22.0008 185.166C-21.4322 185.719 -20.8635 186.241 -20.2948 186.734C-20.1003 186.899 -19.9207 187.048 -19.7262 187.212C-19.352 187.526 -18.9779 187.84 -18.6187 188.124C-18.3943 188.303 -18.1698 188.452 -17.9453 188.617C-17.6161 188.856 -17.2869 189.095 -16.9576 189.319C-16.7182 189.483 -16.4788 189.632 -16.2393 189.782C-15.9251 189.976 -15.6258 190.17 -15.3265 190.334C-15.0721 190.484 -14.8326 190.603 -14.5782 190.738C-14.2789 190.887 -13.9946 191.051 -13.6953 191.186C-13.4409 191.305 -13.1865 191.41 -12.9321 191.514C-12.6478 191.634 -12.3634 191.754 -12.0791 191.858C-11.8247 191.948 -11.5703 192.037 -11.3159 192.127C-11.0465 192.217 -10.7622 192.291 -10.4928 192.366C-10.2384 192.441 -9.96905 192.5 -9.71465 192.56C-9.44528 192.62 -9.17591 192.665 -8.92151 192.724C-8.65214 192.769 -8.39774 192.814 -8.12837 192.859C-7.87397 192.889 -7.61958 192.919 -7.36517 192.934C-7.09581 192.963 -6.82643 192.978 -6.55706 192.993C-6.30265 193.008 -6.06323 192.993 -5.8238 192.993C-5.55442 192.993 -5.27009 192.993 -5.00072 192.978C-4.77625 192.963 -4.55178 192.934 -4.3273 192.919C-4.04297 192.889 -3.74367 192.874 -3.45934 192.829C-3.29473 192.799 -3.14507 192.769 -2.98045 192.739C-2.21724 192.605 -1.46899 192.426 -0.705784 192.202C-0.630962 192.172 -0.556145 192.157 -0.481319 192.142C-0.152096 192.037 0.177139 191.903 0.506367 191.783C0.685944 191.724 0.850544 191.664 1.03012 191.589C1.34439 191.47 1.65866 191.32 1.95796 191.186C2.10761 191.111 2.25724 191.066 2.40689 190.992C2.49668 191.022 2.57152 191.066 2.66131 191.096L2.54159 190.917C28.2363 178.504 51.387 114.854 92.1513 106.548C97.5686 105.443 104.527 105.294 107.056 111.239C111.291 121.217 104.632 135.692 101.205 145.073C97.0897 156.321 92.4206 167.539 90.7146 179.475C90.2507 182.716 90.1011 186.331 92.1213 188.915C94.4858 191.933 98.9303 192.351 102.701 191.679C108.807 190.573 114.344 187.302 119.013 183.224C132.302 171.632 141.88 155.156 148.105 138.844C154.106 123.144 160.87 101.709 150.978 86.1136C149.152 83.2455 146.773 80.7509 144.049 78.6895Z" fill="url(#paint2_linear)"/>
</g>
</g>
<defs>
<radialGradient id="paint0_radial" cx="0" cy="0" r="1" gradientUnits="userSpaceOnUse" gradientTransform="translate(186.523 29.5725) rotate(90) scale(191.336 179.705)">
<stop stop-color="#3990FF"/>
<stop offset="1" stop-color="#0061DD"/>
</radialGradient>
<linearGradient id="paint1_linear" x1="241" y1="65.5056" x2="386.001" y2="65.5056" gradientUnits="userSpaceOnUse">
<stop stop-color="#005CD1" stop-opacity="0.65"/>
<stop offset="1" stop-color="#1130F8" stop-opacity="0.85"/>
</linearGradient>
<linearGradient id="paint2_linear" x1="-39.9998" y1="96.5076" x2="156.002" y2="96.5076" gradientUnits="userSpaceOnUse">
<stop stop-color="#001DD3"/>
<stop offset="1" stop-color="#005CD1"/>
</linearGradient>
<clipPath id="clip0">
<rect width="375" height="180" fill="white"/>
</clipPath>
</defs>
</svg>
