<svg width="1920" height="379" viewBox="0 0 1920 379" fill="none" xmlns="http://www.w3.org/2000/svg">
<g clip-path="url(#clip0)">
<mask id="mask0" mask-type="alpha" maskUnits="userSpaceOnUse" x="0" y="-1" width="1920" height="380">
<rect opacity="0.2" y="-1" width="1920" height="380" fill="url(#paint0_radial)"/>
</mask>
<g mask="url(#mask0)">
<path opacity="0.5" d="M743.978 199.295C736.15 193.343 727.551 188.384 718.51 184.471C649.327 154.438 567.466 180.889 504.402 213.733C469.673 231.863 437.093 253.465 403.632 273.69C385.22 284.821 358.208 304.605 335.166 301.243C331.748 300.747 328.551 299.755 325.684 297.771C316.313 291.379 320.227 276.335 331.803 255.67C346.852 232.966 362.233 210.482 377.833 188.163C416.09 136.252 463.112 74.8077 484.281 22.7865C494.314 -0.13813 501.48 -26.2039 490.896 -49.404C490.4 -50.4511 489.848 -51.498 489.297 -52.545C489.022 -53.041 488.801 -53.5921 488.47 -54.1983C487.368 -56.1271 486.1 -58.0006 484.667 -59.764C478.493 -68.3057 470.665 -74.8635 461.679 -79.6578C438.912 -91.7814 409.42 -92.8284 384.614 -89.0811C349.498 -83.7908 317.526 -66.9831 289.191 -45.6566C286.545 -44.0034 283.954 -42.4053 281.528 -40.697C251.816 -19.7011 217.583 18.874 185.279 67.4785C138.146 135.867 103.472 212.08 83.131 292.536C55.2925 398.618 57.2218 506.187 120.231 579.204C120.286 579.259 120.341 579.37 120.451 579.425C124.2 583.778 128.114 588.021 132.303 592.099C134.398 594.138 136.493 596.067 138.587 597.886C139.304 598.492 139.966 599.043 140.682 599.649C142.06 600.806 143.439 601.963 144.762 603.01C145.588 603.672 146.415 604.223 147.242 604.829C148.455 605.711 149.668 606.592 150.881 607.419C151.763 608.025 152.645 608.576 153.527 609.127C154.684 609.844 155.787 610.56 156.889 611.166C157.826 611.718 158.708 612.158 159.645 612.654C160.748 613.205 161.795 613.811 162.898 614.307C163.835 614.748 164.772 615.134 165.709 615.52C166.757 615.961 167.804 616.402 168.851 616.787C169.789 617.118 170.726 617.449 171.663 617.779C172.655 618.11 173.703 618.385 174.695 618.661C175.632 618.936 176.624 619.157 177.561 619.377C178.554 619.598 179.546 619.763 180.483 619.983C181.475 620.149 182.412 620.314 183.405 620.479C184.342 620.59 185.279 620.7 186.216 620.755C187.208 620.865 188.201 620.92 189.193 620.976C190.13 621.031 191.012 620.976 191.894 620.976C192.886 620.976 193.934 620.975 194.926 620.92C195.753 620.865 196.58 620.755 197.407 620.7C198.454 620.59 199.556 620.535 200.604 620.369C201.21 620.259 201.762 620.149 202.368 620.039C205.179 619.543 207.936 618.881 210.747 618.055C211.023 617.945 211.298 617.889 211.574 617.834C212.787 617.449 213.999 616.953 215.212 616.512C215.874 616.291 216.48 616.071 217.142 615.795C218.299 615.355 219.457 614.803 220.559 614.307C221.111 614.032 221.662 613.867 222.213 613.591C222.544 613.701 222.82 613.867 223.15 613.977L222.709 613.316C317.36 567.521 402.64 332.709 552.802 302.07C572.758 297.992 598.391 297.441 607.707 319.374C623.308 356.185 598.777 409.584 586.153 444.191C570.994 485.687 553.794 527.073 547.51 571.103C545.801 583.062 545.25 596.398 552.692 605.931C561.402 617.063 577.774 618.606 591.666 616.126C614.157 612.048 634.554 599.98 651.753 584.935C700.704 542.172 735.985 481.389 758.917 421.212C781.023 363.294 805.939 284.215 769.501 226.683C762.776 216.103 754.011 206.9 743.978 199.295Z" fill="url(#paint1_linear)"/>
<path d="M1675.56 118.052C1669.79 113.663 1663.46 110.006 1656.8 107.121C1605.82 84.9758 1545.5 104.48 1499.03 128.698C1473.44 142.066 1449.44 157.995 1424.78 172.907C1411.21 181.115 1391.31 195.703 1374.33 193.224C1371.81 192.859 1369.46 192.127 1367.35 190.664C1360.44 185.951 1363.32 174.858 1371.85 159.62C1382.94 142.879 1394.28 126.3 1405.77 109.844C1433.96 71.5667 1468.61 26.2599 1484.21 -12.0984C1491.6 -29.0021 1496.88 -48.222 1489.08 -65.3288C1488.72 -66.1008 1488.31 -66.8728 1487.9 -67.6448C1487.7 -68.0105 1487.54 -68.417 1487.29 -68.8639C1486.48 -70.2861 1485.55 -71.6676 1484.49 -72.9679C1479.94 -79.2661 1474.17 -84.1016 1467.55 -87.6367C1450.78 -96.5762 1429.05 -97.3482 1410.77 -94.5851C1384.89 -90.6842 1361.33 -78.2909 1340.46 -62.5656C1338.51 -61.3466 1336.6 -60.1682 1334.81 -58.9086C1312.92 -43.4271 1287.69 -14.9834 1263.89 20.8557C1229.16 71.2823 1203.61 127.479 1188.62 186.804C1168.11 265.024 1169.53 344.342 1215.96 398.181C1216 398.222 1216.04 398.303 1216.12 398.344C1218.88 401.554 1221.77 404.683 1224.85 407.69C1226.4 409.193 1227.94 410.615 1229.49 411.956C1230.01 412.403 1230.5 412.81 1231.03 413.257C1232.04 414.11 1233.06 414.963 1234.03 415.735C1234.64 416.223 1235.25 416.629 1235.86 417.076C1236.76 417.726 1237.65 418.376 1238.54 418.986C1239.19 419.433 1239.84 419.839 1240.49 420.246C1241.35 420.774 1242.16 421.302 1242.97 421.749C1243.66 422.155 1244.31 422.48 1245 422.846C1245.81 423.253 1246.59 423.699 1247.4 424.065C1248.09 424.39 1248.78 424.675 1249.47 424.959C1250.24 425.284 1251.01 425.609 1251.79 425.894C1252.48 426.138 1253.17 426.381 1253.86 426.625C1254.59 426.869 1255.36 427.072 1256.09 427.275C1256.78 427.478 1257.51 427.641 1258.2 427.804C1258.93 427.966 1259.67 428.088 1260.36 428.25C1261.09 428.372 1261.78 428.494 1262.51 428.616C1263.2 428.697 1263.89 428.779 1264.58 428.819C1265.31 428.901 1266.04 428.941 1266.77 428.982C1267.46 429.023 1268.11 428.982 1268.76 428.982C1269.5 428.982 1270.27 428.982 1271 428.941C1271.61 428.901 1272.22 428.819 1272.83 428.779C1273.6 428.697 1274.41 428.657 1275.18 428.535C1275.63 428.454 1276.03 428.372 1276.48 428.291C1278.55 427.925 1280.58 427.438 1282.66 426.828C1282.86 426.747 1283.06 426.706 1283.26 426.666C1284.16 426.381 1285.05 426.016 1285.95 425.69C1286.43 425.528 1286.88 425.366 1287.37 425.162C1288.22 424.837 1289.07 424.431 1289.89 424.065C1290.29 423.862 1290.7 423.74 1291.1 423.537C1291.35 423.618 1291.55 423.74 1291.79 423.821L1291.47 423.334C1361.21 389.567 1424.05 216.426 1534.7 193.834C1549.4 190.827 1568.29 190.421 1575.15 206.593C1586.65 233.736 1568.57 273.11 1559.27 298.629C1548.1 329.226 1535.43 359.742 1530.8 392.208C1529.54 401.026 1529.13 410.859 1534.62 417.889C1541.03 426.097 1553.1 427.235 1563.33 425.406C1579.91 422.399 1594.93 413.5 1607.61 402.407C1643.68 370.876 1669.67 326.056 1686.57 281.684C1702.86 238.978 1721.22 180.668 1694.37 138.247C1689.41 130.445 1682.96 123.659 1675.56 118.052Z" fill="url(#paint2_linear)"/>
</g>
</g>
<defs>
<radialGradient id="paint0_radial" cx="0" cy="0" r="1" gradientUnits="userSpaceOnUse" gradientTransform="translate(955 63.542) rotate(90) scale(403.931 920.092)">
<stop stop-color="#3990FF"/>
<stop offset="1" stop-color="#0061DD"/>
</radialGradient>
<linearGradient id="paint1_linear" x1="66.0006" y1="265.028" x2="788.006" y2="265.028" gradientUnits="userSpaceOnUse">
<stop stop-color="#001DD3"/>
<stop offset="1" stop-color="#005CD1"/>
</linearGradient>
<linearGradient id="paint2_linear" x1="1176" y1="166.521" x2="1708" y2="166.521" gradientUnits="userSpaceOnUse">
<stop stop-color="#005CD1" stop-opacity="0.45"/>
<stop offset="1" stop-color="#1130F8" stop-opacity="0.67"/>
</linearGradient>
<clipPath id="clip0">
<rect width="1920" height="379" fill="white"/>
</clipPath>
</defs>
</svg>
