<svg width="18" height="18" viewBox="0 0 18 18" fill="none" xmlns="http://www.w3.org/2000/svg">
<path d="M4.80864 5.0625H2.68749C2.1352 5.0625 1.6875 5.51022 1.6875 6.0625L1.6875 11.9375C1.6875 12.4898 2.13522 12.9375 2.6875 12.9375H4.80751C4.97482 12.9375 5.13947 12.9795 5.28636 13.0596L9.77115 15.5059C10.4375 15.8693 11.25 15.387 11.25 14.628V3.37204C11.25 2.61298 10.4375 2.13067 9.77115 2.49415L5.28636 4.9404C5.13947 5.02052 4.97596 5.0625 4.80864 5.0625Z" fill="#4690F1"/>
<path d="M12.8555 13.7144C13.9921 13.7144 15.0822 13.2628 15.8859 12.4591C16.6896 11.6554 17.1412 10.5653 17.1412 9.42864C17.1412 8.292 16.6896 7.20191 15.8859 6.39818C15.0822 5.59446 13.9921 5.14293 12.8555 5.14293V6.85721C13.5375 6.85721 14.1915 7.12813 14.6737 7.61037C15.156 8.0926 15.4269 8.74666 15.4269 9.42864C15.4269 10.1106 15.156 10.7647 14.6737 11.2469C14.1915 11.7292 13.5375 12.0001 12.8555 12.0001V13.7144Z" fill="#4690F1" stroke="#4690F1" stroke-width="0.3"/>
</svg>
