<svg width="110" height="118" viewBox="0 0 110 118" fill="none" xmlns="http://www.w3.org/2000/svg">
<g filter="url(#filter0_d)">
<path d="M51 17.3094C53.4752 15.8803 56.5248 15.8803 59 17.3094L85.641 32.6906C88.1162 34.1197 89.641 36.7607 89.641 39.6188V70.3812C89.641 73.2393 88.1162 75.8803 85.641 77.3094L59 92.6906C56.5248 94.1197 53.4752 94.1197 51 92.6906L24.359 77.3094C21.8838 75.8803 20.359 73.2393 20.359 70.3812V39.6188C20.359 36.7607 21.8838 34.1197 24.359 32.6906L51 17.3094Z" fill="white"/>
</g>
<path d="M70.7254 56.786C70.7254 53.6571 69.5 52 69.5 52L60.959 52.1118L49.5 52L40.9996 52.1118C40.9996 52.1118 39.2676 53.6571 39.2676 56.786V54.3251C39.2676 54.3532 39.2676 54.3778 39.2711 54.3989C39.2711 54.4235 39.2676 54.4481 39.2676 54.4763V63.195C39.2676 64.531 39.7914 65.7896 40.7406 66.7353C41.6934 67.6845 42.9555 68.2048 44.2984 68.2048H44.316C47.0934 68.1942 48.3379 67.0798 49.2344 63.7892L50.275 60.6321H59.718L60.7691 63.8243C61.7359 66.6685 62.8117 68.2083 65.7227 68.2083C68.4824 68.2083 70.7254 65.9618 70.7254 63.2056V54.4763C70.7254 54.4481 70.7254 54.4235 70.7219 54.4024C70.7219 54.3778 70.7254 54.3532 70.7254 54.3251V56.786Z" fill="url(#paint0_linear)" fill-opacity="0.8"/>
<path d="M48.4121 47.7998C45.9195 47.7998 43.8945 49.8283 43.8945 52.3174C43.8945 54.8064 45.9195 56.835 48.4121 56.835C50.9047 56.835 52.9297 54.81 52.9297 52.3174C52.9297 49.8248 50.9047 47.7998 48.4121 47.7998ZM48.4121 54.9436C46.9637 54.9436 45.7859 53.7658 45.7859 52.3174C45.7859 50.8689 46.9637 49.6912 48.4121 49.6912C49.8605 49.6912 51.0383 50.8689 51.0383 52.3174C51.0383 53.7658 49.8605 54.9436 48.4121 54.9436ZM65.1922 51.3717H62.566V48.7455C62.566 48.2217 62.1441 47.7998 61.6203 47.7998C61.0965 47.7998 60.6746 48.2217 60.6746 48.7455V51.3717H58.0484C57.5246 51.3717 57.1027 51.7936 57.1027 52.3174C57.1027 52.8412 57.5246 53.2631 58.0484 53.2631H60.6746V55.8893C60.6746 56.4131 61.0965 56.835 61.6203 56.835C62.1441 56.835 62.566 56.4131 62.566 55.8893V53.2631H65.1922C65.716 53.2631 66.1379 52.8412 66.1379 52.3174C66.1379 51.7936 65.716 51.3717 65.1922 51.3717Z" fill="#2483FF"/>
<path d="M70.7254 47.786C70.7254 44.6571 68.1801 42.1118 65.0512 42.1118H60.959C60.0766 42.1118 59.275 42.611 58.9199 43.388C58.5297 44.2353 57.6789 44.7837 56.7543 44.7837H53.2492C52.423 44.7837 51.6039 44.2177 51.1645 43.3388C50.7918 42.5935 49.9973 42.1118 49.1359 42.1118H44.9418C41.8129 42.1118 39.2676 44.6571 39.2676 47.786V54.3251C39.2676 54.3532 39.2676 54.3778 39.2711 54.3989C39.2711 54.4235 39.2676 54.4481 39.2676 54.4763V63.195C39.2676 64.531 39.7914 65.7896 40.7406 66.7353C41.6934 67.6845 42.9555 68.2048 44.2984 68.2048H44.316C47.0934 68.1942 48.3379 67.0798 49.2344 63.7892L50.275 60.6321H59.718L60.7691 63.8243C61.7359 66.6685 62.8117 68.2083 65.7227 68.2083C68.4824 68.2083 70.7254 65.9618 70.7254 63.2056V54.4763C70.7254 54.4481 70.7254 54.4235 70.7219 54.4024C70.7219 54.3778 70.7254 54.3532 70.7254 54.3251V47.786ZM68.834 54.3075C68.8305 54.3356 68.8305 54.3638 68.8305 54.42C68.8305 54.4446 68.8305 54.4692 68.834 54.4974V63.2056C68.834 64.9212 67.4383 66.3169 65.7227 66.3169C64.116 66.3169 63.4691 65.888 62.5621 63.2231L61.3 59.3911C61.1734 59.0044 60.8113 58.7407 60.4035 58.7407H49.593C49.1852 58.7407 48.823 59.0044 48.6965 59.3911L47.4344 63.2231C47.4309 63.2407 47.4238 63.2548 47.4203 63.2724C46.6328 66.1868 45.898 66.3099 44.3125 66.3169H44.302C43.4617 66.3169 42.6742 65.9899 42.0801 65.3993C41.4895 64.8087 41.1625 64.0282 41.1625 63.1985V54.5009C41.166 54.4763 41.166 54.4481 41.166 54.4235V54.3884C41.166 54.3638 41.166 54.3392 41.1625 54.311V47.786C41.1625 45.7013 42.8605 44.0032 44.9453 44.0032H49.1359C49.2836 44.0032 49.4172 44.0771 49.4734 44.186C50.2434 45.7224 51.6883 46.6751 53.2492 46.6751H56.7543C58.4172 46.6751 59.9395 45.6942 60.6391 44.179C60.6883 44.0771 60.8184 44.0032 60.9625 44.0032H65.0582C67.143 44.0032 68.841 45.7013 68.841 47.786V54.3075H68.834Z" fill="#2483FF" stroke="#2483FF" stroke-width="0.6"/>
<path d="M65.192 51.3717H62.5658V48.7455C62.5658 48.2217 62.1439 47.7998 61.6201 47.7998C61.0963 47.7998 60.6744 48.2217 60.6744 48.7455V51.3717H58.0482C57.5244 51.3717 57.1025 51.7936 57.1025 52.3174C57.1025 52.8412 57.5244 53.2631 58.0482 53.2631H60.6744V55.8893C60.6744 56.4131 61.0963 56.835 61.6201 56.835C62.1439 56.835 62.5658 56.4131 62.5658 55.8893V53.2631H65.192C65.7158 53.2631 66.1377 52.8412 66.1377 52.3174C66.1377 51.7936 65.7158 51.3717 65.192 51.3717Z" fill="#03A87B"/>
<path opacity="0.1" d="M51.9959 21.7105C53.6976 20.728 55.7942 20.728 57.4959 21.7105L81.98 35.8464C83.6817 36.8289 84.73 38.6446 84.73 40.6095V68.8813C84.73 70.8463 83.6817 72.662 81.98 73.6445L57.4959 87.7803C55.7942 88.7628 53.6976 88.7628 51.9959 87.7803L27.5118 73.6445C25.8101 72.662 24.7618 70.8463 24.7618 68.8813V40.6095C24.7618 38.6446 25.8101 36.8289 27.5118 35.8464L51.9959 21.7105Z" stroke="#2483FF"/>
<defs>
<filter id="filter0_d" x="0.359375" y="0.237793" width="109.282" height="117.525" filterUnits="userSpaceOnUse" color-interpolation-filters="sRGB">
<feFlood flood-opacity="0" result="BackgroundImageFix"/>
<feColorMatrix in="SourceAlpha" type="matrix" values="0 0 0 0 0 0 0 0 0 0 0 0 0 0 0 0 0 0 127 0"/>
<feOffset dy="4"/>
<feGaussianBlur stdDeviation="10"/>
<feColorMatrix type="matrix" values="0 0 0 0 0.874271 0 0 0 0 0.912544 0 0 0 0 0.9625 0 0 0 1 0"/>
<feBlend mode="normal" in2="BackgroundImageFix" result="effect1_dropShadow"/>
<feBlend mode="normal" in="SourceGraphic" in2="effect1_dropShadow" result="shape"/>
</filter>
<linearGradient id="paint0_linear" x1="54.9965" y1="20.616" x2="54.9965" y2="70.7411" gradientUnits="userSpaceOnUse">
<stop stop-color="#2483FF" stop-opacity="0.5"/>
<stop offset="1" stop-color="#2483FF" stop-opacity="0"/>
</linearGradient>
</defs>
</svg>
