<svg width="81" height="91" viewBox="0 0 81 91" fill="none" xmlns="http://www.w3.org/2000/svg">
<g clip-path="url(#clip0)">
<g opacity="0.3">
<path d="M-1 78.8731L34.5146 13.4248L73.0733 31.1821L42.6322 86.4834L-1 78.8731Z" fill="url(#paint0_linear)"/>
<mask id="mask0" mask-type="alpha" maskUnits="userSpaceOnUse" x="31" y="4" width="44" height="39">
<rect x="31" y="4.53467" width="44" height="38" fill="#C4C4C4"/>
</mask>
<g mask="url(#mask0)">
<ellipse rx="20.9881" ry="15.6064" transform="matrix(0.952604 0.302731 -0.302121 0.953741 52.7783 25.0482)" fill="#F09125"/>
<mask id="mask1" mask-type="alpha" maskUnits="userSpaceOnUse" x="32" y="8" width="42" height="34">
<ellipse rx="20.9881" ry="15.6064" transform="matrix(0.952604 0.302731 -0.302121 0.953741 52.7783 25.0482)" fill="white"/>
</mask>
<g mask="url(#mask1)">
<path fill-rule="evenodd" clip-rule="evenodd" d="M33.9173 21.2914L33.9419 27.5441C33.9419 27.5441 39.2349 36.5269 48.6269 39.6538C58.0188 42.7807 67.9656 37.3781 67.9656 37.3781L70.6309 32.2731L33.9173 21.2914Z" fill="#DF7C10"/>
</g>
<ellipse rx="20.988" ry="15.6064" transform="matrix(0.952604 0.302732 -0.302121 0.953741 53.8056 21.5336)" fill="#FFF2B4"/>
<mask id="mask2" mask-type="alpha" maskUnits="userSpaceOnUse" x="33" y="5" width="42" height="33">
<ellipse rx="20.988" ry="15.6064" transform="matrix(0.952604 0.302732 -0.302121 0.953741 53.8056 21.5336)" fill="white"/>
</mask>
<g mask="url(#mask2)">
<path fill-rule="evenodd" clip-rule="evenodd" d="M33.3209 19.8731L36.2544 20.8613L36.733 22.3521C36.733 22.3521 50.6265 24.4204 55.9391 22.8777C61.2518 21.335 70.0749 19.5567 70.0749 19.5567L70.1897 17.8888L72.918 17.4479C72.918 17.4479 73.6244 18.4796 74.4774 21.862C75.3304 25.2444 72.9397 36.2117 62.5146 37.3742C52.0896 38.5368 49.9946 38.4225 41.7535 32.8863C33.5124 27.3501 33.3209 19.8731 33.3209 19.8731Z" fill="#FEDE54"/>
</g>
<g filter="url(#filter0_ii)">
<ellipse rx="18.2958" ry="13.6345" transform="matrix(0.952645 0.302714 -0.302139 0.9537 53.806 21.5328)" fill="#FFE67B"/>
</g>
<ellipse rx="18.2958" ry="13.6345" transform="matrix(0.952645 0.302714 -0.302139 0.9537 53.806 21.5328)" stroke="white" stroke-width="0.278213"/>
<mask id="mask3" mask-type="alpha" maskUnits="userSpaceOnUse" x="35" y="7" width="37" height="29">
<ellipse rx="18.2958" ry="13.6345" transform="matrix(0.952645 0.302714 -0.302139 0.9537 53.806 21.5328)" fill="white"/>
</mask>
<g mask="url(#mask3)">
<path fill-rule="evenodd" clip-rule="evenodd" d="M33.8668 20.0753L36.8003 21.0634L37.2788 22.5542C37.2788 22.5542 51.172 24.6218 56.4847 23.0787C61.7974 21.5356 70.6205 19.7568 70.6205 19.7568L70.7355 18.089L73.4637 17.6478C73.4637 17.6478 74.17 18.6795 75.0228 22.0619C75.8757 25.4444 73.4844 36.4122 63.0594 37.5753C52.6343 38.7384 50.5394 38.6243 42.2986 33.0884C34.0579 27.5525 33.8668 20.0753 33.8668 20.0753Z" fill="#FEDE54"/>
<g filter="url(#filter1_d)">
<path fill-rule="evenodd" clip-rule="evenodd" d="M47.8877 12.4704C49.2335 12.6621 51.7278 14.1851 53.2025 16.7703C53.9373 18.0581 53.7172 19.8293 53.4877 21.6767C53.2198 23.8323 52.9391 26.0919 54.1471 27.8087C55.0492 29.0913 56.1763 29.7854 56.8735 30.2147C57.6104 30.6685 57.8668 30.8264 56.8692 31.0707C53.4001 31.9206 47.8404 28.9811 48.5915 22.979C48.6603 22.4283 48.7913 21.8701 48.9287 21.2844C49.4404 19.1039 50.0413 16.5429 47.8578 12.5735C47.8575 12.573 47.8576 12.5724 47.8578 12.5718C47.8579 12.5712 47.858 12.5704 47.8576 12.5696C47.793 12.4693 47.8825 12.4698 47.8877 12.4704ZM56.2078 17.3817C56.2098 17.3379 56.2447 17.3306 56.2733 17.3318C57.2628 17.4912 60.2391 18.2849 61.6719 21.4205C63.1512 24.6586 61.3603 27.4721 61.2821 27.584C60.5911 28.5686 60.8108 29.0252 60.7133 29.1082C60.6696 29.1453 60.5625 29.1076 60.282 29.009C58.7192 28.4597 55.8883 27.3923 56.4348 21.515C56.5959 19.7824 56.5112 18.044 56.2078 17.3817Z" fill="url(#paint1_angular)"/>
</g>
</g>
</g>
</g>
</g>
<defs>
<filter id="filter0_ii" x="35.7539" y="7.25635" width="36.2447" height="28.6919" filterUnits="userSpaceOnUse" color-interpolation-filters="sRGB">
<feFlood flood-opacity="0" result="BackgroundImageFix"/>
<feBlend mode="normal" in="SourceGraphic" in2="BackgroundImageFix" result="shape"/>
<feColorMatrix in="SourceAlpha" type="matrix" values="0 0 0 0 0 0 0 0 0 0 0 0 0 0 0 0 0 0 127 0" result="hardAlpha"/>
<feMorphology radius="0.139107" operator="erode" in="SourceAlpha" result="effect1_innerShadow"/>
<feOffset dx="0.556426" dy="1.11285"/>
<feComposite in2="hardAlpha" operator="arithmetic" k2="-1" k3="1"/>
<feColorMatrix type="matrix" values="0 0 0 0 0.893229 0 0 0 0 0.538525 0 0 0 0 0.18382 0 0 0 1 0"/>
<feBlend mode="normal" in2="shape" result="effect1_innerShadow"/>
<feColorMatrix in="SourceAlpha" type="matrix" values="0 0 0 0 0 0 0 0 0 0 0 0 0 0 0 0 0 0 127 0" result="hardAlpha"/>
<feMorphology radius="0.695533" operator="erode" in="SourceAlpha" result="effect2_innerShadow"/>
<feOffset/>
<feComposite in2="hardAlpha" operator="arithmetic" k2="-1" k3="1"/>
<feColorMatrix type="matrix" values="0 0 0 0 1 0 0 0 0 0.921942 0 0 0 0 0.630526 0 0 0 1 0"/>
<feBlend mode="normal" in2="effect1_innerShadow" result="effect2_innerShadow"/>
</filter>
<filter id="filter1_d" x="47.8359" y="12.4702" width="14.4211" height="19.3009" filterUnits="userSpaceOnUse" color-interpolation-filters="sRGB">
<feFlood flood-opacity="0" result="BackgroundImageFix"/>
<feColorMatrix in="SourceAlpha" type="matrix" values="0 0 0 0 0 0 0 0 0 0 0 0 0 0 0 0 0 0 127 0"/>
<feOffset dy="0.556426"/>
<feColorMatrix type="matrix" values="0 0 0 0 0.894118 0 0 0 0 0.537255 0 0 0 0 0.184314 0 0 0 0.845389 0"/>
<feBlend mode="normal" in2="BackgroundImageFix" result="effect1_dropShadow"/>
<feBlend mode="normal" in="SourceGraphic" in2="effect1_dropShadow" result="shape"/>
</filter>
<linearGradient id="paint0_linear" x1="59.8821" y1="25.6012" x2="35.5293" y2="72.7849" gradientUnits="userSpaceOnUse">
<stop stop-color="#FFE67B" stop-opacity="0.22"/>
<stop offset="1" stop-color="#FFE67B" stop-opacity="0"/>
</linearGradient>
<radialGradient id="paint1_angular" cx="0" cy="0" r="1" gradientUnits="userSpaceOnUse" gradientTransform="translate(51.4231 22.3728) rotate(-29.7042) scale(4.32179 10.3638)">
<stop offset="0.0477953" stop-color="#FFF2B4"/>
<stop offset="1" stop-color="white"/>
</radialGradient>
<clipPath id="clip0">
<rect width="81" height="91" fill="white"/>
</clipPath>
</defs>
</svg>
