<svg width="110" height="118" viewBox="0 0 110 118" fill="none" xmlns="http://www.w3.org/2000/svg">
<g filter="url(#filter0_d)">
<path d="M51 17.3094C53.4752 15.8803 56.5248 15.8803 59 17.3094L85.641 32.6906C88.1162 34.1197 89.641 36.7607 89.641 39.6188V70.3812C89.641 73.2393 88.1162 75.8803 85.641 77.3094L59 92.6906C56.5248 94.1197 53.4752 94.1197 51 92.6906L24.359 77.3094C21.8838 75.8803 20.359 73.2393 20.359 70.3812V39.6188C20.359 36.7607 21.8838 34.1197 24.359 32.6906L51 17.3094Z" fill="#212226"/>
</g>
<path d="M55.4109 69.8216C47.4656 69.8216 41 63.3561 41 55.4107C41 53.4172 44.0469 50.8652 44.0469 50.8652H54.5014H66.3196C66.3196 50.8652 69.8217 53.1547 69.8217 55.4107C69.8217 63.3561 63.3562 69.8216 55.4109 69.8216Z" fill="url(#paint0_linear)" fill-opacity="0.8"/>
<path d="M55.4109 69.8217C47.4656 69.8217 41 63.3562 41 55.4109C41 47.4656 47.4656 41 55.4109 41C63.3562 41 69.8217 47.4656 69.8217 55.4109C69.8217 63.3562 63.3562 69.8217 55.4109 69.8217ZM55.4109 43.3906C48.7823 43.3906 43.3906 48.7823 43.3906 55.4109C43.3906 62.0394 48.7823 67.4311 55.4109 67.4311C62.0394 67.4311 67.4311 62.0394 67.4311 55.4109C67.4311 48.7823 62.0394 43.3906 55.4109 43.3906V43.3906Z" fill="#2483FF"/>
<path d="M48.593 56.3506H62.2272C62.7386 56.3506 63.154 56.7661 63.154 57.2774C63.154 57.7888 62.7386 58.2043 62.2272 58.2043H51.4055L52.2332 58.7732C52.6455 59.0768 52.7318 59.6585 52.4282 60.0708C52.1246 60.483 51.5429 60.5693 51.1306 60.2657L48.0433 58.0253C47.7236 57.7856 47.5894 57.3701 47.7141 56.9866C47.8355 56.6031 48.1935 56.3506 48.593 56.3506Z" fill="#2483FF"/>
<path d="M62.2271 54.4714H48.5929C48.0815 54.4714 47.666 54.0559 47.666 53.5446C47.666 53.0332 48.0815 52.6177 48.5929 52.6177H59.4114L58.5836 52.0488C58.1713 51.7452 58.085 51.1635 58.3887 50.7512C58.6923 50.339 59.274 50.2527 59.6863 50.5563L62.7736 52.7967C63.0932 53.0364 63.2274 53.4519 63.1028 53.8354C62.9845 54.2189 62.6266 54.4714 62.2271 54.4714Z" fill="#03A87B"/>
<path opacity="0.2" d="M57.4959 21.7105L81.98 35.8464C83.6817 36.8289 84.73 38.6446 84.73 40.6095V68.8813C84.73 70.8463 83.6817 72.662 81.98 73.6445L57.4959 87.7803C55.7942 88.7628 53.6976 88.7628 51.9959 87.7803L27.5118 73.6445C25.8101 72.662 24.7618 70.8463 24.7618 68.8813V40.6095C24.7618 38.6446 25.8101 36.8289 27.5118 35.8464L51.9959 21.7105C53.6976 20.728 55.7942 20.728 57.4959 21.7105Z" stroke="#2483FF"/>
<defs>
<filter id="filter0_d" x="0.359375" y="0.237793" width="109.282" height="117.525" filterUnits="userSpaceOnUse" color-interpolation-filters="sRGB">
<feFlood flood-opacity="0" result="BackgroundImageFix"/>
<feColorMatrix in="SourceAlpha" type="matrix" values="0 0 0 0 0 0 0 0 0 0 0 0 0 0 0 0 0 0 127 0"/>
<feOffset dy="4"/>
<feGaussianBlur stdDeviation="10"/>
<feColorMatrix type="matrix" values="0 0 0 0 0 0 0 0 0 0 0 0 0 0 0 0 0 0 0.3 0"/>
<feBlend mode="normal" in2="BackgroundImageFix" result="effect1_dropShadow"/>
<feBlend mode="normal" in="SourceGraphic" in2="effect1_dropShadow" result="shape"/>
</filter>
<linearGradient id="paint0_linear" x1="55.4109" y1="40.9998" x2="55.4109" y2="69.8216" gradientUnits="userSpaceOnUse">
<stop stop-color="#2483FF" stop-opacity="0.5"/>
<stop offset="1" stop-color="#2483FF" stop-opacity="0"/>
</linearGradient>
</defs>
</svg>
