<svg width="26" height="26" viewBox="0 0 26 26" fill="none" xmlns="http://www.w3.org/2000/svg">
<path d="M4 6C4 4.89543 4.89543 4 6 4H20C21.1046 4 22 4.89543 22 6V20C22 21.1046 21.1046 22 20 22H6C4.89543 22 4 21.1046 4 20V6Z" fill="#2483FF"/>
<path fill-rule="evenodd" clip-rule="evenodd" d="M3.19995 6.00001C3.19995 4.45361 4.45355 3.20001 5.99995 3.20001H20C21.5463 3.20001 22.7999 4.45361 22.7999 6.00001V20C22.7999 21.5464 21.5463 22.8 20 22.8H5.99995C4.45355 22.8 3.19995 21.5464 3.19995 20V6.00001ZM5.99995 4.80001C5.33721 4.80001 4.79995 5.33727 4.79995 6.00001V20C4.79995 20.6628 5.33721 21.2 5.99995 21.2H20C20.6627 21.2 21.2 20.6628 21.2 20V6.00001C21.2 5.33727 20.6627 4.80001 20 4.80001H5.99995Z" fill="#2483FF"/>
<path d="M8 16L10.5 12.5L14.25 14.8333L18 9L14.25 10.1667" stroke="white" stroke-width="1.6" stroke-linecap="round" stroke-linejoin="round"/>
</svg>
