<svg width="26" height="26" viewBox="0 0 26 26" fill="none" xmlns="http://www.w3.org/2000/svg">
<path fill-rule="evenodd" clip-rule="evenodd" d="M3.19995 6C3.19995 4.4536 4.45355 3.2 5.99995 3.2H20C21.5463 3.2 22.7999 4.4536 22.7999 6V20C22.7999 21.5464 21.5463 22.8 20 22.8H5.99995C4.45355 22.8 3.19995 21.5464 3.19995 20V6ZM5.99995 4.8C5.33721 4.8 4.79995 5.33726 4.79995 6V20C4.79995 20.6627 5.33721 21.2 5.99995 21.2H20C20.6627 21.2 21.2 20.6627 21.2 20V6C21.2 5.33726 20.6627 4.8 20 4.8H5.99995Z" fill="#B0B4B9"/>
<path fill-rule="evenodd" clip-rule="evenodd" d="M18.6366 8.51551C18.8403 8.78317 18.8548 9.14966 18.673 9.4326L14.923 15.2659C14.6865 15.6337 14.1986 15.7436 13.8274 15.5126L10.7147 13.5758L8.651 16.465C8.39419 16.8245 7.89455 16.9078 7.53502 16.651C7.17549 16.3942 7.09222 15.8945 7.34903 15.535L9.84903 12.035C10.0944 11.6916 10.5643 11.5978 10.9227 11.8208L14.0033 13.7376L16.138 10.4171L14.4877 10.9305C14.0658 11.0618 13.6174 10.8262 13.4861 10.4043C13.3549 9.98244 13.5905 9.53403 14.0124 9.40278L17.7624 8.23611C18.0835 8.13619 18.4329 8.24784 18.6366 8.51551Z" fill="#B0B4B9"/>
</svg>
