<svg width="20" height="20" viewBox="0 0 20 20" fill="none" xmlns="http://www.w3.org/2000/svg">
    <g opacity="0.8">
        <path d="M10 0C4.47711 0 0 4.47711 0 10C0 15.5229 4.47711 20 10 20C15.5229 20 20 15.5229 20 10C20 4.47711 15.5229 0 10 0ZM10 18.6364C5.23082 18.6364 1.36363 14.7696 1.36363 10C1.36363 5.23037 5.23082 1.36363 10 1.36363C14.7701 1.36363 18.6364 5.23037 18.6364 10C18.6364 14.7696 14.7701 18.6364 10 18.6364Z"
              fill="#1A3138"/>
        <path d="M8.92385 11.3031L7.79812 12.4288V5.90887C7.79812 5.53246 7.49273 5.22705 7.11631 5.22705C6.7399 5.22705 6.43449 5.53246 6.43449 5.90887V12.4858L5.30924 11.3594C5.04246 11.094 4.61057 11.094 4.34512 11.3599C4.07834 11.6266 4.07744 12.0585 4.34379 12.324L6.59387 14.5741C6.69863 14.6788 6.82957 14.7323 6.96496 14.7543C6.97252 14.7561 6.98006 14.7581 6.9876 14.7594C7.01557 14.7632 7.04264 14.7679 7.0706 14.7679C7.08615 14.769 7.1008 14.7725 7.11633 14.7725C7.34892 14.7725 7.554 14.6558 7.67697 14.478L9.88799 12.2676C10.1543 12.0013 10.1543 11.5694 9.88843 11.3035C9.62119 11.0372 9.18929 11.0363 8.92385 11.3031ZM13.4054 5.42547C13.3019 5.32205 13.1723 5.26922 13.0387 5.24658C13.029 5.24438 13.0192 5.2417 13.009 5.23971C12.9824 5.23639 12.9571 5.23193 12.9304 5.23172C12.9145 5.23084 12.8994 5.22705 12.8829 5.22705C12.6508 5.22705 12.4466 5.34357 12.3232 5.52068L10.1113 7.73239C9.84494 7.99871 9.84494 8.43063 10.1108 8.69653C10.3781 8.96241 10.81 8.9633 11.0754 8.69696L12.2011 7.57125V14.0907C12.2011 14.4676 12.5065 14.7725 12.8829 14.7725C13.2594 14.7725 13.5648 14.4676 13.5648 14.0907V7.51399L14.69 8.64014C14.9568 8.90559 15.3887 8.90559 15.6542 8.64014C15.9209 8.37336 15.9218 7.94102 15.6555 7.67557L13.4054 5.42547Z"
              fill="#1A3138"/>
    </g>
</svg>
