<svg width="20" height="17" viewBox="0 0 20 17" fill="none" xmlns="http://www.w3.org/2000/svg">
    <path d="M17.6283 3.4678C17.616 3.33817 17.6325 3.20726 17.6764 3.08572C17.7203 2.96418 17.7903 2.85544 17.8808 2.76835L19.7475 0.359538V0H13.95L9.46833 10.523L5.52833 0H0V0.359538L1.5975 1.99843C1.66503 2.05361 1.71724 2.12746 1.74851 2.21202C1.77979 2.29659 1.78894 2.38868 1.775 2.4784V14.5225C1.78878 14.6121 1.77955 14.704 1.74828 14.7884C1.71701 14.8728 1.66489 14.9465 1.5975 15.0016L0.0391662 16.6405V17H7.88083V16.6405L6.26667 14.9614C6.10833 14.7919 6.10833 14.742 6.10833 14.4814V4.74715L10.6 16.959H11.2058L16.435 4.74715V12.9318C16.4783 13.2761 16.3717 13.6223 16.1458 13.8712L14.0458 16.6012V16.9599H20V16.6003L17.9 13.8703C17.675 13.6223 17.575 13.2726 17.6283 12.9318V3.4678Z"
          fill="#BBE3EF"/>
</svg>
