<svg width="20" height="17" viewBox="0 0 20 17" fill="none" xmlns="http://www.w3.org/2000/svg">
    <path d="M20 2.01235C19.264 2.35374 18.4732 2.58426 17.6432 2.68802C18.4904 2.15669 19.1408 1.31577 19.4472 0.313777C18.6544 0.805778 17.776 1.16265 16.8416 1.3551C16.0932 0.520869 15.0268 0 13.8464 0C11.5804 0 9.7432 1.92157 9.7432 4.29163C9.7432 4.628 9.7796 4.95558 9.8496 5.26977C6.4396 5.09071 3.416 3.38209 1.3924 0.785697C1.0392 1.41953 0.8368 2.15669 0.8368 2.94322C0.8368 4.4322 1.5612 5.74588 2.662 6.51526C1.9892 6.49308 1.3568 6.2998 0.8036 5.97849C0.8032 5.99648 0.8032 6.01447 0.8032 6.03246C0.8032 8.11175 2.2176 9.84631 4.0948 10.2408C3.7504 10.3387 3.388 10.3914 3.0136 10.3914C2.7492 10.3914 2.492 10.3647 2.2416 10.3145C2.7636 12.0193 4.2792 13.2602 6.0748 13.2949C4.6704 14.4459 2.9012 15.132 0.9788 15.132C0.6476 15.132 0.3208 15.1115 0 15.0717C1.816 16.2896 3.9728 17 6.29 17C13.8372 17 17.9644 10.4605 17.9644 4.78907C17.9644 4.60289 17.9604 4.41797 17.9524 4.23389C18.7544 3.62893 19.45 2.87294 20 2.01235V2.01235Z"
          fill="#BBE3EF"/>
</svg>
