<svg width="26" height="26" viewBox="0 0 26 26" fill="none" xmlns="http://www.w3.org/2000/svg">
<mask id="mask0" mask-type="alpha" maskUnits="userSpaceOnUse" x="0" y="0" width="27" height="26">
<rect x="0.000244141" width="26" height="26" fill="#F5F5F5"/>
</mask>
<g mask="url(#mask0)">
<path d="M17.6187 6.87933L19.4184 8.67912L16.7486 11.349L14.9488 9.54919L17.6187 6.87933Z" stroke="#2483FF" stroke-width="1.6"/>
<path d="M16.2991 5.49986C15.8021 5.00287 15.8021 4.19708 16.2991 3.70008C16.7961 3.20309 17.6018 3.20309 18.0988 3.70008L22.5983 8.19954C23.0953 8.69654 23.0953 9.50232 22.5983 9.99932C22.1013 10.4963 21.2955 10.4963 20.7985 9.99932L16.2991 5.49986Z" fill="#2483FF" stroke="#2483FF" stroke-width="1.6"/>
<path fill-rule="evenodd" clip-rule="evenodd" d="M12.2657 6.86511C11.5117 6.11104 10.2891 6.11104 9.53504 6.86511L5.95099 10.4492C3.21751 13.1826 3.21751 17.6145 5.95099 20.348C8.68447 23.0814 13.1163 23.0814 15.8498 20.348L19.4338 16.7639C20.1879 16.0098 20.1879 14.7873 19.4338 14.0332L12.2657 6.86511ZM14.6152 12.8147C14.9277 12.5023 14.9277 11.9957 14.6152 11.6833C14.3028 11.3709 13.7963 11.3709 13.4839 11.6833L10.7842 14.383C10.4718 14.6954 10.4718 15.2019 10.7842 15.5143C11.0966 15.8268 11.6032 15.8268 11.9156 15.5143L14.6152 12.8147Z" fill="#2483FF"/>
</g>
</svg>
