<svg width="14" height="14" viewBox="0 0 14 14" fill="none" xmlns="http://www.w3.org/2000/svg">
<rect x="0.6125" y="0.6125" width="12.775" height="10.15" stroke="#15A1EF" stroke-width="1.225"/>
<rect x="3.5" y="12.25" width="7" height="1.225" fill="#15A1EF"/>
<path d="M8.24548 5.23496C8.24384 5.23455 8.24383 5.2329 8.24301 5.23084C8.20054 5.14291 8.13258 5.0698 8.04798 5.02103C7.96338 4.97227 7.86605 4.9501 7.76868 4.95742C7.63918 4.96905 7.51953 5.03142 7.43583 5.13093C7.35214 5.23045 7.31119 5.35903 7.32193 5.48861C7.32811 5.5582 7.34664 5.62203 7.3767 5.68009C7.44435 5.83664 7.464 6.00976 7.43314 6.17749C7.40227 6.34522 7.3223 6.50001 7.20335 6.62223L5.89647 7.95143C5.57201 8.28085 5.04456 8.28085 4.7197 7.95143C4.39565 7.62202 4.39565 7.08671 4.7197 6.75688L5.2072 6.26193L5.20432 6.25781C5.31673 6.15898 5.3822 6.00868 5.37067 5.84645C5.36613 5.78235 5.34899 5.71977 5.32024 5.6623C5.2915 5.60483 5.2517 5.5536 5.20313 5.51153C5.15456 5.46946 5.09817 5.43738 5.03719 5.41712C4.97621 5.39687 4.91184 5.38884 4.84775 5.39349C4.72427 5.40297 4.60921 5.45977 4.52659 5.55203L4.52617 5.5512L4.0292 6.05521C3.68997 6.40181 3.5 6.86751 3.5 7.35251C3.5 7.83751 3.68997 8.30321 4.0292 8.6498C4.19545 8.82001 4.39405 8.95525 4.61332 9.04759C4.83259 9.13993 5.0681 9.1875 5.30602 9.1875C5.54394 9.1875 5.77946 9.13993 5.99873 9.04759C6.218 8.95525 6.4166 8.82001 6.58285 8.6498L7.89303 7.31895C8.4423 6.76058 8.56088 5.93415 8.25413 5.25596C8.25189 5.24884 8.249 5.24195 8.24548 5.23537V5.23496ZM9.97194 2.7252C9.80568 2.55499 9.60709 2.41975 9.38781 2.32741C9.16854 2.23507 8.93303 2.1875 8.69511 2.1875C8.45719 2.1875 8.22167 2.23507 8.0024 2.32741C7.78313 2.41975 7.58453 2.55499 7.41828 2.7252L6.10728 4.05605C5.55801 4.61359 5.43943 5.44002 5.74494 6.1178C5.74865 6.1248 5.75112 6.13222 5.754 6.14004L5.75647 6.14416C5.84253 6.31957 6.02617 6.43322 6.23081 6.41758C6.36031 6.40595 6.47996 6.34358 6.56365 6.24407C6.64735 6.14455 6.68829 6.01598 6.67755 5.88639C6.67184 5.81962 6.65324 5.7546 6.62279 5.69491C6.55508 5.53837 6.5354 5.36524 6.56627 5.19749C6.59713 5.02975 6.67714 4.87496 6.79613 4.75277L8.10384 3.42439C8.18051 3.3462 8.272 3.28409 8.37296 3.24169C8.47391 3.19928 8.58231 3.17745 8.69181 3.17745C8.80132 3.17745 8.90972 3.19928 9.01068 3.24169C9.11163 3.28409 9.20312 3.3462 9.27979 3.42439C9.60383 3.7534 9.60383 4.28912 9.27979 4.61895L8.7931 5.1139L8.79722 5.11802C8.73958 5.16899 8.69453 5.23262 8.6656 5.30391C8.63667 5.37521 8.62464 5.45224 8.63047 5.52897C8.65146 5.80074 8.88575 6.00457 9.15338 5.98274C9.28102 5.97327 9.39302 5.91274 9.47455 5.82297L9.47496 5.82462L9.97194 5.3202C10.676 4.60248 10.676 3.44045 9.97194 2.7252Z" fill="#15A1EF" stroke="#15A1EF" stroke-width="0.2625"/>
</svg>
