<svg width="26" height="26" viewBox="0 0 26 26" fill="none" xmlns="http://www.w3.org/2000/svg">
<path fill-rule="evenodd" clip-rule="evenodd" d="M2.99995 12.2C3.44178 12.2 3.79995 12.5582 3.79995 13C3.79995 13.089 3.83707 13.2381 4.03537 13.4492C4.23763 13.6646 4.57019 13.9008 5.05059 14.1301C6.00928 14.5876 7.41099 14.9484 9.07681 15.1092C9.51659 15.1516 9.8387 15.5426 9.79625 15.9824C9.7538 16.4221 9.36288 16.7442 8.92309 16.7018C7.13846 16.5295 5.54016 16.1366 4.36147 15.5741C3.77318 15.2933 3.2527 14.953 2.8691 14.5446C2.48153 14.1319 2.19995 13.61 2.19995 13C2.19995 12.5582 2.55812 12.2 2.99995 12.2Z" fill="#2483FF"/>
<path fill-rule="evenodd" clip-rule="evenodd" d="M3.79995 7V18.0263C3.79995 18.6231 3.90219 19.0165 4.12594 19.2564C4.76243 19.9388 6.52908 21.2 11 21.2C15.4708 21.2 15.5 21 15.5 21L17.5 21.5C16.4788 22.5949 15.7779 22.8 11 22.8C6.222 22.8 3.97701 21.4426 2.95585 20.3477C2.2999 19.6444 2.19995 18.7193 2.19995 18.0263V7H3.79995Z" fill="#2483FF"/>
<path fill-rule="evenodd" clip-rule="evenodd" d="M18.202 15.8119C18.203 12.5788 18.2016 6.99282 18.2 7.00001H19.7999V12.5132L18.202 15.8119Z" fill="#2483FF"/>
<path d="M19 7C19 8.65685 15.4183 10 11 10C6.58172 10 3 8.65685 3 7C3 5.34315 6.58172 4 11 4C15.4183 4 19 5.34315 19 7Z" fill="#2483FF"/>
<path fill-rule="evenodd" clip-rule="evenodd" d="M11 3.20001C8.72028 3.20001 6.62078 3.54516 5.0622 4.12963C4.28586 4.42076 3.60203 4.78672 3.09791 5.23367C2.59472 5.6798 2.19995 6.27485 2.19995 7.00001C2.19995 7.72517 2.59472 8.32023 3.09791 8.76636C3.60203 9.21331 4.28586 9.57927 5.0622 9.8704C6.62078 10.4549 8.72028 10.8 11 10.8C13.2796 10.8 15.3791 10.4549 16.9377 9.8704C17.714 9.57927 18.3979 9.21331 18.902 8.76636C19.4052 8.32023 19.7999 7.72517 19.7999 7.00001C19.7999 6.27485 19.4052 5.6798 18.902 5.23367C18.3979 4.78672 17.714 4.42076 16.9377 4.12963C15.3791 3.54516 13.2796 3.20001 11 3.20001Z" fill="#2483FF"/>
<path fill-rule="evenodd" clip-rule="evenodd" d="M12.2 15.2H23.8V19.0557C23.8 19.7634 23.6428 20.6885 22.9043 21.3185C22.0727 22.0279 20.5647 22.8 18 22.8C15.4352 22.8 13.9273 22.0279 13.0956 21.3185C12.3571 20.6885 12.2 19.7634 12.2 19.0557V15.2ZM13.8 16.8V19.0557C13.8 19.59 13.9276 19.9252 14.134 20.1012C14.6505 20.5418 15.7809 21.2 18 21.2C20.219 21.2 21.3494 20.5418 21.8659 20.1012C22.0723 19.9252 22.2 19.59 22.2 19.0557V16.8H13.8Z" fill="#2483FF"/>
<path d="M23 15C23 16.1046 20.7614 17 18 17C15.2386 17 13 16.1046 13 15C13 13.8954 15.2386 13 18 13C20.7614 13 23 13.8954 23 15Z" fill="#2483FF"/>
<path fill-rule="evenodd" clip-rule="evenodd" d="M13.8 15C13.8 14.9992 13.8 14.9971 13.8012 14.9924C13.8025 14.9874 13.8057 14.9771 13.8138 14.9613C13.8306 14.9284 13.8675 14.8738 13.9426 14.8028C14.0977 14.6561 14.3649 14.4872 14.7616 14.3286C14.9588 14.2497 15.1782 14.1772 15.4169 14.1129C15.5461 14.078 15.6809 14.0456 15.8209 14.0158C16.4564 13.8805 17.1979 13.8 18 13.8C19.3049 13.8 20.4495 14.0131 21.2384 14.3286C21.635 14.4872 21.9023 14.6561 22.0573 14.8028C22.1325 14.8738 22.1693 14.9284 22.1862 14.9613C22.1943 14.9771 22.1975 14.9874 22.1987 14.9924C22.1999 14.9968 22.1999 14.999 22.2 14.9999V15C22.2 15.0008 22.1999 15.0029 22.1987 15.0076C22.1975 15.0126 22.1943 15.0229 22.1862 15.0387C22.1693 15.0716 22.1325 15.1262 22.0573 15.1973C21.9023 15.3439 21.635 15.5128 21.2384 15.6715C21.1398 15.7109 21.0356 15.7487 20.9263 15.7847C20.6197 15.8858 20.2724 15.9725 19.8928 16.0401C19.3248 16.1414 18.6845 16.2 18 16.2C16.695 16.2 15.5504 15.987 14.7616 15.6714C14.3649 15.5128 14.0977 15.3439 13.9426 15.1973C13.8675 15.1262 13.8306 15.0716 13.8138 15.0387C13.8057 15.0229 13.8025 15.0126 13.8012 15.0076C13.8 15.0029 13.8 15.0008 13.8 15ZM20.2006 17.6105C19.5189 17.7338 18.7737 17.8 18 17.8C16.5435 17.8 15.1881 17.5653 14.1673 17.157C13.6591 16.9537 13.1942 16.6917 12.8432 16.3598C12.4905 16.0262 12.2 15.567 12.2 15C12.2 14.433 12.4905 13.9738 12.8432 13.6403C13.1942 13.3084 13.6591 13.0463 14.1673 12.843C14.3787 12.7585 14.6044 12.6814 14.8423 12.6123C15.0354 12.5562 15.2365 12.5054 15.4446 12.4601C16.2189 12.2917 17.0897 12.2 18 12.2C19.4564 12.2 20.8118 12.4347 21.8326 12.843C22.3408 13.0463 22.8058 13.3084 23.1568 13.6403C23.5094 13.9738 23.8 14.433 23.8 15C23.8 15.567 23.5094 16.0262 23.1568 16.3597C22.8058 16.6917 22.3408 16.9537 21.8326 17.157C21.8326 17.157 21.8326 17.157 21.8326 17.157C21.3541 17.3484 20.8021 17.5017 20.2006 17.6105Z" fill="#2483FF"/>
</svg>
