<svg width="14" height="17" viewBox="0 0 14 17" fill="none" xmlns="http://www.w3.org/2000/svg">
    <path fill-rule="evenodd" clip-rule="evenodd"
          d="M1.9998 0.299805C1.06092 0.299805 0.299805 1.06092 0.299805 1.9998V15.435C0.299805 16.1935 1.0494 16.7244 1.7649 16.4727L6.90023 14.6658C6.96468 14.6431 7.03493 14.6431 7.09938 14.6658L12.2347 16.4727C12.9502 16.7244 13.6998 16.1935 13.6998 15.435V1.9998C13.6998 1.06092 12.9387 0.299805 11.9998 0.299805H1.9998ZM1.6998 1.9998C1.6998 1.83412 1.83412 1.6998 1.9998 1.6998H11.9998C12.1655 1.6998 12.2998 1.83412 12.2998 1.9998V15.0114L7.56404 13.3452C7.19886 13.2167 6.80075 13.2167 6.43556 13.3452L1.6998 15.0114V1.9998ZM3.9998 7.2998C3.61321 7.2998 3.2998 7.6132 3.2998 7.9998C3.2998 8.3864 3.61321 8.6998 3.9998 8.6998H9.9998C10.3864 8.6998 10.6998 8.3864 10.6998 7.9998C10.6998 7.6132 10.3864 7.2998 9.9998 7.2998H3.9998Z"
          fill="#15A1EF"/>
</svg>
