<svg width="26" height="26" viewBox="0 0 26 26" fill="none" xmlns="http://www.w3.org/2000/svg">
<path fill-rule="evenodd" clip-rule="evenodd" d="M2.2002 13.0002C2.2002 7.03552 7.03552 2.2002 13.0002 2.2002C17.9965 2.2002 22.2004 5.59291 23.4337 10.2002H10.4316L12.5659 8.06588C12.8783 7.75346 12.8783 7.24693 12.5659 6.93451C12.2535 6.62209 11.7469 6.62209 11.4345 6.93451L7.93451 10.4345C7.70571 10.6633 7.63727 11.0074 7.76109 11.3063C7.88492 11.6053 8.17663 11.8002 8.5002 11.8002H23.7343C23.7778 12.1942 23.8002 12.5946 23.8002 13.0002C23.8002 18.9649 18.9649 23.8002 13.0002 23.8002C8.00391 23.8002 3.80003 20.4075 2.5667 15.8002H15.5688L13.4345 17.9345C13.1221 18.2469 13.1221 18.7535 13.4345 19.0659C13.7469 19.3783 14.2535 19.3783 14.5659 19.0659L18.0659 15.5659C18.2947 15.3371 18.3631 14.993 18.2393 14.6941C18.1155 14.3951 17.8238 14.2002 17.5002 14.2002H2.26611C2.22256 13.8062 2.2002 13.4058 2.2002 13.0002Z" fill="#2483FF"/>
</svg>
