<svg width="26" height="26" viewBox="0 0 26 26" fill="none" xmlns="http://www.w3.org/2000/svg">
<path fill-rule="evenodd" clip-rule="evenodd" d="M13.0003 3.8C8.55031 3.8 4.83666 6.96016 3.98431 11.1591C3.89642 11.5921 3.47415 11.8719 3.04116 11.784C2.60816 11.6961 2.3284 11.2738 2.41629 10.8408C3.41703 5.91087 7.77439 2.2 13.0003 2.2C18.2261 2.2 22.5835 5.91088 23.5842 10.8409C23.632 11.0761 23.5716 11.3204 23.4196 11.5063C23.2677 11.6922 23.0403 11.8 22.8002 11.8H8.50011C8.17654 11.8 7.88483 11.6051 7.761 11.3061C7.63718 11.0072 7.70562 10.6631 7.93442 10.4343L11.4344 6.93431C11.7468 6.62189 12.2534 6.62189 12.5658 6.93431C12.8782 7.24673 12.8782 7.75326 12.5658 8.06568L10.4315 10.2H21.7667C20.5822 6.48806 17.1044 3.8 13.0003 3.8ZM22.9594 14.216C23.3924 14.3039 23.6721 14.7261 23.5842 15.1591C22.5835 20.0891 18.2261 23.8 13.0003 23.8C7.77439 23.8 3.41703 20.0891 2.41629 15.1591C2.36853 14.9239 2.42896 14.6796 2.5809 14.4937C2.73284 14.3078 2.96023 14.2 3.2003 14.2H17.5001C17.8237 14.2 18.1154 14.3949 18.2392 14.6939C18.363 14.9928 18.2946 15.3369 18.0658 15.5657L14.5658 19.0657C14.2534 19.3781 13.7468 19.3781 13.4344 19.0657C13.122 18.7533 13.122 18.2467 13.4344 17.9343L15.5687 15.8H4.23388C5.41832 19.5119 8.89614 22.2 13.0003 22.2C17.4502 22.2 21.1639 19.0398 22.0162 14.8409C22.1041 14.4079 22.5264 14.1281 22.9594 14.216Z" fill="#B0B4B9"/>
</svg>
