<svg width="353" height="265" viewBox="0 0 353 265" fill="none" xmlns="http://www.w3.org/2000/svg">
    <path opacity="0.2"
          d="M193.938 0H8.45288C6.30407 0 4.24332 0.853828 2.72418 2.37356C-0.43756 5.53655 -0.437557 10.6635 2.72419 13.8264L133.821 144.975C157.632 168.795 157.632 207.405 133.821 231.225L11.922 353.172C9.4029 355.692 11.1877 360 14.751 360H175.272C176.333 360 177.351 359.578 178.101 358.828L334.892 201.975C358.703 178.155 358.703 139.545 334.892 115.725L237.08 17.875C225.64 6.43007 210.121 0 193.938 0Z"
          fill="url(#paint0_linear_6573_30145)"/>
    <defs>
        <linearGradient id="paint0_linear_6573_30145" x1="346.512" y1="180" x2="32.0862" y2="180"
                        gradientUnits="userSpaceOnUse">
            <stop stop-color="#D1EEFF"/>
            <stop offset="0.319359" stop-color="#E4F4FF"/>
            <stop offset="1" stop-color="#F3F9FF"/>
        </linearGradient>
    </defs>
</svg>
