<svg width="443" height="458" viewBox="0 0 443 458" fill="none" xmlns="http://www.w3.org/2000/svg">
    <path d="M240.605 0H-2.42514C-5.15786 0 -7.77867 1.08543 -9.71118 3.01757C-13.7365 7.04208 -13.7365 13.5679 -9.71117 17.5924L168.898 196.167C192.725 219.99 192.725 258.62 168.898 282.443L0.136965 451.171C-2.38326 453.691 -0.598688 458 2.96512 458H210.387C211.448 458 212.465 457.579 213.215 456.829L424.854 245.23C448.682 221.407 448.682 182.778 424.854 158.955L283.735 17.8624C272.295 6.42517 256.781 0 240.605 0Z"
          fill="url(#paint0_linear_5461_21020)"/>
    <defs>
        <linearGradient id="paint0_linear_5461_21020" x1="427.917" y1="229" x2="27.6635" y2="229"
                        gradientUnits="userSpaceOnUse">
            <stop stop-color="#D1EEFF"/>
            <stop offset="0.319359" stop-color="#E4F4FF"/>
            <stop offset="1" stop-color="#F3F9FF"/>
        </linearGradient>
    </defs>
</svg>
