<svg width="560" height="690" viewBox="0 0 560 690" fill="none" xmlns="http://www.w3.org/2000/svg">
    <g filter="url(#filter0_d_7_13)">
        <path d="M42 18C28.7452 18 18 27.6769 18 39.614V646.386C18 658.323 28.7452 668 42 668H514C527.255 668 538 658.323 538 646.386V94.6433C538 82.7062 527.255 73.0292 514 73.0292H493C486.373 73.0292 481 67.6567 481 61.0292V39.614C481 27.6769 470.255 18 457 18H42Z"
              fill="white"/>
        <path d="M18.25 39.614C18.25 27.839 28.858 18.25 42 18.25H457C470.142 18.25 480.75 27.839 480.75 39.614V61.0292C480.75 67.7947 486.235 73.2792 493 73.2792H514C527.142 73.2792 537.75 82.8682 537.75 94.6433V646.386C537.75 658.161 527.142 667.75 514 667.75H42C28.858 667.75 18.25 658.161 18.25 646.386V39.614Z"
              stroke="#15A1EF" stroke-opacity="0.1" stroke-width="0.5"/>
    </g>
    <defs>
        <filter id="filter0_d_7_13" x="0" y="0" width="560" height="690" filterUnits="userSpaceOnUse"
                color-interpolation-filters="sRGB">
            <feFlood flood-opacity="0" result="BackgroundImageFix"/>
            <feColorMatrix in="SourceAlpha" type="matrix" values="0 0 0 0 0 0 0 0 0 0 0 0 0 0 0 0 0 0 127 0"
                           result="hardAlpha"/>
            <feOffset dx="2" dy="2"/>
            <feGaussianBlur stdDeviation="10"/>
            <feComposite in2="hardAlpha" operator="out"/>
            <feColorMatrix type="matrix" values="0 0 0 0 0.709804 0 0 0 0 0.854902 0 0 0 0 0.933333 0 0 0 0.14 0"/>
            <feBlend mode="normal" in2="BackgroundImageFix" result="effect1_dropShadow_7_13"/>
            <feBlend mode="normal" in="SourceGraphic" in2="effect1_dropShadow_7_13" result="shape"/>
        </filter>
    </defs>
</svg>
