<svg width="560" height="524" viewBox="0 0 560 524" fill="none" xmlns="http://www.w3.org/2000/svg">
    <g filter="url(#filter0_d_184_3190)">
        <path d="M514 18C527.255 18 538 27.6769 538 39.614V480.386C538 492.323 527.255 502 514 502H42C28.7451 502 18 492.323 18 480.386V94.6433C18 82.7062 28.7452 73.0292 42 73.0292H55C66.0457 73.0292 75 64.0749 75 53.0292V39.614C75 27.6769 85.7452 18 99 18H514Z"
              fill="white"/>
        <path d="M537.75 39.614C537.75 27.839 527.142 18.25 514 18.25H99C85.858 18.25 75.25 27.839 75.25 39.614V53.0292C75.25 64.213 66.1837 73.2792 55 73.2792H42C28.858 73.2792 18.25 82.8682 18.25 94.6433V480.386C18.25 492.161 28.8579 501.75 42 501.75H514C527.142 501.75 537.75 492.161 537.75 480.386V39.614Z"
              stroke="#706EFF" stroke-opacity="0.1" stroke-width="0.5"/>
    </g>
    <defs>
        <filter id="filter0_d_184_3190" x="0" y="0" width="560" height="524" filterUnits="userSpaceOnUse"
                color-interpolation-filters="sRGB">
            <feFlood flood-opacity="0" result="BackgroundImageFix"/>
            <feColorMatrix in="SourceAlpha" type="matrix" values="0 0 0 0 0 0 0 0 0 0 0 0 0 0 0 0 0 0 127 0"
                           result="hardAlpha"/>
            <feOffset dx="2" dy="2"/>
            <feGaussianBlur stdDeviation="10"/>
            <feComposite in2="hardAlpha" operator="out"/>
            <feColorMatrix type="matrix" values="0 0 0 0 0.278587 0 0 0 0 0.222674 0 0 0 0 0.441667 0 0 0 0.05 0"/>
            <feBlend mode="normal" in2="BackgroundImageFix" result="effect1_dropShadow_184_3190"/>
            <feBlend mode="normal" in="SourceGraphic" in2="effect1_dropShadow_184_3190" result="shape"/>
        </filter>
    </defs>
</svg>
