<svg width="18" height="18" viewBox="0 0 18 18" fill="none" xmlns="http://www.w3.org/2000/svg">
<path fill-rule="evenodd" clip-rule="evenodd" d="M9 16.83C13.3244 16.83 16.83 13.3244 16.83 9C16.83 4.67561 13.3244 1.17 9 1.17C4.67561 1.17 1.17 4.67561 1.17 9C1.17 13.3244 4.67561 16.83 9 16.83ZM9 18C13.9706 18 18 13.9706 18 9C18 4.02944 13.9706 0 9 0C4.02944 0 0 4.02944 0 9C0 13.9706 4.02944 18 9 18Z" fill="#2483FF"/>
<path fill-rule="evenodd" clip-rule="evenodd" d="M12.2817 5.62433L15.1397 8.48166C15.4252 8.76723 15.4252 9.23023 15.1397 9.5158L12.2817 12.3744C11.9962 12.66 11.5332 12.66 11.2476 12.3744C10.962 12.0888 10.962 11.6258 11.2476 11.3402L12.8572 9.72998H8.87578C8.47192 9.72998 8.14453 9.40259 8.14453 8.99873C8.14453 8.59487 8.47192 8.26748 8.87578 8.26748L12.8572 8.26748L11.2476 6.65848C10.962 6.37291 10.962 5.90991 11.2476 5.62433C11.5332 5.33876 11.9962 5.33876 12.2817 5.62433Z" fill="#2483FF"/>
<path d="M6.73844 9.73203H6.35625C5.95239 9.73203 5.625 9.40464 5.625 9.00078C5.625 8.59692 5.95239 8.26953 6.35625 8.26953H6.73844C7.1423 8.26953 7.46969 8.59692 7.46969 9.00078C7.46969 9.40464 7.1423 9.73203 6.73844 9.73203Z" fill="#2483FF"/>
<path d="M4.83936 9.00078C4.83936 8.59692 4.51104 8.26953 4.10718 8.26953C3.70332 8.26953 3.375 8.59692 3.375 9.00078C3.375 9.40464 3.70332 9.73203 4.10718 9.73203C4.51104 9.73203 4.83936 9.40464 4.83936 9.00078Z" fill="#2483FF"/>
</svg>
