<svg width="671" height="273" viewBox="0 0 671 273" fill="none" xmlns="http://www.w3.org/2000/svg">
    <path d="M513.755 255.835L514.251 255.298L513.962 254.719L510.78 252.57L510.119 253.356L509.334 252.818L508.59 253.645L508.012 253.19L504.995 256.827L505.656 257.405L504.995 258.149L505.78 258.851L505.119 259.554L508.549 262.323L509.293 261.413L510.119 262.033L510.946 261.124L511.524 261.62L514.458 257.901L514.086 257.405L513.962 257.323L514.499 256.579L514.127 256L513.755 255.835Z"
          fill="#E1A304"/>
    <path d="M512.867 255.132L514.168 255.987L513.072 257.364L511.771 256.451L512.867 255.132Z" fill="white"/>
    <path d="M513.962 254.719L510.284 252.24L509.623 253.025L508.838 252.488L508.094 253.314L507.516 252.86L504.499 256.496L505.16 257.074L504.499 257.818L505.284 258.521L504.623 259.223L508.094 261.951L508.838 261.041L509.623 261.661L510.449 260.711L511.028 261.207L514.086 257.405L512.598 256.331L513.259 255.504L513.962 254.719Z"
          fill="#FFB800"/>
    <path d="M508.961 253.727L512.639 256.165L509.54 260.091L505.862 257.488L508.961 253.727Z" fill="#CAA356"/>
    <path d="M508.838 253.645L512.516 256.083L509.416 260.008L505.739 257.405L508.838 253.645Z" fill="#FF850B"/>
    <path d="M509.066 255.711L510.367 256.566L509.271 257.942L507.97 257.03L509.066 255.711Z" fill="white"/>
    <circle cx="147.114" cy="177.857" r="5.79181" transform="rotate(108.402 147.114 177.857)" fill="#F84B33"/>
    <path d="M224.088 55.7125L217.765 60.9352L212.558 54.5995L218.881 49.3768L224.088 55.7125Z" fill="#FFA319"/>
    <rect x="88.137" y="169.5" width="7.79755" height="7.79755" transform="rotate(108.402 88.137 169.5)"
          fill="#4284FF"/>
    <rect x="88.137" y="242.174" width="11.5836" height="11.5836" transform="rotate(153.402 88.137 242.174)"
          fill="#4284FF"/>
    <rect x="148.275" y="80.8059" width="7.79755" height="7.79755" transform="rotate(163.87 148.275 80.8059)"
          fill="#4284FF"/>
    <path d="M41.3848 140.969L31.9626 137.526L39.6556 131.087L41.3848 140.969Z" fill="#FF3294"/>
    <path d="M24.6697 211.412L21.7862 222.755L13.4047 214.587L24.6697 211.412Z" fill="#FF3294"/>
    <path d="M194.343 252.599L195.781 251.041L194.942 249.364L185.715 243.132L183.798 245.409L181.521 243.851L179.364 246.248L177.686 244.93L168.938 255.475L170.855 257.153L168.938 259.31L171.215 261.347L169.297 263.384L179.244 271.413L181.401 268.777L183.798 270.575L186.194 267.938L187.872 269.376L196.38 258.591L195.302 257.153L194.942 256.913L196.5 254.756L195.422 253.079L194.343 252.599Z"
          fill="#E1A304"/>
    <path d="M191.769 250.562L195.541 253.041L192.363 257.033L188.591 254.386L191.769 250.562Z" fill="white"/>
    <path d="M194.942 249.364L184.277 242.174L182.36 244.45L180.083 242.893L177.926 245.289L176.248 243.971L167.5 254.517L169.417 256.194L167.5 258.351L169.777 260.388L167.86 262.426L177.926 270.335L180.083 267.698L182.36 269.496L184.756 266.74L186.434 268.178L195.302 257.153L190.988 254.037L192.905 251.641L194.942 249.364Z"
          fill="#FFB800"/>
    <path d="M180.442 246.488L191.108 253.558L182.12 264.942L171.455 257.393L180.442 246.488Z" fill="#CAA356"/>
    <path d="M180.083 246.248L190.748 253.318L181.76 264.703L171.095 257.153L180.083 246.248Z" fill="#FF850B"/>
    <path d="M180.744 252.24L184.516 254.719L181.338 258.711L177.566 256.064L180.744 252.24Z" fill="white"/>
    <circle cx="499.235" cy="77.4701" r="3.80944" transform="rotate(57.2889 499.235 77.4701)" fill="#FF3294"/>
    <circle cx="572.975" cy="227.868" r="2.85708" transform="rotate(57.2889 572.975 227.868)" fill="#FF3294"/>
    <circle cx="597.176" cy="171.258" r="5.12868" transform="rotate(57.2889 597.176 171.258)" fill="#F84B33"/>
    <path d="M543.216 148.977L540.85 159.904L529.929 157.511L532.295 146.584L543.216 148.977Z" fill="#FFA319"/>
    <rect x="628.46" y="125.326" width="7.69302" height="7.69302" transform="rotate(75.4248 628.46 125.326)"
          fill="#4284FF"/>
    <rect x="561.188" y="101.03" width="7.69302" height="7.69302" transform="rotate(83.7407 561.188 101.03)"
          fill="#4284FF"/>
    <path d="M664.214 188.477L654.32 194.431L654.111 182.886L664.214 188.477Z" fill="#FF3294"/>
    <path d="M478.683 204.961L479.654 205.001L479.992 204.21L479.432 199.134L478.067 199.139L477.936 197.88L476.458 197.837L476.421 196.859L470.137 196.93L470.119 198.098L468.796 198.068L468.759 199.469L467.478 199.403L467.622 205.264L469.184 205.236L469.267 206.608L470.9 206.663L470.895 207.677L477.192 207.451L477.375 206.647L477.352 206.451L478.568 206.355L478.835 205.48L478.683 204.961Z"
          fill="#E1A304"/>
    <path d="M478.63 203.457L478.883 205.511L476.544 205.585L476.35 203.48L478.63 203.457Z" fill="white"/>
    <path d="M479.992 204.21L479.341 198.346L477.975 198.352L477.844 197.093L476.366 197.05L476.329 196.072L470.045 196.143L470.027 197.311L468.704 197.281L468.667 198.682L467.386 198.616L467.607 204.483L469.17 204.455L469.217 205.785L470.892 205.805L470.887 206.819L477.374 206.648L477.184 204.214L478.591 204.173L479.992 204.21Z"
          fill="#FFB800"/>
    <path d="M476.694 198.286L477.387 204.114L470.738 204.35L470.213 198.379L476.694 198.286Z" fill="#CAA356"/>
    <path d="M476.671 198.089L477.364 203.917L470.715 204.153L470.19 198.183L476.671 198.089Z" fill="#FF850B"/>
    <path d="M474.772 200.099L475.024 202.154L472.685 202.227L472.491 200.122L474.772 200.099Z" fill="white"/>
</svg>
