<svg width="345" height="140" viewBox="0 0 345 140" fill="none" xmlns="http://www.w3.org/2000/svg">
    <path d="M278.158 129.183L278.493 128.82L278.297 128.429L276.147 126.977L275.7 127.507L275.17 127.144L274.667 127.703L274.276 127.396L272.237 129.853L272.684 130.244L272.237 130.747L272.768 131.222L272.321 131.696L274.639 133.567L275.142 132.953L275.7 133.372L276.259 132.758L276.65 133.093L278.632 130.579L278.381 130.244L278.297 130.188L278.66 129.686L278.409 129.295L278.158 129.183Z"
          fill="#E1A304"/>
    <path d="M277.557 128.708L278.436 129.286L277.695 130.216L276.816 129.599L277.557 128.708Z" fill="white"/>
    <path d="M278.297 128.429L275.812 126.753L275.365 127.284L274.834 126.921L274.331 127.479L273.94 127.172L271.902 129.63L272.349 130.021L271.902 130.523L272.432 130.998L271.986 131.473L274.331 133.316L274.834 132.702L275.365 133.121L275.923 132.478L276.314 132.813L278.381 130.244L277.375 129.518L277.822 128.96L278.297 128.429Z"
          fill="#FFB800"/>
    <path d="M274.918 127.759L277.403 129.406L275.309 132.059L272.823 130.3L274.918 127.759Z" fill="#CAA356"/>
    <path d="M274.834 127.703L277.32 129.351L275.225 132.004L272.74 130.244L274.834 127.703Z" fill="#FF850B"/>
    <path d="M274.989 129.099L275.868 129.677L275.127 130.607L274.248 129.99L274.989 129.099Z" fill="white"/>
    <path d="M111.606 65.1434L112.518 64.6634L112.407 63.7582L109.192 59.4017L107.943 60.1332L107.153 59.0489L105.775 59.7964L105.22 58.9194L99.4962 62.3289L100.102 63.4096L98.8724 64.0862L99.5844 65.3901L98.3744 66.0118L101.626 71.3089L103.044 70.4517L103.85 71.6653L105.377 70.847L105.912 71.7789L111.565 68.2205L111.305 67.3861L111.179 67.2178L112.244 66.4827L112.022 65.5385L111.606 65.1434Z"
          fill="#E1A304"/>
    <path d="M110.757 63.7911L112.083 65.5407L109.977 66.853L108.679 65.0263L110.757 63.7911Z" fill="white"/>
    <path d="M112.406 63.7582L108.688 58.7285L107.439 59.46L106.649 58.3757L105.271 59.1231L104.716 58.2462L98.9923 61.6557L99.598 62.7364L98.3685 63.413L99.0805 64.7169L97.8705 65.3386L101.197 70.6003L102.614 69.743L103.365 70.9371L104.912 70.0639L105.447 70.9958L111.304 67.3861L109.834 65.2566L111.102 64.4702L112.406 63.7582Z"
          fill="#FFB800"/>
    <path d="M106.229 60.0811L109.967 65.0559L103.996 68.8108L100.337 63.6164L106.229 60.0811Z" fill="#CAA356"/>
    <path d="M106.103 59.9135L109.841 64.8883L103.87 68.6432L100.211 63.4488L106.103 59.9135Z" fill="#FF850B"/>
    <path d="M105.432 62.7667L106.757 64.5163L104.651 65.8286L103.354 64.0019L105.432 62.7667Z" fill="white"/>
    <path d="M96.6382 122.438L97.61 121.385L97.0431 120.251L90.8072 116.04L89.5115 117.579L87.9727 116.526L86.515 118.145L85.3812 117.255L79.4692 124.381L80.765 125.515L79.4692 126.973L81.008 128.35L79.7122 129.726L86.434 135.152L87.8918 133.371L89.5115 134.586L91.1312 132.804L92.265 133.776L98.015 126.487L97.2861 125.515L97.0431 125.353L98.096 123.895L97.3671 122.762L96.6382 122.438Z"
          fill="#E1A304"/>
    <path d="M94.8991 121.061L97.4481 122.736L95.3001 125.434L92.751 123.645L94.8991 121.061Z" fill="white"/>
    <path d="M97.0433 120.251L89.8356 115.392L88.5398 116.931L87.0011 115.878L85.5433 117.497L84.4095 116.607L78.4976 123.733L79.7933 124.867L78.4976 126.325L80.0363 127.702L78.7405 129.078L85.5433 134.423L87.0011 132.642L88.5398 133.857L90.1595 131.994L91.2933 132.966L97.2862 125.515L94.3708 123.409L95.6665 121.79L97.0433 120.251Z"
          fill="#FFB800"/>
    <path d="M87.2443 118.307L94.4521 123.086L88.3781 130.779L81.1704 125.677L87.2443 118.307Z" fill="#CAA356"/>
    <path d="M87.0012 118.145L94.2089 122.923L88.135 130.617L80.9272 125.515L87.0012 118.145Z" fill="#FF850B"/>
    <path d="M87.4484 122.195L89.9975 123.87L87.8494 126.568L85.3003 124.779L87.4484 122.195Z" fill="white"/>
    <path d="M264.126 93.7459L264.783 93.7733L265.011 93.2386L264.633 89.808L263.71 89.8115L263.622 88.961L262.623 88.9319L262.598 88.271L258.351 88.3187L258.339 89.1084L257.445 89.0879L257.42 90.0346L256.554 89.9901L256.651 93.9511L257.707 93.9321L257.763 94.8591L258.867 94.8967L258.863 95.5816L263.119 95.4292L263.242 94.8859L263.227 94.7528L264.049 94.6884L264.229 94.097L264.126 93.7459Z"
          fill="#E1A304"/>
    <path d="M264.091 92.7296L264.261 94.1183L262.68 94.1678L262.549 92.7454L264.091 92.7296Z" fill="white"/>
    <path d="M265.011 93.2387L264.571 89.276L263.648 89.2795L263.559 88.429L262.56 88.3999L262.535 87.739L258.288 87.7867L258.277 88.5764L257.382 88.5559L257.357 89.5026L256.491 89.4581L256.641 93.4234L257.697 93.4044L257.729 94.3031L258.861 94.3167L258.858 95.0016L263.242 94.886L263.113 93.2415L264.064 93.214L265.011 93.2387Z"
          fill="#FFB800"/>
    <path d="M262.782 89.235L263.25 93.1738L258.757 93.3331L258.402 89.2982L262.782 89.235Z" fill="#CAA356"/>
    <path d="M262.766 89.1022L263.234 93.0409L258.741 93.2003L258.386 89.1654L262.766 89.1022Z" fill="#FF850B"/>
    <path d="M261.483 90.4602L261.654 91.8489L260.073 91.8984L259.942 90.476L261.483 90.4602Z" fill="white"/>
    <circle cx="298.286" cy="108.024" r="1.54196" transform="rotate(57.2889 298.286 108.024)" fill="#FF3294"/>
    <circle cx="303.966" cy="63.8332" r="2.76794" transform="rotate(57.2889 303.966 63.8332)" fill="#F84B33"/>
    <path d="M273.162 63.7549L271.885 69.6521L265.99 68.3606L267.267 62.4634L273.162 63.7549Z" fill="#FFA319"/>
    <rect x="255.782" y="41.2865" width="4.1519" height="4.1519" transform="rotate(75.4248 255.782 41.2865)"
          fill="#4284FF"/>
    <rect x="282.117" y="25.3497" width="4.1519" height="4.1519" transform="rotate(83.7407 282.117 25.3497)"
          fill="#4284FF"/>
    <path d="M330.929 104.149L325.59 107.362L325.477 101.131L330.929 104.149Z" fill="#FF3294"/>
    <circle cx="297.842" cy="31.1382" r="2.05595" transform="rotate(57.2889 297.842 31.1382)" fill="#FF3294"/>
    <circle cx="69.6803" cy="102.905" r="3.0646" transform="rotate(108.402 69.6803 102.905)" fill="#F84B33"/>
    <path d="M114.664 28.8716L111.319 31.6351L108.563 28.2827L111.909 25.5193L114.664 28.8716Z" fill="#FFA319"/>
    <rect x="50.3022" y="69.658" width="4.1259" height="4.1259" transform="rotate(108.402 50.3022 69.658)"
          fill="#4284FF"/>
    <rect x="41.1045" y="122.841" width="6.1292" height="6.1292" transform="rotate(153.402 41.1045 122.841)"
          fill="#4284FF"/>
    <rect x="74.0239" y="43.2865" width="4.1259" height="4.1259" transform="rotate(163.87 74.0239 43.2865)"
          fill="#4284FF"/>
    <path d="M31.9667 39.9111L26.9811 38.0892L31.0518 34.6825L31.9667 39.9111Z" fill="#FF3294"/>
    <path d="M16.1064 87.7397L14.5807 93.7415L10.1458 89.4193L16.1064 87.7397Z" fill="#FF3294"/>
</svg>
