<svg width="100" height="100" viewBox="0 0 100 100" fill="none" xmlns="http://www.w3.org/2000/svg">
<g clip-path="url(#clip0)">
<path d="M90.0835 72.2397L102.833 84.9999L40.5521 104.037L15.6235 60.092L70.7842 58.4443L90.0835 72.2397Z" fill="url(#paint0_linear)"/>
<g filter="url(#filter0_i)">
<path d="M53.0222 65.0562C70.5097 65.0562 84.6861 50.8798 84.6861 33.3923C84.6861 15.9049 70.5097 1.72852 53.0222 1.72852C35.5348 1.72852 21.3584 15.9049 21.3584 33.3923C21.3584 50.8798 35.5348 65.0562 53.0222 65.0562Z" fill="url(#paint1_linear)"/>
</g>
<g filter="url(#filter1_i)">
<path d="M53.022 58.4445C66.858 58.4445 78.0744 47.2282 78.0744 33.3922C78.0744 19.5561 66.858 8.33984 53.022 8.33984C39.186 8.33984 27.9697 19.5561 27.9697 33.3922C27.9697 47.2282 39.186 58.4445 53.022 58.4445Z" fill="url(#paint2_linear)"/>
</g>
<g filter="url(#filter2_di)">
<path d="M41.9246 74.1187C59.412 74.1187 73.5884 59.9423 73.5884 42.4549C73.5884 24.9674 59.412 10.791 41.9246 10.791C24.4371 10.791 10.2607 24.9674 10.2607 42.4549C10.2607 59.9423 24.4371 74.1187 41.9246 74.1187Z" fill="url(#paint3_linear)"/>
</g>
<g filter="url(#filter3_i)">
<path d="M41.9244 67.507C55.7604 67.507 66.9767 56.2907 66.9767 42.4547C66.9767 28.6186 55.7604 17.4023 41.9244 17.4023C28.0884 17.4023 16.8721 28.6186 16.8721 42.4547C16.8721 56.2907 28.0884 67.507 41.9244 67.507Z" fill="url(#paint4_linear)"/>
</g>
<path fill-rule="evenodd" clip-rule="evenodd" d="M50.9495 38.1079C51.0709 38.1505 51.1913 38.1976 51.3107 38.2493C51.3275 38.2567 51.3442 38.2642 51.361 38.2718C51.6414 38.3974 51.9095 38.5512 52.1575 38.732C52.1815 38.7493 52.2053 38.7669 52.2289 38.7848C52.5879 39.0585 52.9052 39.3897 53.1472 39.7685C54.4541 41.839 53.5577 44.685 52.7624 46.7714C51.9394 48.9351 50.6701 51.1227 48.9089 52.6617C48.7724 52.7803 48.6305 52.8939 48.4835 53.0005C47.9626 53.3796 47.377 53.6693 46.7455 53.7839C46.2457 53.8731 45.6566 53.8176 45.3433 53.417C45.2339 53.2768 45.1725 53.1138 45.1423 52.9406C45.0978 52.6896 45.1182 52.4167 45.1546 52.1619C45.3486 50.8161 45.825 49.5376 46.2987 48.2669C46.382 48.0433 46.4653 47.8199 46.5469 47.5964C46.6039 47.4395 46.6678 47.272 46.7347 47.0964C46.9121 46.6309 47.1111 46.1087 47.2623 45.5765C47.5073 44.712 47.6262 43.8206 47.3226 43.104C47.3222 43.1031 47.3219 43.1023 47.3215 43.1014C47.3196 43.099 47.3188 43.0961 47.318 43.0934C47.3142 43.0847 47.3104 43.076 47.3064 43.0675C47.3056 43.0658 47.3048 43.0641 47.304 43.0624C47.225 42.8934 47.1177 42.7638 46.9907 42.666C46.9654 42.6479 46.9384 42.6284 46.9098 42.6105C46.8969 42.6019 46.884 42.5938 46.8708 42.5861C46.4405 42.3388 45.8448 42.3795 45.3473 42.4812C45.1302 42.5255 44.917 42.5817 44.7073 42.6488C44.6876 42.6552 44.6678 42.6616 44.6481 42.6681C41.7997 43.6106 39.6159 46.5694 37.6581 49.2218C36.1992 51.1985 34.8658 53.0051 33.4765 53.6803L33.4914 53.7027C33.4883 53.7016 33.4854 53.7005 33.4825 53.6992L33.4873 53.7065C33.4814 53.7046 33.4759 53.7021 33.4705 53.6996C33.465 53.6971 33.4595 53.6946 33.4536 53.6927C33.4437 53.6976 33.4338 53.7016 33.4239 53.7055L33.4093 53.7115L33.3947 53.7181L33.3941 53.7184L33.3684 53.7301C33.3366 53.7446 33.3039 53.7595 33.2711 53.772C33.2486 53.7814 33.2279 53.789 33.2055 53.7965L33.1712 53.8091L33.1581 53.8141C33.129 53.8251 33.0999 53.8361 33.0708 53.8454C33.0609 53.8474 33.051 53.8493 33.0411 53.8533C33.004 53.8642 32.9671 53.8743 32.9304 53.8836C32.8616 53.9014 32.7927 53.9161 32.7236 53.9277L32.7079 53.9306L32.6762 53.9366C32.6532 53.9402 32.6294 53.9424 32.6058 53.9444C32.5695 53.9486 32.5331 53.952 32.4967 53.9544C32.4884 53.9552 32.4802 53.9559 32.4719 53.9564C32.4569 53.9573 32.4415 53.9577 32.426 53.958C32.3887 53.9594 32.3513 53.9597 32.3138 53.9592C32.2981 53.9594 32.2821 53.9594 32.2656 53.9584L32.2247 53.956C32.1752 53.9533 32.1256 53.9489 32.0758 53.9427L32.0576 53.9406L32.0574 53.9406L32.0521 53.9397C31.8272 53.9095 31.5995 53.8442 31.3684 53.7402C31.3521 53.7333 31.3359 53.7261 31.3196 53.7184C31.2983 53.7088 31.2775 53.6981 31.2567 53.6871C31.2269 53.6722 31.1971 53.6566 31.1672 53.6404C31.1461 53.6293 31.1252 53.6182 31.1034 53.6054C31.0763 53.5905 31.0492 53.5737 31.0215 53.5564C30.9997 53.5431 30.9778 53.5294 30.956 53.5154C30.9331 53.501 30.9102 53.4863 30.8873 53.4705L30.8698 53.4585C30.8176 53.423 30.7652 53.3855 30.7126 53.346C30.6975 53.3351 30.6823 53.324 30.6671 53.3119L30.6389 53.2893C30.5053 53.1843 30.3705 53.0661 30.2342 52.934L30.2189 52.9192C30.1868 52.8879 30.1551 52.8564 30.1239 52.8246C30.0084 52.7074 29.8979 52.5867 29.7924 52.463C29.7897 52.4616 29.7879 52.4593 29.7864 52.4573L29.7846 52.4551C27.5177 49.8273 27.4483 45.9559 28.4498 42.1381C29.0113 39.9166 29.8763 37.785 31.0143 35.8015C31.367 35.1862 31.746 34.5851 32.1504 34.0001C33.3051 32.2689 34.5265 30.8954 35.5876 30.1453C35.6671 30.0893 35.7516 30.0366 35.838 29.9826L35.8633 29.9668C36.8827 29.1993 38.033 28.5944 39.2963 28.404C39.6583 28.3493 40.0481 28.323 40.4382 28.3402C41.0105 28.3651 41.5836 28.4836 42.071 28.7433C42.4617 28.9515 42.7989 29.251 43.0369 29.6655C43.5511 30.5645 43.2554 31.6025 42.854 32.4982C42.1448 34.1994 40.6865 36.1714 39.4016 37.909L39.4009 37.91L39.4006 37.9103C39.2879 38.0627 39.1766 38.2133 39.0672 38.3617C38.6765 38.9216 38.2882 39.4841 37.9055 40.0502C37.7347 40.3032 37.565 40.5569 37.3963 40.8113C36.9799 41.5551 36.839 42.0965 37.1762 42.3265C37.2793 42.3979 37.3944 42.4336 37.5173 42.4515C38.2337 42.556 39.0567 42.0386 39.6946 41.6375L39.6946 41.6375L39.6948 41.6374C39.795 41.5744 39.8906 41.5143 39.9805 41.4599C40.3247 41.2518 40.6663 41.0396 41.0078 40.8275L41.0079 40.8275L41.008 40.8274L41.008 40.8274L41.0081 40.8273L41.0082 40.8273L41.0082 40.8273C41.8611 40.2975 42.7138 39.768 43.6059 39.3021C45.7665 38.1765 48.5403 37.2595 50.9495 38.1079ZM57.115 53.8486C58.6484 53.8486 59.8915 52.6055 59.8915 51.072C59.8915 49.5386 58.6484 48.2955 57.115 48.2955C55.5815 48.2955 54.3384 49.5386 54.3384 51.072C54.3384 52.6055 55.5815 53.8486 57.115 53.8486ZM46.6796 42.498C46.7609 42.5278 46.8362 42.5635 46.9076 42.6111C46.8402 42.5694 46.7648 42.5317 46.6796 42.498ZM47.3147 43.0885H47.3106C47.3106 43.0885 47.3066 43.0784 47.3005 43.0582C47.3021 43.0622 47.3044 43.0663 47.3066 43.0703C47.31 43.0764 47.3134 43.0824 47.3147 43.0885Z" fill="url(#paint5_linear)"/>
<path d="M86.167 62.917L94.917 71.2503L79.0837 85.417L63.667 69.9814L86.167 62.917Z" fill="url(#paint6_linear)"/>
<path d="M75.3206 49.7002C69.0068 49.7002 63.8906 51.9963 63.8906 54.8256V68.9071C63.8906 71.7386 69.0091 74.0325 75.3206 74.0325C81.6345 74.0325 86.7506 71.7363 86.7506 68.9071V54.8256C86.7506 51.994 81.6345 49.7002 75.3206 49.7002Z" fill="url(#paint7_linear)"/>
<path d="M75.32 59.9161C80.8977 59.9161 84.4793 58.5477 86.7501 56.99V54.8254C86.7501 54.7654 86.7454 54.7077 86.7408 54.6477C84.9108 56.2838 81.5 58.07 75.32 58.07C68.8423 58.07 65.5562 56.1292 63.9223 54.4492C63.9015 54.5738 63.8877 54.6984 63.8877 54.8231V56.8561C66.0546 58.4715 69.5923 59.9161 75.32 59.9161Z" fill="url(#paint8_linear)"/>
<path d="M63.8906 62.5234V64.965C66.0552 66.5804 69.5929 68.025 75.3206 68.025C80.8983 68.025 84.4799 66.6565 86.7506 65.0988V62.7657C84.9275 64.3996 81.5214 66.1788 75.3206 66.1788C68.7991 66.1788 65.5106 64.2104 63.8906 62.5234Z" fill="url(#paint9_linear)"/>
</g>
<defs>
<filter id="filter0_i" x="21.3584" y="1.72852" width="65.8277" height="65.8277" filterUnits="userSpaceOnUse" color-interpolation-filters="sRGB">
<feFlood flood-opacity="0" result="BackgroundImageFix"/>
<feBlend mode="normal" in="SourceGraphic" in2="BackgroundImageFix" result="shape"/>
<feColorMatrix in="SourceAlpha" type="matrix" values="0 0 0 0 0 0 0 0 0 0 0 0 0 0 0 0 0 0 127 0" result="hardAlpha"/>
<feOffset dx="2.5" dy="2.5"/>
<feGaussianBlur stdDeviation="1.66667"/>
<feComposite in2="hardAlpha" operator="arithmetic" k2="-1" k3="1"/>
<feColorMatrix type="matrix" values="0 0 0 0 1 0 0 0 0 1 0 0 0 0 1 0 0 0 0.25 0"/>
<feBlend mode="normal" in2="shape" result="effect1_innerShadow"/>
</filter>
<filter id="filter1_i" x="27.9697" y="8.33984" width="50.1046" height="53.4379" filterUnits="userSpaceOnUse" color-interpolation-filters="sRGB">
<feFlood flood-opacity="0" result="BackgroundImageFix"/>
<feBlend mode="normal" in="SourceGraphic" in2="BackgroundImageFix" result="shape"/>
<feColorMatrix in="SourceAlpha" type="matrix" values="0 0 0 0 0 0 0 0 0 0 0 0 0 0 0 0 0 0 127 0" result="hardAlpha"/>
<feOffset dy="3.33333"/>
<feGaussianBlur stdDeviation="1.66667"/>
<feComposite in2="hardAlpha" operator="arithmetic" k2="-1" k3="1"/>
<feColorMatrix type="matrix" values="0 0 0 0 0.680833 0 0 0 0 0.787554 0 0 0 0 0.95 0 0 0 0.4 0"/>
<feBlend mode="normal" in2="shape" result="effect1_innerShadow"/>
</filter>
<filter id="filter2_di" x="9.42741" y="8.29102" width="69.9943" height="69.9944" filterUnits="userSpaceOnUse" color-interpolation-filters="sRGB">
<feFlood flood-opacity="0" result="BackgroundImageFix"/>
<feColorMatrix in="SourceAlpha" type="matrix" values="0 0 0 0 0 0 0 0 0 0 0 0 0 0 0 0 0 0 127 0"/>
<feOffset dx="2.5" dy="0.833333"/>
<feGaussianBlur stdDeviation="1.66667"/>
<feColorMatrix type="matrix" values="0 0 0 0 0.683819 0 0 0 0 0.802608 0 0 0 0 0.954167 0 0 0 0.44 0"/>
<feBlend mode="normal" in2="BackgroundImageFix" result="effect1_dropShadow"/>
<feBlend mode="normal" in="SourceGraphic" in2="effect1_dropShadow" result="shape"/>
<feColorMatrix in="SourceAlpha" type="matrix" values="0 0 0 0 0 0 0 0 0 0 0 0 0 0 0 0 0 0 127 0" result="hardAlpha"/>
<feOffset dx="2.5" dy="2.5"/>
<feGaussianBlur stdDeviation="1.66667"/>
<feComposite in2="hardAlpha" operator="arithmetic" k2="-1" k3="1"/>
<feColorMatrix type="matrix" values="0 0 0 0 1 0 0 0 0 1 0 0 0 0 1 0 0 0 0.25 0"/>
<feBlend mode="normal" in2="shape" result="effect2_innerShadow"/>
</filter>
<filter id="filter3_i" x="16.8721" y="17.4023" width="50.1046" height="53.438" filterUnits="userSpaceOnUse" color-interpolation-filters="sRGB">
<feFlood flood-opacity="0" result="BackgroundImageFix"/>
<feBlend mode="normal" in="SourceGraphic" in2="BackgroundImageFix" result="shape"/>
<feColorMatrix in="SourceAlpha" type="matrix" values="0 0 0 0 0 0 0 0 0 0 0 0 0 0 0 0 0 0 127 0" result="hardAlpha"/>
<feOffset dy="3.33333"/>
<feGaussianBlur stdDeviation="1.66667"/>
<feComposite in2="hardAlpha" operator="arithmetic" k2="-1" k3="1"/>
<feColorMatrix type="matrix" values="0 0 0 0 0.680833 0 0 0 0 0.787554 0 0 0 0 0.95 0 0 0 0.4 0"/>
<feBlend mode="normal" in2="shape" result="effect1_innerShadow"/>
</filter>
<linearGradient id="paint0_linear" x1="81.1663" y1="94.5832" x2="62.1395" y2="46.7533" gradientUnits="userSpaceOnUse">
<stop stop-color="#F5FBFF" stop-opacity="0"/>
<stop offset="0.9362" stop-color="#E2EFFF"/>
</linearGradient>
<linearGradient id="paint1_linear" x1="21.3571" y1="33.3916" x2="84.6866" y2="33.3916" gradientUnits="userSpaceOnUse">
<stop stop-color="#EBF4FF"/>
<stop offset="1" stop-color="#CDE3FF"/>
</linearGradient>
<linearGradient id="paint2_linear" x1="27.9687" y1="33.3915" x2="78.0748" y2="33.3915" gradientUnits="userSpaceOnUse">
<stop stop-color="#DCEAFC"/>
<stop offset="1" stop-color="#AFCDF5"/>
</linearGradient>
<linearGradient id="paint3_linear" x1="10.2594" y1="42.4541" x2="73.5889" y2="42.4541" gradientUnits="userSpaceOnUse">
<stop stop-color="#EBF4FF"/>
<stop offset="1" stop-color="#CDE3FF"/>
</linearGradient>
<linearGradient id="paint4_linear" x1="16.871" y1="42.454" x2="66.9771" y2="42.454" gradientUnits="userSpaceOnUse">
<stop stop-color="#DCEAFC"/>
<stop offset="1" stop-color="#AFCDF5"/>
</linearGradient>
<linearGradient id="paint5_linear" x1="27.8328" y1="41.1469" x2="45.3409" y2="53.4997" gradientUnits="userSpaceOnUse">
<stop stop-color="#F4F9FF"/>
<stop offset="1" stop-color="#D8EAFF"/>
</linearGradient>
<linearGradient id="paint6_linear" x1="88.2503" y1="80.417" x2="78.2503" y2="64.5837" gradientUnits="userSpaceOnUse">
<stop stop-color="#F5FBFF" stop-opacity="0"/>
<stop offset="0.9362" stop-color="#E2EFFF"/>
</linearGradient>
<linearGradient id="paint7_linear" x1="63.8901" y1="61.866" x2="86.7508" y2="61.866" gradientUnits="userSpaceOnUse">
<stop stop-color="#DFEDFF"/>
<stop offset="1" stop-color="#C0DCFF"/>
</linearGradient>
<linearGradient id="paint8_linear" x1="63.8872" y1="57.1826" x2="86.7503" y2="57.1826" gradientUnits="userSpaceOnUse">
<stop stop-color="#EBF4FF"/>
<stop offset="1" stop-color="#CDE3FF"/>
</linearGradient>
<linearGradient id="paint9_linear" x1="63.8901" y1="65.2741" x2="86.7508" y2="65.2741" gradientUnits="userSpaceOnUse">
<stop stop-color="#EBF4FF"/>
<stop offset="1" stop-color="#CDE3FF"/>
</linearGradient>
<clipPath id="clip0">
<rect width="100" height="100" fill="white"/>
</clipPath>
</defs>
</svg>
