<svg width="36" height="36" viewBox="0 0 36 36" fill="currentColor" xmlns="http://www.w3.org/2000/svg">
<path d="M15.7284 24.9437C13.6704 24.1149 12.058 22.5335 11.1887 20.4918C10.3199 18.4514 10.2975 16.1931 11.1264 14.1351C11.9552 12.0771 13.5365 10.4646 15.5782 9.59535C16.5537 9.17931 17.5827 8.95606 18.6363 8.93135C19.037 8.92153 19.3695 9.23895 19.3789 9.64054C19.3836 9.84028 19.3061 10.0326 19.1647 10.1725C17.1604 12.163 16.5795 15.1277 17.6867 17.7266C18.4038 19.4107 19.734 20.7153 21.4329 21.3996C22.3054 21.7509 23.2213 21.9179 24.1569 21.8959C24.4538 21.8893 24.7261 22.0636 24.8425 22.337C24.9589 22.6105 24.8971 22.927 24.6863 23.1373C23.9382 23.8797 23.0641 24.4668 22.089 24.8819C20.0452 25.7514 17.7872 25.7729 15.7284 24.9437ZM16.9401 10.6482C16.6699 10.726 16.4053 10.8204 16.1467 10.9305C12.6684 12.4115 11.0437 16.4454 12.525 19.9228C13.2426 21.6082 14.5728 22.9128 16.2709 23.5967C17.9698 24.281 19.8329 24.2624 21.517 23.5454C21.7757 23.4353 22.0283 23.3094 22.2716 23.1685C21.8023 23.0687 21.3416 22.9272 20.8899 22.7453C18.8319 21.9165 17.2195 20.3352 16.3498 18.2944C15.686 16.7352 15.5134 15.0357 15.8527 13.3813C16.0535 12.4041 16.4221 11.4812 16.9401 10.6482Z" fill="currentColor"/>

</svg>
