<svg width="18" height="18" viewBox="0 0 18 18" fill="none" xmlns="http://www.w3.org/2000/svg">
<path fill-rule="evenodd" clip-rule="evenodd" d="M9 16.83C13.3244 16.83 16.83 13.3244 16.83 9C16.83 4.67561 13.3244 1.17 9 1.17C4.67561 1.17 1.17 4.67561 1.17 9C1.17 13.3244 4.67561 16.83 9 16.83ZM9 18C13.9706 18 18 13.9706 18 9C18 4.02944 13.9706 0 9 0C4.02944 0 0 4.02944 0 9C0 13.9706 4.02944 18 9 18Z" fill="#FE5555"/>
<path fill-rule="evenodd" clip-rule="evenodd" d="M9.00156 3.15039C9.49862 3.15039 9.90156 3.55333 9.90156 4.05039V9.90039C9.90156 10.3974 9.49862 10.8004 9.00156 10.8004C8.50451 10.8004 8.10156 10.3974 8.10156 9.90039V4.05039C8.10156 3.55333 8.50451 3.15039 9.00156 3.15039Z" fill="#FE5555"/>
<path fill-rule="evenodd" clip-rule="evenodd" d="M9.00156 11.6992C9.49862 11.6992 9.90156 12.1022 9.90156 12.5992C9.90156 13.0963 9.49862 13.4992 9.00156 13.4992C8.50451 13.4992 8.10156 13.0963 8.10156 12.5992C8.10156 12.1022 8.50451 11.6992 9.00156 11.6992Z" fill="#FE5555"/>
</svg>
