<svg width="34" height="34" viewBox="0 0 34 34" fill="none" xmlns="http://www.w3.org/2000/svg">
<path fill-rule="evenodd" clip-rule="evenodd" d="M6.38804 29.0745C5.63343 29.0696 4.91112 28.7677 4.37752 28.2341C3.84393 27.7005 3.54199 26.9782 3.53711 26.2236V4.85093C3.54199 4.09632 3.84393 3.37401 4.37752 2.84041C4.91112 2.30682 5.63343 2.00488 6.38804 2H17.5681C17.8054 2.01426 18.0283 2.11868 18.1911 2.29188C18.3539 2.46508 18.4443 2.69397 18.4439 2.93168C18.4439 3.17877 18.3458 3.41575 18.171 3.59047C17.9963 3.76519 17.7593 3.86335 17.5122 3.86335H6.33213C6.08002 3.87764 5.84296 3.98797 5.66968 4.17165C5.49639 4.35533 5.40005 4.59841 5.40046 4.85093V26.2236C5.40046 26.4855 5.50451 26.7367 5.68971 26.9219C5.87492 27.1071 6.12611 27.2111 6.38804 27.2111C6.63513 27.2111 6.87211 27.3093 7.04683 27.484C7.22155 27.6587 7.31971 27.8957 7.31971 28.1428C7.31971 28.3899 7.22155 28.6269 7.04683 28.8016C6.87211 28.9763 6.63513 29.0745 6.38804 29.0745ZM27.7607 31.9997H13.0961C12.721 32.0022 12.3492 31.9301 12.0022 31.7877C11.6552 31.6453 11.3399 31.4354 11.0747 31.1702C10.8094 30.905 10.5995 30.5897 10.4571 30.2427C10.3148 29.8957 10.2427 29.5239 10.2452 29.1488V9.06187C10.2452 8.30575 10.5455 7.58061 11.0802 7.04596C11.6148 6.5113 12.34 6.21094 13.0961 6.21094H23.0464C23.164 6.21065 23.2804 6.23354 23.3891 6.27831C23.4978 6.32307 23.5967 6.38882 23.6799 6.47181L30.183 12.565C30.2736 12.6552 30.345 12.7627 30.3931 12.8812C30.4411 12.9997 30.4647 13.1266 30.4625 13.2544V29.2606C30.465 29.6178 30.3971 29.9721 30.2626 30.3031C30.1281 30.6341 29.9298 30.9354 29.6789 31.1897C29.428 31.4441 29.1295 31.6465 28.8004 31.7855C28.4712 31.9245 28.1179 31.9973 27.7607 31.9997ZM13.0961 8.07429C12.8342 8.07429 12.583 8.17834 12.3978 8.36354C12.2126 8.54875 12.1085 8.79994 12.1085 9.06187V29.1488C12.1085 29.4107 12.2126 29.6619 12.3978 29.8471C12.583 30.0323 12.8342 30.1364 13.0961 30.1364H27.7607C27.9897 30.1315 28.2077 30.0371 28.3679 29.8734C28.5282 29.7096 28.6179 29.4897 28.6178 29.2606V13.6457L22.6924 8.05566L13.0961 8.07429ZM16.2823 20.9503H24.4251C24.5475 20.9503 24.6686 20.9262 24.7816 20.8793C24.8947 20.8325 24.9974 20.7639 25.0839 20.6774C25.1704 20.5909 25.239 20.4882 25.2859 20.3751C25.3327 20.2621 25.3568 20.1409 25.3568 20.0186C25.3568 19.7715 25.2586 19.5345 25.0839 19.3598C24.9092 19.1851 24.6722 19.0869 24.4251 19.0869H16.2823C16.0352 19.0869 15.7982 19.1851 15.6235 19.3598C15.4487 19.5345 15.3506 19.7715 15.3506 20.0186C15.3506 20.1409 15.3747 20.2621 15.4215 20.3751C15.4683 20.4882 15.537 20.5909 15.6235 20.6774C15.71 20.7639 15.8127 20.8325 15.9257 20.8793C16.0388 20.9262 16.1599 20.9503 16.2823 20.9503ZM16.2823 26.7826H24.4251C24.6722 26.7825 24.9092 26.6844 25.0839 26.5097C25.2586 26.3349 25.3568 26.098 25.3568 25.8509C25.3568 25.7285 25.3327 25.6074 25.2859 25.4943C25.239 25.3813 25.1704 25.2786 25.0839 25.1921C24.9974 25.1056 24.8947 25.0369 24.7816 24.9901C24.6686 24.9433 24.5475 24.9192 24.4251 24.9192H16.2823C16.1599 24.9192 16.0388 24.9433 15.9257 24.9901C15.8127 25.0369 15.71 25.1056 15.6235 25.1921C15.537 25.2786 15.4683 25.3813 15.4215 25.4943C15.3747 25.6074 15.3506 25.7285 15.3506 25.8509C15.3506 26.098 15.4487 26.3349 15.6235 26.5097C15.7982 26.6844 16.0352 26.7825 16.2823 26.7826Z" fill="#B0B4B9"/>
<path d="M4.37752 28.2341L4.16539 28.4462L4.16539 28.4462L4.37752 28.2341ZM6.38804 29.0745L6.38609 29.3745H6.38804V29.0745ZM3.53711 26.2236L3.2371 26.2236L3.23712 26.2255L3.53711 26.2236ZM3.53711 4.85093L3.23711 4.84898V4.85093H3.53711ZM6.38804 2L6.38804 1.69999L6.38609 1.70001L6.38804 2ZM17.5681 2L17.5861 1.70054L17.5771 1.7H17.5681V2ZM18.1911 2.29188L18.4097 2.08641L18.4097 2.08641L18.1911 2.29188ZM18.4439 2.93168L18.1439 2.93113V2.93168H18.4439ZM6.33213 3.86335V3.56335H6.32364L6.31515 3.56383L6.33213 3.86335ZM5.40046 4.85093L5.70046 4.85093L5.70046 4.85045L5.40046 4.85093ZM13.0961 31.9997L13.0961 31.6997L13.0941 31.6997L13.0961 31.9997ZM27.7607 31.9997L27.7607 32.2997L27.7627 32.2997L27.7607 31.9997ZM12.0022 31.7877L12.1161 31.5102L12.1161 31.5102L12.0022 31.7877ZM11.0747 31.1702L10.8625 31.3823L10.8625 31.3823L11.0747 31.1702ZM10.4571 30.2427L10.7347 30.1288L10.7347 30.1288L10.4571 30.2427ZM10.2452 29.1488L10.5452 29.1508V29.1488H10.2452ZM11.0802 7.04596L10.8681 6.83382L10.8681 6.83382L11.0802 7.04596ZM23.0464 6.21094L23.0464 6.51094L23.0471 6.51094L23.0464 6.21094ZM23.3891 6.27831L23.5034 6.0009L23.5034 6.0009L23.3891 6.27831ZM23.6799 6.47181L23.4681 6.68441L23.4748 6.69073L23.6799 6.47181ZM30.183 12.565L30.3949 12.3523L30.3882 12.346L30.183 12.565ZM30.3931 12.8812L30.6711 12.7685L30.6711 12.7685L30.3931 12.8812ZM30.4625 13.2544L30.1625 13.2493V13.2544H30.4625ZM30.4625 29.2606H30.1625L30.1625 29.2626L30.4625 29.2606ZM30.2626 30.3031L30.5405 30.416L30.5405 30.416L30.2626 30.3031ZM28.8004 31.7855L28.9171 32.0619L28.9171 32.0619L28.8004 31.7855ZM13.0961 8.07429L13.0961 8.37429L13.0967 8.37429L13.0961 8.07429ZM12.3978 29.8471L12.1857 30.0592L12.1857 30.0592L12.3978 29.8471ZM27.7607 30.1364V30.4364L27.7671 30.4363L27.7607 30.1364ZM28.3679 29.8734L28.1535 29.6635L28.1535 29.6635L28.3679 29.8734ZM28.6178 29.2606L28.3178 29.2606L28.3178 29.2606L28.6178 29.2606ZM28.6178 13.6457H28.9178V13.5163L28.8237 13.4275L28.6178 13.6457ZM22.6924 8.05566L22.8982 7.83744L22.8113 7.75543L22.6918 7.75566L22.6924 8.05566ZM25.0839 20.6774L24.8718 20.4652L24.8718 20.4653L25.0839 20.6774ZM25.2859 20.3751L25.563 20.4899L25.563 20.4899L25.2859 20.3751ZM25.3568 20.0186L25.6568 20.0186L25.6568 20.0186L25.3568 20.0186ZM25.0839 19.3598L24.8718 19.5719L24.8718 19.5719L25.0839 19.3598ZM15.6235 19.3598L15.4113 19.1477L15.4113 19.1477L15.6235 19.3598ZM15.4215 20.3751L15.1443 20.4899L15.1443 20.4899L15.4215 20.3751ZM15.6235 20.6774L15.4113 20.8895L15.4113 20.8895L15.6235 20.6774ZM24.4251 26.7826L24.4251 27.0826L24.4251 27.0826L24.4251 26.7826ZM16.2823 26.7826L16.2823 27.0826H16.2823V26.7826ZM25.3568 25.8509L25.6568 25.8509V25.8509H25.3568ZM15.6235 25.1921L15.4113 24.9799L15.4113 24.98L15.6235 25.1921ZM15.4215 25.4943L15.1443 25.3795L15.1443 25.3795L15.4215 25.4943ZM15.6235 26.5097L15.4113 26.7218L15.4113 26.7218L15.6235 26.5097ZM4.16539 28.4462C4.75477 29.0356 5.5526 29.3691 6.38609 29.3745L6.38998 28.7745C5.71426 28.7701 5.06747 28.4998 4.58966 28.0219L4.16539 28.4462ZM3.23712 26.2255C3.24251 27.059 3.57601 27.8568 4.16539 28.4462L4.58966 28.0219C4.11184 27.5441 3.84148 26.8973 3.8371 26.2216L3.23712 26.2255ZM3.23711 4.85093V26.2236H3.83711V4.85093H3.23711ZM4.16539 2.62828C3.57601 3.21766 3.24251 4.01549 3.23712 4.84898L3.8371 4.85287C3.84148 4.17715 4.11184 3.53036 4.58966 3.05255L4.16539 2.62828ZM6.38609 1.70001C5.5526 1.7054 4.75477 2.0389 4.16539 2.62828L4.58966 3.05255C5.06747 2.57473 5.71426 2.30437 6.38998 2.29999L6.38609 1.70001ZM17.5681 1.7H6.38804V2.3H17.5681V1.7ZM18.4097 2.08641C18.1944 1.85744 17.8998 1.7194 17.5861 1.70054L17.5501 2.29946C17.711 2.30913 17.8621 2.37993 17.9725 2.49736L18.4097 2.08641ZM18.7439 2.93222C18.7445 2.61796 18.6249 2.31538 18.4097 2.08641L17.9725 2.49736C18.0829 2.61479 18.1442 2.76997 18.1439 2.93113L18.7439 2.93222ZM18.3832 3.8026C18.6141 3.57162 18.7439 3.25834 18.7439 2.93168H18.1439C18.1439 3.09921 18.0774 3.25988 17.9589 3.37834L18.3832 3.8026ZM17.5122 4.16335C17.8389 4.16335 18.1522 4.03359 18.3832 3.8026L17.9589 3.37834C17.8404 3.4968 17.6798 3.56335 17.5122 3.56335V4.16335ZM6.33213 4.16335H17.5122V3.56335H6.33213V4.16335ZM5.8879 4.37751C6.00854 4.24963 6.17359 4.17282 6.34912 4.16287L6.31515 3.56383C5.98646 3.58247 5.67738 3.7263 5.45146 3.96578L5.8879 4.37751ZM5.70046 4.85045C5.70018 4.67464 5.76725 4.5054 5.8879 4.37751L5.45146 3.96578C5.22554 4.20526 5.09993 4.52218 5.10046 4.85141L5.70046 4.85045ZM5.70046 26.2236V4.85093H5.10046V26.2236H5.70046ZM5.90185 26.7097C5.7729 26.5808 5.70046 26.4059 5.70046 26.2236H5.10046C5.10046 26.565 5.23611 26.8925 5.47758 27.134L5.90185 26.7097ZM6.38804 26.9111C6.20568 26.9111 6.03079 26.8387 5.90185 26.7097L5.47758 27.134C5.71905 27.3755 6.04655 27.5111 6.38804 27.5111V26.9111ZM7.25896 27.2719C7.02798 27.0409 6.7147 26.9111 6.38804 26.9111V27.5111C6.55557 27.5111 6.71624 27.5777 6.8347 27.6961L7.25896 27.2719ZM7.61971 28.1428C7.61971 27.8161 7.48995 27.5029 7.25896 27.2719L6.8347 27.6961C6.95316 27.8146 7.01971 27.9753 7.01971 28.1428H7.61971ZM7.25896 29.0137C7.48995 28.7827 7.61971 28.4695 7.61971 28.1428H7.01971C7.01971 28.3103 6.95316 28.471 6.8347 28.5895L7.25896 29.0137ZM6.38804 29.3745C6.7147 29.3745 7.02798 29.2447 7.25896 29.0137L6.8347 28.5895C6.71623 28.7079 6.55557 28.7745 6.38804 28.7745V29.3745ZM13.0961 32.2997H27.7607V31.6997H13.0961V32.2997ZM11.8883 32.0653C12.2721 32.2228 12.6833 32.3024 13.0981 32.2997L13.0941 31.6997C12.7588 31.7019 12.4263 31.6375 12.1161 31.5102L11.8883 32.0653ZM10.8625 31.3823C11.1559 31.6757 11.5045 31.9078 11.8883 32.0653L12.1161 31.5102C11.8058 31.3829 11.5239 31.1952 11.2868 30.9581L10.8625 31.3823ZM10.1796 30.3566C10.3371 30.7404 10.5692 31.089 10.8625 31.3823L11.2868 30.9581C11.0497 30.7209 10.862 30.4391 10.7347 30.1288L10.1796 30.3566ZM9.94519 29.1468C9.94245 29.5616 10.0221 29.9728 10.1796 30.3566L10.7347 30.1288C10.6074 29.8186 10.543 29.4861 10.5452 29.1508L9.94519 29.1468ZM9.94518 9.06187V29.1488H10.5452V9.06187H9.94518ZM10.8681 6.83382C10.2771 7.42474 9.94518 8.22619 9.94518 9.06187H10.5452C10.5452 8.38532 10.8139 7.73648 11.2923 7.25809L10.8681 6.83382ZM13.0961 5.91094C12.2604 5.91094 11.459 6.24291 10.8681 6.83382L11.2923 7.25809C11.7707 6.7797 12.4196 6.51094 13.0961 6.51094V5.91094ZM23.0464 5.91094H13.0961V6.51094H23.0464V5.91094ZM23.5034 6.0009C23.3582 5.94113 23.2027 5.91056 23.0457 5.91094L23.0471 6.51094C23.1253 6.51075 23.2027 6.52596 23.2749 6.55571L23.5034 6.0009ZM23.8917 6.25931C23.7805 6.14849 23.6485 6.06068 23.5034 6.0009L23.2749 6.55571C23.3472 6.58546 23.4128 6.62916 23.4682 6.68431L23.8917 6.25931ZM30.3882 12.346L23.8851 6.25289L23.4748 6.69073L29.9779 12.7839L30.3882 12.346ZM30.6711 12.7685C30.6079 12.6126 30.5139 12.4711 30.3948 12.3524L29.9713 12.7775C30.0333 12.8392 30.0822 12.9128 30.115 12.9939L30.6711 12.7685ZM30.7625 13.2595C30.7654 13.0914 30.7343 12.9243 30.6711 12.7685L30.115 12.9939C30.1479 13.075 30.1641 13.1618 30.1626 13.2493L30.7625 13.2595ZM30.7625 29.2606V13.2544H30.1625V29.2606H30.7625ZM30.5405 30.416C30.6898 30.0485 30.7653 29.6552 30.7625 29.2585L30.1625 29.2626C30.1647 29.5805 30.1043 29.8957 29.9847 30.1902L30.5405 30.416ZM29.8925 31.4004C30.1711 31.118 30.3913 30.7835 30.5405 30.416L29.9847 30.1902C29.865 30.4847 29.6886 30.7528 29.4653 30.9791L29.8925 31.4004ZM28.9171 32.0619C29.2825 31.9076 29.6139 31.6828 29.8925 31.4004L29.4653 30.9791C29.2421 31.2054 28.9765 31.3855 28.6837 31.5091L28.9171 32.0619ZM27.7627 32.2997C28.1594 32.297 28.5516 32.2162 28.9171 32.0619L28.6837 31.5091C28.3908 31.6328 28.0765 31.6975 27.7586 31.6997L27.7627 32.2997ZM12.6099 8.57568C12.7389 8.44673 12.9137 8.37429 13.0961 8.37429V7.77429C12.7546 7.77429 12.4271 7.90994 12.1857 8.15141L12.6099 8.57568ZM12.4085 9.06187C12.4085 8.87951 12.481 8.70462 12.6099 8.57568L12.1857 8.15141C11.9442 8.39288 11.8085 8.72038 11.8085 9.06187H12.4085ZM12.4085 29.1488V9.06187H11.8085V29.1488H12.4085ZM12.6099 29.635C12.481 29.506 12.4085 29.3311 12.4085 29.1488H11.8085C11.8085 29.4903 11.9442 29.8178 12.1857 30.0592L12.6099 29.635ZM13.0961 29.8364C12.9137 29.8364 12.7389 29.7639 12.6099 29.635L12.1857 30.0592C12.4271 30.3007 12.7546 30.4364 13.0961 30.4364V29.8364ZM27.7607 29.8364H13.0961V30.4364H27.7607V29.8364ZM28.1535 29.6635C28.0482 29.7711 27.9049 29.8332 27.7543 29.8364L27.7671 30.4363C28.0745 30.4297 28.3672 30.303 28.5823 30.0832L28.1535 29.6635ZM28.3178 29.2606C28.3179 29.4113 28.2589 29.5559 28.1535 29.6635L28.5823 30.0832C28.7975 29.8634 28.9179 29.5681 28.9178 29.2605L28.3178 29.2606ZM28.3178 13.6457V29.2606H28.9178V13.6457H28.3178ZM22.4865 8.27388L28.412 13.8639L28.8237 13.4275L22.8982 7.83744L22.4865 8.27388ZM13.0967 8.37429L22.6929 8.35566L22.6918 7.75566L13.0955 7.77429L13.0967 8.37429ZM24.4251 20.6503H16.2823V21.2503H24.4251V20.6503ZM24.6668 20.6022C24.5902 20.6339 24.5081 20.6503 24.4251 20.6503V21.2503C24.5868 21.2503 24.747 21.2184 24.8964 21.1565L24.6668 20.6022ZM24.8718 20.4653C24.8131 20.5239 24.7435 20.5704 24.6668 20.6022L24.8964 21.1565C25.0459 21.0946 25.1817 21.0039 25.296 20.8895L24.8718 20.4653ZM25.0087 20.2603C24.977 20.337 24.9304 20.4066 24.8718 20.4652L25.296 20.8895C25.4104 20.7751 25.5011 20.6394 25.563 20.4899L25.0087 20.2603ZM25.0568 20.0186C25.0568 20.1015 25.0404 20.1837 25.0087 20.2603L25.563 20.4899C25.6249 20.3405 25.6568 20.1803 25.6568 20.0186H25.0568ZM24.8718 19.5719C24.9902 19.6904 25.0568 19.8511 25.0568 20.0186L25.6568 20.0186C25.6568 19.6919 25.527 19.3786 25.296 19.1477L24.8718 19.5719ZM24.4251 19.3869C24.5926 19.3869 24.7533 19.4535 24.8718 19.5719L25.296 19.1477C25.065 18.9167 24.7518 18.7869 24.4251 18.7869V19.3869ZM16.2823 19.3869H24.4251V18.7869H16.2823V19.3869ZM15.8356 19.5719C15.9541 19.4535 16.1147 19.3869 16.2823 19.3869V18.7869C15.9556 18.7869 15.6423 18.9167 15.4113 19.1477L15.8356 19.5719ZM15.6506 20.0186C15.6506 19.8511 15.7171 19.6904 15.8356 19.5719L15.4113 19.1477C15.1804 19.3786 15.0506 19.6919 15.0506 20.0186H15.6506ZM15.6987 20.2603C15.6669 20.1837 15.6506 20.1015 15.6506 20.0186H15.0506C15.0506 20.1803 15.0824 20.3405 15.1443 20.4899L15.6987 20.2603ZM15.8356 20.4653C15.7769 20.4066 15.7304 20.337 15.6987 20.2603L15.1443 20.4899C15.2062 20.6394 15.297 20.7751 15.4113 20.8895L15.8356 20.4653ZM16.0405 20.6022C15.9639 20.5704 15.8943 20.5239 15.8356 20.4653L15.4113 20.8895C15.5257 21.0039 15.6615 21.0946 15.8109 21.1565L16.0405 20.6022ZM16.2823 20.6503C16.1993 20.6503 16.1172 20.6339 16.0405 20.6022L15.8109 21.1565C15.9604 21.2184 16.1205 21.2503 16.2823 21.2503V20.6503ZM24.4251 26.4826H16.2823V27.0826H24.4251V26.4826ZM24.8718 26.2975C24.7533 26.416 24.5926 26.4825 24.4251 26.4826L24.4251 27.0826C24.7518 27.0825 25.065 26.9528 25.296 26.7218L24.8718 26.2975ZM25.0568 25.8509C25.0568 26.0184 24.9902 26.1791 24.8718 26.2975L25.296 26.7218C25.527 26.4908 25.6568 26.1775 25.6568 25.8509L25.0568 25.8509ZM25.0087 25.6091C25.0404 25.6858 25.0568 25.7679 25.0568 25.8509H25.6568C25.6568 25.6891 25.6249 25.529 25.563 25.3795L25.0087 25.6091ZM24.8718 25.4042C24.9304 25.4629 24.977 25.5325 25.0087 25.6091L25.563 25.3795C25.5011 25.2301 25.4104 25.0943 25.296 24.9799L24.8718 25.4042ZM24.6668 25.2673C24.7435 25.299 24.8131 25.3456 24.8718 25.4042L25.296 24.9799C25.1817 24.8656 25.0459 24.7749 24.8964 24.713L24.6668 25.2673ZM24.4251 25.2192C24.5081 25.2192 24.5902 25.2355 24.6668 25.2673L24.8964 24.713C24.747 24.6511 24.5868 24.6192 24.4251 24.6192V25.2192ZM16.2823 25.2192H24.4251V24.6192H16.2823V25.2192ZM16.0405 25.2673C16.1172 25.2355 16.1993 25.2192 16.2823 25.2192V24.6192C16.1205 24.6192 15.9604 24.6511 15.8109 24.713L16.0405 25.2673ZM15.8356 25.4042C15.8943 25.3456 15.9639 25.299 16.0405 25.2673L15.8109 24.713C15.6615 24.7749 15.5257 24.8656 15.4113 24.9799L15.8356 25.4042ZM15.6987 25.6091C15.7304 25.5325 15.7769 25.4629 15.8356 25.4042L15.4113 24.98C15.297 25.0943 15.2062 25.2301 15.1443 25.3795L15.6987 25.6091ZM15.6506 25.8509C15.6506 25.7679 15.6669 25.6858 15.6987 25.6091L15.1443 25.3795C15.0824 25.529 15.0506 25.6891 15.0506 25.8509H15.6506ZM15.8356 26.2975C15.7171 26.1791 15.6506 26.0184 15.6506 25.8509H15.0506C15.0506 26.1775 15.1804 26.4908 15.4113 26.7218L15.8356 26.2975ZM16.2823 26.4826C16.1147 26.4825 15.9541 26.416 15.8356 26.2975L15.4113 26.7218C15.6423 26.9528 15.9556 27.0825 16.2823 27.0826L16.2823 26.4826Z" fill="white"/>
<path d="M22 7.15C22 6.79101 22.291 6.5 22.65 6.5V6.5C23.009 6.5 23.3 6.79101 23.3 7.15V13.85C23.3 14.209 23.009 14.5 22.65 14.5V14.5C22.291 14.5 22 14.209 22 13.85V7.15Z" fill="#B0B4B9"/>
<path d="M22.65 14.5C22.291 14.5 22 14.209 22 13.85V13.85C22 13.491 22.291 13.2 22.65 13.2H29.35C29.709 13.2 30 13.491 30 13.85V13.85C30 14.209 29.709 14.5 29.35 14.5H22.65Z" fill="#B0B4B9"/>
<rect x="1" y="1" width="32" height="32" stroke="white"/>
</svg>
