<svg width="26" height="26" viewBox="0 0 26 26" fill="none" xmlns="http://www.w3.org/2000/svg">
<path d="M24 23C25.1046 23 26 22.1046 26 21C26 19.8954 25.1046 19 24 19C22.8954 19 22 19.8954 22 21C22 22.1046 22.8954 23 24 23Z" fill="#0DBA53"/>
<path d="M19.7188 11.1537C19.4912 10.9865 19.241 10.8472 18.9781 10.7373C16.9659 9.89377 14.585 10.6367 12.7508 11.5592C11.7407 12.0685 10.7932 12.6752 9.81994 13.2433C9.28443 13.5559 8.49881 14.1116 7.82862 14.0172C7.72921 14.0033 7.63622 13.9754 7.55285 13.9197C7.28028 13.7401 7.39412 13.3176 7.73082 12.7371C8.16852 12.0994 8.61585 11.4679 9.06959 10.841C10.1823 9.38299 11.5499 7.65715 12.1656 6.196C12.4574 5.5521 12.6658 4.81997 12.358 4.16833C12.3436 4.13893 12.3275 4.10952 12.3115 4.08011C12.3035 4.06618 12.2971 4.0507 12.2874 4.03367C12.2554 3.9795 12.2185 3.92688 12.1768 3.87735C11.9972 3.63743 11.7696 3.45324 11.5082 3.31858C10.8461 2.97805 9.98829 2.94864 9.26679 3.0539C8.24548 3.20249 7.31556 3.67458 6.49145 4.27359C6.41449 4.32003 6.33914 4.36491 6.26859 4.41289C5.4044 5.00262 4.40874 6.0861 3.4692 7.45129C2.09836 9.37215 1.08987 11.5128 0.49825 13.7726C-0.311426 16.7522 -0.255311 19.7736 1.57728 21.8245C1.57888 21.826 1.58049 21.8291 1.5837 21.8307C1.69272 21.9529 1.80656 22.0721 1.92841 22.1867C1.98933 22.2439 2.05026 22.2981 2.11119 22.3492C2.13203 22.3662 2.15127 22.3817 2.17211 22.3987C2.2122 22.4312 2.25228 22.4637 2.29076 22.4931C2.31481 22.5117 2.33886 22.5272 2.36291 22.5442C2.39818 22.569 2.43346 22.5937 2.46873 22.617C2.49438 22.634 2.52003 22.6495 2.54569 22.6649C2.57936 22.6851 2.61142 22.7052 2.64349 22.7222C2.67075 22.7377 2.6964 22.7501 2.72366 22.764C2.75572 22.7795 2.78618 22.7965 2.81825 22.8104C2.84551 22.8228 2.87276 22.8337 2.90002 22.8445C2.93048 22.8569 2.96095 22.8693 2.99141 22.8801C3.01867 22.8894 3.04592 22.8987 3.07318 22.908C3.10204 22.9172 3.1325 22.925 3.16136 22.9327C3.18862 22.9405 3.21748 22.9467 3.24473 22.9528C3.27359 22.959 3.30245 22.9637 3.32971 22.9699C3.35857 22.9745 3.38583 22.9792 3.41468 22.9838C3.44194 22.9869 3.4692 22.99 3.49645 22.9915C3.52531 22.9946 3.55417 22.9962 3.58303 22.9977C3.61029 22.9993 3.63594 22.9977 3.66159 22.9977C3.69045 22.9977 3.72092 22.9977 3.74978 22.9962C3.77383 22.9946 3.79788 22.9915 3.82193 22.99C3.85239 22.9869 3.88446 22.9854 3.91492 22.9807C3.93256 22.9776 3.94859 22.9745 3.96623 22.9714C4.048 22.9575 4.12816 22.9389 4.20993 22.9157C4.21795 22.9126 4.22596 22.9111 4.23398 22.9095C4.26925 22.8987 4.30453 22.8847 4.3398 22.8724C4.35904 22.8662 4.37667 22.86 4.39591 22.8522C4.42958 22.8399 4.46326 22.8244 4.49532 22.8104C4.51136 22.8027 4.52739 22.7981 4.54342 22.7903C4.55304 22.7934 4.56106 22.7981 4.57068 22.8012L4.55785 22.7826C7.31075 21.4963 9.79108 14.901 14.1585 14.0404C14.7389 13.9259 15.4845 13.9104 15.7554 14.5264C16.2092 15.5604 15.4957 17.0602 15.1285 18.0323C14.6876 19.1978 14.1874 20.3602 14.0046 21.5969C13.9549 21.9328 13.9389 22.3074 14.1553 22.5752C14.4086 22.8878 14.8848 22.9312 15.2889 22.8615C15.943 22.747 16.5362 22.408 17.0365 21.9855C18.4602 20.7843 19.4863 19.0771 20.1533 17.3868C20.7963 15.7601 21.521 13.5389 20.4612 11.923C20.2656 11.6258 20.0106 11.3673 19.7188 11.1537Z" fill="url(#paint0_linear)"/>
<path d="M11.5099 3.32023C10.8478 2.9797 9.98998 2.95029 9.26848 3.05554C7.91368 3.25367 6.71921 4.0183 5.72195 4.89283C5.22171 5.33086 4.76156 5.81069 4.33989 6.31993C2.27321 8.81504 0.863896 11.759 0.241808 14.8903C-0.248807 17.3606 -0.0355672 20.3387 1.9285 22.1883C2.86483 23.0706 3.7194 23.1712 4.54671 22.7889C4.55633 22.792 4.56435 22.7966 4.57397 22.7997L4.56114 22.7811L4.52267 22.778C3.9599 22.5552 3.69535 22.0939 3.65367 21.467C3.58312 20.3727 4.18917 18.78 5.06459 17.099C6.70478 13.9492 8.93018 11.0424 11.0289 8.1603C11.3961 7.65571 11.6911 7.13873 11.9781 6.58616C12.3709 5.82153 12.7749 4.85722 12.2907 4.03997C12.0983 3.71647 11.8258 3.48275 11.5099 3.32023Z" fill="url(#paint1_linear)"/>
<path d="M15.7176 14.4443C15.6951 14.4072 15.6726 14.3731 15.6484 14.3406C15.6806 14.3809 15.7031 14.4149 15.7176 14.4443Z" fill="#F2F2F2"/>
<path d="M15.2358 14.0526C15.3018 14.0758 15.3629 14.1037 15.4208 14.1408C15.3661 14.1083 15.305 14.0789 15.2358 14.0526Z" fill="#F2F2F2"/>
<path d="M15.7491 14.5147H15.7458C15.7458 14.5147 15.7426 14.5066 15.7378 14.4905C15.741 14.4986 15.7474 14.5066 15.7491 14.5147Z" fill="#F2F2F2"/>
<path d="M20.1536 17.3886C19.4883 19.0772 18.4621 20.7845 17.0384 21.9856C16.5365 22.4066 15.9433 22.7472 15.2892 22.8586C14.8867 22.9298 14.4089 22.888 14.1556 22.5738C13.9408 22.3076 13.9536 21.9314 14.0033 21.5956C14.1877 20.3604 14.6879 19.198 15.1288 18.0325C15.496 17.0573 16.2111 15.5606 15.7557 14.5251C15.7525 14.522 15.7525 14.5173 15.7509 14.5142C15.7477 14.5065 15.7429 14.4987 15.7397 14.491C15.7349 14.4802 15.7285 14.4647 15.7173 14.4461C15.7028 14.4167 15.682 14.3827 15.6483 14.3424C15.6243 14.3099 15.5906 14.2728 15.5489 14.2325C15.5329 14.2186 15.5136 14.2031 15.4944 14.1892C15.4719 14.1737 15.4479 14.1567 15.4222 14.1412C15.3645 14.1041 15.3036 14.0777 15.2379 14.053C15.2186 14.0483 15.1994 14.039 15.1801 14.0344C14.4763 13.8394 13.782 14.135 13.1183 14.3378C12.2589 14.5994 11.3674 14.8965 10.4776 15.0451C9.85392 15.1488 9.16449 15.1179 8.57768 14.8749C8.18326 14.7123 7.83053 14.4353 7.62851 14.0654C7.60286 14.0205 7.57721 13.9725 7.55957 13.9245C7.64294 13.9771 7.73273 14.0065 7.83213 14.0205C8.50232 14.1133 9.28634 13.5592 9.82185 13.245C10.7951 12.6769 11.7442 12.0702 12.7527 11.561C14.5869 10.6369 16.9678 9.89549 18.98 10.7375C19.2413 10.849 19.4931 10.9883 19.7223 11.1554C20.0125 11.369 20.2691 11.6275 20.4647 11.9232C21.5213 13.5391 20.7966 15.7602 20.1536 17.3886Z" fill="url(#paint2_linear)"/>
<defs>
<linearGradient id="paint0_linear" x1="1.83287e-05" y1="13" x2="20.9994" y2="13" gradientUnits="userSpaceOnUse">
<stop stop-color="#1088FF"/>
<stop offset="0.9996" stop-color="#001DD3"/>
</linearGradient>
<linearGradient id="paint1_linear" x1="0.0165741" y1="13.0007" x2="12.5113" y2="13.0007" gradientUnits="userSpaceOnUse">
<stop offset="0.00035995" stop-color="#001DD3"/>
<stop offset="0.0812" stop-color="#0038DA"/>
<stop offset="0.234" stop-color="#0064E5"/>
<stop offset="0.3885" stop-color="#0088EE"/>
<stop offset="0.5425" stop-color="#00A5F6"/>
<stop offset="0.6959" stop-color="#00B9FB"/>
<stop offset="0.8487" stop-color="#00C5FE"/>
<stop offset="1" stop-color="#00C9FF"/>
</linearGradient>
<linearGradient id="paint2_linear" x1="11.3" y1="9.54158" x2="21.2064" y2="23.163" gradientUnits="userSpaceOnUse">
<stop stop-color="#00C9FF"/>
<stop offset="0.1513" stop-color="#00C5FE"/>
<stop offset="0.3041" stop-color="#00B9FB"/>
<stop offset="0.4575" stop-color="#00A5F6"/>
<stop offset="0.6115" stop-color="#0088EE"/>
<stop offset="0.766" stop-color="#0064E5"/>
<stop offset="0.9188" stop-color="#0038DA"/>
<stop offset="0.9996" stop-color="#001DD3"/>
</linearGradient>
</defs>
</svg>
