<svg width="15" height="15" viewBox="0 0 15 15" fill="none" xmlns="http://www.w3.org/2000/svg">
<path fill-rule="evenodd" clip-rule="evenodd" d="M11.5436 10.8367L14.2223 13.5154C14.4915 13.7846 14.4915 14.2212 14.2223 14.4905C14.0876 14.6251 13.9112 14.6925 13.7347 14.6925C13.5582 14.6925 13.3818 14.6251 13.2471 14.4905L10.5371 11.7805C9.40532 12.6399 8.03141 13.1054 6.58575 13.1054C4.83594 13.1054 3.19083 12.424 1.95353 11.1867C0.716215 9.94932 0.03479 8.30421 0.03479 6.5544C0.03479 4.80458 0.716198 3.15948 1.95352 1.92216C3.19082 0.684843 4.8359 0.00341797 6.58574 0.00341797C8.33559 0.00341797 9.98069 0.684843 11.218 1.92214C12.4553 3.15948 13.1368 4.80457 13.1368 6.5544C13.1368 8.14404 12.5743 9.64717 11.5436 10.8367ZM6.58548 1.38241C3.73368 1.38241 1.41356 3.70254 1.41356 6.55436C1.41356 9.40618 3.73368 11.7263 6.58548 11.7263C9.43731 11.7263 11.7574 9.40618 11.7574 6.55436C11.7574 3.70254 9.43731 1.38241 6.58548 1.38241Z" fill="#DADFDF"/>
</svg>
