<svg width="21" height="21" viewBox="0 0 21 21" fill="none" xmlns="http://www.w3.org/2000/svg">
<path fill-rule="evenodd" clip-rule="evenodd" d="M10.516 20.9032C16.2883 20.9032 20.9676 16.2239 20.9676 10.4516C20.9676 4.67934 16.2883 0 10.516 0C4.74379 0 0.0644531 4.67934 0.0644531 10.4516C0.0644531 16.2239 4.74379 20.9032 10.516 20.9032ZM13.1573 14.5367L14.8712 6.65214C15.0226 5.95819 14.6145 5.68513 14.1481 5.85552L4.0753 9.64416C3.38736 9.90557 3.3993 10.2813 3.9589 10.4517L6.53531 11.2367L12.5163 7.56161C12.7961 7.37957 13.0528 7.48224 12.8432 7.66428L8.0052 11.9306L7.81867 14.525C8.08653 14.525 8.20367 14.4115 8.3432 14.2746L9.60194 13.0913L12.2134 14.9685C12.6917 15.2299 13.0297 15.0937 13.158 14.536L13.1573 14.5367Z" fill="#D4D8DE"/>
</svg>
