<svg width="21" height="21" viewBox="0 0 21 21" fill="none" xmlns="http://www.w3.org/2000/svg">
<path fill-rule="evenodd" clip-rule="evenodd" d="M10.5483 20.9032C16.3205 20.9032 20.9999 16.2239 20.9999 10.4516C20.9999 4.67934 16.3205 0 10.5483 0C4.77602 0 0.0966797 4.67934 0.0966797 10.4516C0.0966797 16.2239 4.77602 20.9032 10.5483 20.9032ZM7.51057 14.5162C9.68123 14.5162 11.4408 12.6964 11.4408 10.4516C11.4408 8.20689 9.68109 6.38721 7.51057 6.38721C5.34004 6.38721 3.58043 8.20634 3.58043 10.4516C3.58043 12.697 5.33991 14.5162 7.51057 14.5162ZM13.7873 14.2777C14.8725 14.2777 15.7524 12.5648 15.7524 10.4516C15.7524 8.33903 14.8725 6.62558 13.7873 6.62558C12.702 6.62558 11.8221 8.33903 11.8221 10.4516C11.8221 12.5643 12.702 14.2777 13.7873 14.2777ZM16.8247 13.8796C17.2064 13.8796 17.5159 12.3449 17.5159 10.4516C17.5159 8.55849 17.2067 7.02365 16.8249 7.02365C16.443 7.02365 16.1336 8.5589 16.1336 10.4516C16.1336 12.3444 16.443 13.8796 16.8247 13.8796Z" fill="#D4D8DE"/>
</svg>
