<svg width="20" height="20" viewBox="0 0 20 20" fill="none" xmlns="http://www.w3.org/2000/svg">
    <g clip-path="url(#clip0_100_498)">
        <path fill-rule="evenodd" clip-rule="evenodd"
              d="M2.06723 17.9128C3.44538 19.2895 5.25258 19.9778 7.05978 19.9778C8.86698 19.9778 10.6742 19.2895 12.0393 17.9128L14.4316 15.5232C15.5887 14.3544 15.5887 12.4583 14.4316 11.3025L13.8595 10.731L15.7577 8.83493L16.3948 9.47129C16.7979 9.87389 17.3179 10.0947 17.89 10.0947C18.449 10.0947 18.9821 9.87389 19.3851 9.47129C20.2042 8.65311 20.2042 7.31545 19.3851 6.48428L13.4955 0.60116C12.6764 -0.230009 11.3243 -0.230009 10.5052 0.60116C10.1021 1.00376 9.8811 1.52324 9.8811 2.09467C9.8811 2.65311 10.1021 3.18558 10.5052 3.58817L11.1422 4.22454L9.24403 6.12064L8.67196 5.54921C8.1129 4.99077 7.35882 4.67908 6.56573 4.67908C5.77264 4.67908 5.01856 4.99077 4.45949 5.54921L2.06723 7.93882C0.728081 9.27648 0 11.0427 0 12.9258C0 14.809 0.728081 16.5752 2.06723 17.9128ZM5.66863 6.74402C5.90265 6.49726 6.22769 6.36739 6.57873 6.36739C6.91677 6.36739 7.2418 6.49726 7.48883 6.73103L8.65896 7.89986C8.984 8.22454 9.53006 8.22454 9.85509 7.89986L12.9494 4.82194C13.2745 4.49726 13.2745 3.95181 12.9494 3.62713L11.7143 2.39337C11.5973 2.28947 11.5843 2.1596 11.5843 2.09467C11.5843 2.02973 11.6103 1.89986 11.7143 1.79597C11.8183 1.67908 11.9483 1.6661 12.0133 1.6661C12.0783 1.6661 12.2084 1.69207 12.3124 1.79597L18.202 7.67908C18.371 7.83493 18.371 8.10765 18.202 8.27648C18.098 8.39337 17.968 8.40635 17.903 8.40635C17.838 8.40635 17.708 8.38038 17.604 8.27648L16.3688 7.04272C16.0438 6.71804 15.4977 6.71804 15.1727 7.04272L12.0783 10.1336C11.7533 10.4583 11.7533 11.0038 12.0783 11.3284L13.2485 12.4973C13.7555 13.0038 13.7555 13.8219 13.2485 14.3284L10.8562 16.718C8.76297 18.809 5.35659 18.809 3.26336 16.718C2.24925 15.7051 1.69019 14.3544 1.69019 12.9258C1.69019 11.4973 2.24925 10.1466 3.26336 9.13363L5.66863 6.74402ZM4.49768 15.4714C4.6667 15.6403 4.87472 15.7182 5.09575 15.7182C5.30377 15.7182 5.5248 15.6403 5.69382 15.4714L9.41223 11.7571C9.73726 11.4325 9.73726 10.887 9.41223 10.5623C9.08719 10.2377 8.54113 10.2377 8.21609 10.5623L4.49768 14.2766C4.17265 14.6013 4.17265 15.1468 4.49768 15.4714Z"
              fill="#1A3138"/>
    </g>
    <defs>
        <clipPath id="clip0_100_498">
            <rect width="20" height="20" fill="white"/>
        </clipPath>
    </defs>
</svg>
