<svg width="20" height="20" viewBox="0 0 20 20" fill="none" xmlns="http://www.w3.org/2000/svg">
    <g opacity="0.8" clip-path="url(#clip0_719_29889)">
        <path d="M7.31248 0.896078L1.66667 4.42733C1.14918 4.81544 0.729169 5.31871 0.439887 5.89727C0.150605 6.47584 -2.2741e-09 7.11381 0 7.76066V14.8958C0 17.1971 1.86542 19.0625 4.16667 19.0625H15.8333C18.1346 19.0625 20 17.1971 20 14.8958V7.76066C20 7.11381 19.8494 6.47584 19.5601 5.89727C19.2708 5.31871 18.8508 4.81544 18.3333 4.42733L12.6875 0.896078C11.9122 0.314583 10.9691 0.000244141 9.99998 0.000244141C9.03083 0.000244141 8.08781 0.314583 7.31248 0.896078ZM11.8125 2.06274L17.4583 5.59399C17.7947 5.84627 18.0677 6.17339 18.2557 6.54946C18.4438 6.92553 18.5417 7.34021 18.5417 7.76066V14.8958C18.5417 15.6141 18.2563 16.303 17.7484 16.8109C17.2405 17.3188 16.5516 17.6042 15.8333 17.6042H4.16667C3.44837 17.6042 2.7595 17.3188 2.25159 16.8109C1.74368 16.303 1.45833 15.6141 1.45833 14.8958V7.76066C1.45833 7.34021 1.55623 6.92553 1.74426 6.54946C1.93229 6.17339 2.2053 5.84627 2.54167 5.59399L8.18748 2.06274C8.71038 1.67057 9.34636 1.45858 9.99998 1.45858C10.6536 1.45858 11.2896 1.67057 11.8125 2.06274Z"
              fill="#1A3138"/>
        <path d="M9.99967 9.0625C10.1827 9.06251 10.359 9.13132 10.4936 9.25528C10.6282 9.37925 10.7113 9.54929 10.7263 9.73167L10.7288 9.79167V13.9583C10.7288 14.1465 10.656 14.3273 10.5257 14.463C10.3954 14.5987 10.2177 14.6788 10.0297 14.6866C9.84173 14.6943 9.65804 14.6291 9.51702 14.5046C9.376 14.38 9.28857 14.2058 9.27301 14.0183L9.27051 13.9583V9.79167C9.27051 9.38917 9.59717 9.0625 9.99967 9.0625Z"
              fill="#1A3138"/>
    </g>
    <defs>
        <clipPath id="clip0_719_29889">
            <rect width="20" height="20" fill="white"/>
        </clipPath>
    </defs>
</svg>
