<svg width="20" height="20" viewBox="0 0 20 20" fill="none" xmlns="http://www.w3.org/2000/svg">
    <path opacity="0.8"
          d="M5.07667 7.49417L5.12667 7.5V7.50167V7.55167H5.11591C4.92966 8.35302 4.83501 9.15578 4.835 9.9616C4.83612 10.8131 4.93971 11.6613 5.14355 12.488L5.15883 12.55H5.095H2.04833H2.01166L2.00064 12.515C1.75079 11.7219 1.61667 10.8768 1.61667 10L5.07667 7.49417ZM5.07667 7.49417V7.45167H2.04833H2.01161L2.00062 7.48671C1.74556 8.30007 1.61608 9.14758 1.61667 10L5.07667 7.49417ZM14.1333 14.1183H14.0997L14.087 14.1495C13.5458 15.4793 12.7468 16.8035 11.6943 18.1204L11.607 18.2296L11.7437 18.2006C12.8928 17.9564 13.9778 17.4734 14.9284 16.7831C15.8789 16.0928 16.6738 15.2105 17.2616 14.1933L17.305 14.1183H17.2183H17.2167H14.1333ZM5.68247 14.1466L5.63667 14.1562V14.1183H2.78333H2.69664L2.74005 14.1934C3.30395 15.1681 4.05808 16.0195 4.9576 16.6969C5.85712 17.3744 6.88367 17.8641 7.97622 18.1368L8.12094 18.173L8.02724 18.0569C7.19696 17.0286 6.49251 15.9047 5.92885 14.7093L5.68247 14.1466ZM12.3551 14.1898L12.3892 14.1183H12.31H7.46H7.38081L7.41486 14.1898C7.98382 15.3847 8.79156 16.5851 9.84564 17.7945L9.8833 17.8377L9.921 17.7945C10.9767 16.5851 11.7862 15.3847 12.3551 14.1898ZM12.9967 7.40422L12.9493 7.45167H6.8H6.76224L6.75191 7.48798C6.52294 8.29263 6.40565 9.12494 6.40333 9.96153V9.96167C6.40333 10.81 6.5274 11.6596 6.77362 12.5138L6.78404 12.55H6.82167H12.95H12.9876L12.998 12.5139C13.2459 11.6596 13.3683 10.8099 13.3683 9.96167C13.3683 9.14024 13.2527 8.31569 13.0198 7.48648L12.9967 7.40422ZM17.987 7.46466L17.9533 7.48509V7.45167H14.69H14.6267L14.6414 7.51328C14.8355 8.32618 14.9317 9.14229 14.9317 9.96167C14.9317 10.8076 14.8288 11.6502 14.6231 12.4898L14.6079 12.5517H14.6717H17.95H17.9866L17.9977 12.5167C18.2492 11.7202 18.3833 10.8751 18.3833 10C18.3833 9.14929 18.2566 8.327 18.02 7.55167H18.0739L17.9887 7.46633L17.987 7.46466ZM7.91333 1.87833H7.90452L7.89625 1.88134L7.88009 1.88722C6.80689 2.16861 5.80006 2.65982 4.91774 3.33249C4.03481 4.00562 3.29407 4.84712 2.73838 5.80831L2.69501 5.88333H2.78167H5.60667H5.64056L5.65311 5.85185C6.17273 4.54864 6.94012 3.25108 7.95433 1.95921L8.01782 1.87833H7.915H7.91333ZM9.93333 2.14498V2.02748L9.84553 2.12895L9.77052 2.21561L9.77048 2.21567C8.72973 3.42181 7.93199 4.62227 7.37471 5.81382L7.34142 5.885H7.42H12.345H12.4245L12.3901 5.81335C11.8349 4.65743 11.1372 3.57553 10.3133 2.59288L10.3131 2.59265L9.93333 2.14498ZM11.7983 1.81167H11.6938L11.7594 1.89304L11.8489 2.00408C11.849 2.00419 11.8491 2.00431 11.8492 2.00442C12.845 3.2812 13.6006 4.56371 14.1152 5.85188L14.1278 5.88333H14.1617H17.2167H17.3033L17.26 5.80832C16.678 4.80124 15.8931 3.92606 14.955 3.23827C14.017 2.55049 12.9463 2.06509 11.8108 1.81286L11.8111 1.81167H11.8H11.7983ZM10 0.05C12.6389 0.05 15.1697 1.0983 17.0357 2.96429C18.9017 4.83027 19.95 7.3611 19.95 10C19.95 12.6389 18.9017 15.1697 17.0357 17.0357C15.1697 18.9017 12.6389 19.95 10 19.95C7.3611 19.95 4.83027 18.9017 2.96429 17.0357C1.0983 15.1697 0.05 12.6389 0.05 10C0.05 7.3611 1.0983 4.83027 2.96429 2.96429C4.83027 1.0983 7.3611 0.05 10 0.05Z"
          fill="#1A3138" stroke="white" stroke-width="0.1"/>
</svg>
