<svg width="20" height="20" viewBox="0 0 20 20" fill="none" xmlns="http://www.w3.org/2000/svg">
<g clip-path="url(#clip0)">
<path d="M0 17.9296L1.93561 15.3384C1.93561 15.3384 2.46634 14.9326 2.46634 13.1218V5.09842C2.46634 5.09842 2.56 4.38037 1.87317 3.53745C1.18634 2.69452 0.530732 1.88281 0.530732 1.88281H6.02537L10.5834 11.7482L14.5483 1.88281H19.9805L18.2946 3.81842V16.1189L20.0117 17.8984H12.3941L14.0488 16.2438L14.1424 5.34818L8.99122 18.117L3.37171 5.75403L3.27805 13.6526C3.27805 13.6526 3.21561 14.5267 3.74634 15.276C4.27707 15.994 5.80683 17.9296 5.80683 17.9296H0V17.9296Z" fill="#171B21"/>
</g>
<defs>
<clipPath id="clip0">
<rect width="20" height="20" fill="white"/>
</clipPath>
</defs>
</svg>
