<svg width="26" height="26" viewBox="0 0 26 26" fill="none" xmlns="http://www.w3.org/2000/svg">
<mask id="mask0" mask-type="alpha" maskUnits="userSpaceOnUse" x="0" y="0" width="26" height="26">
<rect width="26" height="26" fill="#F5F5F5"/>
</mask>
<g mask="url(#mask0)">
<path fill-rule="evenodd" clip-rule="evenodd" d="M15.7336 6.06567C14.9242 5.25626 14.9242 3.94394 15.7336 3.13452C16.5431 2.32511 17.8554 2.32511 18.6648 3.13452L23.1643 7.63398C23.9737 8.44339 23.9737 9.75571 23.1642 10.5651C22.3548 11.3745 21.0425 11.3745 20.2331 10.5651L19.4487 9.78076L17.8809 11.3486L19.9995 13.4673C21.066 14.5338 21.066 16.2629 19.9995 17.3294L16.4155 20.9134C13.3696 23.9593 8.43123 23.9593 5.38533 20.9134C2.33943 17.8675 2.33943 12.9291 5.38533 9.88323L8.96938 6.29918C10.0359 5.2327 11.765 5.2327 12.8315 6.29918L14.9497 8.41746L16.5176 6.84961L15.7336 6.06567ZM16.865 4.26589C16.6804 4.45047 16.6804 4.74973 16.865 4.9343L21.3645 9.43376C21.549 9.61833 21.8483 9.61833 22.0329 9.43376C22.2175 9.24918 22.2175 8.94992 22.0329 8.76535L17.5334 4.26589C17.3488 4.08132 17.0496 4.08132 16.865 4.26589ZM13.8184 9.54883L13.8179 9.54925L14.3836 10.1149L16.1834 11.9147L16.7491 12.4804L16.7495 12.48L18.8682 14.5986C19.3098 15.0403 19.3098 15.7563 18.8682 16.198L15.2841 19.782C12.8631 22.2031 8.93776 22.2031 6.5167 19.782C4.09564 17.361 4.09564 13.4357 6.5167 11.0146L10.1007 7.43055C10.5424 6.98891 11.2584 6.98891 11.7001 7.43055L13.8184 9.54883ZM16.7495 10.2172L18.2876 8.67918L17.6192 8.01077L16.0811 9.54883L16.7495 10.2172ZM14.6155 12.8142C14.9279 12.5018 14.9279 11.9953 14.6155 11.6829C14.3031 11.3704 13.7966 11.3704 13.4841 11.6829L10.7845 14.3825C10.472 14.6949 10.4721 15.2015 10.7845 15.5139C11.0969 15.8263 11.6034 15.8263 11.9158 15.5139L14.6155 12.8142Z" fill="#B0B4B9"/>
</g>
</svg>
