<?xml version="1.0" encoding="utf-8"?>
<!-- Generator: Adobe Illustrator 24.0.1, SVG Export Plug-In . SVG Version: 6.00 Build 0)  -->
<svg version="1.1" id="图层_1" xmlns="http://www.w3.org/2000/svg" xmlns:xlink="http://www.w3.org/1999/xlink" x="0px" y="0px"
	 viewBox="0 0 36 36" style="enable-background:new 0 0 36 36;" xml:space="preserve">
<style type="text/css">
	.st0{fill:currentColor;}
</style>
<g>
	<path class="st0" d="M23.5,13.4c0.2,0,0.4-0.1,0.6-0.2l1.1-1.1c0.2-0.2,0.2-0.4,0.2-0.6c0-0.2-0.1-0.4-0.2-0.6
		c-0.3-0.3-0.9-0.3-1.2,0l0,0l-1.1,1.1c-0.3,0.3-0.3,0.9,0,1.2C23,13.3,23.3,13.4,23.5,13.4z"/>
	<path class="st0" d="M11.9,13.1c0.2,0.2,0.4,0.3,0.6,0.3c0.2,0,0.4-0.1,0.6-0.2c0.2-0.2,0.3-0.4,0.3-0.6s-0.1-0.4-0.2-0.6l-1-1
		L12,10.8c-0.3-0.3-0.8-0.3-1.2,0c-0.3,0.3-0.3,0.9,0,1.2L11.9,13.1z"/>
	<path class="st0" d="M27.9,17.4c-0.2-0.2-0.4-0.2-0.6-0.2h-1.5c-0.5,0-0.9,0.4-0.9,0.9s0.4,0.9,0.9,0.9h1.5c0.2,0,0.4-0.1,0.6-0.2
		c0.2-0.2,0.2-0.4,0.2-0.6S28,17.6,27.9,17.4z"/>
	<path class="st0" d="M24.1,22.9c-0.3-0.3-0.9-0.3-1.2,0c-0.3,0.3-0.3,0.9,0,1.2l1.1,1.1c0.2,0.2,0.4,0.2,0.6,0.2
		c0.2,0,0.4-0.1,0.6-0.2c0.2-0.2,0.3-0.4,0.3-0.6c0-0.2-0.1-0.4-0.3-0.6L24.1,22.9z"/>
	<path class="st0" d="M11.1,18c0-0.2-0.1-0.4-0.2-0.6l0,0c-0.2-0.2-0.4-0.2-0.6-0.2H8.7c-0.5,0-0.9,0.4-0.9,0.9s0.4,0.9,0.9,0.9h1.5
		c0.2,0,0.4-0.1,0.6-0.3C11,18.4,11.1,18.2,11.1,18z"/>
	<path class="st0" d="M18,11.1c0.5,0,0.9-0.4,0.9-0.9V8.7c0-0.5-0.4-0.9-0.9-0.9s-0.9,0.4-0.9,0.9v1.5C17.1,10.7,17.5,11.1,18,11.1z
		"/>
	<path class="st0" d="M11.9,22.9l-1.1,1.1c-0.3,0.3-0.3,0.9,0,1.2c0.2,0.2,0.4,0.2,0.6,0.2c0.2,0,0.4-0.1,0.6-0.2l1.1-1.1
		c0.2-0.2,0.2-0.4,0.2-0.6c0-0.2-0.1-0.4-0.2-0.6C12.8,22.6,12.2,22.6,11.9,22.9z"/>
	<path class="st0" d="M18,24.9c-0.5,0-0.9,0.4-0.9,0.9v1.5c0,0.5,0.4,0.9,0.9,0.9s0.9-0.4,0.9-0.9v-1.5C18.9,25.3,18.5,24.9,18,24.9
		z"/>
	<path class="st0" d="M18.1,12.9c-2.7,0-5,2.2-5,5s2.2,5,5,5s5-2.2,5-5S20.8,12.9,18.1,12.9z M18.1,21.4c-2,0-3.5-1.6-3.5-3.5
		c0-2,1.6-3.5,3.5-3.5c2,0,3.5,1.6,3.5,3.5C21.6,19.8,20,21.4,18.1,21.4z"/>
</g>
</svg>
