<svg width="26" height="26" viewBox="0 0 26 26" fill="none" xmlns="http://www.w3.org/2000/svg">
<path fill-rule="evenodd" clip-rule="evenodd" d="M4.1596 6.43107C3.85315 6.70277 3.8002 6.89693 3.8002 7.0002C3.8002 7.10346 3.85315 7.29762 4.1596 7.56932C4.46512 7.8402 4.95287 8.12069 5.62424 8.37245C6.96108 8.87377 8.86159 9.2002 11.0002 9.2002C13.1388 9.2002 15.0393 8.87377 16.3762 8.37245C17.0475 8.12069 17.5353 7.8402 17.8408 7.56932C18.1472 7.29762 18.2002 7.10346 18.2002 7.0002C18.2002 6.89693 18.1472 6.70277 17.8408 6.43107C17.5353 6.16019 17.0475 5.8797 16.3762 5.62794C15.0393 5.12662 13.1388 4.8002 11.0002 4.8002C8.86159 4.8002 6.96108 5.12662 5.62424 5.62794C4.95287 5.8797 4.46512 6.16019 4.1596 6.43107ZM19.8002 12.3248V7.0002C19.8002 6.27504 19.4054 5.67998 18.9022 5.23385C18.3981 4.7869 17.7143 4.42094 16.9379 4.12981C15.3794 3.54534 13.2799 3.2002 11.0002 3.2002C8.72052 3.2002 6.62103 3.54534 5.06244 4.12981C4.2861 4.42094 3.60227 4.7869 3.09815 5.23385C2.59496 5.67998 2.2002 6.27504 2.2002 7.0002V13.0002V18.0265C2.2002 18.7195 2.30014 19.6446 2.9561 20.3479C3.97726 21.4428 6.22224 22.8002 11.0002 22.8002C12.64 22.8002 13.9814 22.6408 15.0785 22.386C15.8508 22.6344 16.8121 22.8 18 22.8C20.5647 22.8 22.0727 22.0279 22.9044 21.3185C23.6429 20.6885 23.8 19.7634 23.8 19.0557V15C23.8 14.433 23.5094 13.9738 23.1568 13.6403C22.8058 13.3083 22.3408 13.0463 21.8326 12.843C21.2498 12.6098 20.5578 12.4333 19.8002 12.3248ZM18.2002 12.2015V9.27429C17.8238 9.50007 17.3971 9.69841 16.9379 9.87058C15.3794 10.455 13.2799 10.8002 11.0002 10.8002C8.72052 10.8002 6.62103 10.455 5.06244 9.87058C4.60333 9.69841 4.17657 9.50007 3.8002 9.27429V13.0002C3.8002 13.0891 3.83731 13.2383 4.03561 13.4494C4.23787 13.6648 4.57043 13.901 5.05083 14.1303C6.00953 14.5878 7.41124 14.9486 9.07705 15.1094C9.51684 15.1518 9.83894 15.5428 9.79649 15.9825C9.75405 16.4223 9.36312 16.7444 8.92334 16.702C7.1387 16.5297 5.54041 16.1368 4.36172 15.5743C4.16621 15.481 3.97819 15.3811 3.8002 15.2743V18.0265C3.8002 18.6233 3.90243 19.0167 4.12618 19.2566C4.76268 19.939 6.52932 21.2002 11.0002 21.2002C11.6918 21.2002 12.3187 21.1699 12.8867 21.1163C12.3266 20.5014 12.2 19.691 12.2 19.0557V15C12.2 14.433 12.4906 13.9738 12.8432 13.6403C13.1942 13.3083 13.6592 13.0463 14.1674 12.843C15.1882 12.4347 16.5436 12.2 18 12.2C18.067 12.2 18.1337 12.2005 18.2002 12.2015ZM13.8 16.9956V19.0557C13.8 19.59 13.9276 19.9251 14.134 20.1012C14.6505 20.5418 15.7809 21.2 18 21.2C20.2191 21.2 21.3495 20.5418 21.866 20.1012C22.0724 19.9251 22.2 19.59 22.2 19.0557V16.9956C22.0809 17.0531 21.9581 17.1068 21.8326 17.157C20.8118 17.5653 19.4564 17.8 18 17.8C16.5436 17.8 15.1882 17.5653 14.1674 17.157C14.0419 17.1068 13.9191 17.0531 13.8 16.9956ZM22.2 15C22.2 15.0008 22.2 15.0029 22.1988 15.0076C22.1975 15.0126 22.1943 15.0229 22.1862 15.0387C22.1694 15.0716 22.1325 15.1262 22.0574 15.1972C21.9023 15.3439 21.6351 15.5128 21.2384 15.6714C20.4496 15.987 19.305 16.2 18 16.2C16.695 16.2 15.5504 15.987 14.7616 15.6714C14.3649 15.5128 14.0977 15.3439 13.9426 15.1972C13.8675 15.1262 13.8306 15.0716 13.8138 15.0387C13.8057 15.0229 13.8025 15.0126 13.8012 15.0076C13.8 15.0029 13.8 15.0008 13.8 15C13.8 14.9996 13.8 14.9988 13.8002 14.9975C13.8003 14.9963 13.8006 14.9946 13.8012 14.9924C13.8025 14.9874 13.8057 14.9771 13.8138 14.9613C13.8306 14.9284 13.8675 14.8738 13.9426 14.8028C14.0977 14.6561 14.3649 14.4872 14.7616 14.3286C15.5504 14.013 16.695 13.8 18 13.8C19.305 13.8 20.4496 14.013 21.2384 14.3286C21.6351 14.4872 21.9023 14.6561 22.0574 14.8028C22.1325 14.8738 22.1694 14.9284 22.1862 14.9613C22.1943 14.9771 22.1975 14.9874 22.1988 14.9924C22.2 14.9971 22.2 14.9992 22.2 15Z" fill="#B0B4B9"/>
</svg>
