<svg width="14" height="13" viewBox="0 0 14 13" fill="none" xmlns="http://www.w3.org/2000/svg">
    <path d="M7 0C7.69109 0 8.32306 0.364673 8.68347 0.965991L13.7049 9.33373C14.079 9.95717 14.0987 10.7397 13.7572 11.3814C13.4119 12.0321 12.7467 12.44 12.0214 12.44H1.97861C1.25328 12.44 0.588061 12.0321 0.243222 11.3821C-0.0986871 10.7397 -0.0789703 9.95717 0.295121 9.33373L5.31636 0.966269C5.67693 0.364658 6.30892 0 7 0ZM7 1.2C6.7343 1.2 6.49125 1.34024 6.34547 1.58345L1.32409 9.95118C1.16681 10.2133 1.1584 10.5475 1.3029 10.819C1.44182 11.0808 1.70142 11.24 1.97861 11.24H12.0214C12.2986 11.24 12.5582 11.0808 12.6975 10.8183C12.8416 10.5475 12.8332 10.2133 12.6759 9.95119L7.65436 1.58319C7.50876 1.34024 7.26571 1.2 7 1.2ZM7 8.30373C7.44193 8.30373 7.80017 8.67687 7.80017 9.13717C7.80017 9.59745 7.44193 9.9706 7 9.9706C6.55808 9.9706 6.19983 9.59745 6.19983 9.13717C6.19983 8.67687 6.55808 8.30373 7 8.30373ZM7 4.06235C7.33132 4.06235 7.60014 4.34232 7.60014 4.68743V7.05343C7.60014 7.39853 7.33134 7.6785 6.99999 7.6785C6.66867 7.6785 6.39987 7.39853 6.39987 7.05344V4.68743C6.39987 4.34232 6.66867 4.06235 7 4.06235Z" fill="#F82F90"/>
</svg>
