<svg width="24" height="24" viewBox="0 0 24 24" fill="none" xmlns="http://www.w3.org/2000/svg">
<path fill-rule="evenodd" clip-rule="evenodd" d="M6.85031 0H12.9375C15.9186 0.421875 18.3111 1.38188 20.115 2.88C21.9189 4.37812 23.2139 6.48063 24 9.1875V17.1497C24 19.5316 23.752 20.3953 23.2863 21.2663C22.8308 22.127 22.127 22.8308 21.2663 23.2863C20.3953 23.752 19.5319 24 17.1497 24H6.85031C4.46836 24 3.60469 23.752 2.73375 23.2863C1.87302 22.8308 1.16918 22.127 0.713672 21.2663C0.247969 20.3953 0 19.5316 0 17.1497V6.85031C0 4.46836 0.247969 3.60469 0.713672 2.73375C1.16918 1.87302 1.87302 1.16918 2.73375 0.713672C3.60469 0.247969 4.46836 0 6.85031 0Z" fill="#2D65F8"/>
<path fill-rule="evenodd" clip-rule="evenodd" d="M23.2863 2.73375C22.8308 1.87302 22.127 1.16918 21.2662 0.713672C20.3955 0.247969 19.5316 0 17.1497 0H12.9375C15.9186 0.421875 18.3111 1.38188 20.115 2.88C21.9189 4.37812 23.2139 6.48063 24 9.1875V6.85031C24 4.46836 23.752 3.60469 23.2863 2.73375Z" fill="#173FFF"/>
<path d="M13.8703 8.96981C13.8703 6.68629 12.7453 4.72457 11.8903 4.0852C11.8903 4.0852 11.8252 4.04934 11.8296 4.1391C11.7593 8.54535 9.48143 9.74067 8.22847 11.3492C5.33933 15.0629 8.0269 19.1358 10.763 19.8847C12.2946 20.3065 10.41 19.1358 10.1677 16.677C9.87214 13.7047 13.8703 11.4331 13.8703 8.96981Z" fill="#FCFCFF"/>
<path d="M15.0853 10.446C15.067 10.4341 15.0429 10.4249 15.026 10.4535C14.9775 11.0099 14.4035 12.1978 13.6744 13.2895C11.2048 16.9924 12.6112 18.776 13.4041 19.7388C13.8598 20.2952 13.4041 19.7388 14.5526 19.1704C15.971 18.3206 16.8916 16.8513 17.028 15.2184C17.103 14.3261 16.9662 13.4287 16.6286 12.5994C16.2909 11.7701 15.7622 11.0322 15.0853 10.446Z" fill="white"/>
</svg>
