<svg width="14" height="14" viewBox="0 0 14 14" fill="none" xmlns="http://www.w3.org/2000/svg">
<path fill-rule="evenodd" clip-rule="evenodd" d="M9.42507 0.760576C10.438 -0.253525 12.2034 -0.253525 13.2149 0.760576C13.721 1.26763 14.0003 1.94159 14.0003 2.65904C14.0003 3.37578 13.721 4.05044 13.2149 4.5575L5.39517 12.3919C5.39237 12.3947 5.38955 12.3975 5.38672 12.4002H13.2C13.6418 12.4002 14 12.7584 14 13.2002C14 13.642 13.6418 14.0002 13.2 14.0002H0.900024C0.864898 14.0002 0.8303 13.9979 0.796369 13.9935C0.764411 13.9979 0.732341 14 0.70027 14C0.51757 14 0.33837 13.9285 0.20537 13.7945C0.0177698 13.6073 -0.0480302 13.3288 0.0359698 13.0771L1.43597 8.86918C1.43702 8.86602 1.43912 8.86339 1.44122 8.86076C1.44332 8.85813 1.44542 8.8555 1.44647 8.85235C1.48007 8.75837 1.53047 8.67001 1.60537 8.59497L9.42507 0.760576ZM11.9 3.8913L12.2248 3.56589C12.467 3.32324 12.6 3.00133 12.6 2.65909C12.6 2.31685 12.467 1.99495 12.2248 1.75229C11.7411 1.26768 10.8983 1.26768 10.4146 1.75229L10.0898 2.0777L11.9 3.8913ZM3.60428 11.589L2.40588 10.3883L1.80668 12.1893L3.60428 11.589ZM3.08984 9.09083L4.90004 10.9044L10.9102 4.88294L9.10004 3.06934L3.08984 9.09083Z" fill="#135BEB"/>
</svg>
