<svg width="16" height="16" viewBox="0 0 16 16" fill="none" xmlns="http://www.w3.org/2000/svg">
<path d="M1.33325 9.3335V14.6668H14.6666V9.3335" stroke="white" stroke-width="1.6" stroke-linecap="round" stroke-linejoin="round"/>
<path d="M4.27425 4.31321H5.33917C5.63259 4.31321 5.87077 4.56922 5.87077 4.88152V8.48994C5.87077 8.80405 6.11068 9.05825 6.40237 9.05825H9.59542C9.88884 9.05825 10.1287 8.80224 10.1287 8.48994V4.88152C10.1287 4.56922 10.3687 4.31321 10.6603 4.31321H11.7253C12.0187 4.31321 12.0877 4.13164 11.8806 3.91194L8.37689 0.166137C8.16977 -0.055379 7.83148 -0.055379 7.62436 0.166137L4.11891 3.91194C3.91179 4.13164 3.98256 4.31321 4.27425 4.31321ZM6.4041 10.1967C6.10896 10.1967 5.8725 10.4491 5.8725 10.765C5.8725 11.0773 6.11068 11.3333 6.4041 11.3333H9.59888C9.89402 11.3333 10.1305 11.0773 10.1305 10.765C10.1305 10.4491 9.89229 10.1967 9.59888 10.1967H6.4041Z" fill="white"/>
</svg>
