<svg width="12" height="12" viewBox="0 0 12 12" fill="none" xmlns="http://www.w3.org/2000/svg">
<path fill-rule="evenodd" clip-rule="evenodd" d="M6 12C9.31371 12 12 9.31371 12 6C12 2.68629 9.31371 0 6 0C2.68629 0 0 2.68629 0 6C0 9.31371 2.68629 12 6 12Z" fill="#FA624B"/>
<path fill-rule="evenodd" clip-rule="evenodd" d="M6 2.25C5.58579 2.25 5.25 2.58579 5.25 3V6.75C5.25 7.16421 5.58579 7.5 6 7.5C6.41421 7.5 6.75 7.16421 6.75 6.75V3C6.75 2.58579 6.41421 2.25 6 2.25ZM6.75 9C6.75 9.41421 6.41421 9.75 6 9.75C5.58579 9.75 5.25 9.41421 5.25 9C5.25 8.58579 5.58579 8.25 6 8.25C6.41421 8.25 6.75 8.58579 6.75 9Z" fill="white"/>
</svg>
