<svg width="150" height="150" viewBox="0 0 150 150" fill="none" xmlns="http://www.w3.org/2000/svg">
<g clip-path="url(#clip0)">
<circle cx="75.8029" cy="78.2638" r="50.3263" fill="url(#paint0_linear)"/>
<ellipse cx="75.0015" cy="76.7461" rx="68.0142" ry="31.7939" transform="rotate(27.6749 75.0015 76.7461)" stroke="url(#paint1_linear)" stroke-width="6"/>
<circle cx="27.5035" cy="77.107" r="18.9488" fill="#A7CAF7"/>
<circle cx="139.372" cy="48.5169" r="5.50126" stroke="#2483FF" stroke-width="4.09469"/>
<ellipse cx="16.9541" cy="82.3995" rx="4.27876" ry="5.70501" transform="rotate(-34.7293 16.9541 82.3995)" fill="#C7DEFB"/>
<ellipse cx="27.7832" cy="90.5997" rx="1.97644" ry="2.445" transform="rotate(29.5482 27.7832 90.5997)" fill="#C7DEFB"/>
<ellipse opacity="0.3" cx="109.478" cy="66.1196" rx="10.1875" ry="15.485" transform="rotate(-17.2321 109.478 66.1196)" fill="url(#paint2_linear)"/>
<ellipse opacity="0.3" cx="107.683" cy="100.575" rx="5.21475" ry="8.68099" transform="rotate(30 107.683 100.575)" fill="url(#paint3_linear)"/>
</g>
<defs>
<linearGradient id="paint0_linear" x1="55.6398" y1="32.1672" x2="95.966" y2="124.361" gradientUnits="userSpaceOnUse">
<stop offset="0.0416667" stop-color="#DAE9FD"/>
<stop offset="1" stop-color="#5798ED"/>
</linearGradient>
<linearGradient id="paint1_linear" x1="71.48" y1="108.679" x2="67.8061" y2="45.8018" gradientUnits="userSpaceOnUse">
<stop stop-color="#97C4FF"/>
<stop offset="0.961412" stop-color="#D5E6FD" stop-opacity="0"/>
</linearGradient>
<linearGradient id="paint2_linear" x1="105.395" y1="51.9365" x2="120.979" y2="75.3692" gradientUnits="userSpaceOnUse">
<stop stop-color="#A8C0E0"/>
<stop offset="1" stop-color="#EEF5FF"/>
</linearGradient>
<linearGradient id="paint3_linear" x1="105.594" y1="92.6234" x2="114.61" y2="105.003" gradientUnits="userSpaceOnUse">
<stop stop-color="#A8C0E0"/>
<stop offset="1" stop-color="#EEF5FF"/>
</linearGradient>
<clipPath id="clip0">
<rect width="150" height="150" fill="white"/>
</clipPath>
</defs>
</svg>
