<svg width="21" height="18" viewBox="0 0 21 18" fill="none" xmlns="http://www.w3.org/2000/svg">
<path fill-rule="evenodd" clip-rule="evenodd" d="M11.1914 11.1496C11.1914 11.2542 11.1068 11.3399 11.0022 11.3399H9.47976C9.37516 11.3399 9.28958 11.2542 9.28958 11.1496V7.72437C9.28958 7.61971 9.37516 7.53408 9.47976 7.53408H11.0022C11.1068 7.53408 11.1914 7.61971 11.1914 7.72437V11.1496ZM11.1914 14.9554C11.1914 15.061 11.1068 15.1457 11.0022 15.1457H9.47976C9.37516 15.1457 9.28958 15.061 9.28958 14.9554V13.4331C9.28958 13.3284 9.37516 13.2428 9.47976 13.2428H11.0022C11.1068 13.2428 11.1914 13.3284 11.1914 13.4331V14.9554ZM20.354 16.5728L11.0644 0.475249C10.6983 -0.158416 9.78446 -0.158416 9.41835 0.475249L0.128761 16.5728C-0.237346 17.2074 0.221 18 0.952262 18H19.5305C20.2618 18 20.7201 17.2074 20.354 16.5728Z" fill="white"/>
</svg>
