<svg width="14" height="14" viewBox="0 0 14 14" fill="none" xmlns="http://www.w3.org/2000/svg">
    <path d="M11.5745 0.750801C11.911 0.41435 12.4565 0.41435 12.7929 0.750801C13.1294 1.08725 13.1294 1.63275 12.7929 1.9692L1.82732 12.9348C1.49087 13.2712 0.945377 13.2712 0.608925 12.9348C0.272474 12.5983 0.272474 12.0528 0.608925 11.7164L11.5745 0.750801Z"
          fill="#B0BCC1"/>
    <path d="M0.946724 1.82795C0.610273 1.4915 0.610273 0.946002 0.946724 0.60955C1.28318 0.273099 1.82867 0.273098 2.16512 0.60955L13.1307 11.5751C13.4672 11.9116 13.4672 12.4571 13.1307 12.7935C12.7943 13.13 12.2488 13.13 11.9123 12.7935L0.946724 1.82795Z"
          fill="#B0BCC1"/>
</svg>
