<svg width="15" height="15" viewBox="0 0 15 15" fill="none" xmlns="http://www.w3.org/2000/svg">
    <path fill-rule="evenodd" clip-rule="evenodd"
          d="M2.77788 0.105469C1.30222 0.105469 0.105957 1.30173 0.105957 2.77739V7.05246C0.105957 8.52812 1.30222 9.72438 2.77788 9.72438C3.07301 9.72438 3.31226 9.48513 3.31226 9.19C3.31226 8.89487 3.07301 8.65562 2.77788 8.65562C1.89248 8.65562 1.17473 7.93786 1.17473 7.05246V2.77739C1.17473 1.89199 1.89248 1.17424 2.77788 1.17424H7.05295C7.93835 1.17424 8.6561 1.89199 8.6561 2.77739C8.6561 3.07252 8.89536 3.31177 9.19049 3.31177C9.48562 3.31177 9.72487 3.07252 9.72487 2.77739C9.72487 1.30173 8.52861 0.105469 7.05295 0.105469H2.77788ZM7.58738 6.51829H11.8625C12.4527 6.51829 12.9312 6.9968 12.9312 7.58706V11.8621C12.9312 12.4524 12.4527 12.9309 11.8625 12.9309H7.58738C6.99712 12.9309 6.51861 12.4524 6.51861 11.8621V7.58706C6.51861 6.9968 6.99712 6.51829 7.58738 6.51829ZM5.44984 7.58706C5.44984 6.40653 6.40685 5.44952 7.58738 5.44952H11.8625C13.043 5.44952 14 6.40653 14 7.58706V11.8621C14 13.0427 13.043 13.9997 11.8625 13.9997H7.58738C6.40685 13.9997 5.44984 13.0427 5.44984 11.8621V7.58706Z"
          fill="white"/>
    <path d="M0.2052 2.77739C0.2052 1.35654 1.35703 0.204712 2.77788 0.204712V0.00622597C1.24741 0.00622597 0.00671425 1.24692 0.00671425 2.77739H0.2052ZM0.2052 7.05246V2.77739H0.00671425V7.05246H0.2052ZM2.77788 9.62514C1.35703 9.62514 0.2052 8.47331 0.2052 7.05246H0.00671425C0.00671425 8.58294 1.24741 9.82363 2.77788 9.82363V9.62514ZM3.21302 9.19C3.21302 9.43032 3.0182 9.62514 2.77788 9.62514V9.82363C3.12782 9.82363 3.4115 9.53994 3.4115 9.19H3.21302ZM2.77788 8.75486C3.0182 8.75486 3.21302 8.94968 3.21302 9.19H3.4115C3.4115 8.84006 3.12782 8.55637 2.77788 8.55637V8.75486ZM1.07548 7.05246C1.07548 7.99267 1.83767 8.75486 2.77788 8.75486V8.55637C1.94729 8.55637 1.27397 7.88305 1.27397 7.05246H1.07548ZM1.07548 2.77739V7.05246H1.27397V2.77739H1.07548ZM2.77788 1.07499C1.83767 1.07499 1.07548 1.83718 1.07548 2.77739H1.27397C1.27397 1.9468 1.94729 1.27348 2.77788 1.27348V1.07499ZM7.05295 1.07499H2.77788V1.27348H7.05295V1.07499ZM8.75535 2.77739C8.75535 1.83718 7.99316 1.07499 7.05295 1.07499V1.27348C7.88354 1.27348 8.55686 1.9468 8.55686 2.77739H8.75535ZM9.19049 3.21253C8.95017 3.21253 8.75535 3.01771 8.75535 2.77739H8.55686C8.55686 3.12733 8.84055 3.41102 9.19049 3.41102V3.21253ZM9.62563 2.77739C9.62563 3.01771 9.43081 3.21253 9.19049 3.21253V3.41102C9.54043 3.41102 9.82412 3.12733 9.82412 2.77739H9.62563ZM7.05295 0.204712C8.4738 0.204712 9.62563 1.35654 9.62563 2.77739H9.82412C9.82412 1.24692 8.58342 0.00622597 7.05295 0.00622597V0.204712ZM2.77788 0.204712H7.05295V0.00622597H2.77788V0.204712ZM11.8625 6.41905H7.58738V6.61754H11.8625V6.41905ZM13.0305 7.58706C13.0305 6.94199 12.5075 6.41905 11.8625 6.41905V6.61754C12.3979 6.61754 12.832 7.05161 12.832 7.58706H13.0305ZM13.0305 11.8621V7.58706H12.832V11.8621H13.0305ZM11.8625 13.0301C12.5075 13.0301 13.0305 12.5072 13.0305 11.8621H12.832C12.832 12.3976 12.3979 12.8317 11.8625 12.8317V13.0301ZM7.58738 13.0301H11.8625V12.8317H7.58738V13.0301ZM6.41937 11.8621C6.41937 12.5072 6.94231 13.0301 7.58738 13.0301V12.8317C7.05193 12.8317 6.61786 12.3976 6.61786 11.8621H6.41937ZM6.41937 7.58706V11.8621H6.61786V7.58706H6.41937ZM7.58738 6.41905C6.94231 6.41905 6.41937 6.94199 6.41937 7.58706H6.61786C6.61786 7.05161 7.05193 6.61754 7.58738 6.61754V6.41905ZM7.58738 5.35028C6.35204 5.35028 5.3506 6.35172 5.3506 7.58706H5.54909C5.54909 6.46134 6.46166 5.54877 7.58738 5.54877V5.35028ZM11.8625 5.35028H7.58738V5.54877H11.8625V5.35028ZM14.0992 7.58706C14.0992 6.35172 13.0978 5.35028 11.8625 5.35028V5.54877C12.9882 5.54877 13.9007 6.46134 13.9007 7.58706H14.0992ZM14.0992 11.8621V7.58706H13.9007V11.8621H14.0992ZM11.8625 14.0989C13.0978 14.0989 14.0992 13.0975 14.0992 11.8621H13.9007C13.9007 12.9879 12.9882 13.9004 11.8625 13.9004V14.0989ZM7.58738 14.0989H11.8625V13.9004H7.58738V14.0989ZM5.3506 11.8621C5.3506 13.0975 6.35204 14.0989 7.58738 14.0989V13.9004C6.46166 13.9004 5.54909 12.9879 5.54909 11.8621H5.3506ZM5.3506 7.58706V11.8621H5.54909V7.58706H5.3506Z"
          fill="white"/>
</svg>
