<svg width="740" height="740" viewBox="0 0 740 740" fill="none" xmlns="http://www.w3.org/2000/svg">
    <path d="M370 675.867C538.926 675.867 675.867 538.926 675.867 370C675.867 201.075 538.926 64.1338 370 64.1338C201.075 64.1338 64.1338 201.075 64.1338 370C64.1338 538.926 201.075 675.867 370 675.867Z" fill="#77BE49" stroke="#91D491" stroke-width="8"/>
    <path fill-rule="evenodd" clip-rule="evenodd" d="M370 678.333C540.289 678.333 678.334 540.288 678.334 370C678.334 328.121 669.984 288.192 654.857 251.787C598.314 182.782 512.424 138.75 416.25 138.75C245.963 138.75 107.917 276.796 107.917 447.083C107.917 488.962 116.266 528.891 131.391 565.296C187.936 634.303 273.826 678.333 370 678.333Z" fill="#4C9A50"/>
    <path d="M370 601.685C497.956 601.685 601.685 501.465 601.685 377.839C601.685 254.212 497.956 153.992 370 153.992C242.044 153.992 138.314 254.212 138.314 377.839C138.314 501.465 242.044 601.685 370 601.685Z" fill="#75BE4A"/>
    <path fill-rule="evenodd" clip-rule="evenodd" d="M601.124 362.291C597.058 486.438 495.136 585.832 370 585.832C244.864 585.832 142.942 486.438 138.876 362.291C138.792 364.85 138.75 367.42 138.75 369.999C138.75 497.715 242.284 601.25 370 601.25C497.716 601.25 601.25 497.715 601.25 369.999C601.25 367.42 601.208 364.85 601.124 362.291Z" fill="#91D491"/>
    <path fill-rule="evenodd" clip-rule="evenodd" d="M601.146 377.002C601.215 374.676 601.25 372.342 601.25 370C601.25 242.284 497.716 138.75 370 138.75C242.284 138.75 138.75 242.284 138.75 370C138.75 455.446 185.093 530.068 254.014 570.103C193.828 530.047 154.167 461.592 154.167 383.874C154.167 260.416 254.249 160.333 377.708 160.333C498.867 160.333 597.514 256.723 601.146 377.002Z" fill="#396939"/>
    <path d="M370 601.069C497.616 601.069 601.069 497.616 601.069 370C601.069 242.385 497.616 138.932 370 138.932C242.385 138.932 138.932 242.385 138.932 370C138.932 497.616 242.385 601.069 370 601.069Z" stroke="#FFF9E2" stroke-width="2"/>
    <path d="M370 675.867C538.926 675.867 675.867 538.926 675.867 370C675.867 201.075 538.926 64.1338 370 64.1338C201.075 64.1338 64.1338 201.075 64.1338 370C64.1338 538.926 201.075 675.867 370 675.867Z" stroke="#91D491" stroke-width="8"/>
    <path d="M296.663 266.884L275.987 274.882L263.198 270.017L283.874 262.056L296.663 266.884Z" fill="#BAA093"/>
    <path d="M296.666 266.878L275.99 274.875L276.027 255.194L296.74 247.196L296.666 266.878Z" fill="#CCB0A1"/>
    <path d="M302.678 269.169L282.002 277.129L282.039 257.448L302.715 249.487L302.678 269.169Z" fill="#DADADA"/>
    <path d="M302.722 249.482L282.046 257.442L276.038 255.194L296.751 247.196L302.722 249.482Z" fill="white"/>
    <path d="M296.811 212.333L276.135 220.293L260.95 214.544L281.663 206.583L296.811 212.333Z" fill="white"/>
    <path d="M296.751 247.204L276.038 255.202L276.148 220.298L296.825 212.338L296.751 247.204Z" fill="#C5C5C5"/>
    <path d="M338.724 282.844L318.048 290.805L316.058 290.068L336.734 282.07L338.724 282.844Z" fill="#BAA093"/>
    <path d="M338.719 282.841L318.043 290.802L318.08 271.121L338.793 263.16L338.719 282.841Z" fill="#CCB0A1"/>
    <path d="M338.836 247.941L318.159 255.902L302.975 250.19L323.651 242.191L338.836 247.941Z" fill="#BAA093"/>
    <path d="M338.866 228.26L318.189 236.221L276.136 220.298L296.812 212.338L338.866 228.26Z" fill="white"/>
    <path d="M338.795 263.164L318.082 271.126L318.192 236.223L338.869 228.262L338.795 263.164Z" fill="#DADADA"/>
    <path d="M338.835 247.943L318.159 255.904L318.196 236.223L338.872 228.262L338.835 247.943Z" fill="#DADADA"/>
    <path d="M362.383 272.079L341.67 280.04L318.082 271.121L338.795 263.16L362.383 272.079Z" fill="white"/>
    <path d="M362.308 291.766L341.632 299.727L341.669 280.046L362.382 272.085L362.308 291.766Z" fill="#CCB0A1"/>
    <path fill-rule="evenodd" clip-rule="evenodd" d="M260.952 214.546L276.137 220.296L276.114 227.418L276.141 220.3L318.194 236.222L318.186 240.519L318.2 236.224L318.163 255.905L318.137 255.896V255.895L302.972 250.19L276.075 239.984L276.026 255.194L282.031 257.441L281.994 277.123L275.989 274.85V274.879L263.2 270.014L260.805 269.13L260.952 214.546ZM318.089 271.124L318.137 255.896L302.978 250.192L302.868 285.059L316.062 290.071L316.52 290.241L341.636 299.722L341.673 280.041L318.089 271.124Z" fill="#F2F2F2"/>
    <path d="M456.15 305.981L437.169 298.831L433.889 313.574L439.491 312.91L456.15 305.981Z" fill="#FCEED5"/>
    <path d="M330.167 518.722L296.37 532.728L273.572 524.578L308.865 511.253L330.167 518.722Z" fill="white"/>
    <path d="M330.166 518.726V535.717L296.369 549.722V532.731L330.166 518.726Z" fill="#F6E7CA"/>
    <path d="M296.368 532.73V549.721L273.572 540.424V524.578L296.368 532.73Z" fill="#F8EED7"/>
    <path d="M330.207 457.574L317.565 462.844L295.746 454.883L308.388 449.649L330.207 457.574Z" fill="#BDA498"/>
    <path d="M330.206 457.573L330.169 518.718L317.527 523.951L317.564 462.843L330.206 457.573Z" fill="#F6E7CA"/>
    <path d="M317.564 462.844L317.527 523.952L295.708 516.028L295.745 454.883L317.564 462.844Z" fill="#F2F2F2"/>
    <path d="M452.909 361.562L341.271 407.891L247.361 373.725L358.999 327.396L452.909 361.562Z" fill="url(#paint0_linear_6479_30032)"/>
    <path d="M341.267 407.89L341.23 482.598L247.283 448.433L247.357 373.725L341.267 407.89Z" fill="url(#paint1_linear_6479_30032)"/>
    <path d="M452.354 307.889L400.571 329.377L306.661 295.174L358.407 273.724L452.354 307.889Z" fill="url(#paint2_linear_6479_30032)"/>
    <path fill-rule="evenodd" clip-rule="evenodd" d="M453.019 361.521L453.056 307.158L401.273 328.645V382.972L437.404 367.994L341.27 407.889L341.233 482.596L452.871 436.268L452.908 361.567L453.019 361.521Z" fill="url(#paint3_linear_6479_30032)"/>
    <path d="M401.27 328.646V382.973L307.322 348.807L307.359 294.443L401.27 328.646Z" fill="url(#paint4_linear_6479_30032)"/>
    <path d="M453.442 281.803L436.267 288.917L341.997 254.84L359.532 247.638L453.442 281.803Z" fill="#D6784E"/>
    <path d="M453.444 281.802V307.059L435.991 314.262L436.351 288.693L453.444 281.802Z" fill="#825439"/>
    <path d="M459.989 342.659L480.149 334.366L482.176 335.104L462.053 343.396L459.989 342.659Z" fill="#BBA193"/>
    <path d="M460.063 323.014L480.186 314.722L480.149 334.366L459.989 342.659L460.063 323.014Z" fill="white"/>
    <path d="M435.923 314.208L456.047 305.952L480.187 314.724L460.064 323.017L435.923 314.208Z" fill="white"/>
    <path d="M460.143 288.186L480.304 279.93L480.23 299.574L460.106 307.83L460.143 288.186Z" fill="white"/>
    <path d="M460.106 307.831L480.23 299.575L495.784 305.214L475.66 313.507L460.106 307.831Z" fill="#BBA193"/>
    <path d="M475.655 313.504L495.778 305.212L495.705 340.041L475.544 348.297L475.655 313.504Z" fill="#E6D6BC"/>
    <path d="M503.256 303.886L523.416 295.631L523.342 315.275L503.219 323.531L503.256 303.886Z" fill="white"/>
    <path d="M460.146 288.186L480.306 279.93L523.428 295.631L503.267 303.887L460.146 288.186Z" fill="white"/>
    <path d="M503.175 338.714L523.299 330.422L523.262 350.066L503.102 358.359L503.175 338.714Z" fill="white"/>
    <path d="M497.032 336.467L517.156 328.175L523.311 330.423L503.187 338.715L497.032 336.467Z" fill="#FCE3CD"/>
    <path d="M503.102 358.359L523.262 350.066L536.346 354.857L516.222 363.113L503.102 358.359Z" fill="#BBA193"/>
    <path fill-rule="evenodd" clip-rule="evenodd" d="M460.136 288.19L460.132 288.188L460.103 303.383L460.062 323.018L459.988 342.65L459.985 342.649L460.058 323.019L435.918 314.21L435.844 333.854L459.985 342.649V342.663L462.049 343.401L461.735 343.286L462.052 343.399L475.542 348.301L475.652 313.51L503.207 323.53L503.175 338.713L497.027 336.467L496.954 356.112L503.101 358.345V358.363L516.222 363.117L518.691 364.038L518.838 309.565L503.254 303.891V303.889L460.136 288.19Z" fill="#F2F2F2"/>
    <path d="M518.852 309.561L538.976 301.268L538.828 355.741L518.705 364.034L518.852 309.561Z" fill="#DADADA"/>
    <path d="M503.258 303.887L523.418 295.631L538.971 301.27L518.848 309.563L503.258 303.887Z" fill="white"/>
    <path opacity="0.44" d="M305.262 394.806V411.759L280.162 402.619V385.665L305.262 394.806Z" fill="url(#paint5_linear_6479_30032)"/>
    <path opacity="0.8" d="M401.234 366.021V383.012L376.098 373.872V356.881L401.234 366.021Z" fill="url(#paint6_linear_6479_30032)"/>
    <path opacity="0.78" d="M332.458 340.963V357.954L307.322 348.814L307.359 331.823L332.458 340.963Z" fill="url(#paint7_linear_6479_30032)"/>
    <path d="M426.96 355.368V372.963L401.233 383.047V366.02L426.96 355.368Z" fill="url(#paint8_linear_6479_30032)"/>
    <path opacity="0.5" d="M327.301 385.665L305.262 394.805L280.162 385.665L302.202 376.487L327.301 385.665Z" fill="url(#paint9_linear_6479_30032)"/>
    <path d="M436.352 288.693L435.992 314.262L341.963 280.144V254.841L436.352 288.693Z" fill="#7B4C30"/>
    <defs>
        <linearGradient id="paint0_linear_6479_30032" x1="391.336" y1="347.188" x2="315.382" y2="399.484" gradientUnits="userSpaceOnUse">
            <stop stop-color="#983512"/>
            <stop offset="1" stop-color="#EA8F62"/>
        </linearGradient>
        <linearGradient id="paint1_linear_6479_30032" x1="341.525" y1="428.122" x2="246.894" y2="403.219" gradientUnits="userSpaceOnUse">
            <stop stop-color="#B65C39"/>
            <stop offset="1" stop-color="#B75B3A"/>
        </linearGradient>
        <linearGradient id="paint2_linear_6479_30032" x1="368.919" y1="195.28" x2="399.391" y2="327.802" gradientUnits="userSpaceOnUse">
            <stop stop-color="#983512"/>
            <stop offset="1" stop-color="#EA8F62"/>
        </linearGradient>
        <linearGradient id="paint3_linear_6479_30032" x1="397.145" y1="307.158" x2="397.145" y2="482.596" gradientUnits="userSpaceOnUse">
            <stop stop-color="#D6643C"/>
            <stop offset="1" stop-color="#A54A2A"/>
        </linearGradient>
        <linearGradient id="paint4_linear_6479_30032" x1="317.872" y1="306.097" x2="401.297" y2="363.374" gradientUnits="userSpaceOnUse">
            <stop stop-color="#AC5236"/>
            <stop offset="1" stop-color="#A3492A"/>
        </linearGradient>
        <linearGradient id="paint5_linear_6479_30032" x1="292.712" y1="385.665" x2="292.712" y2="411.759" gradientUnits="userSpaceOnUse">
            <stop stop-color="#3F221C"/>
            <stop offset="1" stop-color="#4E4D4D"/>
        </linearGradient>
        <linearGradient id="paint6_linear_6479_30032" x1="388.665" y1="356.881" x2="388.665" y2="383.012" gradientUnits="userSpaceOnUse">
            <stop stop-color="#3F221C"/>
            <stop offset="1" stop-color="#4E4D4D"/>
        </linearGradient>
        <linearGradient id="paint7_linear_6479_30032" x1="319.891" y1="331.823" x2="319.891" y2="357.954" gradientUnits="userSpaceOnUse">
            <stop stop-color="#3F221C"/>
            <stop offset="1" stop-color="#4E4D4D"/>
        </linearGradient>
        <linearGradient id="paint8_linear_6479_30032" x1="414.096" y1="355.368" x2="414.096" y2="386.07" gradientUnits="userSpaceOnUse">
            <stop stop-color="#3F221C"/>
            <stop offset="1" stop-color="#4E4D4D"/>
        </linearGradient>
        <linearGradient id="paint9_linear_6479_30032" x1="303.732" y1="376.487" x2="303.732" y2="394.805" gradientUnits="userSpaceOnUse">
            <stop stop-color="#3F221C"/>
            <stop offset="1" stop-color="#4E4D4D"/>
        </linearGradient>
    </defs>
</svg>
