<svg width="16" height="16" viewBox="0 0 16 16" fill="none" xmlns="http://www.w3.org/2000/svg">
    <g clip-path="url(#clip0_964_7662)">
        <path d="M14.68 1.32229C14.2618 0.903131 13.7649 0.570585 13.218 0.343688C12.671 0.116792 12.0847 0 11.4926 0C10.9004 0 10.3141 0.116792 9.76717 0.343688C9.22023 0.570585 8.72341 0.903131 8.30515 1.32229L6.8173 2.8093C6.52375 3.10269 6.52368 3.57853 6.81715 3.872V3.872C7.11063 4.16548 7.58647 4.16541 7.87986 3.87185L9.36687 2.384C10.488 1.264 12.3794 1.14515 13.6172 2.384C14.856 3.624 14.7372 5.51429 13.6172 6.63543L12.1309 8.12172C11.8371 8.41553 11.8371 8.8919 12.1309 9.18572V9.18572C12.4247 9.47953 12.9011 9.47953 13.1949 9.18572L14.6812 7.69943C15.5257 6.85312 16 5.70626 15.9997 4.51062C15.9995 3.31499 15.5249 2.16829 14.68 1.32229ZM6.63658 13.6194C5.51544 14.7394 3.62401 14.8583 2.3863 13.6194C1.1463 12.3783 1.2663 10.488 2.3863 9.36801L3.87266 7.88164C4.16648 7.58782 4.16661 7.11149 3.87295 6.81751V6.81751C3.579 6.52325 3.10211 6.52319 2.80809 6.81737L1.3223 8.304C0.90328 8.72234 0.570855 9.21918 0.344044 9.76612C0.117233 10.313 0.000488281 10.8993 0.000488281 11.4914C0.000488281 12.0835 0.117233 12.6698 0.344044 13.2168C0.570855 13.7637 0.90328 14.2605 1.3223 14.6789C1.74069 15.0976 2.23749 15.4297 2.7843 15.6564C3.33112 15.883 3.91724 15.9996 4.50916 15.9996C5.10107 15.9996 5.68719 15.883 6.23401 15.6564C6.78083 15.4297 7.27762 15.0976 7.69601 14.6789L9.18446 13.1904C9.47771 12.8972 9.47771 12.4217 9.18446 12.1285V12.1285C8.89086 11.8349 8.41471 11.8353 8.12161 12.1294L6.63658 13.6194ZM2.75773 1.696C2.72646 1.66488 2.68413 1.6474 2.64001 1.6474C2.59589 1.6474 2.55357 1.66488 2.5223 1.696L1.69716 2.52115C1.66603 2.55242 1.64856 2.59474 1.64856 2.63886C1.64856 2.68298 1.66603 2.72531 1.69716 2.75657L13.2457 14.3074C13.3109 14.3726 13.4172 14.3726 13.4812 14.3074L14.3063 13.4834C14.3374 13.4522 14.3549 13.4098 14.3549 13.3657C14.3549 13.3216 14.3374 13.2793 14.3063 13.248L2.75773 1.69715V1.696Z"
              fill="#73898F"/>
    </g>
    <defs>
        <clipPath id="clip0_964_7662">
            <rect width="16" height="16" fill="white"/>
        </clipPath>
    </defs>
</svg>
