<svg width="554" height="525" viewBox="0 0 554 525" fill="none" xmlns="http://www.w3.org/2000/svg">
    <path d="M34.7612 426.968L279.305 346.603C280.501 346.21 281.791 346.203 282.991 346.583L536.561 426.949C542.086 428.7 542.164 436.49 536.675 438.351L283.107 524.333C281.836 524.764 280.457 524.756 279.19 524.311L34.6442 438.328C29.2393 436.428 29.3182 428.756 34.7612 426.968Z"
          fill="url(#paint0_radial_856_22766)" fill-opacity="0.5"/>
    <path fill-rule="evenodd" clip-rule="evenodd"
          d="M3.78374 342.289L65.203 364.619L65.2037 364.619L135.713 390.269L135.913 420.909L65.4137 395.259L65.413 395.259L3.99374 372.919C1.48374 372.009 0.213741 370.799 0.213741 369.579L0.00390625 338.964C0.020518 340.175 1.29027 341.376 3.78374 342.289ZM206.225 415.92L206.435 446.55L135.915 420.91L135.715 390.27L206.225 415.92ZM285.794 438.13L286.004 468.77H285.994C283.404 469.75 279.974 470.23 276.564 470.23C276.304 470.23 276.034 470.22 275.764 470.22H275.684C275.404 470.21 275.114 470.2 274.834 470.18C274.764 470.18 274.684 470.17 274.614 470.17C274.524 470.16 274.424 470.15 274.334 470.15C274.224 470.14 274.114 470.13 274.004 470.13L273.404 470.07C273.354 470.06 273.304 470.06 273.254 470.05H273.194C272.914 470.02 272.654 469.99 272.384 469.95C272.347 469.944 272.314 469.934 272.28 469.927C272.259 469.923 272.237 469.92 272.214 469.92C272.169 469.915 272.124 469.908 272.079 469.9C272.034 469.893 271.989 469.885 271.944 469.88C271.824 469.87 271.694 469.85 271.574 469.83C271.506 469.817 271.441 469.805 271.376 469.794C271.298 469.78 271.221 469.767 271.144 469.75C271.101 469.739 271.055 469.731 271.008 469.723C270.967 469.716 270.926 469.709 270.884 469.7C270.864 469.7 270.842 469.695 270.819 469.69C270.797 469.685 270.774 469.68 270.754 469.68C270.464 469.62 270.174 469.56 269.894 469.49H269.884C269.834 469.48 269.794 469.46 269.744 469.45C269.484 469.39 269.224 469.32 268.974 469.25C268.954 469.24 268.934 469.23 268.914 469.23C268.644 469.15 268.384 469.07 268.134 468.98C268.107 468.969 268.077 468.959 268.047 468.948C267.998 468.932 267.947 468.915 267.904 468.89H267.864L206.444 446.55L206.234 415.91L267.654 438.25L267.924 438.34C268.174 438.43 268.434 438.51 268.704 438.59C268.984 438.67 269.263 438.74 269.543 438.81L269.544 438.81C269.569 438.815 269.592 438.823 269.614 438.83C269.637 438.838 269.659 438.845 269.684 438.85C270.004 438.92 270.344 438.99 270.684 439.06C270.727 439.071 270.773 439.079 270.821 439.087C270.861 439.094 270.903 439.101 270.944 439.11C271.204 439.16 271.474 439.2 271.744 439.24C271.789 439.245 271.834 439.253 271.879 439.26C271.924 439.268 271.969 439.275 272.014 439.28C272.354 439.33 272.694 439.37 273.044 439.41C273.094 439.42 273.144 439.42 273.194 439.42C273.504 439.45 273.814 439.48 274.124 439.5C274.214 439.51 274.314 439.52 274.404 439.52C274.764 439.54 275.134 439.56 275.494 439.57H275.564C279.224 439.67 282.994 439.19 285.794 438.13Z"
          fill="url(#paint1_linear_856_22766)"/>
    <path opacity="0.3" fill-rule="evenodd" clip-rule="evenodd"
          d="M3.78 342.289L65.2 364.619L65.41 395.259L3.99 372.919C1.48 372.009 0.21 370.799 0.21 369.579L0.000165147 338.964C0.0167769 340.175 1.28653 341.376 3.78 342.289ZM0 338.939L0.000165147 338.964C5.50519e-05 338.956 0 338.947 0 338.939ZM206.431 446.55L206.221 415.92L135.711 390.27L135.911 420.91L206.431 446.55Z"
          fill="#95C3B2"/>
    <path fill-rule="evenodd" clip-rule="evenodd"
          d="M552.08 335.201L552.29 365.841L552.29 365.861L552.289 365.875L552.289 365.899C552.287 366.001 552.278 366.097 552.254 366.2L552.25 366.221L552.245 366.245C552.241 366.26 552.238 366.275 552.234 366.29C552.216 366.368 552.193 366.446 552.16 366.523C552.08 366.732 551.964 366.939 551.811 367.144L551.8 367.161V367.158L551.798 367.161V367.161L551.782 367.182C551.546 367.486 551.23 367.784 550.831 368.07V368.072C550.708 368.162 550.578 368.245 550.441 368.333L550.441 368.333L550.351 368.392L550.351 368.386L550.312 368.409L550.283 368.426C550.158 368.503 550.024 368.575 549.885 368.647C549.831 368.675 549.776 368.703 549.721 368.731V368.732L549.697 368.743C549.35 368.916 548.967 369.082 548.55 369.241V369.24L548.55 369.23L487.443 392.399V392.4L417.272 419L417.062 388.36L487.23 361.761V361.76L548.34 338.59L548.341 338.6L548.64 338.48L548.64 338.483L548.641 338.483V338.482C548.942 338.356 549.224 338.229 549.487 338.103L549.508 338.093V338.092C549.728 337.982 549.938 337.862 550.128 337.752V337.753C550.303 337.648 550.466 337.541 550.617 337.433V337.431C550.757 337.331 550.887 337.231 551.007 337.121L551.007 337.128L551.008 337.127L551.008 337.12C551.128 337.02 551.228 336.92 551.328 336.82L551.328 336.825L551.328 336.824L551.328 336.821C551.421 336.729 551.497 336.636 551.571 336.543C551.627 336.471 551.677 336.399 551.724 336.327C551.746 336.29 551.768 336.252 551.789 336.212L551.789 336.21C551.849 336.11 551.899 336 551.939 335.9L551.939 335.908C551.978 335.799 552.008 335.691 552.037 335.583V335.583L552.037 335.582L552.038 335.591L552.039 335.584L552.039 335.58L552.043 335.554V335.554C552.06 335.457 552.075 335.366 552.078 335.27L552.078 335.231L552.079 335.265C552.079 335.254 552.079 335.242 552.079 335.23L552.079 335.248C552.08 335.232 552.08 335.217 552.08 335.201ZM417.058 388.361L417.268 419.001L347.109 445.601L347.108 445.601L285.999 468.771C285.609 468.921 285.199 469.051 284.779 469.181C283.749 469.491 282.619 469.731 281.439 469.901C280.869 469.981 280.289 470.051 279.699 470.101C279.309 470.131 278.909 470.161 278.519 470.181C278.179 470.201 277.839 470.221 277.499 470.221H276.569L276.359 439.581C276.566 439.588 276.773 439.585 276.979 439.583C277.083 439.582 277.186 439.581 277.289 439.581L277.29 439.581C277.63 439.571 277.97 439.561 278.309 439.541C278.709 439.521 279.099 439.491 279.488 439.461L279.489 439.461C280.079 439.411 280.659 439.341 281.229 439.261C282.409 439.081 283.539 438.841 284.569 438.541C284.989 438.411 285.399 438.281 285.789 438.131L346.898 414.961L346.899 414.961L417.058 388.361Z"
          fill="url(#paint2_linear_856_22766)"/>
    <path opacity="0.3" fill-rule="evenodd" clip-rule="evenodd"
          d="M487.443 392.4L487.233 361.76L417.062 388.36L417.272 419L487.443 392.4ZM285.789 438.131L346.899 414.961L347.109 445.601L285.999 468.771C285.609 468.921 285.199 469.051 284.779 469.181C283.749 469.491 282.619 469.731 281.439 469.901C280.869 469.981 280.289 470.051 279.699 470.101C279.309 470.131 278.909 470.161 278.519 470.181C278.179 470.201 277.839 470.221 277.499 470.221H276.569L276.359 439.581C276.566 439.588 276.773 439.585 276.979 439.583C277.083 439.582 277.186 439.581 277.289 439.581C277.629 439.571 277.969 439.561 278.309 439.541C278.709 439.521 279.099 439.491 279.489 439.461C280.079 439.411 280.659 439.341 281.229 439.261C282.409 439.081 283.539 438.841 284.569 438.541C284.989 438.411 285.399 438.281 285.789 438.131Z"
          fill="#89B2A3"/>
    <path d="M266.481 205.45C271.471 203.56 279.581 203.5 284.601 205.33L345.931 227.63L275.871 254.19L205.461 228.58L266.481 205.45Z"
          fill="#5AB15A"/>
    <path fill-rule="evenodd" clip-rule="evenodd"
          d="M135.012 285.779L205.532 311.429L205.53 311.43L276.029 337.07L205.872 363.669L205.873 363.669L205.871 363.67L205.871 363.67L205.873 363.669L276.031 337.07L346.551 362.72L276.381 389.32L276.383 389.321L346.891 414.97L285.781 438.14C280.781 440.03 272.661 440.09 267.631 438.26L206.211 415.92L206.216 415.918L135.711 390.27L135.713 390.269L65.2184 364.625L65.2025 364.631L3.78253 342.291C-1.24747 340.461 -1.25747 337.441 3.73253 335.551L64.8425 312.381H64.8525L135.359 338.03L135.361 338.029L64.8516 312.379L135.012 285.779ZM276.383 389.321L346.553 362.721L417.063 388.361L346.903 414.961L276.383 389.321Z"
          fill="url(#paint3_linear_856_22766)"/>
    <path fill-rule="evenodd" clip-rule="evenodd"
          d="M416.432 253.23L345.932 227.59L275.762 254.19L275.818 254.21L205.812 280.749L276.212 306.349L346.218 279.81L346.272 279.83L416.432 253.23ZM275.762 254.191L205.252 228.541L135.082 255.141L205.602 280.791L275.762 254.191ZM486.884 309.52L486.889 309.521L416.734 336.12L451.627 348.813L416.716 336.12L486.883 309.52L416.433 253.23L346.273 279.83L416.713 336.12L346.555 362.719L417.065 388.359L487.225 361.763L487.244 361.77L548.354 338.6C553.344 336.71 553.334 333.69 548.304 331.86L486.889 309.521L486.894 309.52H486.884ZM346.549 362.72L276.109 306.43L346.269 279.83L416.709 336.12L346.549 362.72Z"
          fill="url(#paint4_linear_856_22766)"/>
    <g style="mix-blend-mode:soft-light" opacity="0.45">
        <path d="M205.529 311.43L276.029 337.07L205.869 363.67L135.359 338.03L205.529 311.43Z" fill="#91D491"/>
    </g>
    <path d="M163.623 354.454L164.514 353.49L163.994 352.451L158.28 348.592L157.093 350.002L155.683 349.037L154.347 350.521L153.308 349.705L147.891 356.235L149.078 357.274L147.891 358.61L149.301 359.872L148.113 361.133L154.273 366.105L155.608 364.473L157.093 365.586L158.577 363.953L159.616 364.844L164.885 358.165L164.217 357.274L163.994 357.126L164.959 355.79L164.291 354.751L163.623 354.454Z"
          fill="#E1A304"/>
    <path d="M162.031 353.193L164.367 354.729L162.398 357.201L160.062 355.561L162.031 353.193Z" fill="white"/>
    <path d="M163.994 352.451L157.389 347.998L156.202 349.408L154.792 348.443L153.456 349.928L152.417 349.111L147 355.642L148.187 356.681L147 358.016L148.41 359.278L147.223 360.54L153.456 365.437L154.792 363.805L156.202 364.918L157.686 363.211L158.725 364.102L164.217 357.274L161.545 355.345L162.733 353.861L163.994 352.451Z"
          fill="#FFB800"/>
    <path d="M155.011 350.67L161.616 355.048L156.05 362.098L149.445 357.423L155.011 350.67Z" fill="#CAA356"/>
    <path d="M154.792 350.521L161.397 354.9L155.831 361.95L149.227 357.275L154.792 350.521Z" fill="#FF850B"/>
    <path d="M155.203 354.232L157.539 355.768L155.57 358.24L153.234 356.6L155.203 354.232Z" fill="white"/>
    <path d="M199.623 351.454L200.514 350.49L199.994 349.451L194.28 345.592L193.093 347.002L191.683 346.037L190.347 347.521L189.308 346.705L183.891 353.235L185.078 354.274L183.891 355.61L185.301 356.872L184.113 358.133L190.273 363.105L191.608 361.473L193.093 362.586L194.577 360.953L195.616 361.844L200.885 355.165L200.217 354.274L199.994 354.126L200.959 352.79L200.291 351.751L199.623 351.454Z"
          fill="#E1A304"/>
    <path d="M198.031 350.193L200.367 351.729L198.398 354.201L196.062 352.561L198.031 350.193Z" fill="white"/>
    <path d="M199.994 349.451L193.389 344.998L192.202 346.408L190.792 345.443L189.456 346.928L188.417 346.111L183 352.642L184.187 353.681L183 355.016L184.41 356.278L183.223 357.54L189.456 362.437L190.792 360.805L192.202 361.918L193.686 360.211L194.725 361.102L200.217 354.274L197.545 352.345L198.733 350.861L199.994 349.451Z"
          fill="#FFB800"/>
    <path d="M191.011 347.67L197.616 352.048L192.05 359.098L185.445 354.423L191.011 347.67Z" fill="#CAA356"/>
    <path d="M190.792 347.521L197.397 351.9L191.831 358.95L185.227 354.275L190.792 347.521Z" fill="#FF850B"/>
    <path d="M191.203 351.232L193.539 352.768L191.57 355.24L189.234 353.6L191.203 351.232Z" fill="white"/>
    <path d="M222.623 245.454L223.514 244.49L222.994 243.451L217.28 239.592L216.093 241.002L214.683 240.037L213.347 241.521L212.308 240.705L206.891 247.235L208.078 248.274L206.891 249.61L208.301 250.872L207.113 252.133L213.273 257.105L214.608 255.473L216.093 256.586L217.577 254.953L218.616 255.844L223.885 249.165L223.217 248.274L222.994 248.126L223.959 246.79L223.291 245.751L222.623 245.454Z"
          fill="#E1A304"/>
    <path d="M221.031 244.193L223.367 245.729L221.398 248.201L219.062 246.561L221.031 244.193Z" fill="white"/>
    <path d="M222.994 243.451L216.389 238.998L215.202 240.408L213.792 239.443L212.456 240.928L211.417 240.111L206 246.642L207.187 247.681L206 249.016L207.41 250.278L206.223 251.54L212.456 256.437L213.792 254.805L215.202 255.918L216.686 254.211L217.725 255.102L223.217 248.274L220.545 246.345L221.733 244.861L222.994 243.451Z"
          fill="#FFB800"/>
    <path d="M214.011 241.67L220.616 246.048L215.05 253.098L208.445 248.423L214.011 241.67Z" fill="#CAA356"/>
    <path d="M213.792 241.521L220.397 245.9L214.831 252.95L208.227 248.275L213.792 241.521Z" fill="#FF850B"/>
    <path d="M214.203 245.232L216.539 246.768L214.57 249.24L212.234 247.6L214.203 245.232Z" fill="white"/>
    <path d="M356.623 383.454L357.514 382.49L356.994 381.451L351.28 377.592L350.093 379.002L348.683 378.037L347.347 379.521L346.308 378.705L340.891 385.235L342.078 386.274L340.891 387.61L342.301 388.872L341.113 390.133L347.273 395.105L348.608 393.473L350.093 394.586L351.577 392.953L352.616 393.844L357.885 387.165L357.217 386.274L356.994 386.126L357.959 384.79L357.291 383.751L356.623 383.454Z"
          fill="#E1A304"/>
    <path d="M355.031 382.193L357.367 383.729L355.398 386.201L353.062 384.561L355.031 382.193Z" fill="white"/>
    <path d="M356.994 381.451L350.389 376.998L349.202 378.408L347.792 377.443L346.456 378.928L345.417 378.111L340 384.642L341.187 385.681L340 387.016L341.41 388.278L340.223 389.54L346.456 394.437L347.792 392.805L349.202 393.918L350.686 392.211L351.725 393.102L357.217 386.274L354.545 384.345L355.733 382.861L356.994 381.451Z"
          fill="#FFB800"/>
    <path d="M348.011 379.67L354.616 384.048L349.05 391.098L342.445 386.423L348.011 379.67Z" fill="#CAA356"/>
    <path d="M347.792 379.521L354.397 383.9L348.831 390.95L342.227 386.275L347.792 379.521Z" fill="#FF850B"/>
    <path d="M348.203 383.232L350.539 384.768L348.57 387.24L346.234 385.6L348.203 383.232Z" fill="white"/>
    <path d="M466.623 343.454L467.514 342.49L466.994 341.451L461.28 337.592L460.093 339.002L458.683 338.037L457.347 339.521L456.308 338.705L450.891 345.235L452.078 346.274L450.891 347.61L452.301 348.872L451.113 350.133L457.273 355.105L458.608 353.473L460.093 354.586L461.577 352.953L462.616 353.844L467.885 347.165L467.217 346.274L466.994 346.126L467.959 344.79L467.291 343.751L466.623 343.454Z"
          fill="#E1A304"/>
    <path d="M465.031 342.193L467.367 343.729L465.398 346.201L463.062 344.561L465.031 342.193Z" fill="white"/>
    <path d="M466.994 341.451L460.389 336.998L459.202 338.408L457.792 337.443L456.456 338.928L455.417 338.111L450 344.642L451.187 345.681L450 347.016L451.41 348.278L450.223 349.54L456.456 354.437L457.792 352.805L459.202 353.918L460.686 352.211L461.725 353.102L467.217 346.274L464.545 344.345L465.733 342.861L466.994 341.451Z"
          fill="#FFB800"/>
    <path d="M458.011 339.67L464.616 344.048L459.05 351.098L452.445 346.423L458.011 339.67Z" fill="#CAA356"/>
    <path d="M457.792 339.521L464.397 343.9L458.831 350.95L452.227 346.275L457.792 339.521Z" fill="#FF850B"/>
    <path d="M458.203 343.232L460.539 344.768L458.57 347.24L456.234 345.6L458.203 343.232Z" fill="white"/>
    <g style="mix-blend-mode:soft-light" opacity="0.45">
        <path d="M64.8525 312.381L135.363 338.031L65.2025 364.631L3.78253 342.291C-1.24747 340.461 -1.25747 337.441 3.73253 335.551L64.8425 312.381H64.8525Z"
              fill="#91D491"/>
    </g>
    <g style="mix-blend-mode:soft-light" opacity="0.45">
        <path d="M205.871 363.67L276.381 389.32L206.221 415.92L135.711 390.27L205.871 363.67Z" fill="#91D491"/>
    </g>
    <g style="mix-blend-mode:soft-light" opacity="0.45">
        <path d="M346.553 362.721L417.063 388.361L346.903 414.961L276.383 389.321L346.553 362.721Z" fill="#91D491"/>
    </g>
    <g style="mix-blend-mode:soft-light" opacity="0.45">
        <path d="M135.012 285.779L205.532 311.429L135.362 338.029L64.8516 312.379L135.012 285.779Z" fill="#5AB15A"/>
    </g>
    <g style="mix-blend-mode:soft-light" opacity="0.45">
        <path d="M135.363 338.029L205.873 363.669L135.713 390.269L65.2031 364.619L135.363 338.029Z" fill="#5AB15A"/>
    </g>
    <g style="mix-blend-mode:soft-light" opacity="0.45">
        <path d="M276.031 337.07L346.551 362.72L276.381 389.32L205.871 363.67L276.031 337.07Z" fill="#5AB15A"/>
    </g>
    <g style="mix-blend-mode:soft-light" opacity="0.45">
        <path d="M276.381 389.32L346.891 414.97L285.781 438.14C280.781 440.03 272.661 440.09 267.631 438.26L206.211 415.92L276.371 389.32H276.381Z"
              fill="#5AB15A"/>
    </g>
    <g style="mix-blend-mode:soft-light" opacity="0.45">
        <path d="M275.872 254.19L346.272 279.79L276.212 306.35L205.812 280.75L275.872 254.19Z" fill="#5AB15A"/>
    </g>
    <g style="mix-blend-mode:soft-light" opacity="0.45">
        <path d="M416.715 336.119L487.235 361.759L417.065 388.359L346.555 362.719L416.715 336.119Z" fill="#5AB15A"/>
    </g>
    <g style="mix-blend-mode:soft-light" opacity="0.45">
        <path d="M345.932 227.59L416.432 253.23L346.272 279.83L275.762 254.19L345.932 227.59Z" fill="#91D491"/>
    </g>
    <g style="mix-blend-mode:soft-light" opacity="0.45">
        <path d="M205.252 228.541L275.762 254.191L205.602 280.791L135.082 255.141L205.252 228.541Z" fill="#91D491"/>
    </g>
    <g style="mix-blend-mode:soft-light" opacity="0.45">
        <path d="M486.884 309.52L548.304 331.86C553.334 333.69 553.344 336.71 548.354 338.6L487.244 361.77L416.734 336.12L486.894 309.52H486.884Z"
              fill="#91D491"/>
    </g>
    <g style="mix-blend-mode:soft-light" opacity="0.45">
        <path d="M276.109 306.43L346.549 362.72L416.709 336.12L346.269 279.83L276.109 306.43Z" fill="#91D491"/>
    </g>
    <g style="mix-blend-mode:soft-light" opacity="0.45">
        <path d="M416.433 253.23L486.883 309.52L416.713 336.12L346.273 279.83L416.433 253.23Z" fill="#5AB15A"/>
    </g>
    <path fill-rule="evenodd" clip-rule="evenodd"
          d="M205.594 280.791L205.804 311.431L135.294 285.781L135.094 255.141L205.594 280.791ZM276.111 306.431L205.602 280.791L205.812 311.431L276.032 336.969L276.031 337.07L346.551 362.72L276.111 306.43V306.431Z"
          fill="url(#paint5_linear_856_22766)"/>
    <path opacity="0.2" d="M276.112 306.431L276.312 337.071L205.812 311.431L205.602 280.791L276.112 306.431Z"
          fill="#9EC8B1"/>
    <g clip-path="url(#clip0_856_22766)" filter="url(#filter0_f_856_22766)">
        <path d="M313 285.998L324.002 283.869V276.998L313 285.998Z" fill="#F4F3FC"/>
        <path d="M323.998 276.998L312.996 285.998H305.699L297.875 279.982L304.905 276.998H323.998Z" fill="#C0B9C6"/>
        <path d="M297.877 279.982L292.902 284.296L305.701 285.998L297.877 279.982Z" fill="#8F8F91"/>
        <path d="M297.877 279.982L292.902 284.296L291 282.646L297.877 279.982Z" fill="#928271"/>
    </g>
    <g clip-path="url(#clip1_856_22766)">
        <path d="M67.3984 152.998L76.6001 178.413L103.002 182.441L67.3984 152.998Z" fill="#B5E34F"/>
        <path d="M76.5983 178.412L60 199.997L103 182.44L76.5983 178.412Z" fill="#A0CF4C"/>
        <path d="M67.3966 152.998L60 199.998L76.5983 178.413L67.3966 152.998Z" fill="#DDF377"/>
    </g>
    <g clip-path="url(#clip2_856_22766)">
        <path d="M355.438 237.395L360.502 235.342L369.695 238.712L364.636 240.771L355.438 237.395Z" fill="#53504F"/>
        <path d="M368.586 245.133L373.651 243.074L373.669 245.991L368.604 248.044L368.586 245.133Z" fill="#5C5857"/>
        <path d="M364.578 232.512L369.643 230.459L369.691 238.707L364.633 240.766L364.578 232.512Z" fill="#A0A09E"/>
        <path d="M359.055 230.482L364.119 228.43L369.646 230.458L364.581 232.511L359.055 230.482Z" fill="#919190"/>
        <path d="M368.57 242.205L373.635 240.152L373.653 243.075L368.589 245.134L368.57 242.205Z" fill="#5C5857"/>
        <path d="M347.988 207.83L353.053 205.777L363.875 209.748L358.811 211.801L347.988 207.83Z" fill="#919190"/>
        <path d="M358.938 211.85L359.054 230.484L364.58 232.512L364.635 240.766L352.104 236.17L352.056 227.916L348.104 226.47L347.988 207.83L358.811 211.801L358.938 211.85Z"
              fill="url(#paint6_linear_856_22766)"/>
        <path d="M358.938 211.85L364.002 209.797L364.118 228.431L359.053 230.483L358.938 211.85Z" fill="#A0A09E"/>
        <path d="M358.812 211.799L363.877 209.746L364.005 209.795L358.94 211.848L358.812 211.799Z" fill="#919190"/>
        <path d="M368.141 233.816L373.205 231.764L373.582 231.898L368.518 233.957L368.141 233.816Z" fill="#53504F"/>
        <path d="M368.52 233.957L373.584 231.898L377.007 233.161L371.949 235.213L368.52 233.957Z" fill="#53504F"/>
        <path d="M371.949 235.213L377.008 233.16L377.062 241.408L371.998 243.467L371.949 235.213Z" fill="#5C5857"/>
        <path d="M358.938 211.85L364.002 209.797L369.93 211.972L364.865 214.025L358.938 211.85Z" fill="#53504F"/>
        <path d="M364.867 214.023L369.932 211.971L373.093 213.129L368.029 215.182L364.867 214.023Z" fill="#53504F"/>
        <path d="M368.029 215.183L368.145 233.817L368.522 233.958L371.951 235.214L371.999 243.468L368.57 242.205L368.588 245.134L368.607 248.045L355.474 243.229L355.438 237.395L364.636 240.772L364.582 232.512L359.055 230.483L358.94 211.85L364.868 214.025L368.029 215.183Z"
              fill="#3F3C3B"/>
        <path d="M368.027 215.182L373.092 213.129L373.207 231.763L368.143 233.815L368.027 215.182Z" fill="#5C5857"/>
        <path d="M368.027 215.182L373.092 213.129L376.892 214.52L371.827 216.579L368.027 215.182Z" fill="#919190"/>
        <path d="M371.827 216.579L371.949 235.213L368.143 233.815L368.027 215.182L371.827 216.579Z"
              fill="url(#paint7_linear_856_22766)"/>
        <path d="M371.828 216.578L376.893 214.52L377.008 233.16L371.95 235.212L371.828 216.578Z" fill="#A0A09E"/>
        <path d="M364.411 141.48L364.867 214.024L358.939 211.849L358.811 211.8L358.355 139.262L364.411 141.48Z"
              fill="url(#paint8_linear_856_22766)"/>
        <path d="M358.355 139.262L363.42 137.203L369.476 139.427L364.411 141.48L358.355 139.262Z" fill="#737373"/>
        <path d="M364.41 141.48L369.475 139.428L369.931 211.972L364.866 214.024L364.41 141.48Z"
              fill="url(#paint9_linear_856_22766)"/>
        <path d="M375.689 217.996L375.804 236.629L371.95 235.214L371.828 216.58L375.689 217.996Z" fill="#3F3C3B"/>
        <path d="M375.688 217.996L380.752 215.938L380.868 234.571L375.803 236.63L375.688 217.996Z" fill="#5C5857"/>
        <path d="M371.828 216.58L376.893 214.521L380.753 215.937L375.689 217.996L371.828 216.58Z" fill="#53504F"/>
    </g>
    <g clip-path="url(#clip3_856_22766)">
        <path d="M471.424 53L456.004 81.509L471.424 100.143V53Z" fill="#EF942A"/>
        <path d="M471.422 53L489.002 80.6843L471.422 100.143V53Z" fill="#E98F27"/>
        <path d="M471.422 53L482.429 70.34L471.422 80.9615V53Z" fill="url(#paint10_linear_856_22766)"/>
        <path d="M471.426 53V80.9615L460.875 72.5013L471.426 53Z" fill="url(#paint11_linear_856_22766)"/>
    </g>
    <g clip-path="url(#clip4_856_22766)">
        <path d="M218 299.761L228.62 295.445L240.377 299.772L229.757 304.088L218 299.761Z" fill="#FFDB88"/>
        <path d="M273.211 375.805L283.831 371.479L283.919 386.721L273.298 391.037L273.211 375.805Z" fill="#EF9C2A"/>
        <path d="M229.637 285.2L240.257 280.885L254.822 286.238L244.213 290.554L229.637 285.2Z" fill="#FFDB88"/>
        <path d="M287.656 362.275L298.277 357.959L298.397 376.844L287.776 381.16L287.656 362.275Z" fill="#EF9C2A"/>
        <path d="M244.113 275.312L254.734 270.996L283.263 281.493L272.642 285.808L244.113 275.312Z" fill="#FFDB88"/>
        <path d="M272.641 285.808L283.261 281.492L283.359 296.724L272.739 301.051L272.641 285.808Z" fill="#EF9C2A"/>
        <path d="M287.309 306.405L297.929 302.09L298.049 320.975L287.429 325.291L287.309 306.405Z" fill="#EF9C2A"/>
        <path d="M272.742 301.049L283.363 296.723L297.928 302.087L287.307 306.403L272.742 301.049Z" fill="#FFDB88"/>
        <path d="M299.184 329.603L309.804 325.287L310.034 362.274L299.413 366.6L299.184 329.603Z" fill="#EF9C2A"/>
        <path d="M287.426 325.288L298.046 320.973L309.803 325.288L299.183 329.604L287.426 325.288Z" fill="#FFDB88"/>
        <path d="M272.643 285.807L272.741 301.05L287.306 306.403L287.427 325.288L299.183 329.604L299.413 366.601L287.656 362.275L287.776 381.16L273.211 375.807L273.299 391.038L244.77 380.553L244.671 365.31L230.106 359.957L229.986 341.072L218.229 336.745L218 299.759L229.757 304.085L229.637 285.2L244.213 290.553L244.114 275.311L272.643 285.807Z"
              fill="url(#paint12_linear_856_22766)"/>
        <path d="M279.354 314.917L239.34 300.34V353.788L279.354 368.364V314.917Z" fill="#EF6B41"/>
        <path d="M278.022 313.583L238.008 299.006V352.454L278.022 367.03V313.583Z" fill="#FF7D29"/>
        <path d="M268.685 324.065L247.344 316.348V344.644L268.685 352.361V324.065Z" fill="#FFF2DF"/>
    </g>
    <g clip-path="url(#clip5_856_22766)">
        <path d="M93 280.874L99.2315 278.342L106.13 280.88L99.8983 283.413L93 280.874Z" fill="#FFDB88"/>
        <path d="M125.395 325.492L131.626 322.953L131.677 331.897L125.446 334.429L125.395 325.492Z" fill="#EF9C2A"/>
        <path d="M99.8281 272.331L106.06 269.799L114.606 272.94L108.38 275.472L99.8281 272.331Z" fill="#FFDB88"/>
        <path d="M133.867 317.554L140.099 315.021L140.169 326.102L133.938 328.634L133.867 317.554Z" fill="#EF9C2A"/>
        <path d="M108.32 266.528L114.552 263.996L131.291 270.155L125.059 272.687L108.32 266.528Z" fill="#FFDB88"/>
        <path d="M125.062 272.686L131.294 270.154L131.352 279.091L125.12 281.63L125.062 272.686Z" fill="#EF9C2A"/>
        <path d="M133.664 284.77L139.896 282.238L139.966 293.319L133.735 295.851L133.664 284.77Z" fill="#EF9C2A"/>
        <path d="M125.117 281.63L131.349 279.092L139.895 282.239L133.663 284.771L125.117 281.63Z" fill="#FFDB88"/>
        <path d="M140.633 298.384L146.864 295.852L146.999 317.553L140.767 320.092L140.633 298.384Z" fill="#EF9C2A"/>
        <path d="M133.734 295.852L139.966 293.32L146.864 295.852L140.633 298.385L133.734 295.852Z" fill="#FFDB88"/>
        <path d="M125.061 272.688L125.119 281.632L133.665 284.773L133.736 295.853L140.634 298.386L140.768 320.094L133.87 317.555L133.941 328.636L125.395 325.495L125.446 334.432L108.707 328.28L108.649 319.336L100.103 316.195L100.033 305.114L93.1346 302.576L93 280.874L99.8983 283.413L99.8277 272.332L108.38 275.473L108.322 266.529L125.061 272.688Z"
              fill="url(#paint13_linear_856_22766)"/>
        <path d="M129.002 289.766L105.523 281.213V312.573L129.002 321.126V289.766Z" fill="#EF6B41"/>
        <path d="M128.22 288.984L104.742 280.432V311.792L128.22 320.345V288.984Z" fill="#FF7D29"/>
        <path d="M122.74 295.133L110.219 290.605V307.208L122.74 311.736V295.133Z" fill="#FFF2DF"/>
    </g>
    <g clip-path="url(#clip6_856_22766)">
        <path d="M368.004 304.251L374.374 301.662L381.425 304.257L375.055 306.846L368.004 304.251Z" fill="#FFDB88"/>
        <path d="M401.117 349.861L407.487 347.266L407.54 356.408L401.17 358.996L401.117 349.861Z" fill="#EF9C2A"/>
        <path d="M374.984 295.518L381.354 292.93L390.09 296.14L383.727 298.729L374.984 295.518Z" fill="#FFDB88"/>
        <path d="M409.781 341.745L416.151 339.156L416.223 350.483L409.853 353.072L409.781 341.745Z" fill="#EF9C2A"/>
        <path d="M383.664 289.586L390.034 286.998L407.145 293.294L400.775 295.882L383.664 289.586Z" fill="#FFDB88"/>
        <path d="M400.777 295.883L407.147 293.295L407.206 302.431L400.836 305.026L400.777 295.883Z" fill="#EF9C2A"/>
        <path d="M409.574 308.237L415.944 305.648L416.016 316.975L409.646 319.564L409.574 308.237Z" fill="#EF9C2A"/>
        <path d="M400.836 305.023L407.206 302.428L415.942 305.645L409.572 308.234L400.836 305.023Z" fill="#FFDB88"/>
        <path d="M416.695 322.149L423.065 319.561L423.203 341.744L416.833 344.34L416.695 322.149Z" fill="#EF9C2A"/>
        <path d="M409.645 319.561L416.015 316.973L423.066 319.561L416.696 322.15L409.645 319.561Z" fill="#FFDB88"/>
        <path d="M400.778 295.882L400.837 305.024L409.573 308.235L409.645 319.562L416.696 322.15L416.834 344.341L409.782 341.746L409.854 353.073L401.119 349.862L401.171 358.997L384.06 352.708L384.001 343.566L375.265 340.355L375.193 329.028L368.142 326.433L368.004 304.249L375.055 306.844L374.983 295.518L383.726 298.728L383.667 289.586L400.778 295.882Z"
              fill="url(#paint14_linear_856_22766)"/>
        <path d="M404.805 313.341L380.805 304.598V336.655L404.805 345.398V313.341Z" fill="#EF6B41"/>
        <path d="M404.004 312.542L380.004 303.799V335.856L404.004 344.599V312.542Z" fill="#FF7D29"/>
        <path d="M398.402 318.828L385.602 314.199V331.171L398.402 335.799V318.828Z" fill="#FFF2DF"/>
    </g>
    <g clip-path="url(#clip7_856_22766)">
        <path d="M459.008 298.061L462.724 296.551L466.837 298.065L463.121 299.575L459.008 298.061Z" fill="#FFDB88"/>
        <path d="M478.324 324.668L482.04 323.154L482.071 328.487L478.355 329.997L478.324 324.668Z" fill="#EF9C2A"/>
        <path d="M463.078 292.969L466.794 291.459L471.89 293.332L468.178 294.842L463.078 292.969Z" fill="#FFDB88"/>
        <path d="M483.375 319.936L487.091 318.426L487.133 325.033L483.417 326.543L483.375 319.936Z" fill="#EF9C2A"/>
        <path d="M468.141 289.508L471.856 287.998L481.838 291.671L478.122 293.18L468.141 289.508Z" fill="#FFDB88"/>
        <path d="M478.125 293.18L481.841 291.67L481.875 296.999L478.159 298.513L478.125 293.18Z" fill="#EF9C2A"/>
        <path d="M483.258 300.389L486.974 298.879L487.016 305.486L483.3 306.996L483.258 300.389Z" fill="#EF9C2A"/>
        <path d="M478.16 298.514L481.876 297L486.972 298.877L483.256 300.387L478.16 298.514Z" fill="#FFDB88"/>
        <path d="M487.414 308.502L491.13 306.992L491.21 319.933L487.494 321.447L487.414 308.502Z" fill="#EF9C2A"/>
        <path d="M483.297 306.994L487.013 305.484L491.126 306.994L487.41 308.504L483.297 306.994Z" fill="#FFDB88"/>
        <path d="M478.126 293.182L478.16 298.515L483.256 300.388L483.298 306.996L487.412 308.506L487.492 321.45L483.379 319.936L483.421 326.544L478.325 324.671L478.355 330L468.374 326.331L468.339 320.998L463.244 319.125L463.201 312.518L459.088 311.004L459.008 298.063L463.121 299.577L463.079 292.97L468.179 294.843L468.144 289.51L478.126 293.182Z"
              fill="url(#paint15_linear_856_22766)"/>
        <path d="M480.477 303.366L466.477 298.266V316.966L480.477 322.066V303.366Z" fill="#EF6B41"/>
        <path d="M480.008 302.899L466.008 297.799V316.499L480.008 321.599V302.899Z" fill="#FF7D29"/>
        <path d="M476.74 306.565L469.273 303.865V313.765L476.74 316.465V306.565Z" fill="#FFF2DF"/>
    </g>
    <g opacity="0.06" filter="url(#filter1_f_856_22766)">
        <path d="M244.482 251.378C243.616 251.066 243.595 249.849 244.451 249.508L257.937 244.138C258.164 244.048 258.416 244.044 258.646 244.127L315.518 264.618C316.384 264.93 316.405 266.148 315.549 266.488L302.063 271.858C301.836 271.948 301.584 271.952 301.354 271.87L244.482 251.378Z"
              fill="black"/>
    </g>
    <g opacity="0.05" filter="url(#filter2_f_856_22766)">
        <path d="M347.436 273.67C346.577 273.355 346.557 272.148 347.405 271.805L351.479 270.154C351.725 270.054 352 270.056 352.244 270.159L362.361 274.437C362.456 274.478 362.544 274.532 362.622 274.599L371.501 282.21C372.124 282.743 371.874 283.759 371.075 283.943L366.976 284.889C366.678 284.958 366.365 284.887 366.126 284.696L356.631 277.1C356.547 277.032 356.452 276.979 356.351 276.942L347.436 273.67Z"
              fill="black"/>
    </g>
    <g opacity="0.06" filter="url(#filter3_f_856_22766)">
        <path d="M243.381 402.259C242.53 401.941 242.51 400.745 243.349 400.398L251.216 397.148C251.45 397.052 251.712 397.047 251.948 397.136L277.619 406.737C278.47 407.055 278.49 408.251 277.651 408.598L269.784 411.848C269.55 411.944 269.288 411.949 269.052 411.86L243.381 402.259Z"
              fill="black"/>
    </g>
    <g opacity="0.04" filter="url(#filter4_f_856_22766)">
        <path d="M393.408 368.101C392.906 367.913 392.894 367.208 393.389 367.003L398.029 365.087C398.167 365.03 398.321 365.027 398.461 365.079L413.6 370.742C414.102 370.929 414.113 371.635 413.618 371.839L408.979 373.756C408.841 373.813 408.687 373.815 408.547 373.763L393.408 368.101Z"
              fill="black"/>
    </g>
    <g opacity="0.04" filter="url(#filter5_f_856_22766)">
        <path d="M469.956 335.102C469.616 334.975 469.608 334.497 469.944 334.358L473.09 333.058C473.184 333.02 473.289 333.018 473.383 333.053L483.652 336.894C483.992 337.021 484 337.499 483.664 337.638L480.517 338.938C480.424 338.977 480.319 338.978 480.225 338.943L469.956 335.102Z"
              fill="black"/>
    </g>
    <g opacity="0.05" filter="url(#filter6_f_856_22766)">
        <path d="M109.77 342.301C109.138 342.064 109.123 341.175 109.747 340.917L115.597 338.5C115.771 338.429 115.965 338.425 116.141 338.491L135.23 345.631C135.862 345.867 135.877 346.757 135.253 347.014L129.403 349.431C129.229 349.503 129.035 349.506 128.859 349.44L109.77 342.301Z"
              fill="black"/>
    </g>
    <g clip-path="url(#clip8_856_22766)">
        <path d="M294.23 208.563L322.987 196.975L323.15 221.483L294.378 233.072L294.23 208.563Z"
              fill="url(#paint16_linear_856_22766)"/>
        <path d="M306 179.588L334.771 168L334.978 201.078L306.207 212.652L306 179.588Z"
              fill="url(#paint17_linear_856_22766)"/>
        <path d="M317.465 141.446L317.746 184.114L305.876 179.807L306.084 212.871L294.229 208.564L294.377 233.073L236.346 211.953L236.198 187.444L224.343 183.123L224.136 150.045L212.266 145.738L212 103.055L317.465 141.446Z"
              fill="url(#paint18_linear_856_22766)"/>
        <path opacity="0.5" d="M284.5 156.5V130.5L317.5 142V169L284.5 156.5Z" fill="url(#paint19_linear_856_22766)"/>
        <path d="M317.465 141.445L346.236 129.871L346.502 172.539L317.746 184.113L317.465 141.445Z"
              fill="url(#paint20_linear_856_22766)"/>
        <path d="M212 103.054L240.771 91.4805L346.236 129.872L317.465 141.445L212 103.054Z"
              fill="url(#paint21_linear_856_22766)"/>
        <mask id="mask0_856_22766" style="mask-type:alpha" maskUnits="userSpaceOnUse" x="253" y="106" width="60"
              height="23">
            <path opacity="0.67" d="M281.5 106L253 117.5L284 129L312.5 117.5L281.5 106Z" fill="#D5D1D5"/>
        </mask>
        <g mask="url(#mask0_856_22766)">
            <g opacity="0.67" filter="url(#filter7_f_856_22766)">
                <path d="M282.244 110L265 117.5L283.756 125L301 117.5L282.244 110Z" fill="#B35230"/>
            </g>
        </g>
        <path fill-rule="evenodd" clip-rule="evenodd"
              d="M274.86 151.568L274.911 159.203L256.102 152.353L256.051 144.719L274.86 151.568ZM256.102 152.353L256.25 176.514L250.31 174.352L250.156 150.186L256.102 152.353ZM275.11 191L275.064 183.371L256.25 176.516L256.301 184.15L275.11 191ZM280.967 177.896L281.012 185.531L275.067 183.369L275.016 175.728L280.967 177.896ZM280.907 169.005L280.856 161.371L274.91 159.203L274.956 166.838L280.907 169.005Z"
              fill="white"/>
        <path fill-rule="evenodd" clip-rule="evenodd"
              d="M273.703 150.41L273.754 158.045L254.946 151.195L254.895 143.561L273.703 150.41ZM254.946 151.195L255.093 175.356L249.153 173.194L249 149.027L254.946 151.195ZM273.954 189.842L273.908 182.213L255.094 175.357L255.145 182.992L273.954 189.842ZM279.811 176.738L279.856 184.373L273.911 182.211L273.859 174.57L279.811 176.738ZM279.751 167.847L279.7 160.212L273.754 158.045L273.799 165.68L279.751 167.847Z"
              fill="#A24C2E"/>
        <path d="M251.985 21.2533L243.682 24.4649L238.547 22.5113L246.85 19.3145L251.985 21.2533Z" fill="#BAA093"/>
        <path d="M251.986 21.2509L243.684 24.4625L243.698 16.5593L252.016 13.3477L251.986 21.2509Z" fill="#CCB0A1"/>
        <path d="M254.4 22.1708L246.098 25.3676L246.112 17.4644L254.415 14.2676L254.4 22.1708Z" fill="#EED2B7"/>
        <path d="M254.418 14.2653L246.116 17.4621L243.703 16.5593L252.021 13.3477L254.418 14.2653Z" fill="#FCE3CD"/>
        <path d="M252.045 -0.652138L243.742 2.54466L237.645 0.235863L245.962 -2.96094L252.045 -0.652138Z"
              fill="#FCDDC4"/>
        <path d="M252.021 13.3504L243.703 16.562L243.748 2.54641L252.05 -0.650391L252.021 13.3504Z" fill="#E4C2AC"/>
        <path d="M268.875 27.6624L260.573 30.8592L259.773 30.5632L268.076 27.3516L268.875 27.6624Z" fill="#BAA093"/>
        <path d="M268.873 27.661L260.57 30.8578L260.585 22.9546L268.903 19.7578L268.873 27.661Z" fill="#CCB0A1"/>
        <path d="M268.92 13.6467L260.617 16.8435L254.52 14.5495L262.822 11.3379L268.92 13.6467Z" fill="#BAA093"/>
        <path d="M268.932 5.74321L260.629 8.94001L243.742 2.54641L252.045 -0.650391L268.932 5.74321Z" fill="#FCDDC4"/>
        <path d="M268.904 19.7597L260.586 22.9565L260.63 8.94094L268.933 5.74414L268.904 19.7597Z" fill="#EAD4B7"/>
        <path d="M268.92 13.6473L260.617 16.8441L260.632 8.94094L268.935 5.74414L268.92 13.6473Z" fill="#EAD4B7"/>
        <path d="M278.376 23.3394L270.058 26.5362L260.586 22.9546L268.904 19.7578L278.376 23.3394Z" fill="#FCEED5"/>
        <path d="M278.346 31.245L270.043 34.4418L270.058 26.5386L278.375 23.3418L278.346 31.245Z" fill="#CCB0A1"/>
        <path fill-rule="evenodd" clip-rule="evenodd"
              d="M237.645 0.236328L243.743 2.54513L243.733 5.51362L243.744 2.54688L260.631 8.94048L260.628 10.5751L260.633 8.94141L260.619 16.8446L260.608 16.8408V16.8406L254.519 14.5497L243.718 10.4512L243.698 16.559L246.11 17.4614L246.095 25.3646L243.684 24.4521L243.684 24.4639L238.548 22.5103L237.586 22.1551L237.645 0.236328ZM260.589 22.9557L260.608 16.8408L254.521 14.5506L254.477 28.5514L259.775 30.5642L259.965 30.6344L270.045 34.4399L270.059 26.5367L260.589 22.9557Z"
              fill="url(#paint22_linear_856_22766)"/>
        <path d="M316.029 36.9532L308.407 34.082L307.09 40.002L309.339 39.7356L316.029 36.9532Z" fill="#FCEED5"/>
        <path d="M265.439 122.381L251.868 128.005L241.789 124.335L255.346 118.711L265.439 122.381Z" fill="#F6E7C9"/>
        <path d="M265.439 122.383V129.206L251.867 134.83V128.007L265.439 122.383Z" fill="#F6E7CA"/>
        <path d="M251.867 128.006V134.829L241.773 131.159L241.788 124.336L251.867 128.006Z" fill="#F8EED7"/>
        <path d="M265.455 97.8265L260.379 99.9429L251.617 96.7461L256.694 94.6445L265.455 97.8265Z" fill="#BDA498"/>
        <path d="M265.454 97.8262L265.44 122.379L260.363 124.481L260.378 99.9426L265.454 97.8262Z" fill="#F6E7CA"/>
        <path d="M260.378 99.9429L260.363 124.481L251.602 121.299L251.616 96.7462L260.378 99.9429Z" fill="#F8EED7"/>
        <path d="M314.727 59.2723L269.898 77.8759L232.188 64.1563L277.017 45.5527L314.727 59.2723Z"
              fill="url(#paint23_linear_856_22766)"/>
        <path d="M269.896 77.8758L269.881 107.875L232.156 94.1559L232.186 64.1562L269.896 77.8758Z"
              fill="url(#paint24_linear_856_22766)"/>
        <path d="M314.504 37.7196L293.71 46.348L256 32.6136L276.779 24L314.504 37.7196Z"
              fill="url(#paint25_linear_856_22766)"/>
        <path fill-rule="evenodd" clip-rule="evenodd"
              d="M314.771 59.2558L314.786 37.4258L293.992 46.0542V67.8694L308.678 61.7817L269.898 77.8751L269.883 107.875L314.712 89.2711L314.727 59.2743L314.771 59.2558Z"
              fill="url(#paint26_linear_856_22766)"/>
        <path d="M293.991 46.0547V67.8699L256.266 54.1503L256.28 32.3203L293.991 46.0547Z"
              fill="url(#paint27_linear_856_22766)"/>
        <path d="M314.783 31.9813L307.886 34.8377L270.176 21.1181L277.073 18.2617L314.783 31.9813Z" fill="#D6784E"/>
        <path d="M314.784 31.9805V37.4417L307.887 40.2981V34.8369L314.784 31.9805Z" fill="#825439"/>
        <path d="M317.57 51.6816L325.666 48.3516L326.48 48.6476L318.399 51.9776L317.57 51.6816Z" fill="#BBA193"/>
        <path d="M317.6 43.7929L325.681 40.4629L325.666 48.3513L317.57 51.6813L317.6 43.7929Z" fill="#CBAFA0"/>
        <path d="M307.906 40.2566L315.987 36.9414L325.681 40.4638L317.6 43.7938L307.906 40.2566Z" fill="#FCEED5"/>
        <path d="M317.632 29.8074L325.728 26.4922L325.698 34.3806L317.617 37.6958L317.632 29.8074Z" fill="#CBAFA0"/>
        <path d="M317.617 37.6961L325.698 34.3809L331.944 36.6453L323.863 39.9753L317.617 37.6961Z" fill="#BBA193"/>
        <path d="M323.861 39.9745L331.942 36.6445L331.912 50.6305L323.816 53.9457L323.861 39.9745Z" fill="#E6D6BC"/>
        <path d="M334.944 36.1121L343.04 32.7969L343.01 40.6853L334.93 44.0005L334.944 36.1121Z" fill="#CBAFA0"/>
        <path d="M317.633 29.8074L325.728 26.4922L343.044 32.797L334.949 36.1122L317.633 29.8074Z" fill="#FCDDC4"/>
        <path d="M334.912 50.0976L342.993 46.7676L342.978 54.656L334.883 57.986L334.912 50.0976Z" fill="#CBAFA0"/>
        <path d="M332.445 49.1952L340.526 45.8652L342.998 46.768L334.917 50.098L332.445 49.1952Z" fill="#FCE3CD"/>
        <path d="M334.883 57.9863L342.978 54.6562L348.232 56.5803L340.152 59.8955L334.883 57.9863Z" fill="#BBA193"/>
        <path fill-rule="evenodd" clip-rule="evenodd"
              d="M317.63 29.8091L334.944 36.1134L334.944 36.114L341.202 38.3925L341.143 60.2669L340.152 59.8969L334.883 57.9877L334.883 57.9806L332.414 57.0837L332.444 49.1953L334.912 50.0971L334.925 44.0004L323.86 39.9767L323.816 53.9474L318.399 51.979L318.274 51.9343L318.398 51.9794L317.569 51.6834L317.569 51.6775L317.57 51.678L317.6 43.7946L317.617 35.7582L317.628 29.8086L317.63 29.8091ZM317.569 51.6775L307.875 48.1462L307.905 40.2578L317.599 43.795L317.569 51.6775Z"
              fill="url(#paint28_linear_856_22766)"/>
        <path d="M341.208 38.3905L349.288 35.0605L349.229 56.935L341.148 60.265L341.208 38.3905Z" fill="#E4C0AB"/>
        <path d="M334.945 36.1121L343.041 32.7969L349.287 35.0613L341.206 38.3913L334.945 36.1121Z" fill="#FCDDC4"/>
        <path opacity="0.44" d="M255.438 72.6216V79.4296L245.359 75.7592V68.9512L255.438 72.6216Z"
              fill="url(#paint29_linear_856_22766)"/>
        <path opacity="0.8" d="M293.976 61.063V67.8858L283.883 64.2154V57.3926L293.976 61.063Z"
              fill="url(#paint30_linear_856_22766)"/>
        <path opacity="0.78" d="M266.359 51.0005V57.8233L256.266 54.1529L256.28 47.3301L266.359 51.0005Z"
              fill="url(#paint31_linear_856_22766)"/>
        <path d="M304.307 56.7852V64.8364L293.977 69.1136V61.0624L304.307 56.7852Z"
              fill="url(#paint32_linear_856_22766)"/>
        <path opacity="0.5" d="M264.289 68.9508L255.438 72.6212L245.359 68.9508L254.21 65.2656L264.289 68.9508Z"
              fill="url(#paint33_linear_856_22766)"/>
        <path opacity="0.3" d="M224 183V157L257 168.5V195.5L224 183Z" fill="url(#paint34_linear_856_22766)"/>
        <g filter="url(#filter8_f_856_22766)">
            <ellipse cx="232" cy="143" rx="6" ry="4" fill="#B5E34F"/>
        </g>
        <g opacity="0.03" filter="url(#filter9_f_856_22766)">
            <path d="M258.5 213.5H253L258.5 215.5L294 229L317.5 215.5L294 171.5L258.5 213.5Z" fill="#5AB15A"/>
        </g>
        <g opacity="0.03" filter="url(#filter10_f_856_22766)">
            <path d="M331 150L323 153.5L326 160V168V176C326 177.2 324 181.833 323 184V190.5L317 205L313.5 208.5L307 217.5V227L317 208.5L323 205L326 184L331 181V150Z"
                  fill="#484848"/>
        </g>
        <path d="M307.886 34.8368V40.298L270.176 26.5784V21.1172L307.886 34.8368Z" fill="#7B4C30"/>
    </g>
    <defs>
        <filter id="filter0_f_856_22766" x="290.6" y="276.598" width="33.8" height="9.8" filterUnits="userSpaceOnUse"
                color-interpolation-filters="sRGB">
            <feFlood flood-opacity="0" result="BackgroundImageFix"/>
            <feBlend mode="normal" in="SourceGraphic" in2="BackgroundImageFix" result="shape"/>
            <feGaussianBlur stdDeviation="0.2" result="effect1_foregroundBlur_856_22766"/>
        </filter>
        <filter id="filter1_f_856_22766" x="242.82" y="243.067" width="74.3594" height="29.8614"
                filterUnits="userSpaceOnUse" color-interpolation-filters="sRGB">
            <feFlood flood-opacity="0" result="BackgroundImageFix"/>
            <feBlend mode="normal" in="SourceGraphic" in2="BackgroundImageFix" result="shape"/>
            <feGaussianBlur stdDeviation="0.5" result="effect1_foregroundBlur_856_22766"/>
        </filter>
        <filter id="filter2_f_856_22766" x="345.78" y="269.08" width="27.0703" height="16.8345"
                filterUnits="userSpaceOnUse" color-interpolation-filters="sRGB">
            <feFlood flood-opacity="0" result="BackgroundImageFix"/>
            <feBlend mode="normal" in="SourceGraphic" in2="BackgroundImageFix" result="shape"/>
            <feGaussianBlur stdDeviation="0.5" result="effect1_foregroundBlur_856_22766"/>
        </filter>
        <filter id="filter3_f_856_22766" x="241.731" y="396.073" width="37.5381" height="16.8511"
                filterUnits="userSpaceOnUse" color-interpolation-filters="sRGB">
            <feFlood flood-opacity="0" result="BackgroundImageFix"/>
            <feBlend mode="normal" in="SourceGraphic" in2="BackgroundImageFix" result="shape"/>
            <feGaussianBlur stdDeviation="0.5" result="effect1_foregroundBlur_856_22766"/>
        </filter>
        <filter id="filter4_f_856_22766" x="392.435" y="364.452" width="22.1375" height="9.93783"
                filterUnits="userSpaceOnUse" color-interpolation-filters="sRGB">
            <feFlood flood-opacity="0" result="BackgroundImageFix"/>
            <feBlend mode="normal" in="SourceGraphic" in2="BackgroundImageFix" result="shape"/>
            <feGaussianBlur stdDeviation="0.294872" result="effect1_foregroundBlur_856_22766"/>
        </filter>
        <filter id="filter5_f_856_22766" x="469.296" y="332.628" width="15.0153" height="6.74043"
                filterUnits="userSpaceOnUse" color-interpolation-filters="sRGB">
            <feFlood flood-opacity="0" result="BackgroundImageFix"/>
            <feBlend mode="normal" in="SourceGraphic" in2="BackgroundImageFix" result="shape"/>
            <feGaussianBlur stdDeviation="0.2" result="effect1_foregroundBlur_856_22766"/>
        </filter>
        <filter id="filter6_f_856_22766" x="108.544" y="337.7" width="27.913" height="12.5303"
                filterUnits="userSpaceOnUse" color-interpolation-filters="sRGB">
            <feFlood flood-opacity="0" result="BackgroundImageFix"/>
            <feBlend mode="normal" in="SourceGraphic" in2="BackgroundImageFix" result="shape"/>
            <feGaussianBlur stdDeviation="0.371795" result="effect1_foregroundBlur_856_22766"/>
        </filter>
        <filter id="filter7_f_856_22766" x="249" y="94" width="68" height="47" filterUnits="userSpaceOnUse"
                color-interpolation-filters="sRGB">
            <feFlood flood-opacity="0" result="BackgroundImageFix"/>
            <feBlend mode="normal" in="SourceGraphic" in2="BackgroundImageFix" result="shape"/>
            <feGaussianBlur stdDeviation="8" result="effect1_foregroundBlur_856_22766"/>
        </filter>
        <filter id="filter8_f_856_22766" x="206" y="119" width="52" height="48" filterUnits="userSpaceOnUse"
                color-interpolation-filters="sRGB">
            <feFlood flood-opacity="0" result="BackgroundImageFix"/>
            <feBlend mode="normal" in="SourceGraphic" in2="BackgroundImageFix" result="shape"/>
            <feGaussianBlur stdDeviation="10" result="effect1_foregroundBlur_856_22766"/>
        </filter>
        <filter id="filter9_f_856_22766" x="242" y="160.5" width="86.5" height="79.5" filterUnits="userSpaceOnUse"
                color-interpolation-filters="sRGB">
            <feFlood flood-opacity="0" result="BackgroundImageFix"/>
            <feBlend mode="normal" in="SourceGraphic" in2="BackgroundImageFix" result="shape"/>
            <feGaussianBlur stdDeviation="5.5" result="effect1_foregroundBlur_856_22766"/>
        </filter>
        <filter id="filter10_f_856_22766" x="299" y="142" width="40" height="93" filterUnits="userSpaceOnUse"
                color-interpolation-filters="sRGB">
            <feFlood flood-opacity="0" result="BackgroundImageFix"/>
            <feBlend mode="normal" in="SourceGraphic" in2="BackgroundImageFix" result="shape"/>
            <feGaussianBlur stdDeviation="4" result="effect1_foregroundBlur_856_22766"/>
        </filter>
        <radialGradient id="paint0_radial_856_22766" cx="0" cy="0" r="1" gradientUnits="userSpaceOnUse"
                        gradientTransform="translate(286 435.498) rotate(90) scale(89.5 268)">
            <stop stop-color="#F9FCFD"/>
            <stop offset="1" stop-color="#D6E9EF"/>
        </radialGradient>
        <linearGradient id="paint1_linear_856_22766" x1="0.00194994" y1="357.995" x2="274.002" y2="453.995"
                        gradientUnits="userSpaceOnUse">
            <stop offset="0.073625" stop-color="#DCE9AA"/>
            <stop offset="0.471308" stop-color="#CDE2AA"/>
            <stop offset="0.94538" stop-color="#BBD8AA"/>
            <stop offset="1" stop-color="#B7D5AC"/>
        </linearGradient>
        <linearGradient id="paint2_linear_856_22766" x1="275.998" y1="453.994" x2="551.998" y2="349.994"
                        gradientUnits="userSpaceOnUse">
            <stop stop-color="#B5D4AD"/>
            <stop offset="0.0738459" stop-color="#C2DCC4"/>
            <stop offset="0.363528" stop-color="#9EC8B0"/>
            <stop offset="0.7397" stop-color="#99C6B2"/>
            <stop offset="0.965928" stop-color="#93C1B1"/>
            <stop offset="1" stop-color="#92C2B3"/>
        </linearGradient>
        <linearGradient id="paint3_linear_856_22766" x1="71" y1="314.994" x2="343" y2="415.994"
                        gradientUnits="userSpaceOnUse">
            <stop stop-color="#74AC44"/>
            <stop offset="1" stop-color="#5AB15A"/>
        </linearGradient>
        <linearGradient id="paint4_linear_856_22766" x1="382.001" y1="179.994" x2="456.001" y2="371.994"
                        gradientUnits="userSpaceOnUse">
            <stop stop-color="#75AD45"/>
            <stop offset="0.309589" stop-color="#5BB15A"/>
            <stop offset="0.386868" stop-color="#5CBA5B"/>
            <stop offset="0.474976" stop-color="#5BB15A"/>
            <stop offset="0.687648" stop-color="#5BB15A"/>
            <stop offset="0.767651" stop-color="#59A957"/>
            <stop offset="0.855645" stop-color="#5CB15A"/>
            <stop offset="1" stop-color="#5CB15A"/>
        </linearGradient>
        <linearGradient id="paint5_linear_856_22766" x1="135.092" y1="270.738" x2="339.513" y2="340.834"
                        gradientUnits="userSpaceOnUse">
            <stop stop-color="#DCE9A9"/>
            <stop offset="0.073625" stop-color="#DCE9AA"/>
            <stop offset="0.471308" stop-color="#CDE2AA"/>
            <stop offset="0.700479" stop-color="#BBD8AA"/>
            <stop offset="0.803567" stop-color="#B7D5AC"/>
            <stop offset="0.987221" stop-color="#AACFB7"/>
        </linearGradient>
        <linearGradient id="paint6_linear_856_22766" x1="356.312" y1="207.83" x2="356.312" y2="240.766"
                        gradientUnits="userSpaceOnUse">
            <stop stop-color="#7B7B76"/>
            <stop offset="1" stop-color="#595951"/>
        </linearGradient>
        <linearGradient id="paint7_linear_856_22766" x1="369.988" y1="215.182" x2="369.988" y2="235.213"
                        gradientUnits="userSpaceOnUse">
            <stop stop-color="#7B7B76"/>
            <stop offset="1" stop-color="#595951"/>
        </linearGradient>
        <linearGradient id="paint8_linear_856_22766" x1="361.611" y1="139.262" x2="361.611" y2="214.024"
                        gradientUnits="userSpaceOnUse">
            <stop stop-color="#474747"/>
            <stop offset="1" stop-color="#484848"/>
        </linearGradient>
        <linearGradient id="paint9_linear_856_22766" x1="367.17" y1="139.428" x2="367.17" y2="214.024"
                        gradientUnits="userSpaceOnUse">
            <stop stop-color="#454545"/>
            <stop offset="1" stop-color="#2F3626"/>
        </linearGradient>
        <linearGradient id="paint10_linear_856_22766" x1="474.758" y1="53.7295" x2="485.683" y2="77.7565"
                        gradientUnits="userSpaceOnUse">
            <stop stop-color="#FFCD4B"/>
            <stop offset="1" stop-color="#FFA02D"/>
        </linearGradient>
        <linearGradient id="paint11_linear_856_22766" x1="464.073" y1="53.7295" x2="475.3" y2="77.3984"
                        gradientUnits="userSpaceOnUse">
            <stop stop-color="#FFCD4B"/>
            <stop offset="1" stop-color="#FFA02D"/>
        </linearGradient>
        <linearGradient id="paint12_linear_856_22766" x1="242.676" y1="278.33" x2="271.353" y2="391.037"
                        gradientUnits="userSpaceOnUse">
            <stop stop-color="#FFCD4B"/>
            <stop offset="1" stop-color="#FFA02D"/>
        </linearGradient>
        <linearGradient id="paint13_linear_856_22766" x1="107.478" y1="268.301" x2="124.304" y2="334.431"
                        gradientUnits="userSpaceOnUse">
            <stop stop-color="#FFCD4B"/>
            <stop offset="1" stop-color="#FFA02D"/>
        </linearGradient>
        <linearGradient id="paint14_linear_856_22766" x1="382.804" y1="291.397" x2="400.004" y2="358.997"
                        gradientUnits="userSpaceOnUse">
            <stop stop-color="#FFCD4B"/>
            <stop offset="1" stop-color="#FFA02D"/>
        </linearGradient>
        <linearGradient id="paint15_linear_856_22766" x1="467.641" y1="290.566" x2="477.674" y2="329.999"
                        gradientUnits="userSpaceOnUse">
            <stop stop-color="#FFCD4B"/>
            <stop offset="1" stop-color="#FFA02D"/>
        </linearGradient>
        <linearGradient id="paint16_linear_856_22766" x1="319.662" y1="205.046" x2="309.081" y2="232.466"
                        gradientUnits="userSpaceOnUse">
            <stop stop-color="#DCDFE4"/>
            <stop offset="1" stop-color="#DADBDD"/>
        </linearGradient>
        <linearGradient id="paint17_linear_856_22766" x1="331.483" y1="177.984" x2="316.354" y2="209.746"
                        gradientUnits="userSpaceOnUse">
            <stop stop-color="#DCDFE4"/>
            <stop offset="1" stop-color="#DADBDD"/>
        </linearGradient>
        <linearGradient id="paint18_linear_856_22766" x1="219" y1="113" x2="264.873" y2="233.073"
                        gradientUnits="userSpaceOnUse">
            <stop stop-color="#EBEEF4"/>
            <stop offset="0.503463" stop-color="#D9DCE0"/>
            <stop offset="1" stop-color="#EAECEB"/>
        </linearGradient>
        <linearGradient id="paint19_linear_856_22766" x1="301" y1="130.5" x2="301" y2="169"
                        gradientUnits="userSpaceOnUse">
            <stop stop-color="white"/>
            <stop offset="1" stop-color="white" stop-opacity="0"/>
        </linearGradient>
        <linearGradient id="paint20_linear_856_22766" x1="343" y1="142" x2="322.5" y2="177.5"
                        gradientUnits="userSpaceOnUse">
            <stop stop-color="#DCDFE4"/>
            <stop offset="1" stop-color="#DADBDD"/>
        </linearGradient>
        <linearGradient id="paint21_linear_856_22766" x1="245" y1="91" x2="311.5" y2="138"
                        gradientUnits="userSpaceOnUse">
            <stop stop-color="#D4D0D4"/>
            <stop offset="1" stop-color="#E8E8EA"/>
        </linearGradient>
        <linearGradient id="paint22_linear_856_22766" x1="237.998" y1="7.5" x2="263.498" y2="32.0015"
                        gradientUnits="userSpaceOnUse">
            <stop stop-color="#E8C5B1"/>
            <stop offset="1" stop-color="#F0E0BC"/>
        </linearGradient>
        <linearGradient id="paint23_linear_856_22766" x1="290.002" y1="53.5" x2="259.502" y2="74.5"
                        gradientUnits="userSpaceOnUse">
            <stop stop-color="#983512"/>
            <stop offset="1" stop-color="#EA8F62"/>
        </linearGradient>
        <linearGradient id="paint24_linear_856_22766" x1="270" y1="86" x2="232" y2="76" gradientUnits="userSpaceOnUse">
            <stop stop-color="#B65C39"/>
            <stop offset="1" stop-color="#B75B3A"/>
        </linearGradient>
        <linearGradient id="paint25_linear_856_22766" x1="281" y1="-7.5" x2="293.237" y2="45.7157"
                        gradientUnits="userSpaceOnUse">
            <stop stop-color="#983512"/>
            <stop offset="1" stop-color="#EA8F62"/>
        </linearGradient>
        <linearGradient id="paint26_linear_856_22766" x1="292.334" y1="37.4258" x2="292.334" y2="107.875"
                        gradientUnits="userSpaceOnUse">
            <stop stop-color="#D6643C"/>
            <stop offset="1" stop-color="#A54A2A"/>
        </linearGradient>
        <linearGradient id="paint27_linear_856_22766" x1="260.502" y1="37" x2="294.002" y2="60"
                        gradientUnits="userSpaceOnUse">
            <stop stop-color="#AC5236"/>
            <stop offset="1" stop-color="#A3492A"/>
        </linearGradient>
        <linearGradient id="paint28_linear_856_22766" x1="320.227" y1="37.1084" x2="341.444" y2="48.905"
                        gradientUnits="userSpaceOnUse">
            <stop stop-color="#EFDFBB"/>
            <stop offset="1" stop-color="#E8C4B1"/>
        </linearGradient>
        <linearGradient id="paint29_linear_856_22766" x1="250.399" y1="68.9512" x2="250.399" y2="79.4296"
                        gradientUnits="userSpaceOnUse">
            <stop stop-color="#3F221C"/>
            <stop offset="1" stop-color="#4E4D4D"/>
        </linearGradient>
        <linearGradient id="paint30_linear_856_22766" x1="288.93" y1="57.3926" x2="288.93" y2="67.8858"
                        gradientUnits="userSpaceOnUse">
            <stop stop-color="#3F221C"/>
            <stop offset="1" stop-color="#4E4D4D"/>
        </linearGradient>
        <linearGradient id="paint31_linear_856_22766" x1="261.312" y1="47.3301" x2="261.312" y2="57.8233"
                        gradientUnits="userSpaceOnUse">
            <stop stop-color="#3F221C"/>
            <stop offset="1" stop-color="#4E4D4D"/>
        </linearGradient>
        <linearGradient id="paint32_linear_856_22766" x1="299.142" y1="56.7852" x2="299.142" y2="69.1136"
                        gradientUnits="userSpaceOnUse">
            <stop stop-color="#3F221C"/>
            <stop offset="1" stop-color="#4E4D4D"/>
        </linearGradient>
        <linearGradient id="paint33_linear_856_22766" x1="254.824" y1="65.2656" x2="254.824" y2="72.6212"
                        gradientUnits="userSpaceOnUse">
            <stop stop-color="#3F221C"/>
            <stop offset="1" stop-color="#4E4D4D"/>
        </linearGradient>
        <linearGradient id="paint34_linear_856_22766" x1="240.5" y1="157" x2="240.5" y2="195.5"
                        gradientUnits="userSpaceOnUse">
            <stop stop-color="white"/>
            <stop offset="1" stop-color="white" stop-opacity="0"/>
        </linearGradient>
        <clipPath id="clip0_856_22766">
            <rect width="33" height="9" fill="white" transform="translate(291 276.998)"/>
        </clipPath>
        <clipPath id="clip1_856_22766">
            <rect width="43" height="47" fill="white" transform="translate(60 152.998)"/>
        </clipPath>
        <clipPath id="clip2_856_22766">
            <rect width="38.48" height="113.96" fill="white" transform="translate(345.004 134.998)"/>
        </clipPath>
        <clipPath id="clip3_856_22766">
            <rect width="33" height="47.1429" fill="white" transform="translate(456.004 53)"/>
        </clipPath>
        <clipPath id="clip4_856_22766">
            <rect width="92.0333" height="120.043" fill="white" transform="translate(218 270.998)"/>
        </clipPath>
        <clipPath id="clip5_856_22766">
            <rect width="54" height="70.4348" fill="white" transform="translate(93 263.998)"/>
        </clipPath>
        <clipPath id="clip6_856_22766">
            <rect width="55.2" height="72" fill="white" transform="translate(368.004 286.998)"/>
        </clipPath>
        <clipPath id="clip7_856_22766">
            <rect width="32.2" height="42" fill="white" transform="translate(459.004 287.998)"/>
        </clipPath>
        <clipPath id="clip8_856_22766">
            <rect width="137.285" height="233.07" fill="white" transform="translate(212)"/>
        </clipPath>
    </defs>
</svg>
