<svg width="14" height="14" viewBox="0 0 14 14" fill="none" xmlns="http://www.w3.org/2000/svg">
<path fill-rule="evenodd" clip-rule="evenodd" d="M7 13.09C10.3634 13.09 13.09 10.3634 13.09 7C13.09 3.63659 10.3634 0.91 7 0.91C3.63659 0.91 0.91 3.63659 0.91 7C0.91 10.3634 3.63659 13.09 7 13.09ZM7 14C10.866 14 14 10.866 14 7C14 3.13401 10.866 0 7 0C3.13401 0 0 3.13401 0 7C0 10.866 3.13401 14 7 14Z" fill="#01AFA5"/>
<path fill-rule="evenodd" clip-rule="evenodd" d="M10.8228 4.57858C11.0005 4.75627 11.0005 5.04436 10.8228 5.22205L6.62284 9.42205C6.53322 9.51166 6.41028 9.55984 6.28364 9.55498C6.157 9.55011 6.03812 9.49265 5.95564 9.39642L3.85564 6.94642C3.6921 6.75563 3.7142 6.46839 3.90499 6.30485C4.09579 6.14131 4.38303 6.16341 4.54656 6.3542L6.3268 8.43115L10.1794 4.57858C10.3571 4.40089 10.6451 4.40089 10.8228 4.57858Z" fill="#01AFA5"/>
</svg>
