<svg width="226" height="140" viewBox="0 0 226 140" fill="none" xmlns="http://www.w3.org/2000/svg">
    <g clip-path="url(#clip0_7176_31121)">
        <mask id="mask0_7176_31121" style="mask-type:alpha" maskUnits="userSpaceOnUse" x="13" y="0" width="213"
              height="140">
            <rect x="13.999" width="212" height="140" fill="#C4C4C4"/>
        </mask>
        <g mask="url(#mask0_7176_31121)">
            <path opacity="0.8"
                  d="M175.074 6.08203L309.989 -33.9126L310.77 -4.96575L184.041 35.9409C181.784 36.738 179.37 36.9917 176.996 36.6814C174.622 36.3712 172.355 35.5057 170.378 34.1553C168.401 32.8048 166.77 31.0073 165.618 28.9087C164.466 26.8101 163.825 24.4695 163.746 22.0767C163.633 18.6162 164.701 15.2202 166.775 12.448C168.849 9.67572 172.961 6.27904 175.074 6.08203Z"
                  fill="url(#paint0_linear_7176_31121)"/>
            <path opacity="0.4"
                  d="M141.548 60.8312C139.917 61.1425 3.8431 96.1982 3.8431 96.1982L43.5819 180.488L161.693 115.428L141.548 60.8312Z"
                  fill="url(#paint1_linear_7176_31121)"/>
            <path d="M134.974 66.7267C133.623 66.986 16.6831 95.3657 16.6831 95.3657L53.5021 168.111L153.497 116.393L134.974 66.7267Z"
                  fill="url(#paint2_linear_7176_31121)"/>
            <path opacity="0.8"
                  d="M237.488 64.7886L172.327 36.771C168.549 34.5578 165.77 30.9744 164.566 26.7654C163.362 22.5563 163.825 18.0452 165.86 14.1691C167.802 10.4768 171.03 7.62521 174.934 6.15522C178.838 4.68524 183.146 4.69903 187.04 6.19399L251.425 28.1378C254.095 28.9832 256.552 30.3897 258.633 32.2629C260.714 34.1361 262.37 36.4328 263.491 38.9987C264.611 41.5646 265.17 44.3405 265.129 47.1401C265.089 49.9397 264.45 52.6983 263.256 55.2308C261.066 59.8786 257.141 63.4827 252.323 65.2696C247.506 67.0565 242.18 66.8838 237.488 64.7886Z"
                  fill="url(#paint3_linear_7176_31121)"/>
            <path d="M254.893 64.4576C258.065 62.7283 260.698 60.158 262.504 57.0292C264.311 53.9004 265.219 50.3342 265.13 46.7226C265.056 43.6655 264.271 40.6678 262.835 37.9678C261.399 35.2677 259.354 32.9398 256.861 31.1692C254.367 29.3986 251.496 28.234 248.473 27.7681C245.451 27.3023 242.362 27.5479 239.451 28.4856C203.377 40.1093 141.137 60.1871 141.716 60.173L139.849 60.816C130.555 64.1066 127.414 79.1839 132.837 94.4827C138.261 109.782 150.195 119.517 159.484 116.222C159.7 116.145 159.906 116.063 160.108 115.976L207.5 90.217L254.893 64.4576Z"
                  fill="url(#paint4_linear_7176_31121)"/>
            <path opacity="0.8"
                  d="M179.378 105.486C188.039 102.416 190.965 88.3708 185.913 74.1146C180.861 59.8583 169.743 50.7898 161.082 53.8594C152.42 56.9291 149.494 70.9744 154.546 85.2307C159.599 99.4869 170.716 108.555 179.378 105.486Z"
                  fill="url(#paint5_radial_7176_31121)"/>
            <path opacity="0.3"
                  d="M199.081 94.8113C207.057 91.9846 209.752 79.0509 205.099 65.923C200.447 52.7951 190.209 44.4443 182.233 47.271C174.257 50.0977 171.563 63.0314 176.215 76.1593C180.867 89.2872 191.105 97.638 199.081 94.8113Z"
                  fill="url(#paint6_radial_7176_31121)"/>
            <path opacity="0.5"
                  d="M229.637 78.4192C236.634 75.9398 238.996 64.5938 234.915 53.0771C230.834 41.5605 221.853 34.2343 214.857 36.7138C207.861 39.1932 205.498 50.5392 209.58 62.0559C213.661 73.5725 222.641 80.8986 229.637 78.4192Z"
                  stroke="#E1EDFF" stroke-width="0.203213" stroke-miterlimit="10"/>
            <g style="mix-blend-mode:overlay" opacity="0.8" filter="url(#filter0_f_7176_31121)">
                <path d="M223.782 52.1441L222.152 52.8036L222.188 54.3588L226.903 62.2978L229.147 61.2687L230.304 63.2428L232.77 62.2086L233.561 63.7909L243.854 58.9774L243.01 57.0406L245.211 56.1013L244.225 53.7676L246.384 52.9182L241.765 43.3766L239.214 44.5905L238.053 42.3942L235.322 43.5234L234.573 41.8512L224.375 46.9293L224.675 48.3895L224.86 48.6964L222.928 49.763L223.143 51.4029L223.782 52.1441Z"
                      fill="url(#paint7_linear_7176_31121)"/>
                <path d="M224.993 54.5832L223.041 51.3889L226.838 49.5198L228.73 52.8401L224.993 54.5832Z"
                      fill="white"/>
                <path d="M227.101 52.089L225.14 48.5358L235.061 43.7119L235.669 45.0673L235.805 45.3722L236.111 45.2378L238.59 44.1479L239.519 46.0145L239.666 46.3105L239.965 46.1684L242.218 45.0962L246.656 53.9663L244.84 54.681L244.519 54.8074L244.653 55.1252L245.509 57.15L243.616 57.9576L243.304 58.0907L243.44 58.4016L244.153 60.038L234.454 64.5739L233.809 63.2846L233.668 63.0031L233.378 63.1248L231.183 64.0451L230.176 62.3251L230.022 62.0624L229.745 62.1893L227.776 63.0924L222.673 54.517L224.652 53.6806L224.66 53.677L224.669 53.6729L226.955 52.5539L227.272 52.3984L227.101 52.089Z"
                      fill="url(#paint8_linear_7176_31121)" stroke="url(#paint9_linear_7176_31121)"
                      stroke-width="0.673016"/>
                <path d="M232.046 61.6446L226.549 52.5676L237.319 47.2097L242.646 56.6463L232.046 61.6446Z"
                      fill="#CAA356"/>
                <path d="M232.231 61.9523L226.734 52.8752L237.503 47.5173L242.831 56.9539L232.231 61.9523Z"
                      fill="#FF850B"/>
            </g>
            <g style="mix-blend-mode:overlay" opacity="0.8" filter="url(#filter1_f_7176_31121)">
                <path d="M191.812 17.2825L192.865 15.8742L192.029 14.5622L183.884 10.2129L182.497 12.2554L180.486 11.1655L178.912 13.3274L177.415 12.3838L171.103 21.8323L172.828 23.0518L171.432 24.9954L173.484 26.4807L172.077 28.3254L180.97 34.0958L182.523 31.7362L184.654 33.0136L186.405 30.6335L187.912 31.6759L194.006 22.0503L192.993 20.9565L192.676 20.7896L193.776 18.8768L192.743 17.5854L191.812 17.2825Z"
                      fill="url(#paint10_linear_7176_31121)"/>
                <path d="M189.514 15.8223L192.838 17.544L190.559 21.1093L187.22 19.2489L189.514 15.8223Z" fill="white"/>
                <path d="M189.002 19.047L192.52 21.0706L186.531 30.3354L185.309 29.4906L185.035 29.3005L184.843 29.5739L183.286 31.7902L181.525 30.6744L181.246 30.4974L181.064 30.7736L179.692 32.8576L171.301 27.5685L172.485 26.0163L172.694 25.7419L172.415 25.5396L170.634 24.2509L171.835 22.5797L172.033 22.3043L171.756 22.1086L170.298 21.0782L176.246 12.1748L177.466 12.9436L177.732 13.1114L177.917 12.857L179.318 10.9332L181.07 11.8828L181.338 12.0279L181.509 11.7759L182.726 9.98367L191.532 14.6767L190.273 16.4167L190.268 16.4243L190.262 16.4321L188.886 18.5734L188.695 18.8708L189.002 19.047Z"
                      fill="url(#paint11_linear_7176_31121)" stroke="url(#paint12_linear_7176_31121)"
                      stroke-width="0.673016"/>
                <path d="M179.823 13.4338L189.226 18.3517L182.788 28.5126L173.344 23.1993L179.823 13.4338Z"
                      fill="#CAA356"/>
                <path d="M179.505 13.2663L188.909 18.1842L182.471 28.3452L173.026 23.0318L179.505 13.2663Z"
                      fill="#FF850B"/>
                <path d="M180.567 18.1514L183.891 19.8731L181.611 23.4384L178.273 21.578L180.567 18.1514Z"
                      fill="white"/>
            </g>
            <path d="M160.028 116.177C169.324 112.883 172.464 97.8095 167.041 82.5097C161.619 67.2099 149.688 57.4775 140.393 60.7717C131.098 64.0659 127.958 79.1392 133.38 94.439C138.802 109.739 150.733 119.471 160.028 116.177Z"
                  fill="white"/>
            <path opacity="0.8"
                  d="M159.58 116.39C168.876 113.096 172.015 98.0229 166.593 82.7231C161.171 67.4233 149.24 57.6908 139.945 60.985C130.65 64.2792 127.51 79.3526 132.932 94.6524C138.354 109.952 150.285 119.685 159.58 116.39Z"
                  fill="url(#paint13_radial_7176_31121)" fill-opacity="0.8"/>
            <path opacity="0.68"
                  d="M158.209 112.519C166.204 109.685 168.904 96.7194 164.24 83.5586C159.576 70.3977 149.314 62.0256 141.319 64.859C133.324 67.6924 130.624 80.6583 135.288 93.8191C139.952 106.98 150.214 115.352 158.209 112.519Z"
                  fill="url(#paint14_linear_7176_31121)"/>
            <path d="M166.173 91.5417C165.935 99.0479 162.988 105.013 157.872 106.826C149.879 109.659 139.631 101.29 134.952 88.128C134.028 85.5352 133.373 82.8543 132.996 80.1275C132.902 84.7861 133.67 89.422 135.262 93.8012C139.928 106.964 150.189 115.333 158.182 112.499C164.537 110.262 167.541 101.616 166.173 91.5417Z"
                  fill="url(#paint15_linear_7176_31121)"/>
            <path d="M212.065 87.5542C213.106 86.854 214.053 86.0251 214.883 85.0877C215.912 83.9237 217.706 81.5103 218.66 76.2668C219.356 72.4587 220.482 66.2784 217.595 59.0513C217.595 59.0513 213.81 49.5476 204.755 44.7869C202.174 43.4332 199.338 42.6251 196.425 42.4138C195.53 42.4188 194.582 42.501 194.582 42.501C193.78 42.5716 193.096 42.6739 192.582 42.7636L171.163 49.344L169.241 51.2595C171.9 51.1405 174.558 51.4887 177.093 52.288C183.47 54.3195 187.061 58.7087 189.626 61.8305C193.369 66.3916 195.979 71.7599 197.246 77.5038C199.276 87.1513 196.575 94.2788 196.308 94.912C195.701 96.3406 195.541 96.6282 195.541 96.6282L212.065 87.5542Z"
                  fill="url(#paint16_linear_7176_31121)"/>
            <path d="M224.287 25.7882C224.517 25.7826 224.698 25.5918 224.693 25.3621C224.687 25.1323 224.496 24.9506 224.267 24.9562C224.037 24.9618 223.855 25.1526 223.861 25.3823C223.866 25.6121 224.057 25.7938 224.287 25.7882Z"
                  fill="#B8CBF6"/>
            <path d="M222.996 38.0719C223.226 38.0663 223.407 37.8755 223.402 37.6457C223.396 37.416 223.205 37.2343 222.976 37.2399C222.746 37.2455 222.564 37.4362 222.57 37.666C222.575 37.8957 222.766 38.0775 222.996 38.0719Z"
                  fill="#B8CBF6"/>
            <path opacity="0.8" d="M217.193 8.69196L256.288 -4.10927" stroke="url(#paint17_linear_7176_31121)"
                  stroke-width="0.203213" stroke-miterlimit="10"/>
            <path d="M217.268 52.6996L254.948 36.1912" stroke="url(#paint18_linear_7176_31121)" stroke-width="0.203213"
                  stroke-miterlimit="10"/>
            <path d="M172.391 82.7679L210.684 67.7358" stroke="url(#paint19_linear_7176_31121)" stroke-width="0.203213"
                  stroke-miterlimit="10"/>
            <path d="M226.229 28.7663L191.128 18.1787" stroke="url(#paint20_linear_7176_31121)" stroke-width="0.203213"
                  stroke-miterlimit="10"/>
            <path d="M200.751 32.3143L167.812 22.0581" stroke="url(#paint21_linear_7176_31121)" stroke-width="0.203213"
                  stroke-miterlimit="10"/>
            <g filter="url(#filter2_f_7176_31121)">
                <path d="M233.568 76.055L157.932 116.686L169.169 102.846L233.568 76.055Z"
                      fill="url(#paint22_linear_7176_31121)"/>
            </g>
            <g filter="url(#filter3_f_7176_31121)">
                <path d="M17.2609 93.1777L138.222 62.3258L132.378 70.4273L17.2609 93.1777Z"
                      fill="url(#paint23_linear_7176_31121)"/>
            </g>
            <circle opacity="0.8" cx="105.232" cy="32.7954" r="2.65371" transform="rotate(-5.32462 105.232 32.7954)"
                    fill="#8DC1FF"/>
            <circle r="1.06148" transform="matrix(0.995685 -0.0927984 -0.0927984 -0.995685 123.116 31.8641)"
                    fill="#8BD8FF"/>
            <circle r="1.06148" transform="matrix(0.995685 -0.0927984 -0.0927984 -0.995685 46.5736 58.0633)"
                    fill="#8BD8FF"/>
            <path d="M104.2 87.5544L106.913 86.6536L107.017 84.1268L100.191 70.757L96.4436 72.1937L94.7724 68.8708L90.6643 70.2927L89.5439 67.6433L72.3449 74.3841L73.5137 77.6141L69.8446 78.9094L71.2033 82.798L67.6124 83.952L74.1149 99.9118L78.3793 98.2071L80.0356 101.891L84.5829 100.342L85.6251 103.133L102.698 95.9534L102.362 93.5532L102.094 93.036L105.339 91.5062L105.16 88.8232L104.2 87.5544Z"
                  fill="#E1A304"/>
            <path d="M102.49 83.4714L105.325 88.8563L98.9712 91.4946L96.2461 85.9114L102.49 83.4714Z" fill="white"/>
            <path d="M99.0011 87.2082L101.909 93.3771L84.9058 100.34L83.985 97.874L83.8681 97.561L83.5543 97.6757L79.2304 99.2555L77.8398 95.9456L77.7117 95.6407L77.4046 95.7634L73.4466 97.3457L66.9963 82.0919L70.2369 81.0505L70.5654 80.9449L70.4516 80.6192L69.2036 77.0472L72.5564 75.8635L72.8762 75.7506L72.7608 75.4317L71.7035 72.51L88.2923 66.0083L89.285 68.3559L89.4076 68.6458L89.705 68.5429L93.5348 67.2173L95.0736 70.2771L95.2104 70.5491L95.4947 70.4401L98.9595 69.1116L106.544 83.9375L103.02 85.1688L103.011 85.1719L103.002 85.1754L99.1771 86.7536L98.8504 86.8884L99.0011 87.2082Z"
                  fill="url(#paint24_linear_7176_31121)" stroke="url(#paint25_linear_7176_31121)"
                  stroke-width="0.673016"/>
            <path d="M91.78 71.2809L99.7561 86.5782L81.7273 94.1527L74.0637 78.2897L91.78 71.2809Z" fill="#CAA356"/>
            <path d="M91.5134 70.7638L99.4895 86.0611L81.4607 93.6356L73.7971 77.7726L91.5134 70.7638Z" fill="#FF850B"/>
            <path d="M88.3887 78.2668L91.2233 83.6517L84.8696 86.29L82.1445 80.7068L88.3887 78.2668Z" fill="white"/>
            <path d="M141.057 125.771L142.251 124.565L141.627 123.199L134.418 117.956L132.821 119.724L131.042 118.414L129.25 120.271L127.944 119.17L120.651 127.363L122.138 128.759L120.544 130.431L122.309 132.125L120.718 133.701L128.452 140.403L130.251 138.353L132.119 139.858L134.11 137.816L135.412 139.013L142.52 130.622L141.697 129.441L141.416 129.239L142.723 127.557L141.907 126.184L141.057 125.771Z"
                  fill="#E1A304"/>
            <path d="M139.055 124.069L142.004 126.158L139.349 129.263L136.405 127.04L139.055 124.069Z" fill="white"/>
            <path d="M138.128 127.094L141.213 129.49L134.269 137.532L133.222 136.57L132.976 136.344L132.748 136.588L130.973 138.492L129.446 137.198L129.194 136.984L128.975 137.232L127.394 139.033L120.094 132.875L121.423 131.557L121.669 131.314L121.42 131.075L119.897 129.614L121.26 128.185L121.494 127.939L121.246 127.707L119.998 126.536L126.855 118.832L127.911 119.722L128.151 119.925L128.37 119.699L129.958 118.053L131.499 119.188L131.744 119.369L131.948 119.143L133.343 117.599L141.119 123.245L139.692 124.731L139.686 124.738L139.68 124.745L138.079 126.609L137.849 126.877L138.128 127.094Z"
                  fill="url(#paint26_linear_7176_31121)" stroke="url(#paint27_linear_7176_31121)"
                  stroke-width="0.673016"/>
            <path d="M130.106 120.495L138.442 126.449L130.933 135.307L122.611 128.969L130.106 120.495Z" fill="#CAA356"/>
            <path d="M129.827 120.293L138.163 126.247L130.654 135.105L122.332 128.767L129.827 120.293Z" fill="#FF850B"/>
            <path d="M130.189 125.105L133.137 127.194L130.483 130.299L127.539 128.076L130.189 125.105Z" fill="white"/>
            <path d="M160.231 89.0914L161.874 88.6665L162.037 87.1737L158.529 78.9791L156.251 79.68L155.394 77.6444L152.904 78.322L152.346 76.7074L141.886 80.0112L142.449 81.9717L140.224 82.5919L140.873 84.9502L138.699 85.4898L141.911 95.2059L144.506 94.367L145.339 96.6159L148.096 95.8809L148.601 97.5761L159.003 94.0071L158.901 92.5717L158.763 92.2545L160.747 91.4783L160.748 89.8816L160.231 89.0914Z"
                  fill="#E1A304"/>
            <path d="M159.382 86.6033L160.846 89.9073L156.976 91.2155L155.585 87.7985L159.382 86.6033Z" fill="white"/>
            <path d="M157.037 88.7275L158.46 92.3648L148.377 95.7178L147.971 94.3553L147.876 94.0351L147.555 94.1283L145.055 94.8545L144.406 92.9611L144.299 92.6483L143.984 92.75L141.703 93.4875L138.586 84.4597L140.403 84.0087L140.738 83.9256L140.646 83.5928L140.086 81.558L141.989 81.0277L142.315 80.9367L142.222 80.6107L141.749 78.9653L151.584 75.8589L152.035 77.1638L152.137 77.4613L152.441 77.3786L154.648 76.7783L155.39 78.5425L155.508 78.8231L155.799 78.7336L157.788 78.1216L161.577 86.9523L159.59 87.4989L159.581 87.5013L159.573 87.5043L157.243 88.2859L156.908 88.3983L157.037 88.7275Z"
                  fill="url(#paint28_linear_7176_31121)" stroke="url(#paint29_linear_7176_31121)"
                  stroke-width="0.673016"/>
            <path d="M153.525 78.9518L157.637 88.3344L146.652 92.0988L142.748 82.3936L153.525 78.9518Z" fill="#CAA356"/>
            <path d="M153.387 78.6349L157.499 88.0175L146.514 91.7819L142.61 82.0767L153.387 78.6349Z" fill="#FF850B"/>
            <path d="M151.236 82.9539L152.699 86.2579L148.829 87.5661L147.439 84.1491L151.236 82.9539Z" fill="white"/>
            <path d="M147.076 43.5103L147.239 44.1404L147.811 44.2027L150.953 42.8573L150.684 41.984L151.464 41.6554L151.204 40.7004L151.823 40.4866L150.556 36.4763L149.804 36.6922L149.566 35.8389L148.662 36.0879L148.455 35.2545L144.73 36.4867L145.052 37.4816L144.19 37.8013L144.472 38.858L143.822 39.0519L145.191 43.0402L145.741 43.0009L145.863 42.9479L146.16 43.7085L146.773 43.709L147.076 43.5103Z"
                  fill="#E1A304"/>
            <path d="M148.029 43.184L146.763 43.7453L146.261 42.2616L147.571 41.7282L148.029 43.184Z" fill="white"/>
            <path d="M147.139 42.0924L145.948 42.5586L144.799 39.1035L145.116 39.0088L145.436 38.9133L145.343 38.5925L145.12 37.824L145.658 37.6393L145.971 37.532L145.869 37.2174L145.649 36.5365L148.704 35.4813L148.822 35.9576L148.905 36.2925L149.238 36.2009L149.819 36.041L149.967 36.5712L150.058 36.8979L150.384 36.8042L150.82 36.6788L151.89 40.0641L151.581 40.1709L151.283 40.2737L151.366 40.5774L151.549 41.2482L151.04 41.4625L150.759 41.5806L150.849 41.8716L151.028 42.4559L148.033 43.7416L147.886 43.2096L147.884 43.2006L147.881 43.1918L147.581 42.2987L147.469 41.9636L147.139 42.0924Z"
                  fill="url(#paint30_linear_7176_31121)" stroke="url(#paint31_linear_7176_31121)"
                  stroke-width="0.673016"/>
            <path d="M150.963 40.939L147.366 42.5161L145.922 38.3046L149.643 36.8071L150.963 40.939Z" fill="#CAA356"/>
            <path d="M151.084 40.8858L147.487 42.4629L146.043 38.2513L149.764 36.7539L151.084 40.8858Z" fill="#FF850B"/>
            <path d="M149.429 40.0615L148.162 40.6228L147.66 39.139L148.97 38.6056L149.429 40.0615Z" fill="white"/>
        </g>
    </g>
    <defs>
        <filter id="filter0_f_7176_31121" x="221.311" y="41.0098" width="26.6523" height="24.849"
                filterUnits="userSpaceOnUse" color-interpolation-filters="sRGB">
            <feFlood flood-opacity="0" result="BackgroundImageFix"/>
            <feBlend mode="normal" in="SourceGraphic" in2="BackgroundImageFix" result="shape"/>
            <feGaussianBlur stdDeviation="0.420635" result="effect1_foregroundBlur_7176_31121"/>
        </filter>
        <filter id="filter1_f_7176_31121" x="168.995" y="8.70316" width="25.8525" height="26.2338"
                filterUnits="userSpaceOnUse" color-interpolation-filters="sRGB">
            <feFlood flood-opacity="0" result="BackgroundImageFix"/>
            <feBlend mode="normal" in="SourceGraphic" in2="BackgroundImageFix" result="shape"/>
            <feGaussianBlur stdDeviation="0.420635" result="effect1_foregroundBlur_7176_31121"/>
        </filter>
        <filter id="filter2_f_7176_31121" x="154.274" y="72.3973" width="82.9524" height="47.9465"
                filterUnits="userSpaceOnUse" color-interpolation-filters="sRGB">
            <feFlood flood-opacity="0" result="BackgroundImageFix"/>
            <feBlend mode="normal" in="SourceGraphic" in2="BackgroundImageFix" result="shape"/>
            <feGaussianBlur stdDeviation="1.82892" result="effect1_foregroundBlur_7176_31121"/>
        </filter>
        <filter id="filter3_f_7176_31121" x="13.6029" y="58.6678" width="128.277" height="38.1677"
                filterUnits="userSpaceOnUse" color-interpolation-filters="sRGB">
            <feFlood flood-opacity="0" result="BackgroundImageFix"/>
            <feBlend mode="normal" in="SourceGraphic" in2="BackgroundImageFix" result="shape"/>
            <feGaussianBlur stdDeviation="1.82892" result="effect1_foregroundBlur_7176_31121"/>
        </filter>
        <linearGradient id="paint0_linear_7176_31121" x1="162.703" y1="21.6272" x2="292.304" y2="-3.02844"
                        gradientUnits="userSpaceOnUse">
            <stop stop-color="#2284FF"/>
            <stop offset="1" stop-color="#C8E1FF" stop-opacity="0"/>
        </linearGradient>
        <linearGradient id="paint1_linear_7176_31121" x1="46.4465" y1="124.412" x2="208.686" y2="69.3126"
                        gradientUnits="userSpaceOnUse">
            <stop stop-color="#7CE6FF" stop-opacity="0"/>
            <stop offset="1" stop-color="#0235EB"/>
        </linearGradient>
        <linearGradient id="paint2_linear_7176_31121" x1="102.143" y1="103.53" x2="151.005" y2="87.9965"
                        gradientUnits="userSpaceOnUse">
            <stop offset="0.00520833" stop-color="#7CE6FF" stop-opacity="0"/>
            <stop offset="1" stop-color="#64ECFF"/>
        </linearGradient>
        <linearGradient id="paint3_linear_7176_31121" x1="160.354" y1="19.7138" x2="257.811" y2="42.7803"
                        gradientUnits="userSpaceOnUse">
            <stop stop-color="#2085FF"/>
            <stop offset="1" stop-color="#46C8FF"/>
        </linearGradient>
        <linearGradient id="paint4_linear_7176_31121" x1="161.343" y1="84.6527" x2="252.635" y2="28.803"
                        gradientUnits="userSpaceOnUse">
            <stop stop-color="#0093FD"/>
            <stop offset="1" stop-color="#2483FF" stop-opacity="0.62"/>
        </linearGradient>
        <radialGradient id="paint5_radial_7176_31121" cx="0" cy="0" r="1" gradientUnits="userSpaceOnUse"
                        gradientTransform="translate(170.227 79.6714) rotate(-1.39401) scale(22.662)">
            <stop stop-color="#ABC9F0"/>
            <stop offset="1" stop-color="#0064FF"/>
        </radialGradient>
        <radialGradient id="paint6_radial_7176_31121" cx="0" cy="0" r="1" gradientUnits="userSpaceOnUse"
                        gradientTransform="translate(190.657 71.0403) rotate(-1.39401) scale(20.87)">
            <stop stop-color="#39A3E7"/>
            <stop offset="0.32" stop-color="#2466F0"/>
            <stop offset="0.63" stop-color="#102FF8"/>
            <stop offset="0.87" stop-color="#050DFD"/>
            <stop offset="1" stop-color="#0000FF"/>
        </radialGradient>
        <linearGradient id="paint7_linear_7176_31121" x1="224.049" y1="47.3759" x2="246.432" y2="53.5501"
                        gradientUnits="userSpaceOnUse">
            <stop stop-color="#FFC04D"/>
            <stop offset="1" stop-color="#FF9B1C"/>
        </linearGradient>
        <linearGradient id="paint8_linear_7176_31121" x1="231.816" y1="42.4181" x2="240.967" y2="62.779"
                        gradientUnits="userSpaceOnUse">
            <stop stop-color="#FFEE8C"/>
            <stop offset="0.494237" stop-color="#FFC129"/>
            <stop offset="1" stop-color="#FFF4DD"/>
        </linearGradient>
        <linearGradient id="paint9_linear_7176_31121" x1="232.338" y1="42.6548" x2="248.223" y2="52.07"
                        gradientUnits="userSpaceOnUse">
            <stop stop-color="#FFECA7"/>
            <stop offset="1" stop-color="white" stop-opacity="0.35"/>
        </linearGradient>
        <linearGradient id="paint10_linear_7176_31121" x1="194.054" y1="21.4994" x2="171.708" y2="27.8101"
                        gradientUnits="userSpaceOnUse">
            <stop stop-color="#FFC04D"/>
            <stop offset="1" stop-color="#FF9B1C"/>
        </linearGradient>
        <linearGradient id="paint11_linear_7176_31121" x1="189.977" y1="29.7614" x2="171.604" y2="17.0832"
                        gradientUnits="userSpaceOnUse">
            <stop stop-color="#FFEE8C"/>
            <stop offset="0.494237" stop-color="#FFC129"/>
            <stop offset="1" stop-color="#FFF4DD"/>
        </linearGradient>
        <linearGradient id="paint12_linear_7176_31121" x1="189.408" y1="29.8296" x2="170.943" y2="30.0021"
                        gradientUnits="userSpaceOnUse">
            <stop stop-color="#FFECA7"/>
            <stop offset="1" stop-color="white" stop-opacity="0.35"/>
        </linearGradient>
        <radialGradient id="paint13_radial_7176_31121" cx="0" cy="0" r="1" gradientUnits="userSpaceOnUse"
                        gradientTransform="translate(149.945 91.0449) rotate(-107.113) scale(31.1751 18.0097)">
            <stop stop-color="white" stop-opacity="0"/>
            <stop offset="1" stop-color="#5CD8FF"/>
        </radialGradient>
        <linearGradient id="paint14_linear_7176_31121" x1="156.494" y1="106.96" x2="143.305" y2="65.546"
                        gradientUnits="userSpaceOnUse">
            <stop stop-color="#0075FF"/>
            <stop offset="0.505208" stop-color="#14ABFF"/>
            <stop offset="1" stop-color="#28FFFF"/>
        </linearGradient>
        <linearGradient id="paint15_linear_7176_31121" x1="150.743" y1="82.4422" x2="155.904" y2="112.078"
                        gradientUnits="userSpaceOnUse">
            <stop stop-color="#58B2FF"/>
            <stop offset="1" stop-color="#2885F3"/>
        </linearGradient>
        <linearGradient id="paint16_linear_7176_31121" x1="188.931" y1="44.4529" x2="200.222" y2="90.7944"
                        gradientUnits="userSpaceOnUse">
            <stop offset="0.00520833" stop-color="#E4F5FF"/>
            <stop offset="0.239583" stop-color="#4DBFFF"/>
            <stop offset="0.411458" stop-color="#2697FF"/>
            <stop offset="0.984375" stop-color="#1445C4"/>
        </linearGradient>
        <linearGradient id="paint17_linear_7176_31121" x1="217.197" y1="8.81157" x2="268.283" y2="-4.48934"
                        gradientUnits="userSpaceOnUse">
            <stop stop-color="#E1EDFF"/>
            <stop offset="1" stop-color="#E1EDFF" stop-opacity="0"/>
        </linearGradient>
        <linearGradient id="paint18_linear_7176_31121" x1="217.284" y1="52.8183" x2="249.256" y2="39.145"
                        gradientUnits="userSpaceOnUse">
            <stop stop-color="#E1EDFF"/>
            <stop offset="1" stop-color="#E1EDFF" stop-opacity="0"/>
        </linearGradient>
        <linearGradient id="paint19_linear_7176_31121" x1="172.402" y1="82.8871" x2="194.522" y2="74.7219"
                        gradientUnits="userSpaceOnUse">
            <stop stop-color="#E1EDFF"/>
            <stop offset="1" stop-color="#E1EDFF" stop-opacity="0"/>
        </linearGradient>
        <linearGradient id="paint20_linear_7176_31121" x1="192.422" y1="32.0607" x2="236.898" y2="20.4709"
                        gradientUnits="userSpaceOnUse">
            <stop stop-color="#E1EDFF" stop-opacity="0"/>
            <stop offset="1" stop-color="#E1EDFF"/>
        </linearGradient>
        <linearGradient id="paint21_linear_7176_31121" x1="169.057" y1="35.4062" x2="210.822" y2="24.6999"
                        gradientUnits="userSpaceOnUse">
            <stop stop-color="#E1EDFF" stop-opacity="0"/>
            <stop offset="1" stop-color="#E1EDFF"/>
        </linearGradient>
        <linearGradient id="paint22_linear_7176_31121" x1="196.61" y1="94.1582" x2="194.028" y2="89.3349"
                        gradientUnits="userSpaceOnUse">
            <stop stop-color="#0057DA"/>
            <stop offset="1" stop-color="#3F91F9" stop-opacity="0"/>
        </linearGradient>
        <linearGradient id="paint23_linear_7176_31121" x1="17.3439" y1="94.2359" x2="148.434" y2="51.5617"
                        gradientUnits="userSpaceOnUse">
            <stop stop-color="white" stop-opacity="0"/>
            <stop offset="1" stop-color="#9EDCFF"/>
        </linearGradient>
        <linearGradient id="paint24_linear_7176_31121" x1="90.1582" y1="102.499" x2="77.4254" y2="68.5149"
                        gradientUnits="userSpaceOnUse">
            <stop stop-color="#FFEE8C"/>
            <stop offset="0.494237" stop-color="#FFC129"/>
            <stop offset="1" stop-color="#FFF4DD"/>
        </linearGradient>
        <linearGradient id="paint25_linear_7176_31121" x1="89.3348" y1="102.06" x2="64.5412" y2="85.1359"
                        gradientUnits="userSpaceOnUse">
            <stop stop-color="#FFECA7"/>
            <stop offset="1" stop-color="white" stop-opacity="0.35"/>
        </linearGradient>
        <linearGradient id="paint26_linear_7176_31121" x1="137.641" y1="137.459" x2="121.763" y2="122.891"
                        gradientUnits="userSpaceOnUse">
            <stop stop-color="#FFEE8C"/>
            <stop offset="0.494237" stop-color="#FFC129"/>
            <stop offset="1" stop-color="#FFF4DD"/>
        </linearGradient>
        <linearGradient id="paint27_linear_7176_31121" x1="137.087" y1="137.448" x2="119.41" y2="135.154"
                        gradientUnits="userSpaceOnUse">
            <stop stop-color="#FFECA7"/>
            <stop offset="1" stop-color="white" stop-opacity="0.35"/>
        </linearGradient>
        <linearGradient id="paint28_linear_7176_31121" x1="151.312" y1="97.3817" x2="145.131" y2="76.7377"
                        gradientUnits="userSpaceOnUse">
            <stop stop-color="#FFEE8C"/>
            <stop offset="0.494237" stop-color="#FFC129"/>
            <stop offset="1" stop-color="#FFF4DD"/>
        </linearGradient>
        <linearGradient id="paint29_linear_7176_31121" x1="150.842" y1="97.089" x2="136.832" y2="86.0679"
                        gradientUnits="userSpaceOnUse">
            <stop stop-color="#FFECA7"/>
            <stop offset="1" stop-color="white" stop-opacity="0.35"/>
        </linearGradient>
        <linearGradient id="paint30_linear_7176_31121" x1="143.897" y1="40.0911" x2="151.811" y2="37.7202"
                        gradientUnits="userSpaceOnUse">
            <stop stop-color="#FFEE8C"/>
            <stop offset="0.494237" stop-color="#FFC129"/>
            <stop offset="1" stop-color="#FFF4DD"/>
        </linearGradient>
        <linearGradient id="paint31_linear_7176_31121" x1="144.009" y1="39.9108" x2="148.234" y2="34.5385"
                        gradientUnits="userSpaceOnUse">
            <stop stop-color="#FFECA7"/>
            <stop offset="1" stop-color="white" stop-opacity="0.35"/>
        </linearGradient>
        <clipPath id="clip0_7176_31121">
            <rect width="226" height="140" fill="white"/>
        </clipPath>
    </defs>
</svg>
