<svg width="1440" height="320" viewBox="0 0 1440 320" fill="none" xmlns="http://www.w3.org/2000/svg">
    <g clip-path="url(#clip0_5779_30886)">
        <rect width="1440" height="320" fill="url(#paint0_linear_5779_30886)"/>
        <rect opacity="0.1" width="388.571" height="130.762"
              transform="matrix(-0.707107 -0.707107 -0.707107 0.707107 697.224 159.761)"
              fill="url(#paint1_linear_5779_30886)"/>
        <rect opacity="0.1" x="143" y="-2.50781" width="210" height="573.319" transform="rotate(-45 143 -2.50781)"
              fill="url(#paint2_linear_5779_30886)"/>
        <mask id="mask0_5779_30886" style="mask-type:alpha" maskUnits="userSpaceOnUse" x="654" y="-37" width="567"
              height="378">
            <rect x="654" y="-37" width="567" height="378" fill="#C4C4C4"/>
        </mask>
        <g mask="url(#mask0_5779_30886)">
            <path opacity="0.8"
                  d="M957.389 41.4676L1208.95 -6.93021L1205.21 45.6537L968.309 97.1637C964.077 98.2051 959.658 98.2343 955.413 97.2488C951.167 96.2634 947.214 94.291 943.873 91.4917C940.532 88.6924 937.898 85.145 936.185 81.1374C934.472 77.1297 933.728 72.7747 934.012 68.4255C934.423 62.1357 936.964 56.1735 941.217 51.5208C945.469 46.8682 953.524 41.4475 957.389 41.4676Z"
                  fill="url(#paint3_linear_5779_30886)"/>
            <path opacity="0.4"
                  d="M886.881 134.681C883.871 134.954 631.087 174.197 631.087 174.197L688.05 333.996L913.642 237.191L886.881 134.681Z"
                  fill="url(#paint4_linear_5779_30886)"/>
            <path d="M873.92 144.189C871.425 144.418 654.497 174.978 654.497 174.978L708.23 313.342L898.62 237.477L873.92 144.189Z"
                  fill="url(#paint5_linear_5779_30886)"/>
            <path opacity="0.8"
                  d="M1060 158.962L946.936 96.5787C940.487 91.8952 936.091 84.9073 934.66 77.0668C933.229 69.2263 934.873 61.1359 939.252 54.4763C943.428 48.133 949.786 43.5426 957.121 41.5756C964.456 39.6086 972.258 40.4019 979.047 43.805L1091.78 95.0452C1096.47 97.0529 1100.67 100.039 1104.11 103.804C1107.54 107.569 1110.13 112.026 1111.71 116.874C1113.28 121.723 1113.8 126.852 1113.22 131.917C1112.65 136.982 1111 141.866 1108.39 146.241C1103.59 154.271 1095.83 160.101 1086.79 162.479C1077.74 164.857 1068.12 163.594 1060 158.962Z"
                  fill="url(#paint6_linear_5779_30886)"/>
            <path d="M1091.59 161.466C1097.64 158.899 1102.87 154.712 1106.7 149.365C1110.53 144.019 1112.81 137.72 1113.3 131.161C1113.71 125.609 1112.82 120.038 1110.7 114.89C1108.58 109.742 1105.29 105.159 1101.09 101.507C1096.89 97.8542 1091.89 95.2321 1086.5 93.8491C1081.11 92.466 1075.47 92.36 1070.03 93.5397C1002.6 108.165 886.252 133.44 887.303 133.518L883.805 134.35C866.379 138.654 857.999 165.41 865.097 194.095C872.195 222.78 892.079 242.548 909.498 238.235C909.902 238.132 910.29 238.021 910.671 237.9L1001.13 199.683L1091.59 161.466Z"
                  fill="url(#paint7_linear_5779_30886)"/>
            <path opacity="0.8"
                  d="M947.455 222.33C963.695 218.313 971.501 193.389 964.89 166.659C958.28 139.929 939.755 121.516 923.515 125.533C907.275 129.549 899.469 154.474 906.079 181.204C912.69 207.934 931.215 226.347 947.455 222.33Z"
                  fill="url(#paint8_radial_5779_30886)"/>
            <path opacity="0.3"
                  d="M985.055 206.506C1000.01 202.807 1007.2 179.855 1001.11 155.24C995.023 130.626 977.964 113.671 963.009 117.369C948.055 121.068 940.866 144.02 946.954 168.635C953.041 193.249 970.1 210.204 985.055 206.506Z"
                  fill="url(#paint9_radial_5779_30886)"/>
            <path opacity="0.5"
                  d="M1043.34 182.256C1056.46 179.012 1062.76 158.877 1057.42 137.284C1052.08 115.691 1037.12 100.816 1024 104.06C1010.88 107.305 1004.58 127.439 1009.92 149.033C1015.26 170.626 1030.22 185.501 1043.34 182.256Z"
                  stroke="#E1EDFF" stroke-width="0.48311" stroke-miterlimit="10"/>
            <g style="mix-blend-mode:overlay" opacity="0.8" filter="url(#filter0_f_5779_30886)">
                <path d="M1037.42 133.607L1034.35 134.511L1034.13 137.335L1041.26 152.56L1045.51 151.095L1047.25 154.878L1051.91 153.444L1053.06 156.453L1072.57 149.567L1071.38 145.908L1075.54 144.599L1074.17 140.195L1078.23 139.041L1071.56 120.93L1066.72 122.674L1065.01 118.488L1059.86 120.047L1058.8 116.883L1039.42 124.265L1039.71 126.964L1039.99 127.553L1036.3 129.141L1036.39 132.15L1037.42 133.607Z"
                      fill="url(#paint10_linear_5779_30886)"/>
                <path d="M1039.18 138.242L1036.21 132.107L1043.42 129.397L1046.26 135.75L1039.18 138.242Z"
                      fill="white"/>
                <path d="M1043.61 134.026L1040.77 127.42L1059.24 120.586L1060.04 122.966L1060.29 123.72L1061.04 123.473L1065.56 121.996L1066.85 125.376L1067.13 126.111L1067.87 125.844L1071.97 124.366L1078.29 140.865L1075.06 141.78L1074.28 142.004L1074.52 142.787L1075.65 146.43L1072.26 147.5L1071.49 147.742L1071.74 148.509L1072.68 151.427L1054.64 157.794L1053.77 155.513L1053.5 154.815L1052.79 155.035L1048.81 156.263L1047.36 153.116L1047.05 152.458L1046.37 152.694L1042.8 153.924L1035.25 137.825L1038.77 136.726L1038.8 136.719L1038.82 136.712L1043.16 135.092L1043.95 134.798L1043.61 134.026Z"
                      fill="url(#paint11_linear_5779_30886)" stroke="url(#paint12_linear_5779_30886)"
                      stroke-width="1.6"/>
                <path d="M1050.7 152.295L1042.36 134.869L1062.82 127.083L1070.79 145.13L1050.7 152.295Z"
                      fill="#CAA356"/>
                <path d="M1050.97 152.885L1042.63 135.459L1063.1 127.673L1071.07 145.72L1050.97 152.885Z"
                      fill="#FF850B"/>
                <path d="M1054.76 144.607L1051.79 138.472L1059 135.763L1061.84 142.116L1054.76 144.607Z" fill="white"/>
            </g>
            <g style="mix-blend-mode:overlay" opacity="0.8" filter="url(#filter1_f_5779_30886)">
                <path d="M985.715 64.746L987.874 62.3822L986.593 59.8562L972.612 50.5237L969.735 53.9768L966.285 51.6434L963.048 55.2795L960.505 53.303L947.383 69.2955L950.292 71.8127L947.415 75.0849L950.869 78.142L947.991 81.2333L963.073 93.2738L966.308 89.2759L969.941 91.9701L973.538 87.9703L976.082 90.1277L988.84 73.7754L987.2 71.6131L986.655 71.2542L988.989 67.9849L987.347 65.4608L985.715 64.746Z"
                      fill="url(#paint13_linear_5779_30886)"/>
                <path d="M981.812 61.6908L987.527 65.403L982.761 71.4557L977.044 67.4898L981.812 61.6908Z"
                      fill="white"/>
                <path d="M980.199 67.5955L986.052 71.7746L973.792 87.1863L971.877 85.5627L971.271 85.0491L970.753 85.6513L967.655 89.2536L964.804 87.0279L964.184 86.5441L963.69 87.1552L960.948 90.5434L946.996 79.7027L949.278 77.2516L949.837 76.6511L949.223 76.1074L946.366 73.5788L948.716 70.9054L949.249 70.2999L948.639 69.7723L946.32 67.765L958.453 52.9772L960.381 54.4756L960.972 54.9347L961.47 54.3759L964.241 51.2629L967.111 53.2039L967.711 53.6095L968.174 53.0533L970.59 50.1525L985.389 60.0132L982.94 62.7802L982.925 62.7967L982.912 62.814L980.036 66.4481L979.515 67.1072L980.199 67.5955Z"
                      fill="url(#paint14_linear_5779_30886)" stroke="url(#paint15_linear_5779_30886)"
                      stroke-width="1.6"/>
                <path d="M964.678 55.6356L980.838 66.2228L967.362 83.4837L951.198 72.1728L964.678 55.6356Z"
                      fill="#CAA356"/>
                <path d="M964.135 55.2757L980.294 65.863L966.818 83.1238L950.655 71.8129L964.135 55.2757Z"
                      fill="#FF850B"/>
                <path d="M965.184 64.3168L970.899 68.029L966.133 74.0817L960.417 70.1158L965.184 64.3168Z"
                      fill="white"/>
            </g>
            <path d="M910.492 238.249C927.92 233.939 936.297 207.189 929.202 178.503C922.107 149.817 902.227 130.056 884.799 134.366C867.371 138.677 858.994 165.426 866.089 194.112C873.184 222.799 893.063 242.56 910.492 238.249Z"
                  fill="white"/>
            <path opacity="0.8"
                  d="M909.642 238.557C927.07 234.246 935.447 207.497 928.353 178.811C921.258 150.124 901.378 130.363 883.95 134.674C866.521 138.984 858.144 165.734 865.239 194.42C872.334 223.106 892.214 242.867 909.642 238.557Z"
                  fill="url(#paint16_radial_5779_30886)" fill-opacity="0.8"/>
            <path opacity="0.68"
                  d="M907.847 231.296C922.837 227.589 930.041 204.579 923.939 179.903C917.836 155.227 900.736 138.229 885.746 141.936C870.756 145.643 863.551 168.653 869.654 193.329C875.757 218.005 892.856 235.004 907.847 231.296Z"
                  fill="url(#paint17_linear_5779_30886)"/>
            <path d="M926.017 194.712C924.247 208.269 917.845 218.551 908.252 220.923C893.266 224.631 876.192 207.641 870.062 182.959C868.85 178.097 868.141 173.123 867.946 168.115C866.944 176.539 867.509 185.075 869.612 193.293C875.717 217.973 892.816 234.965 907.802 231.257C919.715 228.338 926.699 213.209 926.017 194.712Z"
                  fill="url(#paint18_linear_5779_30886)"/>
            <path d="M1009.87 195.674C1011.89 194.591 1013.75 193.258 1015.42 191.708C1017.49 189.782 1021.17 185.73 1023.84 176.4C1025.78 169.625 1028.92 158.628 1024.98 145.02C1024.98 145.02 1019.81 127.126 1004.26 116.886C999.825 113.973 994.83 112.003 989.59 111.101C987.967 110.95 986.235 110.93 986.235 110.93C984.769 110.915 983.513 110.979 982.566 111.049L942.585 119.151L938.762 122.279C943.6 122.538 948.354 123.642 952.804 125.543C963.995 130.361 969.718 138.953 973.808 145.067C979.777 153.998 983.548 164.189 984.819 174.822C986.777 192.663 980.611 205.094 980.014 206.194C978.661 208.674 978.318 209.166 978.318 209.166L1009.87 195.674Z"
                  fill="url(#paint19_linear_5779_30886)"/>
            <path d="M1086.11 140.261C1086.76 140.309 1087.33 139.822 1087.37 139.173C1087.42 138.523 1086.93 137.958 1086.29 137.91C1085.64 137.862 1085.07 138.35 1085.02 138.999C1084.98 139.648 1085.46 140.213 1086.11 140.261Z"
                  fill="#B8CBF6"/>
            <path d="M1043.03 85.9479C1043.45 85.9788 1043.81 85.6654 1043.84 85.248C1043.87 84.8305 1043.56 84.4671 1043.14 84.4363C1042.73 84.4054 1042.36 84.7188 1042.33 85.1362C1042.3 85.5537 1042.61 85.9171 1043.03 85.9479Z"
                  fill="#B8CBF6"/>
            <path opacity="0.45"
                  d="M1075.01 60.862C1075.43 60.8929 1075.79 60.5795 1075.83 60.162C1075.86 59.7446 1075.54 59.3812 1075.13 59.3503C1074.71 59.3195 1074.34 59.6328 1074.31 60.0503C1074.28 60.4677 1074.6 60.8311 1075.01 60.862Z"
                  fill="#B8CBF6"/>
            <path d="M1045.54 144.462C1045.96 144.492 1046.32 144.179 1046.35 143.762C1046.38 143.344 1046.07 142.981 1045.65 142.95C1045.23 142.919 1044.87 143.232 1044.84 143.65C1044.81 144.067 1045.12 144.431 1045.54 144.462Z"
                  fill="#B8CBF6"/>
            <path d="M1038.5 107.974C1038.92 108.005 1039.29 107.692 1039.32 107.274C1039.35 106.857 1039.03 106.493 1038.62 106.463C1038.2 106.432 1037.84 106.745 1037.8 107.163C1037.77 107.58 1038.09 107.943 1038.5 107.974Z"
                  fill="#B8CBF6"/>
            <path opacity="0.8" d="M1033.23 53.7084L1106.35 37.4885" stroke="url(#paint20_linear_5779_30886)"
                  stroke-width="0.48311" stroke-miterlimit="10"/>
            <path opacity="0.8" d="M1113.18 73.9759L1186.3 57.7561" stroke="url(#paint21_linear_5779_30886)"
                  stroke-width="0.48311" stroke-miterlimit="10"/>
            <path d="M1025.52 133.454L1096.73 110.266" stroke="url(#paint22_linear_5779_30886)" stroke-width="0.48311"
                  stroke-miterlimit="10"/>
            <path d="M938.849 179.926L1010.91 159.522" stroke="url(#paint23_linear_5779_30886)" stroke-width="0.48311"
                  stroke-miterlimit="10"/>
            <path d="M1046.02 91.6892L984.314 66.2466" stroke="url(#paint24_linear_5779_30886)" stroke-width="0.48311"
                  stroke-miterlimit="10"/>
            <path d="M999.228 93.5721L941.381 69.1157" stroke="url(#paint25_linear_5779_30886)" stroke-width="0.48311"
                  stroke-miterlimit="10"/>
            <g filter="url(#filter2_f_5779_30886)">
                <path d="M1050.88 178.676L906.603 238.799L929.429 215.728L1050.88 178.676Z"
                      fill="url(#paint26_linear_5779_30886)"/>
            </g>
            <g filter="url(#filter3_f_5779_30886)">
                <path d="M655.934 171.118L880.588 136.796L868.555 150.431L655.934 171.118Z"
                      fill="url(#paint27_linear_5779_30886)"/>
            </g>
            <circle opacity="0.8" cx="826.085" cy="77.4089" r="4.8311" transform="rotate(0.297646 826.085 77.4089)"
                    fill="#8DC1FF"/>
            <circle r="1.93244" transform="matrix(0.999986 0.00519488 0.00519488 -0.999986 858.653 78.9131)"
                    fill="#8BD8FF"/>
            <circle opacity="0.9" r="1.93244"
                    transform="matrix(0.999986 0.00519488 0.00519488 -0.999986 1118.51 87.2353)" fill="#8BD8FF"/>
            <circle r="1.93244" transform="matrix(0.999986 0.00519488 0.00519488 -0.999986 715.305 112.728)"
                    fill="#8BD8FF"/>
            <circle opacity="0.8" cx="1130.59" cy="180.056" r="4.8311" transform="rotate(0.297646 1130.59 180.056)"
                    fill="#3AAEFB"/>
            <circle opacity="0.8" r="1.93244" transform="matrix(0.998379 0.0569192 0.0569192 -0.998379 898.14 290.52)"
                    fill="#2085FF"/>
            <path d="M814.45 176.434L819.526 175.286L820.165 170.726L810.182 145.286L803.137 147.221L800.702 140.903L793.006 142.746L791.448 137.746L759.086 146.891L760.627 152.952L753.749 154.644L755.517 161.932L748.805 163.382L757.739 193.457L765.77 191.129L768.113 198.098L776.628 196.104L778.018 201.346L810.23 191.383L810.051 186.975L809.658 185.99L815.809 183.797L815.964 178.904L814.45 176.434Z"
                  fill="#E1A304"/>
            <path d="M812.082 168.732L816.258 178.994L804.276 182.64L800.334 172.039L812.082 168.732Z" fill="white"/>
            <path d="M804.915 174.943L809.018 186.452L777.344 195.922L776.165 191.477L775.962 190.71L775.192 190.908L767.25 192.954L765.373 186.88L765.141 186.129L764.386 186.348L757.11 188.458L748.259 160.042L754.116 158.776L754.918 158.603L754.724 157.806L753.145 151.293L759.249 149.791L760.032 149.599L759.833 148.817L758.483 143.512L789.347 134.791L790.672 139.047L790.895 139.761L791.622 139.587L798.638 137.907L800.821 143.572L801.081 144.247L801.779 144.055L808.131 142.311L819.088 170.168L812.692 171.72L812.671 171.725L812.65 171.731L805.438 173.908L804.633 174.151L804.915 174.943Z"
                  fill="url(#paint28_linear_5779_30886)" stroke="url(#paint29_linear_5779_30886)" stroke-width="1.6"/>
            <path d="M794.849 144.736L806.571 173.873L772.557 184.381L761.502 154.274L794.849 144.736Z" fill="#CAA356"/>
            <path d="M794.459 143.75L806.181 172.887L772.166 183.395L761.111 153.288L794.459 143.75Z" fill="#FF850B"/>
            <path d="M787.46 156.787L791.635 167.048L779.653 170.695L775.712 160.094L787.46 156.787Z" fill="white"/>
            <path d="M874.41 252.247L876.789 250.275L875.901 247.689L863.776 236.904L860.566 239.823L857.578 237.132L853.999 240.178L851.83 237.949L837.155 251.493L839.6 254.287L836.414 257.032L839.309 260.415L836.146 262.987L848.963 276.508L852.588 273.116L855.703 276.176L859.675 272.831L861.82 275.232L876.195 261.296L874.915 259.011L874.442 258.595L877.11 255.78L875.876 253.148L874.41 252.247Z"
                  fill="#E1A304"/>
            <path d="M871.085 248.807L876.055 253.117L870.692 258.269L865.755 253.716L871.085 248.807Z" fill="white"/>
            <path d="M868.738 254.258L873.756 259.013L860.024 272.076L858.428 270.289L857.899 269.697L857.303 270.222L853.88 273.236L851.469 270.748L850.922 270.183L850.348 270.72L847.295 273.576L835.44 261.394L837.924 259.374L838.561 258.856L838.027 258.233L835.65 255.456L838.233 253.231L838.844 252.704L838.313 252.098L836.38 249.89L849.91 237.403L851.536 239.074L852.058 239.61L852.627 239.125L855.673 236.533L858.141 238.755L858.679 239.239L859.214 238.752L861.892 236.317L874.686 247.679L872 249.977L871.984 249.992L871.968 250.007L868.735 253.099L868.127 253.679L868.738 254.258Z"
                  fill="url(#paint30_linear_5779_30886)" stroke="url(#paint31_linear_5779_30886)" stroke-width="1.6"/>
            <path d="M855.51 240.735L869.55 253.01L854.367 267.719L840.419 254.752L855.51 240.735Z" fill="#CAA356"/>
            <path d="M855.038 240.318L869.079 252.593L853.895 267.302L839.947 254.335L855.038 240.318Z" fill="#FF850B"/>
            <path d="M854.838 249.103L859.807 253.413L854.444 258.565L849.507 254.012L854.838 249.103Z" fill="white"/>
            <path d="M915.69 189.213L918.743 188.737L919.304 186.061L914.41 170.589L910.159 171.453L908.97 167.612L904.336 168.395L903.614 165.37L884.074 169.491L884.744 173.143L880.601 173.87L881.356 178.258L877.322 178.848L881.409 197.024L886.26 195.967L887.369 200.19L892.493 199.35L893.107 202.511L912.59 197.9L912.66 195.282L912.467 194.682L916.199 193.63L916.487 190.737L915.69 189.213Z"
                  fill="#E1A304"/>
            <path d="M914.595 184.555L916.657 190.802L909.413 192.482L907.503 186.043L914.595 184.555Z" fill="white"/>
            <path d="M909.788 188.035L911.664 194.689L893.18 198.879L892.724 196.528L892.572 195.748L891.791 195.894L887.308 196.731L886.512 193.359L886.331 192.594L885.563 192.761L881.478 193.651L877.531 177.117L880.7 176.654L881.512 176.535L881.373 175.727L880.753 172.124L884.11 171.535L884.905 171.396L884.759 170.603L884.23 167.717L902.245 163.918L902.786 166.185L902.959 166.913L903.697 166.788L907.64 166.122L908.623 169.294L908.837 169.985L909.546 169.841L913.093 169.12L918.266 185.43L914.782 186.029L914.76 186.033L914.739 186.038L910.379 187.039L909.56 187.227L909.788 188.035Z"
                  fill="url(#paint32_linear_5779_30886)" stroke="url(#paint33_linear_5779_30886)" stroke-width="1.6"/>
            <path d="M905.348 169.648L911.125 187.38L890.551 192.241L885.209 173.961L905.348 169.648Z" fill="#CAA356"/>
            <path d="M905.157 169.048L910.933 186.78L890.36 191.641L885.018 173.362L905.157 169.048Z" fill="#FF850B"/>
            <path d="M900.487 176.491L902.549 182.738L895.304 184.418L893.395 177.979L900.487 176.491Z" fill="white"/>
            <path d="M899.988 104.285L900.171 105.456L901.197 105.671L907.129 103.793L906.797 102.163L908.27 101.707L907.969 99.9305L909.129 99.6534L907.548 92.1618L906.148 92.419L905.869 90.8305L904.186 91.1203L903.96 89.5735L896.991 91.1416L897.397 93.0014L895.777 93.4269L896.1 95.3916L894.888 95.6271L896.657 103.097L897.661 103.124L897.891 103.05L898.294 104.481L899.403 104.591L899.988 104.285Z"
                  fill="#E1A304"/>
            <path d="M901.773 103.866L899.378 104.657L898.734 101.879L901.203 101.146L901.773 103.866Z" fill="white"/>
            <path d="M900.305 101.548L898.254 102.126L896.874 96.0423L897.276 95.9643L898.055 95.8128L897.909 95.032L897.675 93.7756L898.51 93.5781L899.275 93.3972L899.107 92.6291L898.869 91.5357L904.213 90.2589L904.313 90.9403L904.432 91.7521L905.24 91.6128L906.137 91.4584L906.278 92.2614L906.417 93.0556L907.21 92.9099L907.844 92.7935L909.103 98.7605L908.701 98.8565L907.974 99.0303L908.099 99.7681L908.282 100.854L907.479 101.103L906.787 101.317L906.931 102.027L907.12 102.952L901.828 104.632L901.694 103.853L901.691 103.832L901.686 103.81L901.302 102.138L901.114 101.319L900.305 101.548Z"
                  fill="url(#paint34_linear_5779_30886)" stroke="url(#paint35_linear_5779_30886)" stroke-width="1.6"/>
            <path d="M907.489 100.319L900.69 102.535L898.825 94.6469L905.834 92.5975L907.489 100.319Z" fill="#CAA356"/>
            <path d="M907.719 100.245L900.92 102.461L899.055 94.5732L906.064 92.5238L907.719 100.245Z" fill="#FF850B"/>
            <path d="M904.865 98.4554L902.47 99.2464L901.825 96.4687L904.294 95.736L904.865 98.4554Z" fill="white"/>
        </g>
    </g>
    <defs>
        <filter id="filter0_f_5779_30886" x="1032.13" y="114.883" width="49.2136" height="45.9243"
                filterUnits="userSpaceOnUse" color-interpolation-filters="sRGB">
            <feFlood flood-opacity="0" result="BackgroundImageFix"/>
            <feBlend mode="normal" in="SourceGraphic" in2="BackgroundImageFix" result="shape"/>
            <feGaussianBlur stdDeviation="1" result="effect1_foregroundBlur_5779_30886"/>
        </filter>
        <filter id="filter1_f_5779_30886" x="943.207" y="47.0879" width="47.782" height="48.186"
                filterUnits="userSpaceOnUse" color-interpolation-filters="sRGB">
            <feFlood flood-opacity="0" result="BackgroundImageFix"/>
            <feBlend mode="normal" in="SourceGraphic" in2="BackgroundImageFix" result="shape"/>
            <feGaussianBlur stdDeviation="1" result="effect1_foregroundBlur_5779_30886"/>
        </filter>
        <filter id="filter2_f_5779_30886" x="897.907" y="169.98" width="161.673" height="77.515"
                filterUnits="userSpaceOnUse" color-interpolation-filters="sRGB">
            <feFlood flood-opacity="0" result="BackgroundImageFix"/>
            <feBlend mode="normal" in="SourceGraphic" in2="BackgroundImageFix" result="shape"/>
            <feGaussianBlur stdDeviation="4.34799" result="effect1_foregroundBlur_5779_30886"/>
        </filter>
        <filter id="filter3_f_5779_30886" x="647.238" y="128.1" width="242.046" height="51.7137"
                filterUnits="userSpaceOnUse" color-interpolation-filters="sRGB">
            <feFlood flood-opacity="0" result="BackgroundImageFix"/>
            <feBlend mode="normal" in="SourceGraphic" in2="BackgroundImageFix" result="shape"/>
            <feGaussianBlur stdDeviation="4.34799" result="effect1_foregroundBlur_5779_30886"/>
        </filter>
        <linearGradient id="paint1_linear_5779_30886" x1="327.234" y1="35.3308" x2="198.775" y2="190.875"
                        gradientUnits="userSpaceOnUse">
            <stop stop-color="white"/>
            <stop offset="1" stop-color="white" stop-opacity="0"/>
        </linearGradient>
        <linearGradient id="paint2_linear_5779_30886" x1="153.233" y1="-22.0336" x2="50.3776" y2="477.168"
                        gradientUnits="userSpaceOnUse">
            <stop stop-color="white"/>
            <stop offset="1" stop-color="white" stop-opacity="0"/>
        </linearGradient>
        <linearGradient id="paint3_linear_5779_30886" x1="932.202" y1="67.425" x2="1171.4" y2="45.8701"
                        gradientUnits="userSpaceOnUse">
            <stop stop-color="#2284FF"/>
            <stop offset="1" stop-color="#C8E1FF" stop-opacity="0"/>
        </linearGradient>
        <linearGradient id="paint4_linear_5779_30886" x1="703.241" y1="232.911" x2="1007.01" y2="162.022"
                        gradientUnits="userSpaceOnUse">
            <stop stop-color="#7CE6FF" stop-opacity="0"/>
            <stop offset="1" stop-color="#0235EB"/>
        </linearGradient>
        <linearGradient id="paint5_linear_5779_30886" x1="807.874" y1="205.012" x2="899.169" y2="185.584"
                        gradientUnits="userSpaceOnUse">
            <stop offset="0.00520833" stop-color="#7CE6FF" stop-opacity="0"/>
            <stop offset="1" stop-color="#64ECFF"/>
        </linearGradient>
        <linearGradient id="paint6_linear_5779_30886" x1="928.288" y1="63.5401" x2="1100.74" y2="122.713"
                        gradientUnits="userSpaceOnUse">
            <stop stop-color="#2085FF"/>
            <stop offset="1" stop-color="#46C8FF"/>
        </linearGradient>
        <linearGradient id="paint7_linear_5779_30886" x1="918.496" y1="181.37" x2="1093.86" y2="96.4663"
                        gradientUnits="userSpaceOnUse">
            <stop stop-color="#0093FD"/>
            <stop offset="1" stop-color="#2483FF" stop-opacity="0.62"/>
        </linearGradient>
        <radialGradient id="paint8_radial_5779_30886" cx="0" cy="0" r="1" gradientUnits="userSpaceOnUse"
                        gradientTransform="translate(935.481 173.929) rotate(4.22825) scale(41.2564)">
            <stop stop-color="#ABC9F0"/>
            <stop offset="1" stop-color="#0064FF"/>
        </radialGradient>
        <radialGradient id="paint9_radial_5779_30886" cx="0" cy="0" r="1" gradientUnits="userSpaceOnUse"
                        gradientTransform="translate(974.031 161.936) rotate(4.22825) scale(37.9941)">
            <stop stop-color="#39A3E7"/>
            <stop offset="0.32" stop-color="#2466F0"/>
            <stop offset="0.63" stop-color="#102FF8"/>
            <stop offset="0.87" stop-color="#050DFD"/>
            <stop offset="1" stop-color="#0000FF"/>
        </radialGradient>
        <linearGradient id="paint10_linear_5779_30886" x1="1038.75" y1="125.016" x2="1078.2" y2="140.194"
                        gradientUnits="userSpaceOnUse">
            <stop stop-color="#FFC04D"/>
            <stop offset="1" stop-color="#FF9B1C"/>
        </linearGradient>
        <linearGradient id="paint11_linear_5779_30886" x1="1053.71" y1="117.42" x2="1066.66" y2="155.941"
                        gradientUnits="userSpaceOnUse">
            <stop stop-color="#FFEE8C"/>
            <stop offset="0.494237" stop-color="#FFC129"/>
            <stop offset="1" stop-color="#FFF4DD"/>
        </linearGradient>
        <linearGradient id="paint12_linear_5779_30886" x1="1054.61" y1="117.942" x2="1081.71" y2="137.833"
                        gradientUnits="userSpaceOnUse">
            <stop stop-color="#FFECA7"/>
            <stop offset="1" stop-color="white" stop-opacity="0.35"/>
        </linearGradient>
        <linearGradient id="paint13_linear_5779_30886" x1="989.024" y1="72.7858" x2="947.415" y2="80.2338"
                        gradientUnits="userSpaceOnUse">
            <stop stop-color="#FFC04D"/>
            <stop offset="1" stop-color="#FF9B1C"/>
        </linearGradient>
        <linearGradient id="paint14_linear_5779_30886" x1="980.165" y1="87.0289" x2="949.138" y2="60.7822"
                        gradientUnits="userSpaceOnUse">
            <stop stop-color="#FFEE8C"/>
            <stop offset="0.494237" stop-color="#FFC129"/>
            <stop offset="1" stop-color="#FFF4DD"/>
        </linearGradient>
        <linearGradient id="paint15_linear_5779_30886" x1="979.12" y1="87.0509" x2="945.637" y2="84.0701"
                        gradientUnits="userSpaceOnUse">
            <stop stop-color="#FFECA7"/>
            <stop offset="1" stop-color="white" stop-opacity="0.35"/>
        </linearGradient>
        <radialGradient id="paint16_radial_5779_30886" cx="0" cy="0" r="1" gradientUnits="userSpaceOnUse"
                        gradientTransform="translate(896.706 190.918) rotate(-101.491) scale(56.7547 32.7868)">
            <stop stop-color="white" stop-opacity="0"/>
            <stop offset="1" stop-color="#5CD8FF"/>
        </radialGradient>
        <linearGradient id="paint17_linear_5779_30886" x1="905.729" y1="220.919" x2="889.222" y2="143.535"
                        gradientUnits="userSpaceOnUse">
            <stop stop-color="#0075FF"/>
            <stop offset="0.505208" stop-color="#14ABFF"/>
            <stop offset="1" stop-color="#28FFFF"/>
        </linearGradient>
        <linearGradient id="paint18_linear_5779_30886" x1="899.685" y1="175.474" x2="903.749" y2="230.088"
                        gradientUnits="userSpaceOnUse">
            <stop stop-color="#58B2FF"/>
            <stop offset="1" stop-color="#2885F3"/>
        </linearGradient>
        <linearGradient id="paint19_linear_5779_30886" x1="975.648" y1="113.459" x2="987.841" y2="199.432"
                        gradientUnits="userSpaceOnUse">
            <stop offset="0.00520833" stop-color="#E4F5FF"/>
            <stop offset="0.239583" stop-color="#4DBFFF"/>
            <stop offset="0.411458" stop-color="#2697FF"/>
            <stop offset="0.984375" stop-color="#1445C4"/>
        </linearGradient>
        <linearGradient id="paint20_linear_5779_30886" x1="1033.22" y1="53.9258" x2="1128.14" y2="38.9393"
                        gradientUnits="userSpaceOnUse">
            <stop stop-color="#E1EDFF"/>
            <stop offset="1" stop-color="#E1EDFF" stop-opacity="0"/>
        </linearGradient>
        <linearGradient id="paint21_linear_5779_30886" x1="1113.17" y1="74.1933" x2="1208.1" y2="59.2069"
                        gradientUnits="userSpaceOnUse">
            <stop stop-color="#99CEFF"/>
            <stop offset="1" stop-color="#E3EEFE" stop-opacity="0"/>
        </linearGradient>
        <linearGradient id="paint22_linear_5779_30886" x1="1025.52" y1="133.672" x2="1085.89" y2="114.602"
                        gradientUnits="userSpaceOnUse">
            <stop stop-color="#E1EDFF"/>
            <stop offset="1" stop-color="#E1EDFF" stop-opacity="0"/>
        </linearGradient>
        <linearGradient id="paint23_linear_5779_30886" x1="938.848" y1="180.144" x2="980.38" y2="169.296"
                        gradientUnits="userSpaceOnUse">
            <stop stop-color="#E1EDFF"/>
            <stop offset="1" stop-color="#E1EDFF" stop-opacity="0"/>
        </linearGradient>
        <linearGradient id="paint24_linear_5779_30886" x1="984.183" y1="91.6281" x2="1066.83" y2="78.5626"
                        gradientUnits="userSpaceOnUse">
            <stop stop-color="#E1EDFF" stop-opacity="0"/>
            <stop offset="1" stop-color="#E1EDFF"/>
        </linearGradient>
        <linearGradient id="paint25_linear_5779_30886" x1="941.254" y1="93.521" x2="1018.83" y2="81.5731"
                        gradientUnits="userSpaceOnUse">
            <stop stop-color="#E1EDFF" stop-opacity="0"/>
            <stop offset="1" stop-color="#E1EDFF"/>
        </linearGradient>
        <linearGradient id="paint26_linear_5779_30886" x1="980.696" y1="204.882" x2="976.879" y2="195.683"
                        gradientUnits="userSpaceOnUse">
            <stop stop-color="#0057DA"/>
            <stop offset="1" stop-color="#3F91F9" stop-opacity="0"/>
        </linearGradient>
        <linearGradient id="paint27_linear_5779_30886" x1="655.896" y1="173.05" x2="901.009" y2="119.115"
                        gradientUnits="userSpaceOnUse">
            <stop stop-color="white" stop-opacity="0"/>
            <stop offset="1" stop-color="#9EDCFF"/>
        </linearGradient>
        <linearGradient id="paint28_linear_5779_30886" x1="786.344" y1="201.005" x2="769.336" y2="137.164"
                        gradientUnits="userSpaceOnUse">
            <stop stop-color="#FFEE8C"/>
            <stop offset="0.494237" stop-color="#FFC129"/>
            <stop offset="1" stop-color="#FFF4DD"/>
        </linearGradient>
        <linearGradient id="paint29_linear_5779_30886" x1="784.93" y1="200.064" x2="743.029" y2="164.979"
                        gradientUnits="userSpaceOnUse">
            <stop stop-color="#FFECA7"/>
            <stop offset="1" stop-color="white" stop-opacity="0.35"/>
        </linearGradient>
        <linearGradient id="paint30_linear_5779_30886" x1="866.136" y1="272.813" x2="839.966" y2="243.587"
                        gradientUnits="userSpaceOnUse">
            <stop stop-color="#FFEE8C"/>
            <stop offset="0.494237" stop-color="#FFC129"/>
            <stop offset="1" stop-color="#FFF4DD"/>
        </linearGradient>
        <linearGradient id="paint31_linear_5779_30886" x1="865.135" y1="272.695" x2="833.517" y2="265.387"
                        gradientUnits="userSpaceOnUse">
            <stop stop-color="#FFECA7"/>
            <stop offset="1" stop-color="white" stop-opacity="0.35"/>
        </linearGradient>
        <linearGradient id="paint32_linear_5779_30886" x1="898.052" y1="202.643" x2="890.537" y2="164.139"
                        gradientUnits="userSpaceOnUse">
            <stop stop-color="#FFEE8C"/>
            <stop offset="0.494237" stop-color="#FFC129"/>
            <stop offset="1" stop-color="#FFF4DD"/>
        </linearGradient>
        <linearGradient id="paint33_linear_5779_30886" x1="897.253" y1="202.029" x2="873.836" y2="179.562"
                        gradientUnits="userSpaceOnUse">
            <stop stop-color="#FFECA7"/>
            <stop offset="1" stop-color="white" stop-opacity="0.35"/>
        </linearGradient>
        <linearGradient id="paint34_linear_5779_30886" x1="894.837" y1="97.5236" x2="909.6" y2="94.6397"
                        gradientUnits="userSpaceOnUse">
            <stop stop-color="#FFEE8C"/>
            <stop offset="0.494237" stop-color="#FFC129"/>
            <stop offset="1" stop-color="#FFF4DD"/>
        </linearGradient>
        <linearGradient id="paint35_linear_5779_30886" x1="895.073" y1="97.217" x2="903.685" y2="88.2371"
                        gradientUnits="userSpaceOnUse">
            <stop stop-color="#FFECA7"/>
            <stop offset="1" stop-color="white" stop-opacity="0.35"/>
        </linearGradient>
        <clipPath id="clip0_5779_30886">
            <rect width="1440" height="320" fill="white"/>
        </clipPath>
    </defs>
</svg>
