<svg width="27" height="26" viewBox="0 0 27 26" fill="none" xmlns="http://www.w3.org/2000/svg">
<path d="M25 23C26.1046 23 27 22.1046 27 21C27 19.8954 26.1046 19 25 19C23.8954 19 23 19.8954 23 21C23 22.1046 23.8954 23 25 23Z" fill="#B0B4B9"/>
<path d="M19.9752 10.5511C20.2256 10.6555 20.4638 10.7878 20.6806 10.9466C20.9586 11.1496 21.2014 11.3952 21.3877 11.6775C22.397 13.2128 21.7068 15.323 21.0945 16.8686C20.4592 18.4744 19.4819 20.0965 18.1259 21.2376C17.6495 21.6391 17.0845 21.9611 16.4615 22.0699C16.0766 22.1361 15.6231 22.0949 15.3818 21.7979C15.1757 21.5435 15.191 21.1876 15.2383 20.8685C15.4124 19.6935 15.8888 18.5891 16.3088 17.4818C16.6584 16.5583 17.338 15.1333 16.9058 14.151C16.6478 13.5657 15.9377 13.5804 15.3849 13.6892C11.2253 14.5069 8.46066 20.6881 5.83875 21.9101L5.825 21.9174C5.80973 21.9248 5.79446 21.9292 5.77919 21.9366C5.74865 21.9498 5.71658 21.9645 5.68452 21.9763C5.66619 21.9836 5.6494 21.9895 5.63107 21.9954C5.59748 22.0071 5.56388 22.0204 5.53029 22.0307C5.52265 22.0322 5.51502 22.0336 5.50738 22.0366C5.4295 22.0586 5.35315 22.0763 5.27527 22.0895L5.22641 22.0983C5.19739 22.1027 5.16685 22.1042 5.13784 22.1071C5.11493 22.1086 5.09203 22.1116 5.06912 22.113C5.04164 22.1145 5.01262 22.1145 4.98514 22.1145C4.9607 22.1145 4.93627 22.116 4.91031 22.1145C4.88283 22.113 4.85534 22.1116 4.82785 22.1086C4.80193 22.1071 4.77601 22.1042 4.75008 22.1013L4.74998 22.1013L4.66904 22.088C4.64308 22.0821 4.6156 22.0777 4.58811 22.0719C4.56215 22.066 4.53466 22.0601 4.5087 22.0527C4.48122 22.0454 4.4522 22.038 4.42472 22.0292L4.34684 22.0027C4.31786 21.9925 4.28887 21.9807 4.25989 21.9689L4.2598 21.9689C4.23384 21.9586 4.20788 21.9483 4.18192 21.9366C4.15138 21.9233 4.12237 21.9072 4.09183 21.8924C4.06587 21.8792 4.04143 21.8674 4.01548 21.8527C3.98493 21.8366 3.95439 21.8174 3.92233 21.7983L3.92224 21.7983C3.89784 21.7836 3.87343 21.7689 3.84903 21.7527C3.81543 21.7307 3.78184 21.7072 3.74825 21.6836C3.72534 21.6674 3.70244 21.6527 3.67953 21.6351C3.64294 21.6072 3.60484 21.5764 3.56673 21.5456L3.56653 21.5454L3.5085 21.4983C3.45047 21.4498 3.39245 21.3983 3.33442 21.3439C3.21837 21.2351 3.10995 21.1219 3.00611 21.0057C3.00306 21.0042 3.00153 21.0013 3 20.9998C1.25461 19.0513 1.60347 16.2657 2.37462 13.4348C2.9381 11.2878 3.8986 9.25404 5.20421 7.42907C6.09905 6.13204 7.04733 5.10265 7.8704 4.54237C7.93759 4.49678 8.00936 4.45414 8.08266 4.41002C8.86755 3.84091 9.75322 3.39239 10.7259 3.25122C11.4131 3.15122 12.2301 3.17916 12.8607 3.50268C13.1096 3.63062 13.3265 3.80562 13.4975 4.03356C13.5372 4.08061 13.5723 4.13061 13.6029 4.18208C13.612 4.19826 13.6181 4.21296 13.6258 4.2262L13.6259 4.22635C13.6411 4.25424 13.6563 4.28213 13.67 4.31002C13.9632 4.92912 13.7647 5.6247 13.4868 6.23645C12.9004 7.62466 11.5979 9.26433 10.5381 10.6496C10.106 11.2452 9.67993 11.8452 9.26305 12.451C8.94237 13.0025 8.83395 13.4039 9.09355 13.5745C9.17295 13.6275 9.26152 13.6539 9.3562 13.6672C9.99449 13.7569 10.7427 13.229 11.2528 12.9319C12.1797 12.3922 13.0821 11.8157 14.0442 11.3319C15.7911 10.4555 18.0587 9.74961 19.9752 10.5511Z" stroke="#B0B4B9" stroke-width="1.6"/>
</svg>
