<svg width="21" height="21" viewBox="0 0 21 21" fill="none" xmlns="http://www.w3.org/2000/svg">
<path fill-rule="evenodd" clip-rule="evenodd" d="M10.4838 20.9032C16.2561 20.9032 20.9354 16.2239 20.9354 10.4516C20.9354 4.67934 16.2561 0 10.4838 0C4.71157 0 0.0322266 4.67934 0.0322266 10.4516C0.0322266 16.2239 4.71157 20.9032 10.4838 20.9032ZM15.3531 7.45885C15.8554 7.39507 16.3339 7.25334 16.7792 7.04346C16.4464 7.57254 16.0255 8.03733 15.5402 8.40926C15.5451 8.52243 15.5475 8.63612 15.5475 8.75058C15.5475 12.2374 13.0502 16.2579 8.48341 16.2579C7.08129 16.2579 5.77623 15.8211 4.67738 15.0724C4.8715 15.0968 5.06924 15.1094 5.26965 15.1094C6.43288 15.1094 7.50341 14.6876 8.3532 13.98C7.26669 13.9586 6.34962 13.1957 6.03376 12.1476C6.18527 12.1785 6.3409 12.1949 6.50089 12.1949C6.72744 12.1949 6.94672 12.1625 7.15512 12.1023C6.01924 11.8598 5.16339 10.7934 5.16339 9.51502C5.16339 9.50395 5.16339 9.4929 5.16364 9.48184C5.49837 9.67937 5.88103 9.79821 6.28814 9.81184C5.62205 9.33882 5.18372 8.53118 5.18372 7.61575C5.18372 7.13219 5.30619 6.67898 5.51991 6.28931C6.74438 7.88557 8.57394 8.93603 10.6373 9.04612C10.5949 8.85295 10.5729 8.65155 10.5729 8.44475C10.5729 6.98764 11.6846 5.80626 13.0557 5.80626C13.77 5.80626 14.4153 6.12649 14.8681 6.63937C15.4335 6.52106 15.965 6.30165 16.4447 5.99917C16.2593 6.6152 15.8658 7.13219 15.3531 7.45885Z" fill="#D4D8DE"/>
</svg>
