<svg width="1072" height="194" viewBox="0 0 1072 194" fill="none" xmlns="http://www.w3.org/2000/svg">
<g clip-path="url(#clip0)">
<g style="mix-blend-mode:multiply">
<circle cx="494.358" cy="116.29" r="26.2613" transform="rotate(7.95356 494.358 116.29)" fill="url(#paint0_linear)"/>
</g>
<g style="mix-blend-mode:multiply">
<circle cx="453.255" cy="108.255" r="36.5492" transform="rotate(7.95356 453.255 108.255)" fill="url(#paint1_linear)"/>
</g>
<rect opacity="0.7" width="43.2932" height="241.431" rx="21.6466" transform="matrix(0.832128 0.554584 0.554584 -0.832128 761 309.902)" fill="url(#paint2_linear)"/>
<rect opacity="0.3" width="51.376" height="241.431" rx="25.688" transform="matrix(0.832128 0.554584 0.554584 -0.832128 682 84.9016)" fill="url(#paint3_linear)"/>
<rect opacity="0.6" width="35.3717" height="139.727" rx="17.6858" transform="matrix(0.813873 0.581043 0.581043 -0.813873 171.62 240.315)" fill="url(#paint4_linear)"/>
<rect width="23.5675" height="128.91" rx="11.7838" transform="matrix(0.832128 0.554584 0.554584 -0.832128 546 257.27)" fill="url(#paint5_linear)" fill-opacity="0.7"/>
<rect width="14.9482" height="81.7635" rx="7.4741" transform="matrix(0.836992 0.547215 0.547215 -0.836992 782 43.4353)" fill="url(#paint6_linear)"/>
<path opacity="0.7" fill-rule="evenodd" clip-rule="evenodd" d="M89.7463 206.399C89.2955 206.08 89.1885 205.456 89.5074 205.005L90.8213 203.148C91.1402 202.697 91.7643 202.59 92.2151 202.909L94.0724 204.223C94.5233 204.542 94.6303 205.166 94.3113 205.617L92.9975 207.474C92.6786 207.925 92.0545 208.032 91.6036 207.713L89.7463 206.399ZM96.3298 197.092C95.8789 196.773 95.7719 196.149 96.0909 195.698L97.4047 193.841C97.7236 193.39 98.3477 193.283 98.7986 193.602L100.656 194.916C101.107 195.235 101.214 195.859 100.895 196.31L99.581 198.167C99.262 198.618 98.638 198.725 98.1871 198.406L96.3298 197.092ZM102.74 188.03C102.289 187.711 102.182 187.087 102.501 186.636L103.815 184.779C104.134 184.328 104.758 184.221 105.209 184.54L107.066 185.854C107.517 186.173 107.624 186.797 107.305 187.248L105.991 189.105C105.672 189.556 105.048 189.663 104.597 189.344L102.74 188.03ZM109.323 178.723C108.873 178.404 108.766 177.78 109.085 177.329L110.398 175.472C110.717 175.021 111.341 174.914 111.792 175.233L113.65 176.547C114.1 176.866 114.207 177.49 113.888 177.941L112.575 179.798C112.256 180.249 111.632 180.356 111.181 180.037L109.323 178.723ZM116.383 168.743C115.932 168.424 115.826 167.8 116.144 167.349L117.458 165.492C117.777 165.041 118.401 164.934 118.852 165.253L120.709 166.567C121.16 166.885 121.267 167.51 120.948 167.96L119.635 169.818C119.316 170.269 118.692 170.376 118.241 170.057L116.383 168.743ZM122.967 159.436C122.516 159.117 122.409 158.493 122.728 158.042L124.042 156.185C124.361 155.734 124.985 155.627 125.436 155.946L127.293 157.26C127.744 157.579 127.851 158.203 127.532 158.654L126.218 160.511C125.899 160.962 125.275 161.069 124.824 160.75L122.967 159.436ZM129.377 150.374C128.926 150.055 128.819 149.431 129.138 148.98L130.452 147.123C130.771 146.672 131.395 146.565 131.846 146.884L133.703 148.198C134.154 148.517 134.261 149.141 133.942 149.592L132.628 151.449C132.309 151.9 131.685 152.007 131.234 151.688L129.377 150.374ZM135.96 141.067C135.51 140.748 135.403 140.124 135.722 139.673L137.035 137.816C137.354 137.365 137.978 137.258 138.429 137.577L140.287 138.891C140.737 139.21 140.844 139.834 140.525 140.285L139.212 142.142C138.893 142.593 138.269 142.7 137.818 142.381L135.96 141.067ZM99.1443 227.746C98.6934 227.427 98.5864 226.803 98.9054 226.352L100.219 224.494C100.538 224.044 101.162 223.937 101.613 224.255L103.47 225.569C103.921 225.888 104.028 226.512 103.709 226.963L102.395 228.82C102.077 229.271 101.452 229.378 101.002 229.059L99.1443 227.746ZM105.728 218.439C105.277 218.12 105.17 217.496 105.489 217.045L106.803 215.188C107.122 214.737 107.746 214.63 108.196 214.949L110.054 216.262C110.505 216.581 110.612 217.205 110.293 217.656L108.979 219.514C108.66 219.965 108.036 220.071 107.585 219.753L105.728 218.439ZM112.138 209.377C111.687 209.058 111.58 208.434 111.899 207.983L113.213 206.126C113.532 205.675 114.156 205.568 114.607 205.887L116.464 207.2C116.915 207.519 117.022 208.143 116.703 208.594L115.389 210.452C115.07 210.903 114.446 211.009 113.995 210.691L112.138 209.377ZM118.721 200.07C118.27 199.751 118.164 199.127 118.482 198.676L119.796 196.819C120.115 196.368 120.739 196.261 121.19 196.58L123.047 197.894C123.498 198.213 123.605 198.837 123.286 199.287L121.973 201.145C121.654 201.596 121.03 201.703 120.579 201.384L118.721 200.07ZM125.781 190.089C125.33 189.77 125.223 189.146 125.542 188.696L126.856 186.838C127.175 186.387 127.799 186.28 128.25 186.599L130.107 187.913C130.558 188.232 130.665 188.856 130.346 189.307L129.032 191.164C128.714 191.615 128.089 191.722 127.639 191.403L125.781 190.089ZM132.365 180.783C131.914 180.464 131.807 179.84 132.126 179.389L133.44 177.531C133.759 177.081 134.383 176.974 134.833 177.292L136.691 178.606C137.142 178.925 137.249 179.549 136.93 180L135.616 181.857C135.297 182.308 134.673 182.415 134.222 182.096L132.365 180.783ZM138.775 171.721C138.324 171.402 138.217 170.778 138.536 170.327L139.85 168.469C140.169 168.019 140.793 167.912 141.244 168.23L143.101 169.544C143.552 169.863 143.659 170.487 143.34 170.938L142.026 172.795C141.707 173.246 141.083 173.353 140.632 173.034L138.775 171.721ZM145.358 162.414C144.907 162.095 144.801 161.471 145.119 161.02L146.433 159.163C146.752 158.712 147.376 158.605 147.827 158.924L149.684 160.237C150.135 160.556 150.242 161.18 149.923 161.631L148.61 163.489C148.291 163.94 147.667 164.046 147.216 163.728L145.358 162.414ZM107.069 232.127C106.75 232.578 106.857 233.202 107.308 233.521L109.165 234.834C109.616 235.153 110.24 235.046 110.559 234.595L111.873 232.738C112.192 232.287 112.085 231.663 111.634 231.344L109.777 230.03C109.326 229.712 108.702 229.818 108.383 230.269L107.069 232.127ZM113.653 222.82C113.334 223.271 113.441 223.895 113.892 224.214L115.749 225.527C116.2 225.846 116.824 225.739 117.143 225.289L118.457 223.431C118.776 222.98 118.669 222.356 118.218 222.037L116.36 220.724C115.91 220.405 115.285 220.512 114.967 220.963L113.653 222.82ZM120.063 213.758C119.744 214.209 119.851 214.833 120.302 215.152L122.159 216.465C122.61 216.784 123.234 216.677 123.553 216.227L124.867 214.369C125.186 213.918 125.079 213.294 124.628 212.975L122.771 211.662C122.32 211.343 121.696 211.45 121.377 211.901L120.063 213.758ZM126.646 204.451C126.327 204.902 126.434 205.526 126.885 205.845L128.743 207.159C129.193 207.478 129.818 207.371 130.136 206.92L131.45 205.062C131.769 204.612 131.662 203.987 131.211 203.669L129.354 202.355C128.903 202.036 128.279 202.143 127.96 202.594L126.646 204.451ZM133.706 194.471C133.387 194.921 133.494 195.545 133.945 195.864L135.803 197.178C136.253 197.497 136.877 197.39 137.196 196.939L138.51 195.082C138.829 194.631 138.722 194.007 138.271 193.688L136.414 192.374C135.963 192.055 135.339 192.162 135.02 192.613L133.706 194.471ZM140.29 185.164C139.971 185.615 140.078 186.239 140.529 186.558L142.386 187.871C142.837 188.19 143.461 188.083 143.78 187.632L145.094 185.775C145.413 185.324 145.306 184.7 144.855 184.381L142.997 183.067C142.547 182.749 141.922 182.855 141.604 183.306L140.29 185.164ZM146.7 176.102C146.381 176.553 146.488 177.177 146.939 177.496L148.796 178.809C149.247 179.128 149.871 179.021 150.19 178.57L151.504 176.713C151.823 176.262 151.716 175.638 151.265 175.319L149.408 174.005C148.957 173.687 148.333 173.793 148.014 174.244L146.7 176.102ZM153.283 166.795C152.964 167.246 153.071 167.87 153.522 168.189L155.38 169.502C155.83 169.821 156.455 169.714 156.773 169.264L158.087 167.406C158.406 166.955 158.299 166.331 157.848 166.012L155.991 164.699C155.54 164.38 154.916 164.487 154.597 164.937L153.283 166.795ZM97.9103 212.174C97.4594 211.855 97.3524 211.231 97.6714 210.78L98.9852 208.923C99.3041 208.472 99.9282 208.365 100.379 208.684L102.236 209.998C102.687 210.317 102.794 210.941 102.475 211.392L101.161 213.249C100.843 213.7 100.218 213.807 99.7676 213.488L97.9103 212.174ZM104.494 202.867C104.043 202.548 103.936 201.924 104.255 201.473L105.569 199.616C105.888 199.165 106.512 199.058 106.963 199.377L108.82 200.691C109.271 201.01 109.378 201.634 109.059 202.085L107.745 203.942C107.426 204.393 106.802 204.5 106.351 204.181L104.494 202.867ZM110.904 193.805C110.453 193.486 110.346 192.862 110.665 192.411L111.979 190.554C112.298 190.103 112.922 189.996 113.373 190.315L115.23 191.629C115.681 191.948 115.788 192.572 115.469 193.023L114.155 194.88C113.836 195.331 113.212 195.438 112.761 195.119L110.904 193.805ZM117.487 184.498C117.036 184.179 116.93 183.555 117.248 183.104L118.562 181.247C118.881 180.796 119.505 180.689 119.956 181.008L121.813 182.322C122.264 182.641 122.371 183.265 122.052 183.716L120.739 185.573C120.42 186.024 119.796 186.131 119.345 185.812L117.487 184.498ZM124.547 174.518C124.096 174.199 123.989 173.575 124.308 173.124L125.622 171.267C125.941 170.816 126.565 170.709 127.016 171.028L128.873 172.341C129.324 172.66 129.431 173.284 129.112 173.735L127.798 175.593C127.48 176.044 126.855 176.15 126.405 175.832L124.547 174.518ZM131.131 165.211C130.68 164.892 130.573 164.268 130.892 163.817L132.206 161.96C132.525 161.509 133.149 161.402 133.6 161.721L135.457 163.035C135.908 163.354 136.015 163.978 135.696 164.429L134.382 166.286C134.063 166.737 133.439 166.844 132.988 166.525L131.131 165.211ZM137.541 156.149C137.09 155.83 136.983 155.206 137.302 154.755L138.616 152.898C138.935 152.447 139.559 152.34 140.01 152.659L141.867 153.973C142.318 154.292 142.425 154.916 142.106 155.367L140.792 157.224C140.473 157.675 139.849 157.782 139.398 157.463L137.541 156.149ZM144.124 146.842C143.674 146.523 143.567 145.899 143.885 145.448L145.199 143.591C145.518 143.14 146.142 143.033 146.593 143.352L148.45 144.666C148.901 144.985 149.008 145.609 148.689 146.06L147.376 147.917C147.057 148.368 146.433 148.475 145.982 148.156L144.124 146.842Z" fill="url(#paint7_linear)"/>
<g opacity="0.5">
<path fill-rule="evenodd" clip-rule="evenodd" d="M528.813 232.113C528.364 231.791 528.261 231.166 528.582 230.717L529.907 228.868C530.229 228.419 530.854 228.316 531.303 228.637L533.152 229.962C533.601 230.284 533.704 230.908 533.383 231.357L532.058 233.207C531.736 233.656 531.111 233.759 530.662 233.437L528.813 232.113ZM535.452 222.845C535.003 222.523 534.899 221.899 535.221 221.45L536.546 219.6C536.868 219.151 537.492 219.048 537.941 219.37L539.791 220.695C540.24 221.016 540.343 221.641 540.021 222.09L538.696 223.939C538.375 224.388 537.75 224.492 537.301 224.17L535.452 222.845ZM541.916 213.821C541.467 213.5 541.364 212.875 541.685 212.426L543.01 210.577C543.332 210.128 543.956 210.024 544.405 210.346L546.255 211.671C546.704 211.993 546.807 212.617 546.485 213.066L545.161 214.916C544.839 215.365 544.214 215.468 543.765 215.146L541.916 213.821ZM548.555 204.554C548.106 204.232 548.002 203.608 548.324 203.159L549.649 201.309C549.97 200.86 550.595 200.757 551.044 201.079L552.893 202.403C553.342 202.725 553.446 203.35 553.124 203.799L551.799 205.648C551.478 206.097 550.853 206.2 550.404 205.879L548.555 204.554ZM555.674 194.616C555.225 194.294 555.122 193.669 555.443 193.22L556.768 191.371C557.09 190.922 557.714 190.819 558.163 191.14L560.013 192.465C560.462 192.787 560.565 193.412 560.243 193.861L558.918 195.71C558.597 196.159 557.972 196.262 557.523 195.941L555.674 194.616ZM562.312 185.348C561.863 185.027 561.76 184.402 562.082 183.953L563.407 182.103C563.728 181.655 564.353 181.551 564.802 181.873L566.651 183.198C567.1 183.519 567.204 184.144 566.882 184.593L565.557 186.442C565.236 186.891 564.611 186.995 564.162 186.673L562.312 185.348ZM568.777 176.325C568.328 176.003 568.224 175.378 568.546 174.929L569.871 173.08C570.192 172.631 570.817 172.528 571.266 172.849L573.116 174.174C573.564 174.496 573.668 175.12 573.346 175.569L572.021 177.419C571.7 177.868 571.075 177.971 570.626 177.649L568.777 176.325ZM575.415 167.057C574.966 166.735 574.863 166.111 575.185 165.662L576.51 163.812C576.831 163.363 577.456 163.26 577.905 163.582L579.754 164.907C580.203 165.228 580.306 165.853 579.985 166.302L578.66 168.151C578.338 168.6 577.714 168.704 577.265 168.382L575.415 167.057ZM536.942 237.936C536.493 237.614 536.39 236.99 536.712 236.541L538.037 234.691C538.358 234.242 538.983 234.139 539.432 234.461L541.281 235.786C541.73 236.107 541.833 236.732 541.512 237.181L540.187 239.03C539.865 239.479 539.241 239.583 538.792 239.261L536.942 237.936ZM543.581 228.669C543.132 228.347 543.029 227.722 543.35 227.273L544.675 225.424C544.997 224.975 545.622 224.872 546.071 225.193L547.92 226.518C548.369 226.84 548.472 227.464 548.151 227.913L546.826 229.763C546.504 230.212 545.879 230.315 545.43 229.993L543.581 228.669ZM550.045 219.645C549.596 219.323 549.493 218.699 549.814 218.25L551.139 216.4C551.461 215.951 552.086 215.848 552.535 216.17L554.384 217.494C554.833 217.816 554.936 218.441 554.615 218.89L553.29 220.739C552.968 221.188 552.343 221.291 551.895 220.97L550.045 219.645ZM556.684 210.377C556.235 210.056 556.132 209.431 556.453 208.982L557.778 207.133C558.1 206.684 558.724 206.58 559.173 206.902L561.023 208.227C561.472 208.549 561.575 209.173 561.253 209.622L559.929 211.472C559.607 211.921 558.982 212.024 558.533 211.702L556.684 210.377ZM563.803 200.439C563.354 200.118 563.251 199.493 563.572 199.044L564.897 197.194C565.219 196.745 565.844 196.642 566.293 196.964L568.142 198.289C568.591 198.61 568.694 199.235 568.373 199.684L567.048 201.533C566.726 201.982 566.101 202.086 565.652 201.764L563.803 200.439ZM570.442 191.172C569.993 190.85 569.89 190.225 570.211 189.776L571.536 187.927C571.858 187.478 572.482 187.375 572.931 187.696L574.781 189.021C575.23 189.343 575.333 189.968 575.011 190.416L573.686 192.266C573.365 192.715 572.74 192.818 572.291 192.497L570.442 191.172ZM576.906 182.148C576.457 181.826 576.354 181.202 576.675 180.753L578 178.903C578.322 178.454 578.946 178.351 579.395 178.673L581.245 179.998C581.694 180.319 581.797 180.944 581.475 181.393L580.151 183.242C579.829 183.691 579.204 183.794 578.755 183.473L576.906 182.148ZM583.545 172.881C583.096 172.559 582.992 171.934 583.314 171.485L584.639 169.636C584.96 169.187 585.585 169.084 586.034 169.405L587.884 170.73C588.333 171.052 588.436 171.676 588.114 172.125L586.789 173.975C586.468 174.424 585.843 174.527 585.394 174.205L583.545 172.881Z" fill="url(#paint8_linear)"/>
</g>
<path fill-rule="evenodd" clip-rule="evenodd" d="M358.813 52.1128C358.364 51.7912 358.261 51.1665 358.582 50.7175L359.907 48.8681C360.229 48.4191 360.854 48.3159 361.303 48.6375L363.152 49.9623C363.601 50.284 363.704 50.9087 363.383 51.3576L362.058 53.2071C361.736 53.656 361.111 53.7593 360.662 53.4377L358.813 52.1128ZM365.452 42.8453C365.003 42.5237 364.899 41.899 365.221 41.45L366.546 39.6006C366.868 39.1516 367.492 39.0484 367.941 39.37L369.791 40.6949C370.24 41.0165 370.343 41.6412 370.021 42.0901L368.696 43.9396C368.375 44.3886 367.75 44.4918 367.301 44.1702L365.452 42.8453ZM371.916 33.8217C371.467 33.5 371.364 32.8754 371.685 32.4264L373.01 30.5769C373.332 30.128 373.956 30.0247 374.405 30.3463L376.255 31.6712C376.704 31.9928 376.807 32.6175 376.485 33.0665L375.161 34.9159C374.839 35.3649 374.214 35.4681 373.765 35.1465L371.916 33.8217ZM378.555 24.5542C378.106 24.2326 378.002 23.6079 378.324 23.1589L379.649 21.3094C379.97 20.8605 380.595 20.7572 381.044 21.0789L382.893 22.4037C383.342 22.7253 383.446 23.35 383.124 23.799L381.799 25.6484C381.478 26.0974 380.853 26.2006 380.404 25.879L378.555 24.5542ZM385.674 14.616C385.225 14.2943 385.122 13.6696 385.443 13.2207L386.768 11.3712C387.09 10.9222 387.714 10.819 388.163 11.1406L390.013 12.4655C390.462 12.7871 390.565 13.4118 390.243 13.8608L388.918 15.7102C388.597 16.1592 387.972 16.2624 387.523 15.9408L385.674 14.616ZM392.312 5.34846C391.863 5.02684 391.76 4.40215 392.082 3.95317L393.407 2.10373C393.728 1.65476 394.353 1.55152 394.802 1.87314L396.651 3.19798C397.1 3.5196 397.204 4.14429 396.882 4.59327L395.557 6.44271C395.236 6.89168 394.611 6.99492 394.162 6.6733L392.312 5.34846ZM398.777 -3.67521C398.328 -3.99683 398.224 -4.62152 398.546 -5.0705L399.871 -6.91994C400.192 -7.36891 400.817 -7.47215 401.266 -7.15053L403.116 -5.82569C403.564 -5.50407 403.668 -4.87938 403.346 -4.4304L402.021 -2.58096C401.7 -2.13199 401.075 -2.02875 400.626 -2.35037L398.777 -3.67521ZM405.415 -12.9427C404.966 -13.2643 404.863 -13.889 405.185 -14.338L406.51 -16.1874C406.831 -16.6364 407.456 -16.7396 407.905 -16.418L409.754 -15.0932C410.203 -14.7716 410.306 -14.1469 409.985 -13.6979L408.66 -11.8485C408.338 -11.3995 407.714 -11.2962 407.265 -11.6179L405.415 -12.9427ZM366.942 57.9363C366.493 57.6147 366.39 56.99 366.712 56.541L368.037 54.6916C368.358 54.2426 368.983 54.1393 369.432 54.461L371.281 55.7858C371.73 56.1074 371.833 56.7321 371.512 57.1811L370.187 59.0305C369.865 59.4795 369.241 59.5827 368.792 59.2611L366.942 57.9363ZM373.581 48.6688C373.132 48.3472 373.029 47.7225 373.35 47.2735L374.675 45.4241C374.997 44.9751 375.622 44.8719 376.071 45.1935L377.92 46.5183C378.369 46.8399 378.472 47.4646 378.151 47.9136L376.826 49.763C376.504 50.212 375.879 50.3153 375.43 49.9936L373.581 48.6688ZM380.045 39.6451C379.596 39.3235 379.493 38.6988 379.814 38.2498L381.139 36.4004C381.461 35.9514 382.086 35.8482 382.535 36.1698L384.384 37.4946C384.833 37.8163 384.936 38.441 384.615 38.8899L383.29 40.7394C382.968 41.1883 382.343 41.2916 381.895 40.97L380.045 39.6451ZM386.684 30.3776C386.235 30.056 386.132 29.4313 386.453 28.9823L387.778 27.1329C388.1 26.6839 388.724 26.5807 389.173 26.9023L391.023 28.2272C391.472 28.5488 391.575 29.1735 391.253 29.6224L389.929 31.4719C389.607 31.9209 388.982 32.0241 388.533 31.7025L386.684 30.3776ZM393.803 20.4394C393.354 20.1178 393.251 19.4931 393.572 19.0441L394.897 17.1947C395.219 16.7457 395.844 16.6425 396.293 16.9641L398.142 18.2889C398.591 18.6106 398.694 19.2352 398.373 19.6842L397.048 21.5337C396.726 21.9826 396.101 22.0859 395.652 21.7643L393.803 20.4394ZM400.442 11.1719C399.993 10.8503 399.89 10.2256 400.211 9.77663L401.536 7.92719C401.858 7.47822 402.482 7.37498 402.931 7.6966L404.781 9.02144C405.23 9.34306 405.333 9.96775 405.011 10.4167L403.686 12.2662C403.365 12.7151 402.74 12.8184 402.291 12.4968L400.442 11.1719ZM406.906 2.14825C406.457 1.82663 406.354 1.20194 406.675 0.752963L408 -1.09648C408.322 -1.54545 408.946 -1.64869 409.395 -1.32707L411.245 -0.00223096C411.694 0.31939 411.797 0.944082 411.475 1.39306L410.151 3.2425C409.829 3.69147 409.204 3.79471 408.755 3.47309L406.906 2.14825ZM413.545 -7.11924C413.096 -7.44086 412.992 -8.06555 413.314 -8.51453L414.639 -10.364C414.96 -10.8129 415.585 -10.9162 416.034 -10.5946L417.884 -9.26972C418.333 -8.9481 418.436 -8.32341 418.114 -7.87443L416.789 -6.02499C416.468 -5.57602 415.843 -5.47278 415.394 -5.7944L413.545 -7.11924Z" fill="url(#paint9_linear)"/>
<path opacity="0.6" fill-rule="evenodd" clip-rule="evenodd" d="M889.866 175.505C889.388 175.229 889.224 174.618 889.5 174.139L890.637 172.169C890.914 171.691 891.525 171.527 892.004 171.803L893.974 172.941C894.452 173.217 894.616 173.828 894.34 174.307L893.202 176.277C892.926 176.755 892.315 176.919 891.836 176.643L889.866 175.505ZM895.566 165.633C895.088 165.357 894.924 164.745 895.2 164.267L896.337 162.297C896.614 161.818 897.225 161.654 897.704 161.93L899.674 163.068C900.152 163.344 900.316 163.956 900.04 164.434L898.902 166.404C898.626 166.883 898.015 167.046 897.536 166.77L895.566 165.633ZM901.116 156.02C900.638 155.744 900.474 155.132 900.75 154.654L901.887 152.684C902.164 152.205 902.775 152.041 903.254 152.318L905.224 153.455C905.702 153.731 905.866 154.343 905.59 154.821L904.452 156.791C904.176 157.27 903.565 157.433 903.086 157.157L901.116 156.02ZM906.816 146.147C906.338 145.871 906.174 145.259 906.45 144.781L907.587 142.811C907.864 142.333 908.475 142.169 908.954 142.445L910.924 143.582C911.402 143.859 911.566 144.47 911.29 144.948L910.152 146.919C909.876 147.397 909.265 147.561 908.786 147.285L906.816 146.147ZM912.929 135.56C912.45 135.284 912.286 134.672 912.562 134.194L913.7 132.224C913.976 131.745 914.588 131.582 915.066 131.858L917.036 132.995C917.515 133.271 917.678 133.883 917.402 134.361L916.265 136.331C915.989 136.81 915.377 136.974 914.899 136.697L912.929 135.56ZM918.629 125.687C918.15 125.411 917.986 124.8 918.262 124.321L919.4 122.351C919.676 121.873 920.288 121.709 920.766 121.985L922.736 123.123C923.215 123.399 923.378 124.01 923.102 124.489L921.965 126.459C921.689 126.937 921.077 127.101 920.599 126.825L918.629 125.687ZM924.179 116.074C923.7 115.798 923.536 115.187 923.812 114.708L924.95 112.738C925.226 112.26 925.838 112.096 926.316 112.372L928.286 113.51C928.765 113.786 928.928 114.397 928.652 114.876L927.515 116.846C927.239 117.324 926.627 117.488 926.149 117.212L924.179 116.074ZM929.879 106.202C929.4 105.926 929.236 105.314 929.512 104.836L930.65 102.866C930.926 102.387 931.538 102.223 932.016 102.499L933.986 103.637C934.465 103.913 934.628 104.525 934.352 105.003L933.215 106.973C932.939 107.452 932.327 107.615 931.849 107.339L929.879 106.202ZM901.187 195.898C900.708 195.622 900.544 195.01 900.821 194.532L901.958 192.561C902.234 192.083 902.846 191.919 903.324 192.195L905.294 193.333C905.773 193.609 905.936 194.221 905.66 194.699L904.523 196.669C904.247 197.147 903.635 197.311 903.157 197.035L901.187 195.898ZM906.887 186.025C906.408 185.749 906.244 185.137 906.52 184.659L907.658 182.689C907.934 182.211 908.546 182.047 909.024 182.323L910.994 183.46C911.473 183.736 911.636 184.348 911.36 184.826L910.223 186.797C909.947 187.275 909.335 187.439 908.857 187.163L906.887 186.025ZM912.437 176.412C911.958 176.136 911.794 175.524 912.071 175.046L913.208 173.076C913.484 172.598 914.096 172.434 914.574 172.71L916.544 173.847C917.023 174.124 917.186 174.735 916.91 175.213L915.773 177.184C915.497 177.662 914.885 177.826 914.407 177.55L912.437 176.412ZM918.137 166.539C917.658 166.263 917.494 165.652 917.77 165.173L918.908 163.203C919.184 162.725 919.796 162.561 920.274 162.837L922.244 163.975C922.723 164.251 922.886 164.862 922.61 165.341L921.473 167.311C921.197 167.789 920.585 167.953 920.107 167.677L918.137 166.539ZM924.249 155.952C923.771 155.676 923.607 155.065 923.883 154.586L925.021 152.616C925.297 152.138 925.908 151.974 926.387 152.25L928.357 153.388C928.835 153.664 928.999 154.275 928.723 154.754L927.585 156.724C927.309 157.202 926.698 157.366 926.219 157.09L924.249 155.952ZM929.949 146.08C929.471 145.803 929.307 145.192 929.583 144.714L930.72 142.743C930.997 142.265 931.608 142.101 932.087 142.377L934.057 143.515C934.535 143.791 934.699 144.403 934.423 144.881L933.285 146.851C933.009 147.329 932.398 147.493 931.919 147.217L929.949 146.08ZM935.499 136.467C935.021 136.191 934.857 135.579 935.133 135.101L936.271 133.13C936.547 132.652 937.158 132.488 937.637 132.764L939.607 133.902C940.085 134.178 940.249 134.79 939.973 135.268L938.835 137.238C938.559 137.716 937.948 137.88 937.469 137.604L935.499 136.467ZM941.199 126.594C940.721 126.318 940.557 125.706 940.833 125.228L941.97 123.258C942.247 122.78 942.858 122.616 943.337 122.892L945.307 124.029C945.785 124.305 945.949 124.917 945.673 125.395L944.535 127.366C944.259 127.844 943.648 128.008 943.169 127.732L941.199 126.594ZM909.481 199.532C909.205 200.01 909.368 200.622 909.847 200.898L911.817 202.035C912.295 202.311 912.907 202.147 913.183 201.669L914.321 199.699C914.597 199.221 914.433 198.609 913.954 198.333L911.984 197.195C911.506 196.919 910.894 197.083 910.618 197.561L909.481 199.532ZM915.181 189.659C914.905 190.137 915.068 190.749 915.547 191.025L917.517 192.163C917.995 192.439 918.607 192.275 918.883 191.797L920.021 189.826C920.297 189.348 920.133 188.736 919.654 188.46L917.684 187.323C917.206 187.047 916.594 187.211 916.318 187.689L915.181 189.659ZM920.731 180.046C920.455 180.524 920.618 181.136 921.097 181.412L923.067 182.55C923.545 182.826 924.157 182.662 924.433 182.184L925.571 180.213C925.847 179.735 925.683 179.124 925.204 178.847L923.234 177.71C922.756 177.434 922.144 177.598 921.868 178.076L920.731 180.046ZM926.431 170.173C926.155 170.652 926.318 171.263 926.797 171.539L928.767 172.677C929.245 172.953 929.857 172.789 930.133 172.311L931.271 170.341C931.547 169.862 931.383 169.251 930.904 168.975L928.934 167.837C928.456 167.561 927.844 167.725 927.568 168.203L926.431 170.173ZM932.543 159.586C932.267 160.065 932.431 160.676 932.909 160.952L934.879 162.09C935.358 162.366 935.969 162.202 936.246 161.724L937.383 159.754C937.659 159.275 937.495 158.664 937.017 158.388L935.047 157.25C934.568 156.974 933.957 157.138 933.681 157.616L932.543 159.586ZM938.243 149.714C937.967 150.192 938.131 150.803 938.609 151.08L940.579 152.217C941.058 152.493 941.669 152.329 941.946 151.851L943.083 149.881C943.359 149.403 943.195 148.791 942.717 148.515L940.747 147.377C940.268 147.101 939.657 147.265 939.381 147.743L938.243 149.714ZM943.793 140.101C943.517 140.579 943.681 141.191 944.159 141.467L946.129 142.604C946.608 142.88 947.219 142.716 947.496 142.238L948.633 140.268C948.909 139.79 948.745 139.178 948.267 138.902L946.297 137.764C945.818 137.488 945.207 137.652 944.931 138.13L943.793 140.101ZM949.493 130.228C949.217 130.706 949.381 131.318 949.859 131.594L951.829 132.732C952.308 133.008 952.919 132.844 953.196 132.366L954.333 130.395C954.609 129.917 954.445 129.305 953.967 129.029L951.997 127.892C951.518 127.616 950.907 127.78 950.631 128.258L949.493 130.228ZM898.526 180.505C898.048 180.229 897.884 179.618 898.16 179.139L899.298 177.169C899.574 176.691 900.185 176.527 900.664 176.803L902.634 177.941C903.112 178.217 903.276 178.828 903 179.307L901.863 181.277C901.586 181.755 900.975 181.919 900.496 181.643L898.526 180.505ZM904.226 170.633C903.748 170.357 903.584 169.745 903.86 169.267L904.998 167.297C905.274 166.818 905.885 166.654 906.364 166.93L908.334 168.068C908.812 168.344 908.976 168.956 908.7 169.434L907.562 171.404C907.286 171.883 906.675 172.046 906.196 171.77L904.226 170.633ZM909.776 161.02C909.298 160.744 909.134 160.132 909.41 159.654L910.548 157.684C910.824 157.205 911.435 157.041 911.914 157.318L913.884 158.455C914.362 158.731 914.526 159.343 914.25 159.821L913.113 161.791C912.836 162.27 912.225 162.433 911.746 162.157L909.776 161.02ZM915.476 151.147C914.998 150.871 914.834 150.259 915.11 149.781L916.248 147.811C916.524 147.333 917.135 147.169 917.614 147.445L919.584 148.582C920.062 148.859 920.226 149.47 919.95 149.948L918.812 151.919C918.536 152.397 917.925 152.561 917.446 152.285L915.476 151.147ZM921.589 140.56C921.11 140.284 920.947 139.672 921.223 139.194L922.36 137.224C922.636 136.745 923.248 136.582 923.726 136.858L925.696 137.995C926.175 138.271 926.339 138.883 926.063 139.361L924.925 141.331C924.649 141.81 924.037 141.974 923.559 141.697L921.589 140.56ZM927.289 130.687C926.81 130.411 926.647 129.8 926.923 129.321L928.06 127.351C928.336 126.873 928.948 126.709 929.426 126.985L931.396 128.123C931.875 128.399 932.039 129.01 931.762 129.489L930.625 131.459C930.349 131.937 929.737 132.101 929.259 131.825L927.289 130.687ZM932.839 121.074C932.36 120.798 932.197 120.187 932.473 119.708L933.61 117.738C933.886 117.26 934.498 117.096 934.976 117.372L936.946 118.51C937.425 118.786 937.589 119.397 937.313 119.876L936.175 121.846C935.899 122.324 935.287 122.488 934.809 122.212L932.839 121.074ZM938.539 111.202C938.06 110.926 937.897 110.314 938.173 109.836L939.31 107.866C939.586 107.387 940.198 107.223 940.676 107.499L942.646 108.637C943.125 108.913 943.289 109.525 943.012 110.003L941.875 111.973C941.599 112.452 940.987 112.615 940.509 112.339L938.539 111.202Z" fill="url(#paint10_linear)"/>
</g>
<defs>
<linearGradient id="paint0_linear" x1="502.984" y1="136.034" x2="464.071" y2="90.0284" gradientUnits="userSpaceOnUse">
<stop stop-color="#F7FDFF"/>
<stop offset="1" stop-color="#FAFEFF" stop-opacity="0.76"/>
</linearGradient>
<linearGradient id="paint1_linear" x1="465.26" y1="135.733" x2="411.103" y2="71.7055" gradientUnits="userSpaceOnUse">
<stop stop-color="#ECFBFF" stop-opacity="0.5"/>
<stop offset="1" stop-color="#FAFEFF" stop-opacity="0.53"/>
</linearGradient>
<linearGradient id="paint2_linear" x1="6.3317" y1="249.254" x2="120.968" y2="126.857" gradientUnits="userSpaceOnUse">
<stop offset="0.00905351" stop-color="#C8CDFF" stop-opacity="0.33"/>
<stop offset="0.799668" stop-color="#B1ECFF" stop-opacity="0"/>
</linearGradient>
<linearGradient id="paint3_linear" x1="26.7668" y1="256.464" x2="128.622" y2="104.545" gradientUnits="userSpaceOnUse">
<stop stop-color="#E6F2FE" stop-opacity="0.2"/>
<stop offset="1" stop-color="#B1ECFF" stop-opacity="0.29"/>
</linearGradient>
<linearGradient id="paint4_linear" x1="18.4286" y1="148.427" x2="72.9401" y2="51.7045" gradientUnits="userSpaceOnUse">
<stop stop-color="#C8CDFF" stop-opacity="0.18"/>
<stop offset="1" stop-color="#B1ECFF" stop-opacity="0.26"/>
</linearGradient>
<linearGradient id="paint5_linear" x1="12.2787" y1="136.936" x2="69.3055" y2="63.8612" gradientUnits="userSpaceOnUse">
<stop stop-color="#C8CDFF" stop-opacity="0.13"/>
<stop offset="1" stop-color="#B1ECFF" stop-opacity="0.32"/>
</linearGradient>
<linearGradient id="paint6_linear" x1="7.788" y1="86.8545" x2="43.9584" y2="40.5052" gradientUnits="userSpaceOnUse">
<stop stop-color="#E6F2FE" stop-opacity="0.11"/>
<stop offset="1" stop-color="#B1ECFF" stop-opacity="0.19"/>
</linearGradient>
<linearGradient id="paint7_linear" x1="106" y1="232" x2="157" y2="154.5" gradientUnits="userSpaceOnUse">
<stop stop-color="#D1E6EC"/>
<stop offset="1" stop-color="#BCE5F2" stop-opacity="0"/>
</linearGradient>
<linearGradient id="paint8_linear" x1="585.767" y1="166.298" x2="531.8" y2="234.846" gradientUnits="userSpaceOnUse">
<stop stop-color="#D4EAFF"/>
<stop offset="1" stop-color="#BCE5F2" stop-opacity="0"/>
</linearGradient>
<linearGradient id="paint9_linear" x1="415.767" y1="-13.7013" x2="361.8" y2="54.8466" gradientUnits="userSpaceOnUse">
<stop stop-color="#C9E5FE"/>
<stop offset="1" stop-color="#BCE5F2" stop-opacity="0.07"/>
</linearGradient>
<linearGradient id="paint10_linear" x1="908.404" y1="199.503" x2="952.064" y2="117.643" gradientUnits="userSpaceOnUse">
<stop stop-color="#D1E6EC"/>
<stop offset="1" stop-color="#BCE5F2" stop-opacity="0"/>
</linearGradient>
<clipPath id="clip0">
<rect width="1072" height="194" fill="white"/>
</clipPath>
</defs>
</svg>
