<svg width="21" height="20" viewBox="0 0 21 21" fill="none" xmlns="http://www.w3.org/2000/svg">
<path d="M10.4516 0.000534893C7.70897 -0.0273348 5.06748 1.03487 3.10767 2.9537C1.14786 4.87254 0.0300818 7.49099 0 10.2336C0.0105679 12.401 0.707804 14.5094 1.99156 16.2558C3.27532 18.0021 5.07955 19.2967 7.14509 19.9536C7.66767 20.0486 7.8577 19.735 7.8577 19.4595V17.7207C4.95026 18.3383 4.33266 16.3525 4.33266 16.3525C4.13911 15.7291 3.72764 15.1962 3.17348 14.8513C2.22334 14.2242 3.2495 14.2337 3.2495 14.2337C3.57792 14.2776 3.89213 14.3953 4.16858 14.578C4.44503 14.7606 4.67654 15.0035 4.84574 15.2884C5.1406 15.7997 5.62442 16.1748 6.19306 16.3329C6.7617 16.4911 7.3697 16.4196 7.8862 16.134C7.93932 15.6137 8.17495 15.129 8.55131 14.7658C6.23295 14.5093 3.80058 13.6351 3.80058 9.71102C3.77985 8.68741 4.15807 7.69586 4.85524 6.9461C4.53773 6.06728 4.57522 5.09931 4.95976 4.24768C4.95976 4.24768 5.84339 3.97214 7.81019 5.29284C9.52225 4.83662 11.3239 4.83662 13.036 5.29284C15.0313 3.97214 15.8864 4.24768 15.8864 4.24768C16.271 5.09931 16.3085 6.06728 15.9909 6.9461C16.7043 7.68212 17.103 8.66701 17.1026 9.69201C17.1026 13.6256 14.6512 14.4902 12.3519 14.7468C12.6037 14.9912 12.7981 15.2884 12.9214 15.617C13.0446 15.9456 13.0935 16.2974 13.0645 16.6471V19.45C13.0645 19.7826 13.2545 20.0486 13.7771 19.9441C15.8368 19.2832 17.6349 17.9883 18.9147 16.2443C20.1945 14.5004 20.8905 12.3967 20.9032 10.2336C20.8731 7.49099 19.7553 4.87254 17.7955 2.9537C15.8357 1.03487 13.1942 -0.0273348 10.4516 0.000534893Z" fill="#2483FF"/>
</svg>
