<svg width="16" height="16" viewBox="0 0 16 16" fill="none" xmlns="http://www.w3.org/2000/svg">
<g clip-path="url(#clip0)">
<path fill-rule="evenodd" clip-rule="evenodd" d="M12.5436 10.8367L15.2223 13.5154C15.4915 13.7846 15.4915 14.2212 15.2223 14.4905C15.0876 14.6251 14.9112 14.6925 14.7347 14.6925C14.5582 14.6925 14.3818 14.6251 14.2471 14.4905L11.5371 11.7805C10.4053 12.6399 9.03141 13.1054 7.58575 13.1054C5.83594 13.1054 4.19083 12.424 2.95353 11.1867C1.71622 9.94932 1.03479 8.30421 1.03479 6.5544C1.03479 4.80458 1.7162 3.15948 2.95352 1.92216C4.19082 0.684843 5.8359 0.00341797 7.58574 0.00341797C9.33559 0.00341797 10.9807 0.684843 12.218 1.92214C13.4553 3.15948 14.1368 4.80457 14.1368 6.5544C14.1368 8.14404 13.5743 9.64717 12.5436 10.8367ZM7.58548 1.38241C4.73368 1.38241 2.41356 3.70254 2.41356 6.55436C2.41356 9.40618 4.73368 11.7263 7.58548 11.7263C10.4373 11.7263 12.7574 9.40618 12.7574 6.55436C12.7574 3.70254 10.4373 1.38241 7.58548 1.38241Z" fill="#45474A"/>
</g>
<defs>
<clipPath id="clip0">
<rect width="16" height="16" fill="white"/>
</clipPath>
</defs>
</svg>
