<svg width="16" height="16" viewBox="0 0 16 16" fill="none" xmlns="http://www.w3.org/2000/svg">
    <path fill-rule="evenodd" clip-rule="evenodd"
          d="M12.5714 6.85714C12.5714 10.0131 10.0131 12.5714 6.85714 12.5714C3.70123 12.5714 1.14286 10.0131 1.14286 6.85714C1.14286 3.70123 3.70123 1.14286 6.85714 1.14286C10.0131 1.14286 12.5714 3.70123 12.5714 6.85714ZM13.7143 6.85714C13.7143 8.63016 13.0414 10.246 11.937 11.4632L15.4235 14.9497C15.6467 15.1729 15.6467 15.5347 15.4235 15.7579C15.2003 15.981 14.8385 15.981 14.6154 15.7579L11.1011 12.2435C9.93365 13.1646 8.45959 13.7143 6.85714 13.7143C3.07005 13.7143 0 10.6442 0 6.85714C0 3.07005 3.07005 0 6.85714 0C10.6442 0 13.7143 3.07005 13.7143 6.85714Z"
          fill="#B0BCC1"/>
</svg>
