<svg width="20" height="20" viewBox="0 0 20 20" fill="none" xmlns="http://www.w3.org/2000/svg">
    <path d="M19.7218 2.63894C19.7218 1.25005 16.944 0.277832 13.7496 0.277832C10.5551 0.277832 7.63845 1.25005 7.63845 2.63894V6.80561H6.24957C3.05512 6.66672 0.277344 7.63894 0.277344 8.88894V17.6389C0.277344 18.8889 3.05512 19.7223 6.24957 19.7223C9.5829 19.7223 12.2218 18.8889 12.2218 17.7778V16.9445H13.6107C16.944 16.9445 19.5829 16.1112 19.5829 15.0001V2.63894H19.7218ZM11.1107 13.1945C10.8329 13.7501 9.16623 14.5834 6.38845 14.5834C3.61068 14.5834 1.80512 13.7501 1.66623 13.1945V10.9723C2.77734 11.6667 4.5829 11.9445 6.38845 11.9445C8.19401 11.9445 9.99957 11.6667 11.1107 10.9723V13.1945ZM6.24957 7.91672C9.02734 7.91672 10.694 8.75005 10.9718 9.02783V9.4445C10.694 10.0001 9.02734 10.8334 6.24957 10.8334C3.47179 10.8334 1.66623 10.0001 1.52734 9.4445V9.02783C1.80512 8.61117 3.47179 7.91672 6.24957 7.91672ZM6.24957 18.4723C3.61068 18.4723 1.94401 17.9167 1.52734 17.5001V14.7223C2.63845 15.4167 4.44401 15.6945 6.24957 15.6945C8.05512 15.6945 9.86068 15.4167 10.9718 14.7223V17.5001C10.694 17.9167 8.88845 18.4723 6.24957 18.4723ZM18.4718 14.7223C18.0551 15.1389 16.3885 15.6945 13.7496 15.6945H12.3607V12.9167C12.7773 12.9167 13.3329 13.0556 13.7496 13.0556C15.5551 13.0556 17.3607 12.7778 18.4718 12.0834V14.7223ZM18.4718 10.2778C18.194 10.8334 16.5273 11.6667 13.7496 11.6667C13.194 11.6667 12.7773 11.6667 12.3607 11.5278V9.16672C12.7773 9.16672 13.3329 9.30561 13.7496 9.30561C15.5551 9.30561 17.3607 9.02783 18.4718 8.33339V10.2778ZM18.4718 6.66672C18.194 7.22228 16.5273 8.05561 13.7496 8.05561C12.9162 8.05561 12.2218 8.05561 11.6662 7.91672C11.1107 7.50005 10.2773 7.22228 9.16623 6.9445L8.88845 6.66672V4.72228C9.99956 5.41672 11.8051 5.6945 13.6107 5.6945C15.4162 5.6945 17.2218 5.41672 18.3329 4.72228V6.66672H18.4718ZM18.4718 3.05561C18.194 3.61117 16.5273 4.4445 13.7496 4.4445C10.9718 4.4445 9.16623 3.61117 9.02734 3.05561V2.63894C9.30512 2.22228 10.9718 1.52783 13.7496 1.52783C16.5273 1.52783 18.194 2.36117 18.4718 2.63894V3.05561Z"
          fill="#1A3138" stroke="#1A3138" stroke-width="0.1"/>
</svg>
