<svg width="24" height="24" viewBox="0 0 24 24" fill="none" xmlns="http://www.w3.org/2000/svg">
    <rect width="24" height="24" rx="12" fill="#3BBFAA"/>
    <g clip-path="url(#clip0_453_1343)">
        <path d="M13.5289 9.09026C13.3629 11.0577 11.4898 12.8378 10.8566 13.962C10.2339 15.0677 10.0273 16.1113 10.5175 18.1803C10.5275 18.2225 10.4882 18.2602 10.4502 18.2426C9.78812 17.9371 7.5 16.8258 7.5 13.9172C7.5 10.0259 11.6421 9.92281 11.3663 4.55729C11.3642 4.51482 11.4084 4.48476 11.4423 4.5082C12.8424 5.479 13.6918 7.16012 13.5289 9.09026Z"
              fill="white"/>
        <path d="M10.8313 18.3184C10.8121 18.312 10.7986 18.2933 10.7975 18.2722C10.7315 16.9644 11.395 16.1148 12.14 15.4866C13.8406 14.0528 14.8618 12.0955 14.3226 9.83002C14.3104 9.77864 14.3687 9.74224 14.4033 9.7807C14.8389 10.2647 15.3213 11.0471 15.5711 11.5947C16.615 13.9473 16.0579 16.6435 13.56 18.0041C12.7653 18.4179 11.8195 18.6526 10.8313 18.3184Z"
              fill="white"/>
    </g>
    <defs>
        <clipPath id="clip0_453_1343">
            <rect width="8.61539" height="14" fill="white" transform="translate(7.5 4.5)"/>
        </clipPath>
    </defs>
</svg>
