<svg width="14" height="14" viewBox="0 0 14 14" fill="none" xmlns="http://www.w3.org/2000/svg">
<g clip-path="url(#clip0_5791_27424)">
<path d="M7.02731 14C6.93748 13.9996 6.84876 13.9801 6.76702 13.9429C2.7294 12.0955 0.678842 9.55608 0.678842 6.38184V2.57277C0.671616 2.43433 0.709903 2.29733 0.787854 2.1827C0.865805 2.06806 0.979136 1.98209 1.11054 1.93792L6.82415 0.0333818C6.95593 -0.0111273 7.09868 -0.0111273 7.23046 0.0333818L12.9441 1.93792C13.0755 1.98209 13.1888 2.06806 13.2668 2.1827C13.3447 2.29733 13.383 2.43433 13.3758 2.57277V6.38184C13.3758 9.55608 11.3252 12.0955 7.28759 13.9429C7.20585 13.9801 7.11713 13.9996 7.02731 14ZM1.94853 3.02986V6.38184C1.94853 8.99106 3.61183 11.048 7.02731 12.6668C10.4428 11.048 12.1061 8.99106 12.1061 6.38184V3.02986L7.02731 1.33482L1.94853 3.02986Z" fill="#15A1EF"/>
<path d="M9.43331 9.89257H4.62117C4.4528 9.89257 4.29133 9.82569 4.17227 9.70663C4.05321 9.58757 3.98633 9.4261 3.98633 9.25773V7.65157C3.98633 7.4832 4.05321 7.32172 4.17227 7.20266C4.29133 7.08361 4.4528 7.01672 4.62117 7.01672H5.32585V6.88975C5.0469 6.56435 4.86711 6.16579 4.8078 5.74131C4.74848 5.31683 4.81214 4.88425 4.99122 4.49485C5.1703 4.10545 5.45729 3.77558 5.81816 3.54433C6.17903 3.31309 6.59864 3.19019 7.02724 3.19019C7.45584 3.19019 7.87546 3.31309 8.23633 3.54433C8.59719 3.77558 8.88418 4.10545 9.06326 4.49485C9.24234 4.88425 9.306 5.31683 9.24669 5.74131C9.18738 6.16579 9.00759 6.56435 8.72863 6.88975V7.01672H9.43331C9.60168 7.01672 9.76316 7.08361 9.88221 7.20266C10.0013 7.32172 10.0682 7.4832 10.0682 7.65157V9.25773C10.0682 9.4261 10.0013 9.58757 9.88221 9.70663C9.76316 9.82569 9.60168 9.89257 9.43331 9.89257ZM5.25602 8.62288H8.79846V8.28641H8.09378C7.92541 8.28641 7.76394 8.21953 7.64488 8.10047C7.52582 7.98141 7.45894 7.81994 7.45894 7.65157V6.63581C7.45915 6.54722 7.4779 6.45966 7.51398 6.37875C7.55006 6.29784 7.60267 6.22538 7.66844 6.16603C7.81841 6.03651 7.92518 5.86423 7.97443 5.67229C8.02368 5.48035 8.01304 5.27794 7.94395 5.09221C7.87485 4.90649 7.75061 4.74635 7.58789 4.63327C7.42516 4.52018 7.23175 4.45958 7.03359 4.45958C6.83543 4.45958 6.64202 4.52018 6.47929 4.63327C6.31657 4.74635 6.19233 4.90649 6.12323 5.09221C6.05414 5.27794 6.0435 5.48035 6.09275 5.67229C6.142 5.86423 6.24877 6.03651 6.39874 6.16603C6.46451 6.22538 6.51712 6.29784 6.55321 6.37875C6.58929 6.45966 6.60803 6.54722 6.60824 6.63581V7.65157C6.60824 7.81994 6.54136 7.98141 6.4223 8.10047C6.30324 8.21953 6.14177 8.28641 5.9734 8.28641H5.25602V8.62288Z" fill="#15A1EF" stroke="#F7FBFC" stroke-width="0.2"/>
</g>
<defs>
<clipPath id="clip0_5791_27424">
<rect width="14" height="14" fill="white"/>
</clipPath>
</defs>
</svg>
