<svg width="18" height="18" viewBox="0 0 18 18" fill="none" xmlns="http://www.w3.org/2000/svg">
<path d="M10.9635 1.14551C10.1823 1.14551 9.43315 1.45583 8.88077 2.00821C8.32839 2.56059 8.01807 3.30978 8.01807 4.09096C8.01807 4.87215 8.32839 5.62133 8.88077 6.17371C9.43315 6.72609 10.1823 7.03642 10.9635 7.03642C11.7447 7.03642 12.4939 6.72609 13.0463 6.17371C13.5987 5.62133 13.909 4.87215 13.909 4.09096C13.909 3.30978 13.5987 2.56059 13.0463 2.00821C12.4939 1.45583 11.7447 1.14551 10.9635 1.14551ZM10.9635 2.4546C11.1784 2.4546 11.3912 2.49692 11.5897 2.57916C11.7883 2.66139 11.9687 2.78193 12.1206 2.93388C12.2726 3.08583 12.3931 3.26622 12.4753 3.46475C12.5576 3.66329 12.5999 3.87607 12.5999 4.09096C12.5999 4.30585 12.5576 4.51864 12.4753 4.71717C12.3931 4.9157 12.2726 5.0961 12.1206 5.24805C11.9687 5.4 11.7883 5.52053 11.5897 5.60277C11.3912 5.685 11.1784 5.72733 10.9635 5.72733C10.5295 5.72733 10.1133 5.55492 9.80644 5.24805C9.49956 4.94117 9.32716 4.52495 9.32716 4.09096C9.32716 3.65697 9.49956 3.24076 9.80644 2.93388C10.1133 2.627 10.5295 2.4546 10.9635 2.4546ZM14.8908 10.9637C14.1096 10.9637 13.3604 11.274 12.808 11.8264C12.2557 12.3788 11.9453 13.128 11.9453 13.9091C11.9453 14.6903 12.2557 15.4395 12.808 15.9919C13.3604 16.5443 14.1096 16.8546 14.8908 16.8546C15.672 16.8546 16.4212 16.5443 16.9735 15.9919C17.5259 15.4395 17.8362 14.6903 17.8362 13.9091C17.8362 13.128 17.5259 12.3788 16.9735 11.8264C16.4212 11.274 15.672 10.9637 14.8908 10.9637ZM14.8908 12.2728C15.3248 12.2728 15.741 12.4452 16.0479 12.7521C16.3548 13.0589 16.5272 13.4752 16.5272 13.9091C16.5272 14.3431 16.3548 14.7593 16.0479 15.0662C15.741 15.3731 15.3248 15.5455 14.8908 15.5455C14.4568 15.5455 14.0406 15.3731 13.7337 15.0662C13.4268 14.7593 13.2544 14.3431 13.2544 13.9091C13.2544 13.4752 13.4268 13.0589 13.7337 12.7521C14.0406 12.4452 14.4568 12.2728 14.8908 12.2728Z" fill="#73898F"/>
<path d="M8.88321 5.24619C9.00712 5.13138 9.17061 5.06893 9.3395 5.07188C9.50839 5.07483 9.6696 5.14296 9.78942 5.26202C9.90925 5.38108 9.9784 5.54185 9.98243 5.71072C9.98645 5.87959 9.92504 6.04348 9.81103 6.16811L9.77143 6.20837L5.51688 10.1356C5.39298 10.2504 5.22948 10.3129 5.06059 10.3099C4.8917 10.307 4.73049 10.2389 4.61067 10.1198C4.49085 10.0007 4.42169 9.83997 4.41767 9.6711C4.41364 9.50224 4.47505 9.33835 4.58907 9.21371L4.62866 9.17346L8.88321 5.24619ZM5.41968 12.114C5.45974 11.9538 5.55886 11.8147 5.69718 11.7245C5.8355 11.6343 6.0028 11.5997 6.16554 11.6277L6.21332 11.6375L12.7588 13.2739C12.9238 13.3143 13.0666 13.4173 13.157 13.5611C13.2474 13.7049 13.2784 13.8783 13.2434 14.0445C13.2084 14.2107 13.1101 14.3568 12.9694 14.4519C12.8286 14.547 12.6564 14.5837 12.4891 14.5541L12.4413 14.5443L5.89587 12.908C5.81246 12.8871 5.73398 12.85 5.66491 12.7988C5.59583 12.7477 5.53752 12.6834 5.4933 12.6096C5.44908 12.5359 5.41982 12.4542 5.40719 12.3691C5.39456 12.2841 5.3988 12.1974 5.41968 12.114Z" fill="#73898F"/>
<path d="M3.76381 8.67285C2.98263 8.67285 2.23344 8.98318 1.68106 9.53556C1.12868 10.0879 0.818359 10.8371 0.818359 11.6183C0.818359 12.3995 1.12868 13.1487 1.68106 13.7011C2.23344 14.2534 2.98263 14.5638 3.76381 14.5638C4.545 14.5638 5.29418 14.2534 5.84656 13.7011C6.39894 13.1487 6.70927 12.3995 6.70927 11.6183C6.70927 10.8371 6.39894 10.0879 5.84656 9.53556C5.29418 8.98318 4.545 8.67285 3.76381 8.67285ZM3.76381 9.98194C4.1978 9.98194 4.61402 10.1543 4.9209 10.4612C5.22777 10.7681 5.40018 11.1843 5.40018 11.6183C5.40018 12.0523 5.22777 12.4685 4.9209 12.7754C4.61402 13.0823 4.1978 13.2547 3.76381 13.2547C3.32982 13.2547 2.91361 13.0823 2.60673 12.7754C2.29985 12.4685 2.12745 12.0523 2.12745 11.6183C2.12745 11.1843 2.29985 10.7681 2.60673 10.4612C2.91361 10.1543 3.32982 9.98194 3.76381 9.98194Z" fill="#73898F"/>
</svg>
